<?xml version="1.0" encoding="UTF-8"?>
<svg width="15px" height="14px" viewBox="0 0 15 14" version="1.1" xmlns="http://www.w3.org/2000/svg" xmlns:xlink="http://www.w3.org/1999/xlink">
    <!-- Generator: Sketch 48.2 (47327) - http://www.bohemiancoding.com/sketch -->
    <title>Page 1 Copy</title>
    <desc>Created with Sketch.</desc>
    <defs>
        <polygon id="path-1" points="0 13.8461538 15 13.8461538 15 0 0 0"></polygon>
    </defs>
    <g id="buttons/rating/dark" stroke="none" stroke-width="1" fill="none" fill-rule="evenodd" transform="translate(-33.000000, 0.000000)" opacity="0.6">
        <g id="Rating-Copy">
            <g id="Page-1-Copy" transform="translate(40.500000, 6.923077) rotate(-180.000000) translate(-40.500000, -6.923077) translate(33.000000, 0.000000)">
                <mask id="mask-2" fill="white">
                    <use xlink:href="#path-1"></use>
                </mask>
                <g id="Clip-2"></g>
                <path d="M13.4306296,7.527227 L13.3941398,7.68307925 C14.4825875,7.98300576 13.9018064,9.19735823 13.1205112,9.27676205 L13.0808757,9.43261431 C14.1268119,9.68842758 13.6281778,10.9410695 12.8103478,11.0262971 L12.7708472,11.1821494 C13.6251669,11.317401 13.4184513,12.7258951 12.1262988,12.7258951 L6.03317564,12.7288505 C5.58015383,12.7288505 5.16667761,12.2260031 4.83224766,12.2260031 L4.54037417,12.2260031 L4.54037417,7.38019738 C4.90217147,7.15967469 5.34912663,6.87739348 5.59803922,6.67451608 C6.06665459,6.28675427 7.98816632,3.28388195 7.98816632,2.907507 C7.98816632,2.53113205 7.94862072,0.905461734 7.94862072,0.905461734 C7.94862072,0.905461734 8.32250639,0.434993048 9.1647378,0.77898932 C9.1647378,0.77898932 9.8731433,2.06396643 9.94607797,3.08761067 C9.94607797,3.08761067 9.62683713,5.19218117 9.45656636,5.8537927 L13.5704772,5.8537927 C14.6680473,5.85670461 14.458231,7.37137474 13.4306296,7.527227 Z M0.67807223,13.1875411 L3.93577587,13.1875411 L3.93577587,6.8891715 L0.67807223,6.8891715 L0.67807223,13.1875411 Z M14.5342664,7.58011941 C15.3551072,6.79212239 15.1027793,5.19218117 13.6829574,5.19218117 L10.2896753,5.19509308 C10.4325338,4.43134747 10.6392944,3.16040837 10.6301719,3.04314975 C10.5510807,1.90815763 9.80317455,0.525783726 9.77279634,0.470283632 C9.63595958,0.223293005 8.94579898,-0.109359865 8.25262752,0.0350620693 C7.3587172,0.220337636 7.26452677,0.772774353 7.27059342,0.925671243 C7.27059342,0.925671243 7.30708323,2.43703831 7.31350939,2.83983774 C6.88448456,3.7484399 5.40646775,6.14228888 4.95996198,6.32426138 C4.85013306,6.2624594 4.73194564,6.23016765 4.60423133,6.23016765 L0.723999052,6.23016765 C0.322296642,6.23016765 0,6.5418287 0,6.93032936 L0,13.240477 C0.0274122911,13.5816048 0.328408235,13.8461538 0.681083088,13.8461538 L4.0812857,13.8461538 C4.4556657,13.8461538 4.76232385,13.5521815 4.76232385,13.1875411 L4.76232385,12.9787965 C4.76232385,12.9787965 4.92005687,12.9670619 4.99034019,13.0110882 C5.26401372,13.1787185 5.60109502,13.390462 6.0392423,13.390462 L12.022941,13.390462 C14.3882622,13.390462 14.1359343,11.3586023 13.9200513,11.0822318 C14.3183833,10.6616567 14.5646895,9.91781638 14.2271139,9.33260983 C14.4886541,9.06506201 14.9446868,8.33586814 14.5342664,7.58011941 Z" id="Fill-1" fill="#16191C" mask="url(#mask-2)"></path>
            </g>
        </g>
    </g>
</svg>