<?xml version="1.0" encoding="UTF-8"?>
<svg width="36px" height="36px" viewBox="0 0 36 36" version="1.1" xmlns="http://www.w3.org/2000/svg" xmlns:xlink="http://www.w3.org/1999/xlink">
    <!-- Generator: Sketch 48.2 (47327) - http://www.bohemiancoding.com/sketch -->
    <title>buttons/social/twitter</title>
    <desc>Created with Sketch.</desc>
    <defs></defs>
    <g id="Symbols" stroke="none" stroke-width="1" fill="none" fill-rule="evenodd">
        <g id="buttons/social/twitter">
            <rect id="Rectangle-3" fill-opacity="0" fill="#FFFFFF" x="0" y="0" width="36" height="36"></rect>
            <g id="Twitter" transform="translate(3.000000, 2.000000)">
                <g id="Group-3" fill="#17D1FC">
                    <path d="M30.0002903,15.6454781 C30.0002903,23.9292521 23.2848319,30.6454781 14.9997958,30.6454781 C6.71574873,30.6454781 0.000290322581,23.9292521 0.000290322581,15.6454781 C0.000290322581,7.36170414 6.71574873,0.645478125 14.9997958,0.645478125 C23.2848319,0.645478125 30.0002903,7.36170414 30.0002903,15.6454781" id="Fill-1"></path>
                </g>
                <path d="M22,11.419387 C21.4859958,11.6615998 20.9313626,11.8240718 20.3493285,11.897832 C20.942701,11.5230501 21.3981238,10.9289808 21.613552,10.2212808 C21.0589188,10.5691503 20.4438145,10.8213307 19.7890261,10.9568901 C19.2646285,10.3668079 18.5191334,10 17.6933252,10 C16.1059594,10 14.820004,11.3565911 14.820004,13.030152 C14.820004,13.2663843 14.8464601,13.4986295 14.8955929,13.7199103 C12.5079301,13.5923249 10.3904974,12.3872415 8.97415131,10.5541989 C8.72754269,11.0027411 8.58675845,11.5230501 8.58675845,12.0762522 C8.58675845,13.1288313 9.09131403,14.0558186 9.86421003,14.5980563 C9.39366943,14.5831049 8.94958494,14.4465487 8.56124722,14.2202841 L8.56124722,14.2591577 C8.56124722,15.727386 9.55240602,16.9504112 10.8657623,17.2295041 C10.6248228,17.2972838 10.3706553,17.334164 10.1108187,17.334164 C9.92468111,17.334164 9.74515759,17.3162223 9.56941351,17.2813357 C9.93507458,18.4854224 10.9961531,19.3595814 12.2518728,19.3845004 C11.2692178,20.1958634 10.0314504,20.6812858 8.68596882,20.6812858 C8.45258824,20.6812858 8.22393197,20.6673312 8,20.6384251 C9.26989269,21.4976327 10.7807248,22 12.4030506,22 C17.6867112,22 20.576095,17.384002 20.576095,13.380015 C20.576095,13.2494393 20.5713707,13.1178669 20.5666464,12.9892848 C21.1288385,12.5616746 21.6154417,12.0284077 22,11.419387" id="Fill-4" fill="#FFFFFF"></path>
            </g>
        </g>
    </g>
</svg>