<?xml version="1.0" encoding="utf-8"?>
<svg version="1.1" id="Layer_1" xmlns="http://www.w3.org/2000/svg" xmlns:xlink="http://www.w3.org/1999/xlink" width="36px" height="36px"
	 viewBox="0 0 36 36" xml:space="preserve">
<style type="text/css">
	.st0{fill:#FFFFFF;fill-opacity:0;}
	.st1{fill-rule:evenodd;clip-rule:evenodd;fill:url(#SVGID_1_);}
	.st2{fill:#FFFFFF;}
</style>
<title>Instagram</title>
<desc>Created with Sketch.</desc>
<g id="buttons_x2F_social_x2F_instagram" transform="translate(-4.000000, -4.000000)">
	<g id="Instagram">
		<rect id="Rectangle-3" x="4" y="4" class="st0" width="36" height="36"/>
	</g>
</g>
<linearGradient id="SVGID_1_" gradientUnits="userSpaceOnUse" x1="18.0403" y1="4.5522" x2="18.0403" y2="31.2065">
	<stop  offset="0" style="stop-color:#FEC053"/>
	<stop  offset="0.3273" style="stop-color:#F2203E"/>
	<stop  offset="0.6485" style="stop-color:#B729A8"/>
	<stop  offset="1" style="stop-color:#5342D6"/>
</linearGradient>
<path class="st1" d="M10.2,4.1h15.6c3.4,0,6.1,2.8,6.1,6.1v15.6c0,3.4-2.8,6.2-6.1,6.2H10.2c-3.4,0-6.1-2.8-6.1-6.2V10.2
	C4.1,6.9,6.9,4.1,10.2,4.1L10.2,4.1z"/>
<g>
	<g>
		<path class="st2" d="M22.1,27.5h-8.2c-3,0-5.4-2.4-5.4-5.4v-8.2c0-3,2.4-5.4,5.4-5.4h8.2c3,0,5.4,2.4,5.4,5.4v8.2
			C27.5,25.1,25.1,27.5,22.1,27.5z M13.9,10.2c-2.1,0-3.8,1.7-3.8,3.8v8.2c0,2.1,1.7,3.8,3.8,3.8h8.2c2.1,0,3.8-1.7,3.8-3.8v-8.2
			c0-2.1-1.7-3.8-3.8-3.8H13.9z"/>
	</g>
	<g>
		<path class="st2" d="M18,22.9c-2.7,0-4.9-2.2-4.9-4.9c0-2.7,2.2-4.9,4.9-4.9c2.7,0,4.9,2.2,4.9,4.9C22.9,20.7,20.7,22.9,18,22.9z
			 M18,14.8c-1.8,0-3.2,1.5-3.2,3.2c0,1.8,1.5,3.2,3.2,3.2c1.8,0,3.2-1.5,3.2-3.2C21.3,16.3,19.8,14.8,18,14.8z"/>
	</g>
	<g>
		<circle class="st2" cx="23.1" cy="12.9" r="1.2"/>
	</g>
</g>
</svg>
