<?xml version="1.0" encoding="utf-8"?>
<!-- Generator: Adobe Illustrator 21.0.0, SVG Export Plug-In . SVG Version: 6.00 Build 0)  -->
<svg version="1.1" id="Layer_2" xmlns="http://www.w3.org/2000/svg" xmlns:xlink="http://www.w3.org/1999/xlink" x="0px" y="0px"
	 viewBox="0 0 138 31" style="enable-background:new 0 0 138 31;" xml:space="preserve">
<style type="text/css">
	.st0{fill:#FFFFFF;}
	.st1{fill:none;stroke:#FFFFFF;stroke-miterlimit:10;}
</style>
<g>
	<g>
		<polygon class="st0" points="18.267,4.435 16.084,0.07 0,30.93 4.449,30.93 		"/>
		<polygon class="st0" points="31.898,30.93 20.551,9.095 18.33,13.388 22.85,22.082 14.7,22.081 12.373,26.531 25.162,26.531 
			27.449,30.93 		"/>
	</g>
	<g>
		<path class="st0" d="M67.042,19.073h-3.698l-0.575,1.942h-2.362l3.076-11.031h3.434l3.076,11.031h-2.377L67.042,19.073z
			 M65.193,12.501l-1.227,4.397h2.455L65.193,12.501z"/>
		<path class="st0" d="M71.887,17.722V9.984h2.408v7.629c0,0.886,0.684,1.46,1.958,1.46s1.942-0.575,1.942-1.46V9.984h2.408v7.737
			c0,2.128-1.631,3.527-4.335,3.527C73.549,21.249,71.887,19.85,71.887,17.722z"/>
		<path class="st0" d="M91.316,12.16H88.38v8.856h-2.408V12.16h-2.967V9.984h8.312L91.316,12.16L91.316,12.16z"/>
		<path class="st0" d="M93.621,17.722v-4.444c0-2.128,1.678-3.527,4.506-3.527c2.828,0,4.506,1.398,4.506,3.527v4.444
			c0,2.128-1.662,3.527-4.49,3.527S93.621,19.85,93.621,17.722z M100.225,17.613v-4.226c0-0.885-0.637-1.46-2.082-1.46
			c-1.46,0-2.113,0.575-2.113,1.46v4.226c0,0.886,0.653,1.46,2.098,1.46C99.588,19.073,100.225,18.499,100.225,17.613z"/>
		<path class="st0" d="M112.892,18.84v2.175h-7.225V9.984h2.408v8.856H112.892z"/>
		<path class="st0" d="M115.477,9.984h2.408v11.031h-2.408V9.984z"/>
		<path class="st0" d="M123.846,12.16v2.796h4.241v2.175h-4.241v3.884h-2.408V9.984h7.116v2.175L123.846,12.16L123.846,12.16z"/>
		<path class="st0" d="M133.292,12.16v2.408h4.086v2.175h-4.086v2.097H138v2.175h-7.116V9.984H138v2.175L133.292,12.16
			L133.292,12.16z"/>
	</g>
	<line class="st1" x1="45.3" y1="0" x2="45.3" y2="31"/>
</g>
</svg>
