<?xml version="1.0" encoding="utf-8"?>
<!-- Generator: Adobe Illustrator 21.0.0, SVG Export Plug-In . SVG Version: 6.00 Build 0)  -->
<svg version="1.1" id="Layer_1" xmlns="http://www.w3.org/2000/svg" xmlns:xlink="http://www.w3.org/1999/xlink" x="0px" y="0px"
	 viewBox="0 0 203.637 230.793" style="enable-background:new 0 0 203.637 230.793;" xml:space="preserve">
<style type="text/css">
	.st0{fill:#222944;}
	.st1{fill:#F42534;}
</style>
<polygon class="st0" points="116.627,25.259 103.997,0 10.921,178.579 36.666,178.579 "/>
<polygon class="st1" points="195.505,178.579 129.845,52.225 116.994,77.07 143.145,127.378 95.984,127.373 82.522,153.123 
	156.528,153.123 169.761,178.579 "/>
<g>
	<path class="st1" d="M17.411,225.085H7.707l-1.509,5.097H0l8.074-28.951h9.011l8.074,28.951H18.92L17.411,225.085z M12.559,207.837
		l-3.221,11.539h6.443L12.559,207.837z"/>
	<path class="st1" d="M30.126,221.537v-20.306h6.32v20.021c0,2.324,1.794,3.833,5.138,3.833c3.344,0,5.097-1.509,5.097-3.833
		v-20.021h6.32v20.306c0,5.586-4.281,9.256-11.376,9.256C34.489,230.793,30.126,227.123,30.126,221.537z"/>
	<path class="st1" d="M81.118,206.94h-7.706v23.242h-6.32V206.94h-7.788v-5.709h21.814V206.94z"/>
	<path class="st1" d="M87.168,221.537v-11.662c0-5.586,4.404-9.256,11.825-9.256c7.421,0,11.825,3.67,11.825,9.256v11.662
		c0,5.586-4.363,9.256-11.784,9.256S87.168,227.123,87.168,221.537z M104.497,221.252v-11.091c0-2.324-1.672-3.833-5.464-3.833
		c-3.833,0-5.546,1.509-5.546,3.833v11.091c0,2.324,1.713,3.833,5.505,3.833C102.825,225.085,104.497,223.576,104.497,221.252z"/>
	<path class="st0" d="M137.743,224.473v5.708h-18.96v-28.951h6.32v23.242H137.743z"/>
	<path class="st0" d="M144.526,201.231h6.32v28.951h-6.32V201.231z"/>
	<path class="st0" d="M166.489,206.94v7.339h11.132v5.709h-11.132v10.194h-6.32v-28.951h18.675v5.709H166.489z"/>
	<path class="st0" d="M191.282,206.94v6.32h10.724v5.708h-10.724v5.505h12.355v5.708h-18.675v-28.951h18.675v5.709H191.282z"/>
</g>
</svg>
