<?xml version="1.0" encoding="utf-8"?>
<!-- Generator: Adobe Illustrator 21.0.0, SVG Export Plug-In . SVG Version: 6.00 Build 0)  -->
<svg version="1.1" id="Layer_1" xmlns="http://www.w3.org/2000/svg" xmlns:xlink="http://www.w3.org/1999/xlink" x="0px" y="0px"
	 viewBox="0 0 203.6 230.8" style="enable-background:new 0 0 203.6 230.8;" xml:space="preserve">
<style type="text/css">
	.st0{fill:#F42534;}
	.st1{fill:#222944;}
</style>
<g id="Text">
	<path class="st0" d="M17.4,225.1H7.7l-1.5,5.1H0l8.1-29h9l8.1,29h-6.2L17.4,225.1z M12.6,207.8l-3.2,11.5h6.4L12.6,207.8z"/>
	<path class="st0" d="M30.1,221.5v-20.3h6.3v20c0,2.3,1.8,3.8,5.1,3.8c3.3,0,5.1-1.5,5.1-3.8v-20H53v20.3c0,5.6-4.3,9.3-11.4,9.3
		C34.5,230.8,30.1,227.1,30.1,221.5z"/>
	<path class="st0" d="M81.1,206.9h-7.7v23.2h-6.3v-23.2h-7.8v-5.7h21.8V206.9z"/>
	<path class="st0" d="M87.2,221.5v-11.7c0-5.6,4.4-9.3,11.8-9.3c7.4,0,11.8,3.7,11.8,9.3v11.7c0,5.6-4.4,9.3-11.8,9.3
		S87.2,227.1,87.2,221.5z M104.5,221.3v-11.1c0-2.3-1.7-3.8-5.5-3.8c-3.8,0-5.5,1.5-5.5,3.8v11.1c0,2.3,1.7,3.8,5.5,3.8
		C102.8,225.1,104.5,223.6,104.5,221.3z"/>
	<path class="st1" d="M137.7,224.5v5.7h-19v-29h6.3v23.2H137.7z"/>
	<path class="st1" d="M144.5,201.2h6.3v29h-6.3V201.2z"/>
	<path class="st1" d="M166.5,206.9v7.3h11.1v5.7h-11.1v10.2h-6.3v-29h18.7v5.7H166.5z"/>
	<path class="st1" d="M191.3,206.9v6.3H202v5.7h-10.7v5.5h12.4v5.7H185v-29h18.7v5.7H191.3z"/>
</g>
</svg>
