<?xml version="1.0" encoding="utf-8"?>
<!-- Generator: Adobe Illustrator 22.0.1, SVG Export Plug-In . SVG Version: 6.00 Build 0)  -->
<svg version="1.1" id="Layer_1" xmlns="http://www.w3.org/2000/svg" xmlns:xlink="http://www.w3.org/1999/xlink" x="0px" y="0px" width="29" height="24" 
	 viewBox="0 0 29 24" style="enable-background:new 0 0 29 24;" xml:space="preserve">
<style type="text/css">
	.st0{fill:#232C3A;}
</style>
<title>Icon/note_dollar</title>
<desc>Created with Sketch.</desc>
<g>
	<path class="st0" d="M12.1,16.5c0-0.3-0.2-0.5-0.5-0.5s-0.5,0.2-0.5,0.5c0,1.3,1.2,2.3,2.7,2.5v0.9c0,0.3,0.2,0.5,0.5,0.5
		s0.5-0.2,0.5-0.5V19c1.5-0.2,2.7-1.2,2.7-2.5c0-1.3-1.2-2.3-2.7-2.5v-3.1c1,0.2,1.7,0.8,1.7,1.5c0,0.3,0.2,0.5,0.5,0.5
		s0.5-0.2,0.5-0.5c0-1.3-1.2-2.3-2.7-2.5V9c0-0.3-0.2-0.5-0.5-0.5S13.8,8.7,13.8,9v0.9c-1.5,0.2-2.7,1.2-2.7,2.5
		c0,1.3,1.2,2.3,2.7,2.5V18C12.8,17.8,12.1,17.2,12.1,16.5z M16.5,16.5c0,0.7-0.8,1.3-1.7,1.5v-3C15.8,15.1,16.5,15.7,16.5,16.5z
		 M12.1,12.4c0-0.7,0.8-1.3,1.7-1.5v3C12.8,13.7,12.1,13.1,12.1,12.4z"/>
	<path class="st0" d="M28,5.7H0.7C0.4,5.7,0.2,6,0.2,6.2v16.4c0,0.3,0.2,0.5,0.5,0.5H28c0.3,0,0.5-0.2,0.5-0.5V6.2
		C28.5,6,28.2,5.7,28,5.7z M27.5,22.1H1.2V6.7h26.3V22.1z"/>
	<path class="st0" d="M3.4,4h21.8c0.3,0,0.5-0.2,0.5-0.5S25.5,3,25.2,3H3.4C3.1,3,2.9,3.2,2.9,3.5S3.1,4,3.4,4z"/>
	<path class="st0" d="M6.1,1.3h16.4C22.8,1.3,23,1,23,0.8s-0.2-0.5-0.5-0.5H6.1c-0.3,0-0.5,0.2-0.5,0.5S5.9,1.3,6.1,1.3z"/>
	<path class="st0" d="M3.4,19c0.4,0,0.9,0.5,0.9,0.9c0,0.3,0.2,0.5,0.5,0.5h1.4c0.3,0,0.5-0.2,0.5-0.5s-0.2-0.5-0.5-0.5H5.2
		c-0.2-0.6-0.7-1.1-1.3-1.3v-0.9c0-0.3-0.2-0.5-0.5-0.5s-0.5,0.2-0.5,0.5v1.4C2.9,18.8,3.1,19,3.4,19z"/>
	<path class="st0" d="M22.5,20.4h1.4c0.3,0,0.5-0.2,0.5-0.5c0-0.4,0.5-0.9,0.9-0.9c0.3,0,0.5-0.2,0.5-0.5v-1.4
		c0-0.3-0.2-0.5-0.5-0.5s-0.5,0.2-0.5,0.5v0.9c-0.6,0.2-1.1,0.7-1.3,1.3h-0.9c-0.3,0-0.5,0.2-0.5,0.5S22.2,20.4,22.5,20.4z"/>
	<path class="st0" d="M3.4,12.2c0.3,0,0.5-0.2,0.5-0.5v-0.9C4.5,10.5,5,10,5.2,9.5h0.9c0.3,0,0.5-0.2,0.5-0.5S6.4,8.5,6.1,8.5H4.8
		C4.5,8.5,4.3,8.7,4.3,9c0,0.4-0.5,0.9-0.9,0.9c-0.3,0-0.5,0.2-0.5,0.5v1.4C2.9,12,3.1,12.2,3.4,12.2z"/>
	<path class="st0" d="M22.5,9.5h0.9c0.2,0.6,0.7,1.1,1.3,1.3v0.9c0,0.3,0.2,0.5,0.5,0.5s0.5-0.2,0.5-0.5v-1.4c0-0.3-0.2-0.5-0.5-0.5
		c-0.4,0-0.9-0.5-0.9-0.9c0-0.3-0.2-0.5-0.5-0.5h-1.4C22.2,8.5,22,8.7,22,9S22.2,9.5,22.5,9.5z"/>
</g>
</svg>
