<?xml version="1.0" encoding="utf-8"?>
<!-- Generator: Adobe Illustrator 19.2.1, SVG Export Plug-In . SVG Version: 6.00 Build 0)  -->
<svg version="1.1" id="Layer_1" xmlns="http://www.w3.org/2000/svg" xmlns:xlink="http://www.w3.org/1999/xlink" x="0px" y="0px"
	 viewBox="0 0 536.9 344.3" style="enable-background:new 0 0 536.9 344.3;" xml:space="preserve">
<style type="text/css">
	.st0{fill:#D3D5D8;}
	.st1{fill:#FFFFFF;}
	.st2{fill:none;stroke:#FFFFFF;stroke-width:2;stroke-linecap:round;stroke-linejoin:round;stroke-miterlimit:10;}
</style>
<g>
	<g>
		
			<ellipse transform="matrix(6.230569e-02 -0.9981 0.9981 6.230569e-02 220.491 638.3654)" class="st0" cx="450" cy="201.8" rx="28.4" ry="11.5"/>
	</g>
	<g>
		<path class="st0" d="M416.8,219.8c0,0,1.4,17.4,17.3,17.4s20.2-1.6,23.9-12.8c3.7-11.2,8.2-34.9,1.2-47.7
			c-7-12.8-13.6-10.4-13.6-10.4"/>
	</g>
	<g>
		<path class="st0" d="M455.5,176.1c0,0-2.6,10.8-2.3,19.8c0,0,4-6.3,6-11.7"/>
	</g>
	<g>
		<path class="st0" d="M446.1,177.8c0,0,2.1,11.5,1.9,16.4c-0.2,4.9-7.7-1.8-7.7-3.6"/>
	</g>
	<g>
		
			<ellipse transform="matrix(6.230569e-02 -0.9981 0.9981 6.230569e-02 219.9055 638.8905)" class="st0" cx="450" cy="202.4" rx="2.7" ry="1.9"/>
	</g>
	<g>
		<path class="st0" d="M458.6,215c0,0-1-2.8-2.3-8.8c0,0-1.1-3.8,3.6-5.7"/>
	</g>
	<g>
		<path class="st0" d="M447.9,228.6c0,0,0.1-9.1,2.1-17.6c0,0,3.8,3.3,4.5,14.6"/>
	</g>
	<g>
		<path class="st1" d="M448.5,231.2c-0.1,0-0.2,0-0.4,0c-3.5-0.2-6.5-3.6-8.5-9.5c-1.9-5.6-2.6-12.9-2.1-20.6s2.1-14.9,4.7-20.2
			c2.7-5.6,6.1-8.6,9.6-8.4c3.5,0.2,6.5,3.6,8.5,9.5c1.9,5.6,2.6,12.9,2.1,20.6l0,0c-0.5,7.7-2.1,14.9-4.7,20.2
			C455.1,228.2,451.9,231.2,448.5,231.2z M451.5,174.5c-2.5,0-5.2,2.6-7.4,7.2c-2.4,5.1-4,12-4.5,19.5c-0.5,7.4,0.3,14.5,2,19.9
			c1.7,5,4.1,8,6.7,8.1c2.6,0.2,5.4-2.5,7.6-7.2c2.4-5.1,4-12,4.5-19.5l1,0.1l-1-0.1c0.5-7.4-0.3-14.5-2-19.9c-1.7-5-4.1-8-6.7-8.1
			C451.6,174.5,451.5,174.5,451.5,174.5z"/>
	</g>
	<g>
		<path class="st1" d="M434.2,238.1c0,0-0.1,0-0.1,0c-16.7,0-18.3-18.1-18.3-18.3c0-0.6,0.4-1,0.9-1.1c0.6,0,1,0.4,1.1,0.9
			c0,0,0.4,4.2,2.6,8.3c2.9,5.4,7.5,8.1,13.7,8.1c0,0,0.1,0,0.1,0c16,0,19.4-1.8,22.8-12.1c8-24.4,4.4-41.4,1.3-46.9
			c-6.4-11.8-12.3-10-12.4-9.9c-0.5,0.2-1.1-0.1-1.3-0.6c-0.2-0.5,0.1-1.1,0.6-1.3c0.3-0.1,7.5-2.5,14.8,10.9
			c7.3,13.3,2.4,37.6-1.2,48.5C455.1,236.4,450.2,238.1,434.2,238.1z"/>
	</g>
	<g>
		<path class="st1" d="M453.2,196.9c-0.1,0-0.2,0-0.3,0c-0.4-0.1-0.7-0.5-0.7-0.9c-0.2-9,2.2-19.6,2.3-20c0.1-0.5,0.7-0.9,1.2-0.7
			c0.5,0.1,0.9,0.7,0.7,1.2c0,0.1-1.9,8-2.2,15.8c1.3-2.3,2.9-5.4,4-8.4c0.2-0.5,0.8-0.8,1.3-0.6c0.5,0.2,0.8,0.8,0.6,1.3
			c-2,5.5-5.9,11.7-6.1,11.9C453.8,196.7,453.5,196.9,453.2,196.9z"/>
	</g>
	<g>
		<path class="st1" d="M446.5,197C446.5,197,446.5,197,446.5,197c-2.8-0.1-7.3-4.4-7.3-6.3c0-0.6,0.4-1,1-1s1,0.4,1,1
			c0.2,0.9,3.8,4.4,5.4,4.3c0.1,0,0.3,0,0.3-0.8c0.2-4.7-1.8-16.1-1.8-16.2c-0.1-0.5,0.3-1.1,0.8-1.2c0.5-0.1,1.1,0.3,1.2,0.8
			c0.1,0.5,2.1,11.7,1.9,16.6C448.8,196.7,447.1,197,446.5,197z"/>
	</g>
	<g>
		<path class="st1" d="M449.9,206.1c-0.1,0-0.1,0-0.2,0c-1.6-0.1-2.8-1.8-2.7-3.9c0.1-0.9,0.4-1.8,0.9-2.4c0.6-0.7,1.4-1.1,2.2-1.1
			c0.8,0.1,1.6,0.5,2.1,1.3c0.4,0.7,0.7,1.6,0.6,2.5C452.8,204.6,451.5,206.1,449.9,206.1z M450,200.7c-0.2,0-0.5,0.2-0.5,0.3
			c-0.3,0.3-0.4,0.8-0.5,1.3c-0.1,0.9,0.4,1.7,0.8,1.7c0.4,0,1-0.7,1-1.6v0c0-0.5-0.1-1-0.3-1.3C450.5,201,450.3,200.7,450,200.7
			C450.1,200.7,450.1,200.7,450,200.7z"/>
	</g>
	<g>
		<path class="st1" d="M442,220.6c-0.2,0-0.3,0-0.5-0.1c-0.5-0.3-0.7-0.9-0.4-1.4c2.2-4.1,2.3-10.7,2.3-12.3c-1.7-1.7-4-1.4-4.1-1.4
			c-0.5,0.1-1-0.3-1.1-0.9c-0.1-0.5,0.3-1,0.9-1.1c0.1,0,3.6-0.4,6,2.3c0.2,0.2,0.2,0.4,0.3,0.6c0,0.3,0.2,8.5-2.6,13.7
			C442.7,220.4,442.3,220.6,442,220.6z"/>
	</g>
	<g>
		<path class="st1" d="M458.6,216c-0.4,0-0.8-0.3-0.9-0.7c0-0.1-1-3-2.3-8.9c-0.5-1.6-0.2-5.1,4.2-6.8c0.5-0.2,1.1,0.1,1.3,0.6
			c0.2,0.5-0.1,1.1-0.6,1.3c-3.8,1.5-3,4.3-3,4.5c1.3,5.9,2.2,8.7,2.2,8.8c0.2,0.5-0.1,1.1-0.6,1.3C458.8,216,458.7,216,458.6,216z"
			/>
	</g>
	<g>
		<path class="st1" d="M447.9,229.6C447.9,229.6,447.9,229.6,447.9,229.6c-0.6,0-1-0.5-1-1c0-0.1,0.2-9.3,2.1-17.8
			c0.1-0.3,0.3-0.6,0.7-0.7c0.3-0.1,0.7,0,1,0.2c0.2,0.1,4.1,3.7,4.8,15.3c0,0.6-0.4,1-0.9,1.1c-0.5,0-1-0.4-1.1-0.9
			c-0.4-6.6-1.9-10.3-3-12.3c-1.4,7.6-1.6,15.1-1.6,15.2C448.9,229.2,448.5,229.6,447.9,229.6z"/>
	</g>
</g>
<g>
	<g>
		<path class="st0" d="M252.7,264.5c0,0,2.9,15.8,21.7,18.1c17.4,2.1,30.6,2.1,40.2-22.7c9.6-24.8,4.6-55-9.2-64.8
			c0,0-7.6-5.4-21.4-3.1l-21.1,8.5"/>
	</g>
	<g>
		
			<ellipse transform="matrix(6.230569e-02 -0.9981 0.9981 6.230569e-02 40.8079 521.7148)" class="st0" cx="298.1" cy="239.1" rx="36.6" ry="18.7"/>
	</g>
	<g>
		<path class="st0" d="M295.5,281.4"/>
	</g>
	<g>
		<ellipse class="st0" cx="296.9" cy="238.4" rx="1.9" ry="3.3"/>
	</g>
	<g>
		<path class="st0" d="M317,238.9c0,0-9.1-2.9-12.2,3.2c0,0,0.5,9.8,8,13.1"/>
	</g>
	<g>
		<path class="st0" d="M291.1,208c0,0,3.5,13.8,1.3,23.3c0,0-4.5,2.9-10-9.8"/>
	</g>
	<g>
		<path class="st0" d="M305.1,207.9c0,0-5,10.6-2.6,22.7c0,0,8.5-4,11.3-13.8"/>
	</g>
	<g>
		<path class="st0" d="M280.3,243.7c0,0,2.9-2.6,9.7-0.9c0,0-0.6,13.3-6.9,17.3"/>
	</g>
	<g>
		<path class="st0" d="M293,273.4c0,0,0.1-15.9,5.1-23.2c0,0,5,10,5,21.7"/>
	</g>
	<g>
		<path class="st1" d="M285.5,284.3c-3.5,0-7.2-0.3-11.1-0.8c-10.1-1.2-15.7-6.2-18.6-10.3c-3.2-4.4-3.9-8.4-4-8.6
			c-0.1-0.5,0.3-1.1,0.8-1.2c0.5-0.1,1.1,0.3,1.2,0.8c0.1,0.6,3,15.1,20.9,17.2c17.7,2.1,30,1.7,39.2-22.1
			c9.1-23.5,4.9-53.8-8.9-63.6c-0.1,0-7.5-5.1-20.6-3c-0.5,0.1-1.1-0.3-1.1-0.8c-0.1-0.5,0.3-1.1,0.8-1.1c14-2.3,21.8,3.1,22.1,3.3
			c14.7,10.4,19.1,41.3,9.6,66C308.1,279.8,298.1,284.3,285.5,284.3z"/>
	</g>
	<g>
		<path class="st1" d="M296.4,276.7c-0.2,0-0.5,0-0.7,0c-5.4-0.3-10.1-4.6-13.4-12.1c-3.2-7.3-4.6-16.7-3.9-26.6
			c1.3-20.7,11.1-37,22-36.3c10.8,0.7,18.6,18.1,17.3,38.7c-0.6,9.9-3.2,19.1-7.2,25.9C306.5,273,301.5,276.7,296.4,276.7z
			 M299.7,203.6c-9.5,0-18.1,15.2-19.3,34.4c-0.6,9.6,0.7,18.7,3.8,25.7c2.9,6.8,7.1,10.6,11.7,10.9c4.6,0.3,9.2-3,12.9-9.4
			c3.9-6.5,6.3-15.4,6.9-25l1,0.1l-1-0.1c1.2-19.6-5.7-36-15.5-36.6C300.1,203.6,299.9,203.6,299.7,203.6z"/>
	</g>
	<g>
		<path class="st2" d="M295.5,281.4"/>
	</g>
	<g>
		<path class="st1" d="M296.9,242.7c-1.6,0-2.9-1.8-2.9-4.3s1.2-4.3,2.9-4.3s2.9,1.8,2.9,4.3S298.6,242.7,296.9,242.7z M296.9,236.2
			c-0.2,0-0.9,0.8-0.9,2.3c0,1.5,0.6,2.3,0.9,2.3s0.9-0.8,0.9-2.3C297.8,237,297.2,236.2,296.9,236.2z"/>
	</g>
	<g>
		<path class="st1" d="M312.8,256.2c-0.1,0-0.3,0-0.4-0.1c-8-3.5-8.6-13.5-8.6-14c0-0.2,0-0.3,0.1-0.5c3.4-6.8,13-3.8,13.4-3.7
			c0.5,0.2,0.8,0.7,0.7,1.3c-0.2,0.5-0.7,0.8-1.3,0.7c-0.1,0-8.1-2.5-10.9,2.4c0.1,1.5,1.2,9.3,7.4,12c0.5,0.2,0.7,0.8,0.5,1.3
			C313.6,255.9,313.2,256.2,312.8,256.2z"/>
	</g>
	<g>
		<path class="st1" d="M291.1,232.7c-0.4,0-0.8-0.1-1.3-0.2c-2.9-0.9-5.7-4.4-8.3-10.5c-0.2-0.5,0-1.1,0.5-1.3
			c0.5-0.2,1.1,0,1.3,0.5c3.1,7.1,5.7,8.9,7,9.3c0.5,0.2,0.9,0.2,1.2,0.1c1.9-9.2-1.4-22.2-1.4-22.3c-0.1-0.5,0.2-1.1,0.7-1.2
			c0.5-0.1,1.1,0.2,1.2,0.7c0.1,0.6,3.5,14.1,1.3,23.8c-0.1,0.3-0.2,0.5-0.4,0.6C292.8,232.3,292.2,232.7,291.1,232.7z M292.3,231.4
			L292.3,231.4L292.3,231.4z"/>
	</g>
	<g>
		<path class="st1" d="M302.5,231.6c-0.2,0-0.3,0-0.5-0.1c-0.3-0.1-0.5-0.4-0.5-0.7c-2.4-12.2,2.5-22.9,2.7-23.3
			c0.2-0.5,0.8-0.7,1.3-0.5c0.5,0.2,0.7,0.8,0.5,1.3c0,0.1-4.4,9.7-2.8,20.7c2.3-1.5,7.6-5.4,9.6-12.5c0.1-0.5,0.7-0.8,1.2-0.7
			c0.5,0.1,0.8,0.7,0.7,1.2c-2.8,10.1-11.4,14.2-11.8,14.4C302.8,231.5,302.6,231.6,302.5,231.6z"/>
	</g>
	<g>
		<path class="st1" d="M283.1,261.1c-0.3,0-0.7-0.2-0.8-0.5c-0.3-0.5-0.2-1.1,0.3-1.4c4.9-3.1,6.1-12.7,6.4-15.7
			c-5.6-1.1-8,0.9-8,0.9c-0.4,0.4-1,0.3-1.4-0.1c-0.4-0.4-0.3-1,0.1-1.4c0.1-0.1,3.3-2.9,10.6-1.1c0.5,0.1,0.8,0.5,0.8,1
			c0,0.6-0.7,13.9-7.4,18.1C283.5,261,283.3,261.1,283.1,261.1z"/>
	</g>
	<g>
		<path class="st1" d="M293,274.4C293,274.4,293,274.4,293,274.4c-0.6,0-1-0.5-1-1c0-0.7,0.2-16.3,5.3-23.7c0.2-0.3,0.5-0.5,0.9-0.4
			c0.4,0,0.7,0.2,0.8,0.6c0.2,0.4,5.1,10.4,5.1,22.2c0,0.6-0.4,1-1,1s-1-0.4-1-1c0-8.5-2.7-16.2-4.1-19.5c-3.8,7.5-4,20.8-4,21
			C294,274,293.5,274.4,293,274.4z"/>
	</g>
</g>
<g>
	<path class="st0" d="M459,205.5c-0.7,3.4,4.7-8.4,5.6-12.7c0.9-4.3,6.3-24,2.3-35.1c-4-11.1-2-17.9-2-20.1c0-2.2-1.5-9.1-6.8-10.3
		c-5.3-1.2-16.8-8.1-16.8-8.1c-19.4-8.9-32-24.8-60.6-28.3c-39.7-4.9-70.3-4.4-111.3-2.3c-41,2.1-51.4,10.2-59.8,15.1
		c-8.4,4.9-52.8,35.4-52.8,35.4c-34.4,6.3-49.1,14-49.1,14s-9.5,1.4-17.2,5.3c-7.7,3.9-17.9,12.6-23.7,16.1c-5.8,3.5-3.3,13-3.3,13
		s0,0-2.1,4.6c-2.1,4.6,0.4,23.5-1.1,28.8c-1.4,5.3,1.1,17.2,1.1,17.2c-10.2,12.6,13.3,17.9,13.3,17.9l95.8,9.5c0,0,55.7,8,93.1-1.4
		c0,0-3.2-74.3,34.7-77.1c0,0,28.7-5.7,21.3,61l110.2-28.4c0,0,5.3-57.2,21.8-57.5C451.5,161.9,467.9,162.8,459,205.5z"/>
</g>
<g>
	<path class="st0" d="M195.6,204c0,0,8.4-8.1,19.3-11.6c10.9-3.5,46-10.2,46-10.2s13.7-2.8,7.7,6c-6,8.8-13.3,16.5-29.5,18.9
		S195.6,211,195.6,204z"/>
</g>
<g>
	<path class="st0" d="M75.1,188.4c0,0,0.5,18,8.4,23.2c8,5.1,18.2,11.5,40.5,10.8c22.2-0.7,34.8-0.7,42.8-13.3
		c8-12.6,9.4-13.8-7-16.4s-81.2-5.3-81.2-5.3S75,186.7,75.1,188.4z"/>
</g>
<g>
	<circle class="st0" cx="113.8" cy="204.7" r="9.6"/>
</g>
<g>
	<path class="st0" d="M75.5,193.7c0,0-1.6-3.7-1.4-6.9s-4.5-9.6-9.9-9.7C61.5,177,59.9,194.2,75.5,193.7z"/>
</g>
<g>
	<path class="st0" d="M59.9,226.1c0,0,8.8-2.3,8.8,1.7c0,4-1.4,13.5-3.3,13.2c-1.9-0.4-4.4-4.3-4.7-6.8"/>
</g>
<g>
	<path class="st0" d="M77.2,240.7c0,0-3.6-12.6,8-12.4s74.4,6,74.4,6s13.8,1.5,29.8,16.1c0,0,2.6,2.5-3,3.4
		c-5.5,1-42.6,0.6-80.9-3.6S77.2,240.7,77.2,240.7z"/>
</g>
<g>
	<path class="st0" d="M76.9,236.1c0,0,4.3,5.9,107.3,9.8"/>
</g>
<g>
	<ellipse class="st0" cx="229.1" cy="197.6" rx="3.6" ry="4.9"/>
</g>
<g>
	<path class="st0" d="M217.1,194c0,0,1.8,11.5,12,11.2s13.3-11.9,13.8-16.9"/>
</g>
<g>
	<path class="st0" d="M158,138.2l137.9,6.4c0,0,15.8,3.7,20.9-5.1c5.1-8.8,19.1-34,19.1-34s2.8-3.2-0.9-3.7
		c-3.7-0.5-55.4-7.4-118.5-2.3"/>
</g>
<g>
	<path class="st0" d="M340.3,150.5l2.4-2.5c0,0-1-7.7-0.9-9.1c0.1-1.5,3-7,6.9-10.7c3.9-3.7,27.3,3.1,27.3,3.1s2.2,0.6,0.5,4.8
		c-1.8,4.2-1.6,7.4-6.1,9c-4.5,1.6-16.7,3-16.7,3l-6.3,10.2C347.3,158.2,340.1,157.1,340.3,150.5z"/>
</g>
<g>
	<path class="st0" d="M343.4,147c0,0-8.6,1.4-15.4,1.5c0,0,13.2-39.7,29.1-46.3c0,0,4.2-3.1,12.1-4.1c0,0,9.9,29.8,9.4,40.7
		c0,0-0.1,0.3-2.9,0.9"/>
</g>
<g>
	<path class="st0" d="M385.1,139.7c0,0,5.7,3.3,7,8.8c1.2,5.5,3,23.6,0,51.3c0,0-0.7,23-0.4,28.6"/>
</g>
<g>
	<path class="st0" d="M388.8,138.2c0,0-4.3-25.2-12-41c0,0,14.8-1.6,30.5,7.3l7.5,27.5L388.8,138.2z"/>
</g>
<g>
	<path class="st0" d="M353.8,103.7c10.6-6.1,43.1-16,76.3,13.4c0,0,2.6,2.6,0.9,5.8c-1.8,3.2-2.4,5.2-7.3,6.4
		c-4.9,1.2-48.9,13-48.9,13"/>
</g>
<g>
	<path class="st0" d="M325.6,146.9"/>
</g>
<g>
	<line class="st0" x1="416.3" y1="106.1" x2="421.9" y2="127.5"/>
</g>
<g>
	<path class="st0" d="M330.6,245"/>
</g>
<g>
	<path class="st0" d="M327.4,149c0,0-2.7,4.6-1.8,6.6c0.9,1.9,4.9,7.4,5.4,12.1c0.5,4.7-1.6,68.6-0.4,77.3"/>
</g>
<g>
	<path class="st0" d="M453.8,139.9c1.8,4.5,0.8,8.7-1.1,9.4c-1.9,0.7-3.9-2.3-5.7-6.8s-1.7-8.7,0.2-9.4S452,135.4,453.8,139.9z"/>
</g>
<g>
	<path class="st0" d="M427.3,128.1c0,0,6.9,2.9,7.5,4.2c0.6,1.3,6.7,26.1,4.3,43.3"/>
</g>
<g>
	<path class="st0" d="M460.8,129.3c0,0-1.9,1.3-2.7,1.4s-2.1,2.3,0.8,4.7c2.9,2.4,4.6,6.6,5.6,7.1"/>
</g>
<g>
	<path class="st0" d="M372.2,165.8c0,0,9.9-4.9,11.8-5.1c1.9-0.2,2.3,4.6,0.7,5.1C383.1,166.3,372.3,169.4,372.2,165.8z"/>
</g>
<g>
	<path class="st0" d="M380.9,161.7c0,0-0.6-2.6-3-3.1c-2.4-0.5-6.3,2.6-6,7.1s3.9,5.6,5.6,5.4c1.7-0.2,3.2-1.4,3.8-4.4"/>
</g>
<g>
	<g>
		<g>
			<path class="st0" d="M421.1,151.6c0,0,8.7-4.3,10.4-4.5c1.6-0.2,2.1,4,0.6,4.5C430.7,152.1,421.2,154.8,421.1,151.6z"/>
		</g>
	</g>
	<g>
		<path class="st0" d="M428.7,148.1c0,0-0.5-2.3-2.6-2.7s-5.6,2.3-5.3,6.2c0.3,3.9,3.4,5,4.9,4.7c1.5-0.2,2.8-1.2,3.3-3.8"/>
	</g>
</g>
<g>
	<path class="st0" d="M157.3,134.7c0,0-2.3-3.9,1.8-6.4c4.1-2.6,9-2.8,12-2.4"/>
</g>
<g>
	<path class="st0" d="M89,257.3c0,0,2.4,12.6,23.3,12.6c16.5,0,23.5-6.7,23.5-6.7"/>
</g>
<g>
	<path class="st0" d="M191.7,238.1l37.8,0.3c0,0,7.1,0.5,10.9,6.9c3.9,6.4,4.3,8.2,4.3,8.2s-12.9,5-39.9,2.3"/>
</g>
<g>
	<circle class="st0" cx="228.9" cy="243.4" r="2.1"/>
</g>
<g>
	<path class="st0" d="M173.6,196c0,0,84.8-26,128-45.2c0,0,7.2-1.5,9.1-4.6"/>
</g>
<g>
	<path class="st0" d="M75.1,188.4c0,0,3.5-25.6,32.6-35.3"/>
</g>
<g>
	<path class="st0" d="M216.1,238.1c0,0,1,15.6,18.2,17.5"/>
</g>
<g>
	<path class="st0" d="M67.7,180.7c0,0-1,5.7,3.6,4.5"/>
</g>
<g>
	<path class="st1" d="M218.3,269.5c-25.6,0-47.6-3.1-47.9-3.2l-95.8-9.5c0,0-0.1,0-0.1,0c-0.6-0.1-13.7-3.2-16.2-10.4
		c-1-2.8-0.3-5.7,2.1-8.8c-0.4-2.3-2.3-12.3-0.9-17.2c0.6-2.3,0.4-7.6,0.3-12.7c-0.2-6.9-0.4-13.5,0.8-16.2l2-4.2
		c-0.4-1.9-2-10.3,3.8-13.7c2.3-1.4,5.3-3.6,8.5-6c4.9-3.7,10.5-7.8,15.3-10.2c7.3-3.7,16-5.1,17.3-5.3c1.7-0.9,16.5-8,49-14
		c3.5-2.4,44.5-30.6,52.7-35.4c0.6-0.4,1.3-0.8,1.9-1.2c8.5-5.1,20.1-12.1,58.3-14.1c42.4-2.2,72.7-2.4,111.5,2.3
		c19.2,2.4,31.3,10.3,43,17.9c5.9,3.9,11.5,7.5,17.9,10.5c0,0,0.1,0,0.1,0.1c0.1,0.1,11.5,6.8,16.5,8c5.7,1.3,7.6,8.3,7.6,11.3
		c0,0.5-0.1,1-0.2,1.8c-0.4,3.2-1.1,9.1,2.1,18c3.7,10.3-0.4,27.4-1.9,33.9c-0.2,0.7-0.3,1.3-0.4,1.8c-0.6,2.6-2.4,7-3,8.3
		c-2.6,6-3,6-3.8,5.8c-0.5-0.1-1-0.5-0.8-1.8c5-24,2-34.4-1.5-39c-2.4-3.2-5-3.4-5.1-3.5c-6.1,0.1-11.7,9.9-16,28.1
		c-3.3,14.1-4.7,28.4-4.7,28.5c0,0.4-0.3,0.8-0.7,0.9l-110.2,28.4c-0.3,0.1-0.7,0-0.9-0.2c-0.2-0.2-0.4-0.5-0.3-0.9
		c4-35.9-2.6-50.2-8.9-55.9c-5.5-5-11.2-4-11.3-4c0,0-0.1,0-0.1,0c-36.5,2.7-33.8,75.4-33.7,76.1c0,0.5-0.3,0.9-0.8,1
		C250,268.4,233.5,269.5,218.3,269.5z M74.9,254.9l95.8,9.5c0.6,0.1,55.2,7.8,92-1.2c-0.1-3.8-0.3-20.3,3.2-36.9
		c5.2-25.2,16.4-39.2,32.4-40.4c0.8-0.1,7-1,12.9,4.5c6.5,6,13.4,20.6,9.7,56.2l108.1-27.9c0.3-3.1,1.7-15.6,4.7-28.1
		c4.6-19.5,10.7-29.5,18-29.7c0.2,0,3.6,0.2,6.6,4.1c3.4,4.4,6.5,14,3.1,34.6c1.1-2.6,2.2-5.5,2.5-7.1c0.1-0.4,0.2-1.1,0.4-1.8
		c1.5-6.3,5.4-23,2-32.7c-3.3-9.3-2.6-15.8-2.2-18.9c0.1-0.7,0.1-1.2,0.1-1.6c0-2-1.5-8.3-6-9.3c-5.2-1.2-16.2-7.6-17.1-8.2
		c-6.5-3-12.4-6.9-18.1-10.6c-11.5-7.5-23.3-15.3-42.1-17.6c-38.7-4.8-68.9-4.5-111.2-2.3c-37.7,1.9-49.1,8.8-57.4,13.8
		c-0.7,0.4-1.3,0.8-2,1.2c-8.3,4.8-52.3,35.1-52.7,35.4c-0.1,0.1-0.2,0.1-0.4,0.2c-33.8,6.2-48.7,13.9-48.8,13.9
		c-0.1,0.1-0.2,0.1-0.3,0.1c-0.1,0-9.4,1.4-16.9,5.2c-4.6,2.3-10.1,6.4-15,10c-3.3,2.4-6.3,4.7-8.7,6.1c-5.1,3.1-2.9,11.8-2.8,11.9
		c0.1,0.2,0,0.5-0.1,0.7l-2.1,4.6c-1,2.3-0.8,9.2-0.6,15.3c0.2,5.5,0.3,10.8-0.3,13.3c-1.3,5,1,16.6,1.1,16.7c0.1,0.3,0,0.6-0.2,0.8
		c-2.1,2.6-2.8,5-2,7.2C62.2,251.8,74,254.7,74.9,254.9z"/>
</g>
<g>
	<path class="st1" d="M213.7,210.2c-7.8,0-14.8-0.8-17.7-3.2c-1-0.8-1.4-1.8-1.4-2.9c0-0.3,0.1-0.5,0.3-0.7
		c0.4-0.3,8.7-8.3,19.7-11.8c10.8-3.5,44.6-10,46.1-10.3c1.3-0.3,7.9-1.4,9.9,1.5c1,1.5,0.6,3.5-1.2,6c-6.7,9.9-14.4,17-30.1,19.4
		C233.9,209,223.2,210.2,213.7,210.2z M196.7,204.4c0.1,0.3,0.3,0.6,0.7,1c4.8,4.2,27.2,3,41.6,0.8c15-2.3,22.4-9.1,28.8-18.5
		c1.2-1.8,1.6-3.1,1.1-3.8c-0.9-1.4-5.1-1.2-7.8-0.7c-0.4,0.1-35.2,6.8-45.8,10.2C205.9,196.4,198.4,202.9,196.7,204.4z"/>
</g>
<g>
	<path class="st1" d="M120.6,223.4c-20.7,0-30.4-6.3-37.7-11c-8.3-5.3-8.9-23-8.9-24c0-0.6,0.2-1.1,0.6-1.5c1.1-1,3.2-0.7,4-0.6
		c2.3,0.1,65.2,2.8,81.2,5.3c8.5,1.3,12.2,2.3,13.3,4.7c1.1,2.5-0.8,5.6-4.8,11.9l-0.8,1.3c-8,12.7-20.6,13.1-41.6,13.7l-2,0.1
		C122.8,223.4,121.7,223.4,120.6,223.4z M76.1,188.4c0,0.2,0.6,17.6,8,22.3c7.4,4.8,17.5,11.3,39.9,10.6l2-0.1
		c21-0.7,32.5-1,40-12.8l0.8-1.3c3.2-5.1,5.3-8.4,4.6-10c-0.7-1.6-4.7-2.5-11.8-3.6c-16.1-2.5-80.4-5.3-81-5.3c0,0-0.1,0-0.1,0
		C77.5,188.1,76.4,188.2,76.1,188.4z M76.1,188.4C76.1,188.4,76,188.4,76.1,188.4C76,188.4,76,188.4,76.1,188.4z"/>
</g>
<g>
	<path class="st1" d="M113.8,215.4c-5.9,0-10.6-4.8-10.6-10.6s4.8-10.6,10.6-10.6s10.6,4.8,10.6,10.6S119.7,215.4,113.8,215.4z
		 M113.8,196.1c-4.8,0-8.6,3.9-8.6,8.6s3.9,8.6,8.6,8.6s8.6-3.9,8.6-8.6S118.6,196.1,113.8,196.1z"/>
</g>
<g>
	<path class="st1" d="M74.8,194.7c-6.6,0-9.9-3.1-11.5-5.8c-2.5-4.2-2.2-9.4-0.9-11.6c0.6-1.1,1.4-1.3,1.9-1.3
		c2.7,0.1,5.5,1.5,7.8,4c2,2.2,3.2,4.9,3.1,6.7c-0.2,2.9,1.3,6.4,1.3,6.4c0.1,0.3,0.1,0.7-0.1,0.9c-0.2,0.3-0.5,0.5-0.8,0.5
		C75.3,194.7,75.1,194.7,74.8,194.7z M64.3,178.1c-0.5,0.5-1.4,3.6-0.3,7.4c0.8,2.6,3.2,6.9,10.1,7.2c-0.5-1.4-1.1-3.8-0.9-6
		c0.1-1.3-1-3.5-2.6-5.3C68.7,179.4,66.4,178.2,64.3,178.1z"/>
</g>
<g>
	<path class="st1" d="M65.5,242c-0.1,0-0.2,0-0.3,0c-2.5-0.5-5.1-4.9-5.5-7.6c-0.1-0.5,0.3-1.1,0.9-1.1c0.5-0.1,1.1,0.3,1.1,0.9
		c0.3,2.2,2.4,5.4,3.7,5.9c1-1,2.3-7.8,2.3-12.1c0-0.4-0.1-0.6-0.4-0.8c-1.3-1-5.4-0.4-7.2,0.1c-0.5,0.1-1.1-0.2-1.2-0.7
		c-0.1-0.5,0.2-1.1,0.7-1.2c0.7-0.2,6.5-1.6,8.9,0.3c0.8,0.6,1.2,1.4,1.2,2.4c0,3.1-1,11.9-3.1,13.7C66.2,241.9,65.9,242,65.5,242z"
		/>
</g>
<g>
	<path class="st1" d="M174.5,255.3c-15.2,0-42-1.1-69.1-4.1c-26.3-3-29.9-6.3-30.3-8.5c-0.2-1.1,0.4-1.9,1-2.4
		c-0.4-1.8-1.1-6.6,1.4-9.9c1.6-2.1,4.2-3.2,7.7-3.1c11.5,0.1,71.9,5.8,74.5,6c0.6,0.1,14.4,1.7,30.4,16.3c0.1,0.1,1.2,1.3,0.8,2.7
		c-0.4,1.2-1.8,2.1-4.3,2.5C185,255.2,180.7,255.3,174.5,255.3z M77.7,241.6c-0.2,0.1-0.7,0.5-0.6,0.7c0.1,0.6,2.1,3.9,28.6,6.9
		c37.9,4.3,75.1,4.6,80.6,3.7c2.5-0.4,2.7-1.1,2.7-1.1c0.1-0.2-0.2-0.5-0.3-0.6c-15.5-14.1-29.1-15.8-29.2-15.8
		c-0.6-0.1-62.9-5.9-74.3-6c-2.8,0-4.9,0.8-6.1,2.3c-2.5,3.2-0.9,8.8-0.9,8.8C78.3,240.9,78.1,241.4,77.7,241.6L77.7,241.6z"/>
</g>
<g>
	<path class="st1" d="M184.3,246.9C184.3,246.9,184.2,246.9,184.3,246.9c-53.3-2-79.7-4.6-92.5-6.4c-9.3-1.3-14.8-2.7-15.7-3.8
		c-0.3-0.4-0.2-1.1,0.2-1.4c0.4-0.3,1-0.2,1.3,0.1c0.5,0.4,9.9,5.8,106.7,9.5c0.6,0,1,0.5,1,1C185.2,246.4,184.8,246.9,184.3,246.9z
		 M77.7,235.5C77.7,235.5,77.7,235.5,77.7,235.5C77.7,235.5,77.7,235.5,77.7,235.5z M77.7,235.5C77.7,235.5,77.7,235.5,77.7,235.5
		C77.7,235.5,77.7,235.5,77.7,235.5z M77.7,235.5C77.7,235.5,77.7,235.5,77.7,235.5C77.7,235.5,77.7,235.5,77.7,235.5z"/>
</g>
<g>
	<path class="st1" d="M229.1,203.4c-2.6,0-4.6-2.6-4.6-5.9s2.1-5.9,4.6-5.9s4.6,2.6,4.6,5.9S231.7,203.4,229.1,203.4z M229.1,193.7
		c-1.4,0-2.6,1.8-2.6,3.9s1.2,3.9,2.6,3.9s2.6-1.8,2.6-3.9S230.6,193.7,229.1,193.7z"/>
</g>
<g>
	<path class="st1" d="M228.8,206.2c-10.7,0-12.7-12-12.7-12.1c-0.1-0.5,0.3-1.1,0.8-1.1c0.5-0.1,1.1,0.3,1.1,0.8
		c0.1,0.4,1.7,10.6,11,10.4c11.3-0.2,12.7-15.3,12.8-16c0-0.5,0.5-1,1.1-0.9c0.5,0,1,0.5,0.9,1.1c-0.1,1.4-0.7,6.2-3.3,10.6
		c-2.7,4.6-6.6,7.1-11.4,7.2C229.1,206.2,228.9,206.2,228.8,206.2z"/>
</g>
<g>
	<path class="st1" d="M303.3,146.5c-3.8,0-6.9-0.6-7.5-0.8L158,139.2c-0.6,0-1-0.5-1-1c0-0.6,0.5-1,1-1l137.9,6.4c0.1,0,0.1,0,0.2,0
		c0.2,0,15.1,3.4,19.8-4.6c5-8.7,19-33.8,19.1-34c0-0.1,0.1-0.1,0.1-0.2c0.4-0.5,0.9-1.3,0.8-1.6c0-0.1-0.3-0.3-1-0.4
		c-0.5-0.1-53.5-7.5-118.3-2.3c-0.6,0-1-0.4-1.1-0.9c0-0.6,0.4-1,0.9-1.1c65-5.2,118.2,2.2,118.7,2.3c1.4,0.2,2.3,0.8,2.6,1.7
		c0.5,1.5-0.7,3.1-1.1,3.5c-0.9,1.7-14.2,25.5-19.1,34C314.7,145.3,308.4,146.5,303.3,146.5z"/>
</g>
<g>
	<path class="st1" d="M347.3,159.2c0,0-0.1,0-0.1,0c-2.8-0.4-8.1-2.7-7.9-8.7c0-0.2,0.1-0.5,0.3-0.7l2.1-2.2
		c-0.2-1.8-0.9-7.5-0.9-8.8c0.1-1.9,3.2-7.6,7.2-11.4c0.7-0.7,2.8-2.7,16-0.1c6.3,1.2,12.2,2.9,12.3,2.9c0.4,0.1,1.1,0.6,1.5,1.4
		c0.6,1.2,0.4,2.8-0.4,4.8c-0.4,0.9-0.7,1.8-1,2.7c-1,2.9-1.8,5.5-5.7,6.8c-4.1,1.4-14.1,2.7-16.5,2.9l-6,9.8
		C348,159,347.7,159.2,347.3,159.2z M341.3,150.9c0.1,4.4,4,5.8,5.6,6.2l5.9-9.6c0.2-0.3,0.4-0.4,0.7-0.5c0.1,0,12.2-1.4,16.5-2.9
		c3-1,3.6-2.7,4.5-5.6c0.3-0.9,0.6-1.8,1-2.8c0.8-2,0.6-2.9,0.4-3.2c-0.1-0.2-0.3-0.3-0.3-0.3c-16.7-4.8-25-4.6-26.4-3.3
		c-3.9,3.7-6.5,9-6.6,10c0,1,0.5,5.9,0.9,9c0,0.3-0.1,0.6-0.3,0.8L341.3,150.9z"/>
</g>
<g>
	<path class="st1" d="M328,149.5c-0.3,0-0.6-0.2-0.8-0.4c-0.2-0.3-0.2-0.6-0.1-0.9c0.5-1.6,13.5-40,29.6-46.8
		c0.7-0.5,5-3.3,12.5-4.2c0.5-0.1,0.9,0.2,1.1,0.7c0.4,1.2,10,30.1,9.4,41.1c0,0.1,0,0.2,0,0.2c-0.2,0.5-0.5,0.9-3.6,1.6
		c-0.5,0.1-1.1-0.2-1.2-0.8c-0.1-0.5,0.2-1.1,0.8-1.2c1.2-0.3,1.8-0.5,2.1-0.6c0.1-10.1-7.6-34.3-9.1-39c-7,1-10.8,3.8-10.8,3.8
		c-0.1,0-0.1,0.1-0.2,0.1c-13.6,5.7-25.6,37.3-28.1,44.3c6.4-0.2,13.7-1.4,13.8-1.4c0.5-0.1,1.1,0.3,1.1,0.8
		c0.1,0.5-0.3,1.1-0.8,1.1C343.2,148,334.8,149.4,328,149.5C328,149.5,328,149.5,328,149.5z M377.9,138.1L377.9,138.1L377.9,138.1z"
		/>
</g>
<g>
	<path class="st1" d="M391.7,229.4c-0.5,0-1-0.4-1-0.9c-0.3-5.6,0.4-27.8,0.4-28.7c2.9-27.3,1.3-45.3,0-51c-1.1-5-6.4-8.1-6.5-8.1
		c-0.5-0.3-0.6-0.9-0.4-1.4c0.3-0.5,0.9-0.6,1.4-0.4c0.3,0.1,6.1,3.6,7.5,9.4c1.3,5.8,3,24.1,0,51.6c0,0.2-0.7,22.9-0.4,28.5
		C392.7,228.9,392.3,229.3,391.7,229.4C391.7,229.4,391.7,229.4,391.7,229.4z"/>
</g>
<g>
	<path class="st1" d="M388.8,139.2c-0.2,0-0.4-0.1-0.6-0.2c-0.2-0.2-0.4-0.4-0.4-0.7c0-0.3-4.4-25.3-11.9-40.7
		c-0.1-0.3-0.1-0.6,0-0.9c0.2-0.3,0.4-0.5,0.8-0.5c0.6-0.1,15.4-1.6,31.2,7.4c0.2,0.1,0.4,0.3,0.5,0.6l7.5,27.5
		c0.1,0.3,0,0.5-0.1,0.8c-0.1,0.2-0.4,0.4-0.6,0.5l-26.1,6.1C389,139.2,388.9,139.2,388.8,139.2z M378.4,98.1
		c6.3,13.9,10.3,34.1,11.2,38.9l24.1-5.7l-7.2-26.1C394.2,98.3,382.4,98,378.4,98.1z"/>
</g>
<g>
	<path class="st1" d="M374.8,143.3c-0.4,0-0.8-0.3-1-0.7c-0.1-0.5,0.2-1.1,0.7-1.2c0.4-0.1,44.1-11.8,48.9-13c4.1-1,4.8-2.4,6.2-5.1
		l0.4-0.8c1.4-2.5-0.6-4.6-0.7-4.6c-30.4-26.9-61.5-21-75.1-13.2c-0.5,0.3-1.1,0.1-1.4-0.4c-0.3-0.5-0.1-1.1,0.4-1.4
		c14-8,46.2-14.2,77.5,13.5c1.1,1.1,2.8,4,1.1,7l-0.4,0.8c-1.5,2.8-2.6,4.9-7.5,6.1c-4.8,1.2-48.5,12.9-48.9,13
		C375,143.3,374.9,143.3,374.8,143.3z"/>
</g>
<g>
	<path class="st2" d="M325.6,146.9"/>
</g>
<g>
	<path class="st1" d="M421.9,128.5c-0.4,0-0.8-0.3-1-0.7l-5.6-21.4c-0.1-0.5,0.2-1.1,0.7-1.2c0.5-0.1,1.1,0.2,1.2,0.7l5.6,21.4
		c0.1,0.5-0.2,1.1-0.7,1.2C422,128.5,422,128.5,421.9,128.5z"/>
</g>
<g>
	<path class="st2" d="M330.6,245"/>
</g>
<g>
	<path class="st1" d="M330.6,246c-0.5,0-0.9-0.4-1-0.9c-0.7-5.3-0.3-30.6,0.1-50.8c0.3-13.3,0.5-24.7,0.3-26.6
		c-0.4-3.3-2.6-7.1-4.1-9.6c-0.6-0.9-1-1.7-1.2-2.2c-1-2.3,1.4-6.6,1.9-7.5c0.3-0.5,0.9-0.6,1.4-0.4c0.5,0.3,0.6,0.9,0.4,1.4
		c-1.2,2-2.2,4.8-1.8,5.7c0.2,0.4,0.6,1.2,1.1,2c1.6,2.7,4,6.7,4.4,10.4c0.2,2,0,12.9-0.3,26.8c-0.4,20.2-0.9,45.3-0.2,50.5
		c0.1,0.5-0.3,1.1-0.9,1.1C330.7,246,330.6,246,330.6,246z"/>
</g>
<g>
	<path class="st1" d="M452.1,150.4c-0.9,0-1.9-0.4-3.1-1.9c-1-1.2-2-3.1-2.9-5.6c-1.7-4.4-2-9.6,0.8-10.7c2.8-1.1,6.1,3,7.9,7.3
		c0.9,2.2,1.2,4.6,0.9,6.6c-0.3,2.1-1.2,3.6-2.5,4.1C452.8,150.3,452.5,150.4,452.1,150.4z M447.8,134c-0.1,0-0.2,0-0.2,0
		c-1,0.4-1.3,3.8,0.4,8.1c0.9,2.3,1.8,4,2.6,5.1c0.4,0.5,1.2,1.3,1.7,1.1c0.5-0.2,1.1-1,1.3-2.5c0.3-1.7,0-3.7-0.7-5.6
		C451.3,136.2,448.9,134,447.8,134z"/>
</g>
<g>
	<path class="st1" d="M439.1,176.5c0,0-0.1,0-0.1,0c-0.5-0.1-0.9-0.6-0.9-1.1c2.4-17-3.8-41.6-4.3-42.7c-0.4-0.6-3.9-2.4-6.9-3.7
		c-0.5-0.2-0.7-0.8-0.5-1.3c0.2-0.5,0.8-0.7,1.3-0.5c2.7,1.2,7.3,3.3,8,4.7c0.5,1.1,6.9,26.1,4.4,43.8
		C440.1,176.2,439.6,176.5,439.1,176.5z"/>
</g>
<g>
	<path class="st1" d="M464.5,143.6c-0.1,0-0.3,0-0.4-0.1c-0.7-0.3-1.3-1.2-2.1-2.5c-1-1.5-2.2-3.4-3.7-4.7c-2.5-2-2.3-4-2.1-4.7
		c0.3-1,1-1.7,1.8-1.8c0.3,0,1.4-0.6,2.3-1.3c0.5-0.3,1.1-0.2,1.4,0.2c0.3,0.5,0.2,1.1-0.2,1.4c-0.5,0.3-2.1,1.4-3,1.6
		c-0.1,0.1-0.2,0.3-0.2,0.6c0,0.4,0.1,1.3,1.5,2.4c1.8,1.5,3.2,3.6,4.2,5.2c0.5,0.7,1.1,1.7,1.3,1.8c0.5,0.2,0.7,0.8,0.5,1.3
		C465.3,143.4,464.9,143.6,464.5,143.6z M458.2,131.7C458.2,131.7,458.2,131.7,458.2,131.7C458.2,131.7,458.2,131.7,458.2,131.7z"/>
</g>
<g>
	<path class="st1" d="M375.6,168.5c-1.3,0-2.5-0.2-3.3-0.7c-0.7-0.5-1.1-1.2-1.1-2c0-0.4,0.2-0.8,0.6-0.9c1.7-0.8,10.2-5,12.1-5.2
		c1.2-0.2,2.3,0.8,2.7,2.5c0.4,1.8,0.1,4.1-1.5,4.6C385,166.7,379.6,168.5,375.6,168.5z M373.6,166.2c1.9,1,8.4-0.5,10.8-1.4
		c0.1-0.1,0.4-0.6,0.3-1.6c-0.1-1-0.4-1.5-0.6-1.6C383,161.7,377.4,164.3,373.6,166.2z"/>
</g>
<g>
	<path class="st1" d="M377,172.1c-1,0-2.4-0.3-3.7-1.3c-1-0.8-2.2-2.3-2.4-5c-0.2-2.5,0.8-4.9,2.6-6.5c1.4-1.3,3.1-1.9,4.6-1.6
		c3,0.6,3.7,3.7,3.8,3.9c0.1,0.5-0.2,1.1-0.8,1.2c-0.5,0.1-1.1-0.2-1.2-0.8c0-0.1-0.5-2-2.2-2.3c-0.8-0.2-1.9,0.3-2.8,1.1
		c-0.7,0.6-2.2,2.2-2,4.9c0.1,1.6,0.7,2.8,1.7,3.6c0.9,0.7,2.1,1,2.7,0.9c1.6-0.2,2.5-1.4,2.9-3.6c0.1-0.5,0.6-0.9,1.2-0.8
		c0.5,0.1,0.9,0.6,0.8,1.2c-0.7,3.9-2.9,5-4.6,5.2C377.4,172.1,377.2,172.1,377,172.1z"/>
</g>
<g>
	<g>
		<g>
			<path class="st1" d="M424.2,154.1c-1.2,0-2.3-0.2-3-0.7c-0.6-0.4-1-1.1-1-1.8c0-0.4,0.2-0.8,0.6-0.9c1.5-0.7,9-4.4,10.7-4.6
				c1.2-0.2,2.1,0.7,2.5,2.2c0.4,1.7,0,3.7-1.4,4.2C432.4,152.6,427.7,154.1,424.2,154.1z M422.6,152c1.9,0.6,7.2-0.6,9.1-1.3
				c0.1-0.1,0.3-0.6,0.2-1.3c-0.1-0.7-0.3-1.2-0.4-1.3C430.7,148.2,426.1,150.3,422.6,152z"/>
		</g>
	</g>
	<g>
		<path class="st1" d="M425.4,157.3c-0.9,0-2.2-0.3-3.3-1.2c-0.9-0.7-2-2.1-2.2-4.5c-0.2-2.2,0.7-4.3,2.4-5.8
			c1.3-1.1,2.8-1.7,4.1-1.4c2.7,0.5,3.4,3.4,3.4,3.5c0.1,0.5-0.2,1.1-0.8,1.2c-0.5,0.1-1.1-0.2-1.2-0.8l0,0c0-0.1-0.4-1.7-1.8-2
			c-0.5-0.1-1.5,0.2-2.4,1c-0.6,0.5-1.9,1.9-1.7,4.2c0.1,1.4,0.6,2.4,1.5,3.1c0.8,0.6,1.7,0.8,2.3,0.8c1.3-0.2,2.1-1.2,2.5-3
			c0.1-0.5,0.6-0.9,1.2-0.8c0.5,0.1,0.9,0.6,0.8,1.2c-0.7,3.6-2.9,4.5-4.2,4.7C425.7,157.3,425.5,157.3,425.4,157.3z"/>
	</g>
</g>
<g>
	<path class="st1" d="M157.3,135.7c-0.3,0-0.7-0.2-0.9-0.5c-1-1.6-1.7-5.3,2.1-7.8c4.9-3.1,10.5-2.8,12.6-2.6
		c0.5,0.1,0.9,0.6,0.9,1.1c-0.1,0.5-0.6,0.9-1.1,0.9c-2-0.2-7-0.4-11.4,2.3c-3.2,2-1.6,5-1.5,5.1c0.3,0.5,0.1,1.1-0.4,1.4
		C157.7,135.6,157.5,135.7,157.3,135.7z"/>
</g>
<g>
	<path class="st1" d="M112.3,270.9C112.3,270.9,112.3,270.9,112.3,270.9c-21.5,0-24.2-12.9-24.3-13.4c-0.1-0.5,0.3-1.1,0.8-1.2
		c0.5-0.1,1.1,0.3,1.2,0.8l0,0c0.1,0.5,2.6,11.8,22.3,11.8c0,0,0,0,0,0c15.9,0,22.7-6.4,22.8-6.4c0.4-0.4,1-0.4,1.4,0
		c0.4,0.4,0.4,1,0,1.4C136.2,264.2,129,270.9,112.3,270.9z"/>
</g>
<g>
	<path class="st1" d="M220.2,257.7c-4.5,0-9.7-0.2-15.5-0.8c-0.5-0.1-1-0.5-0.9-1.1c0.1-0.5,0.5-0.9,1.1-0.9
		c22.4,2.3,35.1-0.9,38.5-2c-0.5-1.1-1.5-3.2-3.9-7.1c-3.6-5.9-10.1-6.5-10.2-6.5l-37.7-0.3c-0.6,0-1-0.5-1-1s0.4-1,1-1l37.8,0.3
		c0.4,0,7.7,0.7,11.8,7.4c3.8,6.4,4.4,8.3,4.4,8.5c0.1,0.5-0.1,1-0.6,1.2C244.7,254.7,236.7,257.7,220.2,257.7z"/>
</g>
<g>
	<path class="st1" d="M228.9,246.6c-1.7,0-3.1-1.4-3.1-3.1s1.4-3.1,3.1-3.1s3.1,1.4,3.1,3.1S230.6,246.6,228.9,246.6z M228.9,242.3
		c-0.6,0-1.1,0.5-1.1,1.1s0.5,1.1,1.1,1.1c0.6,0,1.1-0.5,1.1-1.1S229.5,242.3,228.9,242.3z"/>
</g>
<g>
	<path class="st1" d="M173.6,197c-0.4,0-0.8-0.3-1-0.7c-0.2-0.5,0.1-1.1,0.7-1.2c0.8-0.3,85.2-26.2,127.9-45.2
		c0.1,0,0.1-0.1,0.2-0.1c1.9-0.4,7-1.9,8.4-4.1c0.3-0.5,0.9-0.6,1.4-0.3c0.5,0.3,0.6,0.9,0.3,1.4c-2,3.2-8.5,4.8-9.6,5
		c-42.8,19-127.1,44.9-128,45.2C173.8,197,173.7,197,173.6,197z"/>
</g>
<g>
	<path class="st1" d="M75.1,189.4c0,0-0.1,0-0.1,0c-0.5-0.1-0.9-0.6-0.9-1.1c0-0.3,3.9-26.3,33.3-36.1c0.5-0.2,1.1,0.1,1.3,0.6
		c0.2,0.5-0.1,1.1-0.6,1.3c-14.7,4.9-22.6,14-26.7,20.8c-4.4,7.4-5.3,13.6-5.3,13.7C76,189,75.6,189.4,75.1,189.4z"/>
</g>
<g>
	<path class="st1" d="M234.2,256.6c0,0-0.1,0-0.1,0c-17.8-2-19-18.2-19-18.4c0-0.6,0.4-1,0.9-1.1c0.5,0,1,0.4,1.1,0.9
		c0,0.6,1.2,14.7,17.3,16.5c0.5,0.1,0.9,0.6,0.9,1.1C235.2,256.2,234.7,256.6,234.2,256.6z"/>
</g>
<g>
	<path class="st1" d="M70.1,186.4c-1.1,0-1.9-0.4-2.3-0.8c-1.7-1.6-1.2-4.7-1.1-5c0.1-0.5,0.6-0.9,1.2-0.8c0.5,0.1,0.9,0.6,0.8,1.2
		l0,0c-0.1,0.6-0.2,2.5,0.5,3.2c0.4,0.3,1,0.4,1.8,0.2c0.5-0.1,1.1,0.2,1.2,0.7c0.1,0.5-0.2,1.1-0.7,1.2
		C71,186.3,70.5,186.4,70.1,186.4z"/>
</g>
</svg>
