<?xml version="1.0" encoding="utf-8"?>
<!-- Generator: Adobe Illustrator 19.2.1, SVG Export Plug-In . SVG Version: 6.00 Build 0)  -->
<svg version="1.1" id="Layer_1" xmlns="http://www.w3.org/2000/svg" xmlns:xlink="http://www.w3.org/1999/xlink" x="0px" y="0px"
	 viewBox="0 0 536.9 344.3" style="enable-background:new 0 0 536.9 344.3;" xml:space="preserve">
<style type="text/css">
	.st0{fill:#FFFFFF;}
	.st1{fill:#D3D5D8;}
	.st2{fill:none;}
</style>
<g>
	<g>
		<path class="st0" d="M63.7,219.5l-0.5,0c-0.4,0-8.7-0.3-9.8-6.2l1-0.2c0.8,4.3,6.5,5.2,8.3,5.4c-0.1-2.3-0.6-11.3-0.8-15.4
			c-0.1-4.5-3.2-6.6-3.3-6.6l-7.7-6.1l0.6-0.8l7.7,6.1c0.1,0.1,3.6,2.4,3.7,7.4c0.2,4.7,0.8,15.9,0.8,16L63.7,219.5z"/>
	</g>
	<g>
		<path class="st0" d="M61.8,211.7c-4.2,0-7.6-3.4-7.6-7.6c0-3.5,2.4-6.6,5.8-7.4l0.2,1c-2.9,0.7-5,3.4-5,6.4c0,3.6,3,6.6,6.6,6.6
			V211.7z"/>
	</g>
	<g>
		<g>
			<path class="st1" d="M62.7,231.5c0,0-7.7-10.6-7.7-12.1s-1-4.4-1-5.1c0-0.7-4.6-22.3-2.3-27c2.3-4.8,6.1-6.1,5.9-12
				c-0.2-5.9-1-7.7-1.6-11.1c-0.7-3.4-0.3-15.9-0.3-15.9s-0.8,2.8,4.3-5.1c5.1-7.9,5.1-7.9,5.1-7.9s4.6-9.2,10.8-11.1
				c6.2-2,28.2-8.2,60.3-13.8c0,0,10.8-0.5,20-10s30.5-31.3,47.7-38.8c0,0,15.9-5.2,33.4-5.7s90.6-3.6,90.6-3.6s31.8,0.8,39.3,1.6
				s27.2,2.5,32.6,7.4s17.9,35.9,20.8,46.7l51.6-6.7c0,0,5.7,14.4,5.2,27s-2.8,22.6-2.8,22.6s-0.7,2-0.5,2.8s1.1,2.5,1.1,3.8
				s0.8,4.6,0.8,5.2c0,0.7-1.3,10-4.8,12.5c0,0,4.9-1,4.6,1.3s1.6,3.6-10.8,4.3l2-4.8c0,0,1.6-4.3,1.9-11.6c0.2-7.4,1-20.3-3.3-21.5
				s-13,1.1-15,6S440,189.1,440,189.1l-106.2,37.4c0,0,4.9-25.4,4.8-38.3s-0.4-21.4-7.6-21.4s-17.1,2-25.3,6.9s-10.6,13.8-12.9,24.7
				s-6.4,41.7-11.5,48.2c0,0,0.9,24-5.9,27.5c-6.8,3.6-90.8-1.1-90.8-1.1s-110.7-6.9-118-15.1C66.6,257.7,60.2,236,62.7,231.5z"/>
		</g>
		<g>
			<path class="st1" d="M437.7,122.3c0,0-0.2-6.4,4.1-7.2c4.3-0.8,20.1-4.9,22-1s2.5,6.6,2.5,6.6"/>
		</g>
		<g>
			<path class="st1" d="M420.5,108c0,0,2.8,5.9,2.8,15.1s-4.6,44.9-4.6,44.9s0.2,8.4,0,10.3s-2.8,12.3-3.4,13.4c0,0,1.1,3.6-0.5,6.2
				"/>
		</g>
		<g>
			<path class="st1" d="M429.6,148.1c0,0-3.7,1.3-3.8-1.4c-0.1-2.7,0-11.8,0-11.8s-0.4-2.5,2.5-3.1s5.2-1.4,5.5,0s0.3,13.4-0.3,14.4
				C432.9,147.2,431.6,147.4,429.6,148.1z"/>
		</g>
		<g>
			<path class="st1" d="M384.1,110.1c0,0,2.5,5.7,3.9,7.3s2.5,6.2,2.5,9.7c0,3.5-1.2,45.9-1.2,45.9s-0.2,4-2,6.9
				c0,0,1.7,8.8-0.5,20.1"/>
		</g>
		<g>
			<line class="st2" x1="337.9" y1="216.5" x2="428.8" y2="187.3"/>
		</g>
		<g>
			<path class="st1" d="M347,201.9c0,0,4.2-9.8,17.9-14.6c13.8-4.8,66.1-23.5,66.1-23.5"/>
		</g>
		<g>
			<path class="st1" d="M386.9,109.4c0,0-4.2-26.9-13.9-46.1c0,0,16,1.7,20.4,3.1s7.1,7,8.2,9.5s6.1,19.9,6.1,19.9s0.6,6-4.2,8.5
				C398.9,106.7,386.9,109.4,386.9,109.4z"/>
		</g>
		<g>
			<ellipse class="st1" cx="414.4" cy="124.9" rx="3" ry="4.6"/>
		</g>
		<g>
			<ellipse class="st1" cx="381.9" cy="132" rx="3.7" ry="4.5"/>
		</g>
		<g>
			<path class="st1" d="M375.9,132c0,0-1.2,2.3,0,2.8s12.7-1.1,13.1-2c0.5-0.9,0.7-4.2-1.1-4.1C386.1,128.9,375.9,132,375.9,132z"/>
		</g>
		<g>
			<path class="st1" d="M408.3,124.9c0,0-1.1,2.4,0,3s11.3-1.2,11.8-2.1c0.4-0.9,0.7-4.5-1-4.4S408.3,124.9,408.3,124.9z"/>
		</g>
		<g>
			<path class="st1" d="M336,116.7c0,0,7,1.6,7.1,0s0.2-13.4,0.7-14.4s2.6-4.3,6.3-4.7c3.7-0.4,19.9,0,19.9,0s5.2,0.5,6,4.1
				c0.9,3.6,2.9,8.5,2.2,11.8c-0.7,3.3-2.6,5.5-8.2,6s-22.5,0.4-24.7,2.7s-4.8,5.7-4.8,5.7S336.1,124.9,336,116.7z"/>
		</g>
		<g>
			<path class="st1" d="M336,116.7c0,0-4.4-6.9,0-21.9s6-29.5,16.2-31.5s11.9-1.5,11.9-1.5s11.2,26.5,14,48.3"/>
		</g>
		<g>
			<path class="st1" d="M421.2,196.7c0,0-2.7,34.6,11.2,38.6c0,0,1,1.4,7.1,1.1c6.1-0.2,11.7,0.5,13.6-1.1c2-1.6,8-2.8,10.3-18.8
				s4.3-34.2-4.3-50.9c0,0-2.9-6-11.7-3.9L421.2,196.7z"/>
		</g>
		<g>
			<ellipse class="st1" cx="456.1" cy="199.9" rx="6.7" ry="25.2"/>
		</g>
		<g>
			<path class="st1" d="M460.3,219.2c-1.9-3.3-7.3-15.9-7.3-15.9s-0.6,16.4,0,19.1"/>
		</g>
		<g>
			<path class="st1" d="M452.8,199.9c0,0,3.3,2.7,10,0c0,0-1.5-4.3-10.6-2.7c0,0,6.4-18.7,6.3-20.8"/>
		</g>
		<g>
			<path class="st1" d="M295.2,188.7c0,0,20.1-3.7,27.8,7.6c7.7,11.3,13.6,34.2,10.2,59.6s-15.1,38-24.9,40.5s-26.9,1-32.3-2.1
				s-11.8-13.3-12.8-18.2c-1-4.9,7.5-62.3,7.5-64.1s15.7-17,15.7-17L295.2,188.7z"/>
		</g>
		<g>
			
				<ellipse transform="matrix(9.718487e-02 -0.9953 0.9953 9.718487e-02 38.1078 534.1404)" class="st1" cx="313.5" cy="246.1" rx="36.3" ry="14.2"/>
		</g>
		<g>
			<path class="st1" d="M311.5,238.7c0,0,9-26.9,5.9-27.2s-6.1,1.3-5.9,6.9C311.7,224,311.5,238.7,311.5,238.7z"/>
		</g>
		<g>
			<path class="st1" d="M307.9,238.7c0,0,0-11.3-2.5-11.6s-6.1,13.4-3.8,13.4S307.9,238.7,307.9,238.7z"/>
		</g>
		<g>
			<path class="st1" d="M312.7,244c0,0,8.7-7.9,13.4-5.2C330.9,241.4,320.1,246,312.7,244z"/>
		</g>
		<g>
			<path class="st1" d="M312.7,240.5c0,0,7-18.7,9.5-18.2s5.4,10.3,0,12.6C316.8,237.3,312.7,240.5,312.7,240.5z"/>
		</g>
		<g>
			<path class="st1" d="M311.5,248.4c0,0,9.8,16.4,9.8,18.5S315.3,262.5,311.5,248.4z"/>
		</g>
		<g>
			<path class="st1" d="M307.9,251l-2.1,20.5c0,0-7.5-11.5-3.8-15.9C305.8,251.2,307.9,251,307.9,251z"/>
		</g>
		<g>
			<path class="st1" d="M74.7,261.3c0,0,4.9,17.8,30.5,17.8s30.5-8.9,30.5-8.9L74.7,261.3z"/>
		</g>
		<g>
			<path class="st1" d="M143.1,109.1c0,0,0.5-11.3,2.7-11.8s9-2.3,14-0.6"/>
		</g>
		<g>
			<path class="st1" d="M153.6,109.1c0,0,35.9-43.2,51.8-44.7c16-1.5,65.6-3.4,123.1,0c0,0,5.7,0.2,2.5,8.1s-12.9,35.6-12.9,35.6
				s-3.3,6.1-13.4,5.7C294.7,113.3,153.6,109.1,153.6,109.1z"/>
		</g>
		<g>
			<path class="st1" d="M217,150.6c0,0-5.2,3.4-5.7,5.9s-1.5,16-1.5,16l2.5,8.1l4.7,7.5l44.5-3.5c0,0,13-2.8,14.7-10.2
				s0.7-24.8-2.5-26.3C270.6,146.7,217,150.6,217,150.6z"/>
		</g>
		<g>
			<path class="st1" d="M217,158.2h41.8c0,0,16.6-1.2,17.4-4.3"/>
		</g>
		<g>
			<path class="st1" d="M215.5,176.9l42-1.7c0,0,15.7-0.5,18.6-6.1"/>
		</g>
		<g>
			<circle class="st1" cx="248.3" cy="166.5" r="5.5"/>
		</g>
		<g>
			<line class="st2" x1="72" y1="149.9" x2="58.4" y2="145.6"/>
		</g>
		<g>
			<path class="st1" d="M72,174c0,0-14.8-2.4-15.6-7.5"/>
		</g>
		<g>
			<circle class="st1" cx="65.8" cy="158.3" r="5.3"/>
		</g>
		<g>
			<path class="st1" d="M217,188.1c0,0,0.7,4.3-1.5,6.5s-15,9.6-15,9.6l-118.4-6.9c0,0-10.1,0.2-10.1-11.5s-2.2-49.9,4.2-51.6
				c6.4-1.7,134.9,4.9,134.9,4.9s5.9,3.9,5.9,11.5"/>
		</g>
		<g>
			<path class="st1" d="M81.4,153.1c0,0,99,6.1,111.6,5.2"/>
		</g>
		<g>
			<path class="st1" d="M78.9,166.5c0,0,61.2,7,110.6,6.5"/>
		</g>
		<g>
			<path class="st1" d="M78.9,182.1c0,0,65.6,5.5,114,6"/>
		</g>
		<g>
			<path class="st1" d="M263.1,206.9c0,0,1.9,16.6-8.4,21.5c-10.3,4.9-24.7,4.5-25.1,0.9c-0.4-3.7,0-16.6,0-16.6s0.9-5,7.7-5.8
				s21.5-1.1,23-1.1C261.9,205.8,263.1,206.9,263.1,206.9z"/>
		</g>
		<g>
			<ellipse class="st1" cx="248" cy="217" rx="6.3" ry="7.1"/>
		</g>
		<g>
			<path class="st1" d="M69.8,218.9c0,0,121.6,12.3,130.2,8.1c0,0,3.9-9.3-9.1-10.1s-119.3-8.4-119.3-8.4S67.1,207.6,69.8,218.9z"/>
		</g>
		<g>
			<line class="st2" x1="110.6" y1="232" x2="146.7" y2="234.6"/>
		</g>
		<g>
			<line class="st2" x1="114.5" y1="241.8" x2="150.4" y2="244.5"/>
		</g>
		<g>
			<path class="st1" d="M91.4,250.5c0,0-12-8.4-13.4-15.9l14.4,1.3c0,0,4.9,11.3,13.8,15.7L91.4,250.5z"/>
		</g>
		<g>
			<path class="st1" d="M188,257.7c0,0-12-8.4-13.4-15.9l14.4,1.3c0,0,4.9,11.3,13.8,15.7L188,257.7z"/>
		</g>
		<g>
			<path class="st1" d="M349.9,147.7c-2-0.1-56.5-0.7-65.9,5.3s-10.3,40.7-10.3,42.5s54,36,54,36l14.3-9.1L467,176l9-13.3l-9.8-28.9
				L349.9,147.7z"/>
		</g>
		<g>
			<polyline class="st1" points="472.1,101.3 413.3,95.6 411.4,110.1 			"/>
		</g>
	</g>
	<g>
		<g>
			<path class="st0" d="M296.2,298.7c-8.4,0-17.2-1.4-20.7-3.5c-5.8-3.3-12.3-14-13.3-18.9c-0.1-0.5,0.2-1.1,0.8-1.2
				c0.5-0.1,1.1,0.2,1.2,0.8c0.9,4.5,7,14.5,12.3,17.5c5.1,2.9,21.9,4.5,31.6,2c9-2.3,20.7-14.1,24.2-39.7c3.4-25.5-2.6-48-10-58.9
				c-7.2-10.6-26.6-7.2-26.8-7.2c-0.5,0.1-1.1-0.3-1.2-0.8s0.3-1.1,0.8-1.2c0.2,0,5.2-0.9,11.3-0.5c8.1,0.7,14.2,3.6,17.5,8.5
				c7.7,11.3,13.8,34.3,10.4,60.3c-2.2,16.6-10.3,37.4-25.6,41.3C305,298.3,300.7,298.7,296.2,298.7z"/>
		</g>
		<g>
			<path class="st0" d="M310.5,283.2c-0.2,0-0.4,0-0.7,0c-4.2-0.4-7.7-4.8-9.8-12.3c-2-7.2-2.6-16.5-1.7-26.3
				c2-20.8,10.3-36.5,18.8-35.6c8.5,0.8,13.5,17.8,11.5,38.6c-1,9.8-3.3,18.8-6.7,25.5C318.5,279.6,314.5,283.2,310.5,283.2z
				 M299.3,244.7l1,0.1c-0.9,9.5-0.4,18.6,1.6,25.6c1.9,6.6,4.8,10.5,8.1,10.8c3.3,0.3,6.9-3,10-9.1c3.3-6.5,5.6-15.3,6.5-24.8
				c1.9-19-2.6-35.7-9.7-36.4c-7.1-0.7-14.7,14.8-16.6,33.9L299.3,244.7z"/>
		</g>
		<g>
			<path class="st0" d="M309.9,242.3c-0.1,0-0.1,0-0.2,0c-0.5-0.1-0.8-0.6-0.8-1.1c0-0.2,1.8-17.3,1.6-22.8c-0.1-2.9,0.6-5.1,2-6.4
				c1.2-1.2,2.9-1.7,4.9-1.5c0.5,0,0.8,0.3,1.1,0.7c1.8,2.9-4.8,22.3-7.8,30.4C310.7,242,310.3,242.3,309.9,242.3z M316.7,212.5
				c-0.9,0-2,0.2-2.8,1c-1,1-1.5,2.6-1.4,4.9c0.1,3.1-0.4,9.4-0.8,14.7c3.2-9.7,5.7-18.6,5.3-20.6
				C316.9,212.5,316.8,212.5,316.7,212.5z"/>
		</g>
		<g>
			<path class="st0" d="M309.9,242.3c0,0-0.1,0-0.1,0c-0.1,0-5.9-0.8-8.1-0.8c-0.6,0-1.1-0.3-1.4-0.9c-1.2-2.3,1.1-10.3,2.9-13
				c0.7-1.1,1.5-1.6,2.4-1.5c2.6,0.3,4.3,8.4,5.3,15.1c0,0.3-0.1,0.6-0.3,0.8C310.4,242.2,310.2,242.3,309.9,242.3z M302,239.5
				c1.8,0,4.9,0.4,6.7,0.6c-0.9-5.9-2.4-11.2-3.3-12c-0.3,0.2-1.1,1.2-2,3.7C302.2,235.2,301.8,238.5,302,239.5z"/>
		</g>
		<g>
			<path class="st0" d="M323.1,247c-1.5,0-3.5-0.7-5.9-1.5c-1.4-0.5-3.1-1-4.8-1.5c-0.4-0.1-0.7-0.5-0.7-0.9s0.2-0.8,0.6-1
				c0.9-0.4,8.7-4,12.2-2.1c1,0.5,1.5,1.5,1.6,2.7c0.2,1.8-0.2,2.9-1,3.6C324.5,246.8,323.9,247,323.1,247z M315.7,242.8
				c0.8,0.2,1.5,0.5,2.2,0.7c2.6,0.9,5.3,1.8,6,1.2c0.3-0.2,0.4-0.9,0.3-1.9c-0.1-0.7-0.4-1-0.6-1.1
				C322,241,318.6,241.8,315.7,242.8z"/>
		</g>
		<g>
			<path class="st0" d="M310.9,242.3c-0.2,0-0.5-0.1-0.6-0.2c-0.3-0.3-0.5-0.8-0.3-1.2c6.1-13.4,10.3-20,12.4-19.6
				c2,0.4,3.5,3.8,3.8,6.8c0.4,3.8-0.9,6.6-3.6,7.7c-5.2,2.3-11.1,6.3-11.1,6.3C311.3,242.2,311.1,242.3,310.9,242.3z M322.1,223.3
				c-1.4,0.8-5.4,8-8.9,15.3c2.2-1.4,5.5-3.2,8.5-4.6c2.6-1.1,2.5-4.3,2.4-5.7C323.9,225.6,322.7,223.6,322.1,223.3z"/>
		</g>
		<g>
			<path class="st0" d="M320.9,268.4c-2.8,0-8.3-6.5-9.2-22.3c0-0.5,0.3-0.9,0.8-1c0.5-0.1,0.9,0.1,1.2,0.5
				c2.1,4.4,8.8,19.1,8.8,21.2C322.4,267.8,321.8,268.4,320.9,268.4C320.9,268.4,320.9,268.4,320.9,268.4z M314.3,252
				c1.4,9.1,4.4,12.9,5.9,14C319.5,263.8,317.1,258.1,314.3,252z"/>
		</g>
		<g>
			<path class="st0" d="M305.8,272.5c-0.4,0-0.7-0.2-0.9-0.5c-0.7-1.3-6.7-13.2-2.7-18c3.7-4.3,6.8-8.4,6.9-8.5
				c0.3-0.4,0.8-0.5,1.2-0.3c0.4,0.2,0.7,0.6,0.6,1.1l-4.1,25.4c-0.1,0.4-0.4,0.8-0.8,0.8C305.9,272.5,305.9,272.5,305.8,272.5z
				 M308.3,249.8c-1.2,1.5-2.8,3.5-4.5,5.5c-2.1,2.5-0.2,8.7,1.6,12.9L308.3,249.8z"/>
		</g>
		<g>
			<path class="st0" d="M254.8,276.5c-25.2,0-64.2-2.1-70.2-2.5c-11.4-0.7-111.3-7.2-118.7-15.4c-0.1-0.1-0.2-0.3-0.2-0.5
				c0-0.1-0.1-0.3-0.2-0.7c-3.8-13.7-5.1-22.3-3.9-25.8c-3-4.1-7.6-10.7-7.6-12.2c0-0.8-0.4-2.1-0.6-3.2c-0.3-1-0.4-1.6-0.4-1.9
				c0-0.1-0.2-0.9-0.3-1.8c-1.8-10-3.7-22-1.9-25.7c0.9-1.8,2-3.2,2.9-4.4c1.7-2.1,3-3.7,2.9-7.2c-0.1-4.2-0.6-6.3-1.1-8.4
				c-0.2-0.8-0.4-1.6-0.5-2.5c-0.6-3.1-0.4-12.9-0.3-15.5c0-0.2,0-0.5,0.1-0.9c0.1-0.5,0.6-0.8,1.1-0.7c0,0,0,0,0.1,0
				c0.5-0.6,1.5-1.9,3.2-4.7l5.1-7.9c0.4-0.8,5-9.6,11.4-11.6c7.7-2.5,30.2-8.6,60.4-13.8c0,0,0.1,0,0.1,0c0.1,0,10.5-0.6,19.3-9.7
				c8.3-8.6,30.3-31.3,48-39c0.2-0.1,16.3-5.3,33.8-5.8c17.3-0.5,89.9-3.6,90.6-3.6c1.4,0,32,0.8,39.4,1.6l1.8,0.2
				c9.1,0.9,26.1,2.7,31.4,7.5c5.6,5.1,17.7,35.4,20.9,46.3l50.7-6.6c0.5-0.1,0.9,0.2,1.1,0.6c0.2,0.6,5.8,14.7,5.3,27.4
				c-0.5,12.5-2.8,22.7-2.8,22.8c0,0,0,0.1,0,0.1c-0.3,0.9-0.5,1.9-0.5,2.2c0,0.2,0.2,0.5,0.3,0.9c0.4,0.9,0.8,2.1,0.8,3.2
				c0,0.7,0.3,2.2,0.5,3.3c0.2,1,0.3,1.6,0.3,1.9c0,0.6-0.9,7.4-3.4,11.3c1,0,1.9,0.2,2.6,0.8c0.5,0.5,0.7,1.1,0.6,1.8
				c0,0.3,0,0.5,0,0.7c0,2.9-1.5,3.9-11.7,4.4c-0.4,0-0.7-0.1-0.9-0.4c-0.2-0.3-0.2-0.6-0.1-1l2-4.8c0,0,1.5-4.2,1.8-11.3l0.1-1.9
				c0.2-6.2,0.6-17.7-2.6-18.6c-3.9-1.1-12.1,1.1-13.8,5.4c-1.9,4.8-10.5,39.7-10.6,40.1c-0.1,0.3-0.3,0.6-0.6,0.7l-106.2,37.4
				c-0.3,0.1-0.7,0-1-0.2c-0.3-0.2-0.4-0.6-0.3-0.9c0-0.3,4.9-25.5,4.8-38.1c-0.1-13-0.5-20.4-6.6-20.4c-6.5,0-16.4,1.8-24.8,6.8
				c-7.8,4.7-10.2,13.3-12.4,24c-0.6,2.6-1.2,6.4-2,10.7c-2.4,13.6-5.6,32.1-9.5,37.6c0.1,3.8,0.4,24.5-6.5,28.1
				C273.8,276.1,265.6,276.5,254.8,276.5z M67.5,257.4c6.2,5.7,73.2,11.9,117.2,14.6c33.6,1.9,85.5,3.8,90.3,1.2
				c5.1-2.6,5.6-20.1,5.4-26.6c0-0.2,0.1-0.5,0.2-0.7c3.7-4.8,7.1-24.1,9.3-37c0.8-4.4,1.4-8.1,2-10.8c2.4-11.3,4.9-20.3,13.4-25.4
				c8.7-5.2,19-7,25.8-7c8.4,0,8.5,9.9,8.6,22.4c0.1,11.1-3.4,30.8-4.5,36.8l104.1-36.6c1.1-4.6,8.6-35.2,10.5-39.8
				c2.2-5.4,11.5-7.9,16.2-6.6c4.3,1.2,4.4,10,4.1,20.6l-0.1,1.9c-0.3,7.4-1.9,11.7-2,11.9l-1.4,3.4c8.2-0.6,8.2-1.3,8.2-2.3
				c0-0.3,0-0.6,0.1-1c0-0.1,0-0.1,0-0.1c-0.2-0.3-1.8-0.4-3.4-0.1c-0.5,0.1-0.9-0.1-1.1-0.6c-0.2-0.4,0-0.9,0.3-1.2
				c2.9-2.1,4.3-10.5,4.4-11.7c0-0.2-0.2-0.9-0.3-1.5c-0.2-1.3-0.5-2.8-0.5-3.6c0-0.7-0.4-1.7-0.7-2.4c-0.2-0.4-0.3-0.8-0.4-1.1
				c-0.2-1,0.3-2.7,0.5-3.3c0.2-0.8,2.3-10.5,2.8-22.4c0.4-10.7-3.7-22.8-4.9-25.9l-50.8,6.6c-0.5,0.1-1-0.2-1.1-0.7
				c-2.9-10.9-15.4-41.6-20.5-46.2c-4.8-4.3-22-6.1-30.2-7l-1.8-0.2c-7.4-0.8-38.9-1.6-39.2-1.6c-0.7,0-73.2,3.1-90.5,3.6
				c-17.1,0.5-33,5.6-33.1,5.7c-17.3,7.5-39.1,30.1-47.3,38.5c-9.1,9.4-19.6,10.2-20.6,10.3c-30.1,5.3-52.5,11.3-60.1,13.8
				c-5.7,1.8-10.2,10.5-10.2,10.6c0,0,0,0.1-0.1,0.1l-5.1,7.9c-2.2,3.4-3.4,5-4.2,5.7c-0.1,3.1-0.2,11.9,0.3,14.6
				c0.2,0.9,0.3,1.7,0.5,2.5c0.5,2.1,1,4.4,1.1,8.8c0.1,4.2-1.5,6.2-3.3,8.5c-0.9,1.2-1.9,2.4-2.7,4c-1.2,2.4-0.5,10.6,2,24.5
				c0.3,1.6,0.4,1.9,0.4,2.1c0,0.2,0.2,0.9,0.3,1.5c0.3,1.2,0.7,2.6,0.7,3.6c0.2,1,4,6.6,7.5,11.5c0.2,0.3,0.3,0.7,0.1,1.1
				c-0.6,1.1-1.5,5.7,3.8,24.9C67.4,257.1,67.5,257.3,67.5,257.4z"/>
		</g>
		<g>
			<path class="st0" d="M437.7,123.3c-0.5,0-1-0.4-1-1c0-0.3-0.2-7.3,4.9-8.2c0.6-0.1,1.4-0.3,2.4-0.5c9.4-2,18.8-3.7,20.6,0.1
				c1.9,4,2.6,6.7,2.6,6.8c0.1,0.5-0.2,1.1-0.8,1.2c-0.5,0.1-1.1-0.2-1.2-0.8c0,0-0.6-2.6-2.4-6.4c-1.3-2.6-14.2,0.1-18.4,1
				c-1,0.2-1.9,0.4-2.5,0.5c-3.4,0.6-3.3,6.1-3.3,6.2C438.7,122.8,438.3,123.3,437.7,123.3C437.7,123.3,437.7,123.3,437.7,123.3z"/>
		</g>
		<g>
			<path class="st0" d="M414.8,198.9c-0.2,0-0.4,0-0.5-0.1c-0.5-0.3-0.6-0.9-0.3-1.4c1.3-2.2,0.4-5.4,0.4-5.4
				c-0.1-0.3,0-0.5,0.1-0.8c0.5-1,3.1-11.2,3.3-13c0.2-1.5,0.1-7.3,0-10.2c0-0.1,0-0.1,0-0.2c0-0.4,4.6-35.7,4.6-44.8
				c0-8.9-2.7-14.6-2.7-14.7c-0.2-0.5,0-1.1,0.5-1.3c0.5-0.2,1.1,0,1.3,0.5c0.1,0.2,2.9,6.2,2.9,15.5c0,9-4.3,42.7-4.6,45
				c0,0.9,0.2,8.5,0,10.4c-0.2,1.8-2.5,11.1-3.3,13.4c0.3,1.1,0.8,4.2-0.7,6.7C415.5,198.7,415.1,198.9,414.8,198.9z"/>
		</g>
		<g>
			<path class="st0" d="M427.8,149.4c-0.6,0-1.3-0.1-1.9-0.5c-0.5-0.3-1.1-1-1.1-2.2c-0.1-2.6,0-10.8,0-11.8
				c-0.2-1.2,0.3-3.5,3.3-4.1c0.5-0.1,0.9-0.2,1.3-0.3c2-0.5,3.5-0.8,4.5-0.1c0.4,0.3,0.7,0.7,0.8,1.2c0.2,1.1,0.4,13.7-0.4,15.1
				c-0.7,1.1-1.8,1.5-3.3,1.9c-0.4,0.1-0.7,0.2-1.2,0.4l0,0C429.8,149.1,428.8,149.4,427.8,149.4z M432.5,132
				c-0.6,0-1.8,0.3-2.7,0.5c-0.4,0.1-0.9,0.2-1.4,0.3c-1.8,0.4-1.8,1.6-1.7,2c0,0,0,0.1,0,0.2c0,0.1-0.1,9.1,0,11.8
				c0,0.4,0.2,0.5,0.2,0.6c0.5,0.3,1.7,0.1,2.2-0.1c0,0,0,0,0,0c0.4-0.2,0.8-0.3,1.2-0.4c1.2-0.4,1.9-0.6,2.2-1.1
				c0.4-1.1,0.5-12.1,0.2-13.6C432.8,132,432.7,132,432.5,132z"/>
		</g>
		<g>
			<path class="st0" d="M386.9,201c-0.1,0-0.1,0-0.2,0c-0.5-0.1-0.9-0.6-0.8-1.2c2.1-11,0.5-19.6,0.5-19.7c0-0.2,0-0.5,0.1-0.7
				c1.6-2.7,1.8-6.4,1.9-6.4c0-0.4,1.2-42.4,1.2-45.9c0-3.5-1-7.7-2.2-9c-1.7-1.8-1.4-7-1.3-8.1c0-0.5,0.5-1,1.1-0.9
				c0.5,0,1,0.5,0.9,1.1c-0.2,2.2-0.1,5.7,0.7,6.5c1.7,1.9,2.8,6.7,2.8,10.4c0,3.5-1.2,44.2-1.2,45.9c0,0.2-0.2,4-2,7.1
				c0.3,1.8,1.4,9.9-0.6,20.1C387.8,200.7,387.4,201,386.9,201z"/>
		</g>
		<g>
			<path class="st0" d="M337.9,217.5c-0.4,0-0.8-0.3-1-0.7c-0.2-0.5,0.1-1.1,0.6-1.3l90.9-29.2c0.5-0.2,1.1,0.1,1.3,0.6
				c0.2,0.5-0.1,1.1-0.6,1.3l-90.9,29.2C338.1,217.5,338,217.5,337.9,217.5z"/>
		</g>
		<g>
			<path class="st0" d="M347,202.9c-0.1,0-0.3,0-0.4-0.1c-0.5-0.2-0.7-0.8-0.5-1.3c0.2-0.4,4.5-10.3,18.5-15.2
				c13.6-4.7,65.6-23.3,66.1-23.5c0.5-0.2,1.1,0.1,1.3,0.6c0.2,0.5-0.1,1.1-0.6,1.3c-0.5,0.2-52.5,18.8-66.1,23.5
				c-13.1,4.6-17.3,14-17.3,14C347.8,202.7,347.4,202.9,347,202.9z"/>
		</g>
		<g>
			<path class="st0" d="M386.9,110.4c-0.2,0-0.4-0.1-0.6-0.2c-0.2-0.2-0.4-0.4-0.4-0.7c0-0.3-4.3-27-13.8-45.8
				c-0.2-0.3-0.1-0.7,0.1-1c0.2-0.3,0.6-0.5,0.9-0.4c0.7,0.1,16.2,1.7,20.6,3.1c3.4,1.1,6.4,4.5,8.8,10.1c1.1,2.5,5.9,19.3,6.1,20
				c0,0.1,0,0.1,0,0.2c0,0.3,0.6,6.7-4.7,9.5c-4.7,2.4-16.3,5.1-16.8,5.2C387,110.4,387,110.4,386.9,110.4z M374.7,64.5
				c8,16.8,12.1,38.7,13,43.7c3-0.7,11.7-2.9,15.3-4.8c3.9-2,3.7-6.8,3.7-7.4c-1.7-6-5.2-17.8-6-19.7c-2.2-5-4.8-8.1-7.6-8.9
				C389.7,66.3,379,65,374.7,64.5z"/>
		</g>
		<g>
			<path class="st0" d="M411.5,131.4c-2.2,0-4-2.5-4-5.6s1.8-5.6,4-5.6s4,2.5,4,5.6S413.7,131.4,411.5,131.4z M411.5,122.2
				c-0.9,0-2,1.5-2,3.6c0,2.1,1.1,3.6,2,3.6s2-1.5,2-3.6C413.5,123.7,412.4,122.2,411.5,122.2z"/>
		</g>
		<g>
			<path class="st0" d="M377,139.5c-2.6,0-4.7-2.5-4.7-5.5s2.1-5.5,4.7-5.5s4.7,2.5,4.7,5.5S379.6,139.5,377,139.5z M377,130.5
				c-1.5,0-2.7,1.6-2.7,3.5s1.2,3.5,2.7,3.5s2.7-1.6,2.7-3.5S378.5,130.5,377,130.5z"/>
		</g>
		<g>
			<path class="st0" d="M372,137.9c-0.6,0-1.1,0-1.4-0.2c-0.5-0.2-0.8-0.6-1-1.1c-0.4-1.2,0.4-2.8,0.5-3.1c0.1-0.2,0.3-0.4,0.6-0.5
				c1.1-0.3,10.4-3.2,12.2-3.3c0.8,0,1.5,0.3,2,1c0.8,1.3,0.6,3.6,0.1,4.6c-0.2,0.4-0.5,1.1-7,2C376.6,137.5,373.8,137.9,372,137.9z
				 M371.5,135.9c1.5,0.3,10.3-1,11.8-1.7c0.2-0.6,0.3-1.9-0.1-2.4c-0.1-0.1-0.1-0.1-0.2-0.1c-1.2,0.1-7.4,1.9-11.3,3.1
				C371.6,135.2,371.4,135.7,371.5,135.9z M383.2,134.3C383.2,134.3,383.2,134.4,383.2,134.3C383.2,134.4,383.2,134.4,383.2,134.3z"
				/>
		</g>
		<g>
			<path class="st0" d="M406.4,129.9c-0.7,0-1.2-0.1-1.5-0.2c-1.8-1-0.7-3.8-0.4-4.3c0.1-0.2,0.3-0.4,0.6-0.5
				c0.9-0.3,9.3-3.3,11-3.6c0.8,0,1.4,0.3,1.8,0.9c1,1.4,0.6,4.1,0.2,4.9c-0.2,0.4-0.6,1.2-6.4,2.2
				C409.4,129.7,407.6,129.9,406.4,129.9z M405.9,128L405.9,128L405.9,128z M405.9,127.9c1.5,0.2,9.1-1.1,10.5-1.8
				c0.2-0.7,0.2-2.5-0.1-2.8c-1,0.1-6.6,2-10.1,3.3C406,127.1,405.9,127.7,405.9,127.9z"/>
		</g>
		<g>
			<path class="st0" d="M340.5,128.9c-0.2,0-0.4-0.1-0.6-0.2c-0.2-0.1-4.8-3.4-4.9-12c0-0.3,0.1-0.6,0.4-0.8
				c0.2-0.2,0.6-0.3,0.9-0.2c2.5,0.6,5.1,0.8,5.9,0.6c0-0.5,0-1.5,0.1-2.7c0.2-8.4,0.4-11,0.7-11.8c0.2-0.5,2.5-4.8,7.1-5.2
				c3.7-0.4,19.4,0,20,0c0.3,0,6,0.6,7,4.9c0.2,0.8,0.5,1.8,0.8,2.7c0.9,3.2,2,6.7,1.4,9.5c-0.9,4.2-3.7,6.3-9.1,6.8
				c-1.5,0.1-3.7,0.2-6.3,0.3c-5.7,0.2-16.4,0.7-17.8,2.1c-2.1,2.2-4.7,5.6-4.7,5.6C341.1,128.8,340.8,128.9,340.5,128.9z
				 M337.1,117.9c0.3,4.8,2.3,7.4,3.3,8.5c0.9-1.2,2.7-3.3,4.2-4.9c1.8-1.8,9.1-2.3,19.2-2.7c2.5-0.1,4.7-0.2,6.2-0.3
				c5.2-0.5,6.7-2.4,7.3-5.2c0.5-2.3-0.5-5.6-1.4-8.5c-0.3-1-0.6-2-0.8-2.9c-0.6-2.8-5.1-3.3-5.1-3.3l0,0c-0.1,0-16.1-0.4-19.7,0
				c-3.6,0.4-5.4,4-5.5,4.2c-0.3,0.9-0.4,7.9-0.5,10.9c0,1.5-0.1,2.7-0.1,3.1c0,0.4-0.2,0.8-0.6,1.1
				C342.3,118.8,339.2,118.4,337.1,117.9z"/>
		</g>
		<g>
			<path class="st0" d="M336,117.7c-0.3,0-0.7-0.2-0.8-0.5c-0.2-0.3-4.6-7.5-0.1-22.7c0.8-2.7,1.5-5.5,2.2-8.1
				c3.1-12,5.8-22.3,14.8-24.1c9.9-1.9,12.1-0.6,12.4-0.5c0.3,0.1,0.5,0.3,0.6,0.6c0.1,0.3,11.3,25.9,14.1,47.6
				c0.1,0.5-0.3,1-0.9,1.1c-0.6,0.1-1-0.3-1.1-0.9c-2.5-19.7-12.1-42.6-13.7-46.5c-0.9,0-3.8-0.9-11,0.5
				c-7.7,1.5-10.3,11.3-13.2,22.6c-0.7,2.7-1.4,5.4-2.2,8.2c-4.2,14.3-0.2,21-0.1,21.1c0.3,0.5,0.2,1.1-0.3,1.4
				C336.4,117.6,336.2,117.7,336,117.7z"/>
		</g>
		<g>
			<path class="st0" d="M437.9,237.4c-3.8,0-5.4-0.8-6-1.3c-14.2-4.5-11.8-38.1-11.7-39.6c0-0.6,0.5-1,1.1-0.9c0.5,0,1,0.5,0.9,1.1
				c0,0.3-2.5,33.8,10.5,37.6c0.2,0.1,0.4,0.2,0.5,0.3c0.1,0.1,1.4,1,6.3,0.8c1.8-0.1,3.5,0,5.1,0c3.5,0,6.8,0.1,7.9-0.8
				c0.4-0.3,0.7-0.5,1.2-0.8c2.4-1.4,6.9-4.1,8.8-17.4c2.4-16.7,4-34.3-4.2-50.3c-0.1-0.2-2.7-5.3-10.6-3.4
				c-0.5,0.1-1.1-0.2-1.2-0.7c-0.1-0.5,0.2-1.1,0.7-1.2c9.5-2.3,12.8,4.4,12.8,4.4c8.5,16.5,6.8,34.5,4.4,51.5
				c-2,14.2-7,17.2-9.7,18.8c-0.4,0.2-0.7,0.4-1,0.6c-1.6,1.4-5,1.3-9.2,1.3c-1.6,0-3.3,0-5,0C438.9,237.4,438.4,237.4,437.9,237.4z
				"/>
		</g>
		<g>
			<path class="st0" d="M456.1,226.1c-5.1,0-7.7-13.2-7.7-26.2s2.6-26.2,7.7-26.2c5.1,0,7.7,13.2,7.7,26.2S461.2,226.1,456.1,226.1z
				 M456.1,175.7c-2.4,0-5.7,9.2-5.7,24.2s3.3,24.2,5.7,24.2s5.7-9.2,5.7-24.2S458.5,175.7,456.1,175.7z"/>
		</g>
		<g>
			<path class="st0" d="M453,223.4c-0.5,0-0.9-0.3-1-0.8c-0.6-2.7-0.1-17.7,0-19.4c0-0.5,0.4-0.9,0.8-0.9c0.5-0.1,0.9,0.2,1.1,0.6
				c0.1,0.1,5.4,12.6,7.2,15.8c0.3,0.5,0.1,1.1-0.4,1.4c-0.5,0.3-1.1,0.1-1.4-0.4c-1.2-2.1-3.8-7.9-5.6-11.9
				c-0.1,5.5-0.2,12.8,0.1,14.4c0.1,0.5-0.2,1.1-0.8,1.2C453.1,223.4,453.1,223.4,453,223.4z"/>
		</g>
		<g>
			<path class="st0" d="M457.2,202.1c-3.3,0-5-1.3-5.1-1.4c-0.4-0.3-0.5-1-0.1-1.4c0.3-0.4,1-0.5,1.4-0.1c0.1,0.1,2.6,2,7.8,0.3
				c-1-0.9-3.4-2.2-8.8-1.2c-0.3,0.1-0.7-0.1-0.9-0.3c-0.2-0.3-0.3-0.6-0.2-1c2.6-7.7,6.3-19.1,6.2-20.4c0-0.5,0.4-1,1-1
				c0.5,0,1,0.4,1,0.9c0.1,1.9-4.1,14.6-5.8,19.6c8.4-0.9,10,3.4,10.1,3.6c0.2,0.5-0.1,1.1-0.6,1.3
				C460.8,201.8,458.8,202.1,457.2,202.1z"/>
		</g>
		<g>
			<path class="st0" d="M105.2,280.1c-13.6,0-21.4-5-25.6-9.2c-4.6-4.6-5.9-9.1-5.9-9.3c-0.1-0.3,0-0.7,0.2-0.9
				c0.2-0.3,0.6-0.4,0.9-0.3l61,8.9c0.3,0,0.6,0.3,0.8,0.5c0.1,0.3,0.1,0.6,0,0.9C136.4,271.1,131.1,280.1,105.2,280.1z M76.2,262.5
				c1.8,4.2,8.6,15.6,29,15.6c18.9,0,26.2-4.8,28.6-7.2L76.2,262.5z"/>
		</g>
		<g>
			<path class="st0" d="M143.1,110.1C143.1,110.1,143.1,110.1,143.1,110.1c-0.6,0-1-0.5-1-1c0.2-5.5,1-12.2,3.5-12.7l0.5-0.1
				c2.7-0.6,9.1-2.1,14-0.5c0.5,0.2,0.8,0.7,0.6,1.3s-0.7,0.8-1.3,0.6c-4.4-1.5-10.4-0.1-12.9,0.5l-0.5,0.1
				c-0.8,0.5-1.7,5.6-1.9,10.9C144.1,109.7,143.6,110.1,143.1,110.1z"/>
		</g>
		<g>
			<path class="st0" d="M306.9,114.8c-0.3,0-0.6,0-0.9,0c-9.4-0.5-146.9-4.7-148.2-4.7c-0.4,0-0.7-0.2-0.8-0.6
				c-0.2-0.3-0.1-0.8,0.1-1.1c1.4-1.8,40.7-43.5,56.1-45.1c17.6-1.7,63.1-3.3,115.6,0c0.1,0,2.3,0.1,3.5,2.1c1.1,1.7,1,4.2-0.3,7.4
				c-3,7.8-12.2,35.3-12.3,35.6c0,0,0,0.1-0.1,0.1C319.5,108.8,316.3,114.8,306.9,114.8z M159.8,108.2c16.7,0.5,137.5,4.2,146.3,4.6
				c8.5,0.4,11.5-4.5,11.9-5.1c0.6-1.7,9.4-27.9,12.3-35.6c1-2.5,1.1-4.4,0.4-5.6c-0.7-1.1-2-1.2-2-1.2c-52.5-3.2-97.8-1.7-115.4,0
				C200.3,66.7,166.1,100.4,159.8,108.2z"/>
		</g>
		<g>
			<path class="st0" d="M217,189.1c-0.3,0-0.7-0.2-0.8-0.5l-4.7-7.5c0-0.1-0.1-0.2-0.1-0.2l-2.5-8.1c0-0.1-0.1-0.2,0-0.4
				c0-0.6,1-13.6,1.5-16.1c0.6-2.8,5.6-6.2,6.1-6.5c0.1-0.1,0.3-0.1,0.5-0.2c9-0.7,54-3.8,57.2-2.4c4,1.9,4.7,20.4,3.1,27.4
				c-1.8,7.9-14.9,10.8-15.5,11c0,0-0.1,0-0.1,0L217,189.1C217.1,189.1,217,189.1,217,189.1z M213.2,180.2l4.3,6.9l43.8-3.4
				c0.9-0.2,12.4-3,13.9-9.4c1.9-8.2,0.3-24.1-2-25.2c-2.4-0.9-35.5,1.1-55.9,2.6c-1.9,1.3-4.8,3.7-5.1,5.1
				c-0.5,2.3-1.3,14.1-1.5,15.7L213.2,180.2z"/>
		</g>
		<g>
			<path class="st0" d="M217,159.2c-0.6,0-1-0.4-1-1s0.4-1,1-1h41.8c8.3-0.6,16-2.3,16.4-3.6c0.2-0.5,0.7-0.8,1.2-0.7
				c0.5,0.1,0.8,0.7,0.7,1.2c-0.9,3.4-13.1,4.7-18.3,5L217,159.2z"/>
		</g>
		<g>
			<path class="st0" d="M215.5,177.9c-0.5,0-1-0.4-1-1c0-0.6,0.4-1,1-1l42-1.7c4.2-0.1,15.6-1.4,17.8-5.6c0.3-0.5,0.9-0.7,1.3-0.4
				c0.5,0.3,0.7,0.9,0.4,1.3c-3.1,5.9-17.8,6.6-19.5,6.6L215.5,177.9C215.5,177.9,215.5,177.9,215.5,177.9z"/>
		</g>
		<g>
			<path class="st0" d="M248.3,173c-3.6,0-6.5-2.9-6.5-6.5s2.9-6.5,6.5-6.5s6.5,2.9,6.5,6.5S251.9,173,248.3,173z M248.3,162
				c-2.5,0-4.5,2-4.5,4.5s2,4.5,4.5,4.5s4.5-2,4.5-4.5S250.8,162,248.3,162z"/>
		</g>
		<g>
			<path class="st0" d="M72,150.9c-0.1,0-0.2,0-0.3,0l-13.6-4.3c-0.5-0.2-0.8-0.7-0.7-1.3c0.2-0.5,0.7-0.8,1.3-0.7l13.6,4.3
				c0.5,0.2,0.8,0.7,0.7,1.3C72.8,150.6,72.4,150.9,72,150.9z"/>
		</g>
		<g>
			<path class="st0" d="M72,175c-0.1,0-0.1,0-0.2,0c-1.6-0.3-15.5-2.7-16.4-8.3c-0.1-0.5,0.3-1.1,0.8-1.1c0.5-0.1,1.1,0.3,1.1,0.8
				c0.5,3.2,9.3,5.8,14.8,6.7c0.5,0.1,0.9,0.6,0.8,1.1C72.9,174.7,72.5,175,72,175z"/>
		</g>
		<g>
			<path class="st0" d="M65.8,164.6c-3.5,0-6.3-2.8-6.3-6.3c0-3.5,2.8-6.3,6.3-6.3c3.5,0,6.3,2.8,6.3,6.3
				C72.1,161.8,69.3,164.6,65.8,164.6z M65.8,154c-2.4,0-4.3,1.9-4.3,4.3s1.9,4.3,4.3,4.3s4.3-1.9,4.3-4.3S68.2,154,65.8,154z"/>
		</g>
		<g>
			<path class="st0" d="M200.5,205.2C200.5,205.2,200.5,205.2,200.5,205.2L82,198.3c-0.1,0-4.4,0.1-7.7-3.1
				c-2.2-2.2-3.4-5.4-3.4-9.4c0-2-0.1-4.7-0.1-7.9c-0.6-27.2,0-43.3,5.1-44.6c6.5-1.7,130,4.6,135.2,4.9c0.2,0,0.4,0.1,0.5,0.2
				c0.3,0.2,6.3,4.3,6.3,12.3c0,0.6-0.4,1-1,1s-1-0.4-1-1c0-6.2-4.2-9.8-5.2-10.5c-44.5-2.3-129.4-6.2-134.3-4.9
				c-4.6,1.2-3.9,30.3-3.6,42.7c0.1,3.2,0.1,6,0.1,8c0,3.5,0.9,6.1,2.8,8c2.6,2.6,6.3,2.5,6.3,2.5l118.2,6.9
				c3.7-2.2,12.8-7.6,14.5-9.3c1.5-1.5,1.4-4.6,1.2-5.6c-0.1-0.5,0.3-1.1,0.8-1.1c0.5-0.1,1.1,0.3,1.1,0.8c0,0.2,0.8,4.8-1.8,7.4
				c-2.3,2.3-14.7,9.5-15.2,9.8C200.8,205.2,200.7,205.2,200.5,205.2z"/>
		</g>
		<g>
			<path class="st0" d="M189.2,159.4c-21.7,0-104.1-5.1-107.9-5.3c-0.6,0-1-0.5-0.9-1.1c0-0.6,0.5-1,1.1-0.9
				c1,0.1,99.1,6.1,111.5,5.2c0.6,0,1,0.4,1.1,0.9s-0.4,1-0.9,1.1C192.2,159.4,190.9,159.4,189.2,159.4z"/>
		</g>
		<g>
			<path class="st0" d="M184.4,174c-47.9,0-105-6.5-105.6-6.5c-0.5-0.1-0.9-0.6-0.9-1.1c0.1-0.5,0.6-0.9,1.1-0.9
				c0.6,0.1,61.7,7,110.5,6.5c0,0,0,0,0,0c0.5,0,1,0.4,1,1c0,0.6-0.4,1-1,1C187.8,174,186.1,174,184.4,174z"/>
		</g>
		<g>
			<path class="st0" d="M192.9,189.1C192.9,189.1,192.9,189.1,192.9,189.1c-47.9-0.5-113.4-5.9-114.1-6c-0.6,0-1-0.5-0.9-1.1
				c0-0.5,0.5-1,1.1-0.9c0.7,0.1,66.1,5.5,113.9,6c0.6,0,1,0.5,1,1C193.9,188.7,193.4,189.1,192.9,189.1z"/>
		</g>
		<g>
			<path class="st0" d="M238,233c-3.3,0-6-0.5-7.6-1.4c-1.3-0.7-1.7-1.6-1.7-2.3c-0.4-3.7,0-16.2,0-16.7c0,0,0-0.1,0-0.1
				c0-0.2,1.1-5.7,8.6-6.6c7-0.8,22-1.1,23.1-1.1c2,0,3.4,1.3,3.5,1.4c0.2,0.2,0.3,0.4,0.3,0.6c0.1,0.7,1.9,17.4-9,22.5
				C249.8,231.8,243.2,233,238,233z M230.6,212.8c0,1.2-0.4,12.9,0,16.4c0,0.2,0.3,0.5,0.7,0.7c3.3,1.8,14.4,1.6,22.9-2.4
				c8.7-4.1,8.1-17.5,7.9-20.1c-0.4-0.2-1.1-0.6-1.8-0.6c-1.1,0-16,0.3-22.9,1.1C231.8,208.6,230.7,212.3,230.6,212.8z"/>
		</g>
		<g>
			<path class="st0" d="M248,225.1c-4,0-7.3-3.6-7.3-8.1s3.3-8.1,7.3-8.1s7.3,3.6,7.3,8.1S252,225.1,248,225.1z M248,210.9
				c-2.9,0-5.3,2.7-5.3,6.1s2.4,6.1,5.3,6.1s5.3-2.7,5.3-6.1S250.9,210.9,248,210.9z"/>
		</g>
		<g>
			<path class="st0" d="M189.6,228.8c-31.1,0-115.7-8.5-119.9-8.9c-0.4,0-0.8-0.3-0.9-0.8c-1.3-5.5-1.2-9.1,0.4-10.7
				c1-1,2.1-0.9,2.5-0.9c2.6,0.2,106.5,7.6,119.2,8.4c4.8,0.3,8,1.7,9.5,4.3c2,3.3,0.5,7.1,0.4,7.2c-0.1,0.2-0.3,0.4-0.5,0.5
				C199.1,228.6,195.2,228.8,189.6,228.8z M70.6,218c33.8,3.4,119.5,11.2,128.6,8.3c0.3-0.9,0.8-3.1-0.4-5c-1.2-1.9-3.9-3.1-8-3.3
				c-12.9-0.8-118.2-8.3-119.3-8.4c0,0-0.1,0-0.1,0c0,0-0.4,0-0.7,0.3C70.2,210.3,69.3,212.1,70.6,218z"/>
		</g>
		<g>
			<path class="st0" d="M146.7,235.6C146.7,235.6,146.7,235.6,146.7,235.6l-36.2-2.6c-0.6,0-1-0.5-0.9-1.1c0-0.6,0.5-1,1.1-0.9
				l36.1,2.6c0.6,0,1,0.5,0.9,1.1C147.7,235.2,147.2,235.6,146.7,235.6z"/>
		</g>
		<g>
			<path class="st0" d="M150.4,245.5C150.4,245.5,150.4,245.5,150.4,245.5l-36-2.7c-0.6,0-1-0.5-0.9-1.1c0-0.6,0.5-1,1.1-0.9
				l35.9,2.7c0.6,0,1,0.5,0.9,1.1C151.4,245.1,150.9,245.5,150.4,245.5z"/>
		</g>
		<g>
			<path class="st0" d="M106.2,252.6C106.2,252.6,106.2,252.6,106.2,252.6l-14.9-1.1c-0.2,0-0.4-0.1-0.5-0.2
				c-0.5-0.4-12.4-8.7-13.8-16.5c-0.1-0.3,0-0.6,0.2-0.9s0.5-0.4,0.8-0.3l14.4,1.3c0.4,0,0.7,0.3,0.8,0.6c0,0.1,4.9,11,13.3,15.2
				c0.4,0.2,0.6,0.7,0.5,1.2C107,252.3,106.6,252.6,106.2,252.6z M91.8,249.5l10.5,0.8c-6-4.5-9.6-11.5-10.5-13.5l-12.4-1.1
				C81.5,241.9,90.3,248.4,91.8,249.5z"/>
		</g>
		<g>
			<path class="st0" d="M202.8,259.8C202.8,259.8,202.8,259.8,202.8,259.8l-14.9-1.1c-0.2,0-0.4-0.1-0.5-0.2
				c-0.5-0.4-12.4-8.7-13.8-16.5c-0.1-0.3,0-0.6,0.2-0.9s0.5-0.4,0.8-0.3l14.4,1.3c0.4,0,0.7,0.3,0.8,0.6c0,0.1,4.9,11,13.3,15.2
				c0.4,0.2,0.6,0.7,0.5,1.2C203.6,259.5,203.2,259.8,202.8,259.8z M188.4,256.7l10.5,0.8c-6-4.5-9.6-11.5-10.5-13.5l-12.4-1.1
				C178.1,249.1,186.9,255.6,188.4,256.7z"/>
		</g>
	</g>
	<g>
		<path class="st0" d="M126.6,182.9c-6.6,0-12-5.4-12-12s5.4-12,12-12s12,5.4,12,12S133.2,182.9,126.6,182.9z M126.6,160.9
			c-5.5,0-10,4.5-10,10s4.5,10,10,10s10-4.5,10-10S132.1,160.9,126.6,160.9z"/>
	</g>
</g>
</svg>
