<?xml version="1.0" encoding="utf-8"?>
<!-- Generator: Adobe Illustrator 19.2.1, SVG Export Plug-In . SVG Version: 6.00 Build 0)  -->
<svg version="1.1" id="Layer_1" xmlns="http://www.w3.org/2000/svg" xmlns:xlink="http://www.w3.org/1999/xlink" x="0px" y="0px"
	 viewBox="0 0 536.9 344.3" style="enable-background:new 0 0 536.9 344.3;" xml:space="preserve">
<style type="text/css">
	.st0{fill:#D3D5D8;}
	.st1{fill:#FFFFFF;}
</style>
<g>
	<g>
		<g>
			<path class="st0" d="M333.4,230.7l-17,10.7c1.7-10.7-12.5,15.4-16.1,1.6c-3.6-13.8,16.8-25.7,1.2-23.5
				c-15.5,2.2-15.5,2.2-15.5,2.2c-13.8,23.3-20.6,17.6-20.7,28.7c-0.1,11.2-5.7,13.1-5.7,13.1c-31.8,2.7-64.8,1.7-111.7-2.2
				c-46.9-3.9-79.9-14.3-82-16.1s-2.3-9.2-2.3-9.2c-2.3-1.3-7.6-4.9-7.6-7.3s-1.8-5.8-1.9-8.3c-0.2-2.4-0.8-7.4-1.8-16.3
				S51.5,190.1,53,187c1.5-3.1,1-8.9,1.1-12.6c0.2-3.7,2.1-8.3,3.2-10.9s0-4.2,5.7-17.6c5.7-13.4,19.6-16.2,19.6-16.2
				s51.1-14.9,60.8-19.1c9.7-4.2,33.8-28.5,51.1-40.5s31.4-12,31.4-12s51.6-3.4,93.1-4.7c41.4-1.3,85.9,4.2,103.2,6
				c17.3,1.8,19.4,5.2,19.4,5.2s20.9,32.9,26.9,39.5c6,6.6,3.9,19.3,3.9,19.3s1,23.6,0,39.5c-1,15.9-2.9,13.4-2.9,13.4
				c0.6-6-9.2,16.5-9.2,3.2s2.2,1.4-8.4,6.9c-10.7,5.5-15.7-9-16.7,6.9c-1,15.9-16.5,15.2-16.5,15.2s-4.2-0.6-9.1,0
				c-4.9,0.6-33.1,9.3-51.5,14.9c-15.5,4.7-23.6,10.1-23.6,10.1S332.7,233.6,333.4,230.7z"/>
		</g>
		<g>
			<path class="st0" d="M334.6,211.4c0,0,3.2,0.7,7.3-2.2c4.1-2.9,7.3-6.1,24.8-10.9c17.5-4.9,17.5-4.9,17.5-4.9s23.5-8.7,29.6-9
				c6.1-0.2,18.1,0.7,22.3-1.5"/>
		</g>
		<g>
			<path class="st0" d="M386.5,113.5l4.1,6.6c0,0,1.2,13.6,1.5,21.1c0.2,7.5,0.7,39.3,0,43.7c-0.7,4.4-1.7,6.2-1.7,6.2"/>
		</g>
		<g>
			<path class="st0" d="M336,211.5c2.8-6.4-1.2-45-1.5-52.3c-0.2-7.3-3.4-17.7-4.1-19.7c-0.7-1.9,0-9.2,0-9.2l-3.4-6.1
				c0,0-1.1-9.5,1.3-17.8c2.4-8.4,12.6-33.5,15.3-35.7s5.7-6.6,18.6-7c12.9-0.5,37.1,0.3,40.5,1.2c3.4,0.9,17.6,25.9,17.6,25.9
				s3,4,0,9.7c-3,5.7-0.2,5.6-11.4,7.4s-38.4,5.7-38.4,5.7"/>
		</g>
		<g>
			<path class="st0" d="M424.9,93.9c0,0,5.3,5.8,8,12.1c2.7,6.3,4.9,7.5,4.9,7.5s-0.2,6.1,1.5,9c1.7,2.9,6.3,13.8,5.8,20.9"/>
		</g>
		<g>
			<path class="st0" d="M472.5,123.4c0,0-1.7-4.2-7.2-7.6c0,0-5.3-4.6-2.5-6.4c2.8-1.8,8.8,0,8.8,0"/>
		</g>
		<g>
			<path class="st0" d="M461.5,127.8c0,0-2.4,0.9-4-1.1c-1.6-2-4.5-7.4-4.5-9c0-1.5,0.2-3.3,2.5-3.4c2.3-0.1,4.2,3.7,4.8,5.2
				C460.7,120.9,464,126.6,461.5,127.8z"/>
		</g>
		<g>
			<ellipse class="st0" cx="381" cy="130.6" rx="2.6" ry="4.8"/>
		</g>
		<g>
			<path class="st0" d="M387.7,131.6c0,0-6.8,1.2-10.7,1c0,0-1.5-0.8-0.8-2.3c0.5-1.2,3-1.9,5.4-2.2c2.4-0.3,5.7-1.2,6.6-0.5
				C388.7,128.1,388.8,131.3,387.7,131.6z"/>
		</g>
		<g>
			<ellipse class="st0" cx="430.9" cy="121.5" rx="2.6" ry="4.8"/>
		</g>
		<g>
			<path class="st0" d="M435.9,122.7c0,0-5.8,1-9.2,0.9c0,0-1.3-0.7-0.7-2c0.5-1,2.6-1.6,4.6-1.9c2-0.3,4.9-1,5.6-0.4
				C436.8,119.7,436.9,122.4,435.9,122.7z"/>
		</g>
		<g>
			<path class="st0" d="M442.6,67.3l-23.5-2.4c0,0-1.9-0.2-0.8,1.8s26.9,33.4,26.9,33.4s0.9,1.2,3,1.2s17.7-0.6,17.7-0.6"/>
		</g>
		<g>
			<path class="st0" d="M364.7,63.6c0,0,10.6,18.4,13.7,48.8"/>
		</g>
		<g>
			<path class="st0" d="M373.4,63.6c0,0,12.6,24.3,15.1,47.2"/>
		</g>
		<g>
			<path class="st0" d="M369.3,63.6c0,0,10.3,19,14.8,47.2"/>
		</g>
		<g>
			<path class="st0" d="M327.1,124.2c0,0,3.5,1.8,6.3-1.3s3.7-3.8,12.1-3.6c8.3,0.2,21.4-0.5,21.4-0.5s4.1-0.4,3.5-6.4
				c-0.6-5.9-1.3-10.4-6.9-11.1c-5.6-0.7-19.5-0.4-19.5-0.4s-3.8-0.2-5.8,5.1s-0.4,8.3-3.6,8.3s-7.3-1.7-7.1-3"/>
		</g>
		<g>
			<path class="st0" d="M369.3,110.3l-16.7,0.5c0,0-2.2,0-3.4,1.6c-1.2,1.7-2.8,2.1-4.8,2.1s-10-0.2-10-0.2"/>
		</g>
		<g>
			<path class="st0" d="M79.5,249.9c0,0,8.1,17.3,25.3,17.6c17.2,0.3,20.1-3.6,20.1-3.6l10.4-8.4"/>
		</g>
		<g>
			<path class="st0" d="M254.7,263.9c0,0,5.7,19,27.1,18.7c21.4-0.4,29.1-5.3,35-19.4c5.8-14.1,9.1-25.9,6.9-53.8
				c0,0-0.5-28.8-21.1-33.1c0,0-13.1-4.7-23.9,2.1"/>
		</g>
		<g>
			
				<ellipse transform="matrix(7.518975e-02 -0.9972 0.9972 7.518975e-02 48.4429 514.3268)" class="st0" cx="301.5" cy="231" rx="32.3" ry="16.3"/>
		</g>
		<g>
			<path class="st0" d="M294.6,203.5c0,0,5.4,16.2,6.9,16.1s7.3-13.3,8.3-18"/>
		</g>
		<g>
			<path class="st0" d="M314.5,210.6c0,0-8.7,12.9-8.3,15c0.5,2.1,11.6,3.7,11.6,3.7"/>
		</g>
		<g>
			<path class="st0" d="M316.4,241.5c0,0-8.4-4.3-10.1-3.3c-1.8,1,0,22.6,0,22.6"/>
		</g>
		<g>
			<path class="st0" d="M297.5,263c0,0,4.1-4.8,2.8-20c0,0-1.3-1.8-4.7,1c-3.4,2.8-7.5,6.1-8.5,5.4"/>
		</g>
		<g>
			<path class="st0" d="M285.7,243.4c0,0,11.6-7.9,12.3-12.3s-9.2-17.5-9.2-17.5"/>
		</g>
		<g>
			<path class="st0" d="M51.7,194.9c0,0,8.3,7,8.3,13.1s-3.9,16.7-3.9,16.7s4.1,5.9,7.3,4c3.2-1.9,7-8.6,22.1-5.7
				c15.1,2.9,81.6,6.7,87.9,8c6.3,1.3,21.2,9.9,21.2,9.9l24.6-1.5c0,0-13.2-14.3-12.4-19.7c0.8-5.3,5.8-5.8,5.8-5.8s14.2-1.9,25.2-3
				c11-1.1,12.4,3.5,12.4,3.5c2.8,10.1,3,21,3,21c1,1,13-2.6,13-2.6"/>
		</g>
		<g>
			<path class="st0" d="M66.1,229.8c0,0,2.2,5.3,17,8.7s49.3,11.7,99,6.8"/>
		</g>
		<g>
			<path class="st0" d="M58.1,160.7c0,0,0.2,7,2.4,6.5c2.2-0.5,8.5-5.1,8-13.6c-0.5-8.5-4.6-7.5-4.1-10.4"/>
		</g>
		<g>
			<path class="st0" d="M187.7,167.2c0,0,7-9.5,16-10.5c9-1,57.8-8.3,63.6-10.2s5.6,4.6,4.6,6.1c-1,1.5-7.6,5.1-9.6,9
				s-4,6.6-9.5,7.8c-5.6,1.2-38.4,6.9-38.4,6.9S203.7,177.2,187.7,167.2z"/>
		</g>
		<g>
			<circle class="st0" cx="236.2" cy="162.6" r="6.1"/>
		</g>
		<g>
			<path class="st0" d="M248,170.3c0,0,5-10.9,6.7-15.1c1.7-4.3,17.3-7.3,17.3-7.3"/>
		</g>
		<g>
			<path class="st0" d="M70.7,151.2c0,0,26.2,8.5,117,5.3c0,0-7.3,9.8-18.7,10.7c-11.4,0.9-69.9,2.2-94.9-5.9L70.7,151.2z"/>
		</g>
		<g>
			<path class="st0" d="M111,217l-38.6-9.5c0,0-6.1-1.9-7.8-7.5c-1.7-5.6-5.1-19.7-5.1-19.7s-1.7-2.8,1-5.9c2.7-3.1,4.9-8.7,8-8.4
				c3.1,0.2,28.4,8,71.1,6.8c42.7-1.2,42-2.7,44.4-0.2c2.4,2.4,11.9,10.9,11.9,10.9s2.4,4.6-1.7,9s-14.1,20.1-14.1,20.1
				s-3.4,4.1-16.3,4.4C151.1,217.2,111,217,111,217z"/>
		</g>
		<g>
			<ellipse class="st0" cx="112.9" cy="191.3" rx="14.9" ry="8"/>
		</g>
		<g>
			<path class="st0" d="M258.1,166c0,0,11.4,7.3,23.8,6.1"/>
		</g>
		<g>
			<path class="st0" d="M230.1,152.1c0,0,5.9-12.4,28-18.4c22.1-6.1,50-12.4,44.1-17.7"/>
		</g>
		<g>
			<path class="st0" d="M416.8,209.2c0,0,1.6,22.2,14.6,23.6c12.9,1.5,24.1,2.6,29.8-11.8c5.7-14.4,8.5-40.5-2.9-60.2
				c0,0-5.7-8.2-18-5.1"/>
		</g>
		<g>
			<ellipse class="st0" cx="452.9" cy="196" rx="10" ry="25.7"/>
		</g>
		<g>
			<path class="st0" d="M448,174.1c0,0,3.1,12.4,4,12.3c0.9-0.1,4.2-10.2,4.8-13.8"/>
		</g>
		<g>
			<path class="st0" d="M460.4,179.6c0,0-5,9.9-4.7,11.5c0.3,1.6,6.7,2.8,6.7,2.8"/>
		</g>
		<g>
			<path class="st0" d="M462.4,202.3c0,0-4.8-3.3-5.8-2.5c-1,0.7,0,20.2,0,20.2"/>
		</g>
		<g>
			<path class="st0" d="M450.6,220.7c0,0,2.3-4.6,1.6-16.3c0,0-0.7-1.4-2.7,0.7c-2,2.1-4.3,4.7-4.9,4.1"/>
		</g>
		<g>
			<path class="st0" d="M443.9,204.7c0,0,6.7-6.1,7-9.4s-6.3-14.4-6.3-14.4"/>
		</g>
	</g>
	<g>
		<g>
			<path class="st1" d="M222.2,266.1c-20.7,0-44.4-1.2-74.3-3.7c-46.7-3.9-80.2-14.3-82.5-16.3c-2.1-1.8-2.5-7.3-2.6-9.4
				c-2-1.2-7.6-4.8-7.6-7.9c0-1.1-0.5-2.6-0.9-4.1c-0.4-1.4-0.9-2.8-1-4.1c-0.1-1.5-0.4-3.9-0.8-7.6c-0.3-2.4-0.6-5.2-1-8.7
				c-1-9.3-0.8-14.4,0.7-17.7c1-2.1,1-5.8,1-9.1c0-1.1,0-2.2,0-3.1c0.2-4,2.4-9.1,3.3-11.2c0.3-0.7,0.4-1.3,0.6-2.3
				c0.4-2.2,1.1-6,5.1-15.3c5.8-13.7,19.7-16.7,20.3-16.8c0.4-0.1,51.1-14.9,60.7-19c5.1-2.2,14.7-10.5,24.9-19.3
				c8.9-7.7,18.1-15.6,26.1-21.1c17.4-12,31.4-12.2,32-12.2c0.5,0,52.1-3.4,93-4.7c37-1.2,75.9,3,96.8,5.3c2.5,0.3,4.7,0.5,6.6,0.7
				c16.9,1.7,19.8,5,20.2,5.6c0.2,0.3,20.9,32.8,26.8,39.3c6,6.7,4.4,18.6,4.1,20c0.1,1.7,0.9,24.3,0,39.5
				c-0.8,13.7-2.4,14.2-3.2,14.4c-0.6,0.2-1.2-0.1-1.5-0.5c-0.2-0.2-0.2-0.5-0.2-0.7c0.4-3.7,0.3-8.1,0.2-14.2
				c-0.1-3.7-0.2-8-0.2-13c0-5.2-1.5-8.9-4.4-10.6c-3.3-2-8.5-1.5-14.2,1.5c-7.1,3.7-11.8,21.7-13.7,53.5
				c-1,16.6-17.4,16.2-17.5,16.2c0,0-0.1,0-0.1,0c0,0-4.1-0.6-8.8,0c-4.1,0.5-25.8,7.1-43.3,12.4l-8,2.4c-15.2,4.6-23.2,9.9-23.3,10
				c-0.2,0.1-0.3,0.2-0.5,0.2c-0.1,0-1.1,0-1.8-0.8c-0.6-0.7-0.8-1.8-0.5-3.1l1.2-19.3c1.8-11.4-1.9-27.6-4.8-38.8
				c-3.4-13-9.6-14.6-25.1-12.4c-14.8,2.1-20.8,12.3-20.9,12.4c-5.8,9.8-10.4,24.8-13.3,43.4c-2.4,15.1-3.1,28.8-3.1,34.5
				c-0.1,11.7-6.2,14-6.4,14c-0.1,0-0.2,0-0.2,0.1C247.8,265.6,235.6,266.1,222.2,266.1z M332.1,54.3c-4.3,0-8.7,0.1-13,0.2
				c-40.9,1.3-92.5,4.7-93,4.7c-0.2,0-14.1,0.2-30.9,11.8c-7.9,5.4-17,13.3-25.9,21c-10.7,9.3-20,17.2-25.4,19.6
				c-9.7,4.2-58.9,18.5-61,19.1c-0.2,0-13.6,3-18.9,15.7c-3.9,9.1-4.5,12.7-4.9,14.8c-0.2,1-0.3,1.8-0.7,2.7c-0.9,2-3,6.8-3.2,10.5
				c0,0.9,0,1.9,0,3c0,3.5,0,7.4-1.2,9.9c-1.4,2.8-1.5,7.8-0.6,16.6c0.4,3.5,0.7,6.3,1,8.7c0.4,3.7,0.7,6.2,0.8,7.7
				c0.1,1,0.5,2.3,0.9,3.6c0.5,1.6,1,3.2,1,4.7c0,1.5,3.7,4.5,7.1,6.4c0.3,0.2,0.5,0.5,0.5,0.8c0.1,2.9,0.7,7.5,1.9,8.5
				c1.7,1.4,33.3,11.9,81.4,15.9c49.1,4.1,81.3,4.7,111.4,2.2c0.7-0.3,4.9-2.6,5-12.1c0.1-14.3,3.3-56.3,16.7-78.9
				c0.2-0.4,6.5-11.1,22.3-13.3c15.8-2.2,23.5-0.8,27.3,13.8c3.2,12.3,6.7,27.9,4.9,39.5l-1.2,19.2c0,0.1,0,0.1,0,0.2
				c-0.2,1,0,1.4,0,1.5c0,0,0,0.1,0.1,0.1c1.7-1.1,9.6-5.8,23.5-10l8-2.4c18.4-5.6,39.4-11.9,43.6-12.5c4.7-0.6,8.7-0.1,9.3,0
				c1.1,0,14.5,0.1,15.4-14.3c2-33.1,6.9-51.1,14.8-55.2c6.5-3.3,12.2-3.8,16.2-1.4c2.4,1.5,5.3,4.8,5.3,12.3c0,5,0.1,9.2,0.2,13
				c0.1,3,0.1,5.6,0.1,8c0.2-1.8,0.4-4.1,0.6-7.1c1-15.6,0-39.1,0-39.4c0-0.1,0-0.1,0-0.2c0-0.1,1.9-12.2-3.6-18.4
				c-6-6.6-26.1-38.3-27-39.6l0,0c0,0-2.6-3.1-18.7-4.7c-1.9-0.2-4.1-0.4-6.6-0.7C397.2,57.8,364.8,54.3,332.1,54.3z M334.6,233.6
				L334.6,233.6L334.6,233.6z M333.4,230.7L333.4,230.7L333.4,230.7z"/>
		</g>
		<g>
			<path class="st1" d="M335.5,212.5c-0.7,0-1.1-0.1-1.2-0.1c-0.5-0.1-0.9-0.7-0.7-1.2c0.1-0.5,0.7-0.9,1.2-0.8c0.1,0,2.8,0.6,6.5-2
				c0.4-0.3,0.8-0.6,1.2-0.9c3.7-2.7,7.9-5.8,23.9-10.2l17.5-4.9c0.9-0.3,23.7-8.8,29.8-9c1.7-0.1,3.8,0,6,0
				c5.8,0.1,13,0.1,15.8-1.3c0.5-0.3,1.1-0.1,1.3,0.4c0.3,0.5,0.1,1.1-0.4,1.3c-3.3,1.7-10.4,1.6-16.8,1.6c-2.2,0-4.3,0-5.9,0
				c-5.8,0.2-29.1,8.8-29.3,8.9l-17.6,4.9c-15.6,4.3-19.7,7.3-23.2,9.9c-0.4,0.3-0.8,0.6-1.2,0.9C339.5,212.1,337,212.5,335.5,212.5
				z"/>
		</g>
		<g>
			<path class="st1" d="M390.4,192.1c-0.2,0-0.3,0-0.5-0.1c-0.5-0.2-0.7-0.9-0.4-1.3c0,0,0.9-1.8,1.6-5.9c0.7-4.3,0.2-36.2,0-43.5
				c-0.2-6.9-1.3-19-1.4-20.8l-4-6.4c-0.3-0.5-0.2-1.1,0.3-1.4c0.5-0.3,1.1-0.2,1.4,0.3l4.1,6.6c0.1,0.1,0.1,0.3,0.1,0.4
				c0,0.1,1.2,13.7,1.5,21.2c0.2,7.6,0.7,39.4,0,43.9c-0.7,4.5-1.7,6.4-1.8,6.5C391.2,191.9,390.8,192.1,390.4,192.1z"/>
		</g>
		<g>
			<path class="st1" d="M336,212.5c-0.1,0-0.3,0-0.4-0.1c-0.5-0.2-0.7-0.8-0.5-1.3c2.1-4.7,0.2-29.1-0.9-42.1
				c-0.3-4.4-0.6-7.9-0.7-9.7c-0.2-7-3.3-17.2-4.1-19.4c-0.7-1.9-0.3-7.6-0.1-9.4l-3.2-5.8c-0.1-0.1-0.1-0.2-0.1-0.4
				c0-0.4-1.1-9.8,1.4-18.2c2.2-7.5,12.5-33.6,15.6-36.2c0.3-0.3,0.7-0.6,1-0.9c2.6-2.4,6.6-5.9,18.2-6.4
				c13.2-0.5,37.4,0.4,40.8,1.2c3.5,0.9,14.8,20.3,18.2,26.3c0.4,0.6,3.2,4.8,0,10.7c-0.6,1.1-1,2.1-1.3,2.8
				c-1.4,3.4-2,3.7-10.9,5.1c-11,1.8-38.1,5.7-38.4,5.7c-0.5,0.1-1.1-0.3-1.1-0.8c-0.1-0.5,0.3-1.1,0.8-1.1c0.3,0,27.3-3.9,38.3-5.7
				c8.3-1.4,8.3-1.4,9.3-3.9c0.3-0.8,0.7-1.7,1.4-3c2.7-5,0.2-8.5,0.1-8.6c0,0,0-0.1-0.1-0.1c-6.8-12-15-24.8-17-25.4
				c-3.3-0.8-27.5-1.7-40.3-1.2c-10.9,0.4-14.3,3.6-16.9,5.9c-0.4,0.3-0.7,0.7-1.1,1c-2.3,1.9-12.3,25.9-15,35.2
				c-2.2,7.4-1.5,15.9-1.3,17.3l3.3,5.9c0.1,0.2,0.1,0.4,0.1,0.6c-0.3,2.7-0.5,7.5-0.1,8.8c0.8,2.2,3.9,12.7,4.2,20
				c0.1,1.7,0.3,5.2,0.7,9.6c1.5,19.2,2.8,38.4,0.7,43.1C336.8,212.2,336.4,212.5,336,212.5z"/>
		</g>
		<g>
			<path class="st1" d="M445,144.4C445,144.4,445,144.4,445,144.4c-0.6,0-1-0.5-1-1.1c0.5-6.6-3.9-17.2-5.7-20.3
				c-1.5-2.6-1.6-7.4-1.6-9c-0.9-0.7-2.7-2.7-4.8-7.6c-2.6-6.1-15.8-21-15.9-21.2c-0.4-0.4-0.3-1,0.1-1.4c0.4-0.4,1-0.3,1.4,0.1
				c0.6,0.6,13.6,15.3,16.3,21.7c2.4,5.8,4.4,7,4.4,7.1c0.3,0.2,0.5,0.5,0.5,0.9c-0.1,1.6,0.1,6.3,1.3,8.4c1.5,2.5,6.5,13.8,6,21.4
				C446,144,445.5,144.4,445,144.4z"/>
		</g>
		<g>
			<path class="st1" d="M472.5,124.4c-0.4,0-0.8-0.2-0.9-0.6l0,0c0,0-1.7-3.9-6.8-7.1c0,0-0.1-0.1-0.1-0.1c-0.6-0.6-3.9-3.5-3.7-6
				c0.1-0.9,0.5-1.6,1.3-2.1c3.1-2,9-0.3,9.6-0.1c0.5,0.2,0.8,0.7,0.7,1.2c-0.2,0.5-0.7,0.8-1.2,0.7c-1.5-0.5-6-1.4-7.9-0.1
				c-0.3,0.2-0.3,0.4-0.4,0.5c-0.1,1.1,1.7,3.1,3,4.3c5.6,3.5,7.4,7.8,7.5,8c0.2,0.5,0,1.1-0.5,1.3
				C472.7,124.4,472.6,124.4,472.5,124.4z"/>
		</g>
		<g>
			<path class="st1" d="M460.2,129c-1.1,0-2.4-0.3-3.5-1.7c-1.6-2-4.8-7.6-4.8-9.6c0-2.8,1.2-4.3,3.5-4.4c3.3-0.1,5.5,5.2,5.7,5.8
				c0.1,0.2,0.2,0.5,0.4,0.9c1.2,2.5,3.4,7.2,0.4,8.7c0,0-0.1,0-0.1,0C461.7,128.8,461.1,129,460.2,129z M461.5,127.8L461.5,127.8
				L461.5,127.8z M455.5,115.3C455.4,115.3,455.4,115.3,455.5,115.3c-1.1,0-1.6,0.4-1.6,2.4c0,1.1,2.7,6.3,4.3,8.4
				c1,1.3,2.6,0.9,2.9,0.8c0.7-0.4,0.3-2.5-1.4-6c-0.2-0.4-0.4-0.8-0.5-1.1C458.5,118,456.8,115.3,455.5,115.3z"/>
		</g>
		<g>
			<path class="st1" d="M381,136.5c-2.1,0-3.6-2.5-3.6-5.8s1.6-5.8,3.6-5.8c2.1,0,3.6,2.5,3.6,5.8S383,136.5,381,136.5z M381,126.8
				c-0.7,0-1.6,1.5-1.6,3.8s1,3.8,1.6,3.8s1.6-1.5,1.6-3.8S381.6,126.8,381,126.8z"/>
		</g>
		<g>
			<path class="st1" d="M377.6,133.7c-0.2,0-0.4,0-0.6,0c-0.2,0-0.3,0-0.4-0.1c-0.9-0.5-2.1-1.9-1.3-3.6c0.6-1.4,2.7-2.3,6.2-2.8
				c0.6-0.1,1.3-0.2,1.9-0.3c2.7-0.5,4.4-0.7,5.4,0c1,0.8,0.8,2.9,0.7,3.6c-0.2,1.4-0.9,1.9-1.4,2.1c0,0-0.1,0-0.1,0
				C387.6,132.7,381.6,133.7,377.6,133.7z M377.3,131.7c3.4,0,8.9-0.8,10-1c0.2-0.4,0.3-1.7,0.1-2.2c-0.6-0.1-2.5,0.2-3.7,0.4
				c-0.7,0.1-1.4,0.2-2,0.3c-2.8,0.4-4.4,1.1-4.6,1.6C376.9,131.2,377.1,131.5,377.3,131.7z M387.7,131.6L387.7,131.6L387.7,131.6z"
				/>
		</g>
		<g>
			<path class="st1" d="M426.9,128.4c-2.1,0-3.6-2.5-3.6-5.8s1.6-5.8,3.6-5.8c2.1,0,3.6,2.5,3.6,5.8S429,128.4,426.9,128.4z
				 M426.9,118.7c-0.7,0-1.6,1.5-1.6,3.8s1,3.8,1.6,3.8s1.6-1.5,1.6-3.8S427.5,118.7,426.9,118.7z"/>
		</g>
		<g>
			<path class="st1" d="M423.3,125.6c-0.2,0-0.4,0-0.5,0c-0.2,0-0.3,0-0.4-0.1c-0.9-0.5-1.9-1.7-1.2-3.3c0.6-1.2,2.4-2.1,5.4-2.5
				c0.5-0.1,1.1-0.2,1.6-0.3c2.4-0.4,3.9-0.6,4.7,0c0.9,0.7,0.8,2.6,0.7,3.2c-0.2,1.3-0.8,1.7-1.3,1.9c0,0-0.1,0-0.1,0
				C431.9,124.7,426.7,125.6,423.3,125.6z M431.9,123.7L431.9,123.7L431.9,123.7z M423.1,123.6c2.8,0,7.3-0.7,8.4-0.8
				c0.2-0.4,0.2-1.2,0.1-1.7c-0.5-0.1-2.1,0.2-3.1,0.4c-0.6,0.1-1.2,0.2-1.7,0.3c-2.5,0.3-3.7,1-3.8,1.3
				C422.8,123.3,422.9,123.5,423.1,123.6z M431.5,120.9L431.5,120.9C431.5,120.9,431.5,120.9,431.5,120.9z"/>
		</g>
		<g>
			<path class="st1" d="M448.1,102.3c-2,0-3.3-1-3.8-1.6c-2.6-3.2-25.8-31.4-26.9-33.5c-0.5-1-0.6-1.9-0.2-2.5
				c0.6-0.9,1.8-0.8,2-0.8l23.5,2.4c0.5,0.1,0.9,0.5,0.9,1.1s-0.5,1-1.1,0.9L419,65.9c0,0,0,0,0,0c0,0.1,0.1,0.2,0.2,0.4
				c0.8,1.4,16.4,20.7,26.7,33.2c0,0,0.7,0.8,2.2,0.8c2,0,17.5-0.6,17.7-0.6c0.6,0,1,0.4,1,1c0,0.6-0.4,1-1,1
				C465.2,101.7,450.1,102.3,448.1,102.3z"/>
		</g>
		<g>
			<path class="st1" d="M378.3,113.4c-0.5,0-0.9-0.4-1-0.9c-3-29.9-13.4-48.3-13.5-48.5c-0.3-0.5-0.1-1.1,0.4-1.4
				c0.5-0.3,1.1-0.1,1.4,0.4c0.1,0.2,10.7,18.9,13.8,49.2c0.1,0.5-0.3,1-0.9,1.1C378.4,113.4,378.4,113.4,378.3,113.4z"/>
		</g>
		<g>
			<path class="st1" d="M388.5,111.8c-0.5,0-0.9-0.4-1-0.9c-2.5-22.5-14.9-46.6-15-46.9c-0.3-0.5-0.1-1.1,0.4-1.3
				c0.5-0.3,1.1-0.1,1.3,0.4c0.1,0.2,12.7,24.7,15.2,47.6c0.1,0.5-0.3,1-0.9,1.1C388.6,111.8,388.6,111.8,388.5,111.8z"/>
		</g>
		<g>
			<path class="st1" d="M384.1,111.8c-0.5,0-0.9-0.4-1-0.8c-4.4-27.7-14.6-46.7-14.7-46.9c-0.3-0.5-0.1-1.1,0.4-1.4
				c0.5-0.3,1.1-0.1,1.4,0.4c0.1,0.2,10.5,19.4,14.9,47.5c0.1,0.5-0.3,1.1-0.8,1.1C384.2,111.8,384.1,111.8,384.1,111.8z"/>
		</g>
		<g>
			<path class="st1" d="M329.4,125.7c-1.1,0-2.2-0.3-2.8-0.6c-0.5-0.3-0.7-0.9-0.4-1.3c0.3-0.5,0.8-0.7,1.3-0.4
				c0.1,0.1,2.9,1.4,5.1-1.1c3-3.3,4.2-4.1,12.8-4c8.2,0.2,21.2-0.5,21.3-0.5c0.3,0,3.1-0.5,2.5-5.3c-0.7-6.1-1.3-9.6-6-10.2
				c-5.4-0.7-19.2-0.4-19.3-0.4c-0.2,0-3.2-0.1-4.9,4.5c-0.7,2-1,3.6-1.1,4.8c-0.3,2.1-0.6,4.1-3.4,4.1c-2.9,0-6.4-1.2-7.5-2.6
				c-0.5-0.6-0.6-1.2-0.5-1.6c0.1-0.5,0.6-0.9,1.1-0.8c0.5,0.1,0.9,0.5,0.8,1c0.4,0.6,3.2,2,6.1,2c1,0,1.1-0.1,1.4-2.3
				c0.2-1.3,0.4-3.1,1.3-5.3c2.3-6,6.6-5.8,6.8-5.7c0.5,0,14-0.3,19.6,0.4c6.5,0.9,7.1,6.5,7.7,12c0.3,2.4-0.2,4.3-1.3,5.7
				c-1.3,1.6-2.9,1.8-3.1,1.8c-0.2,0-13.2,0.6-21.5,0.5c-8.1-0.2-8.7,0.5-11.3,3.3C332.6,125.2,330.9,125.7,329.4,125.7z"/>
		</g>
		<g>
			<path class="st1" d="M344.4,115.5c-2,0-9.7-0.2-10-0.2c-0.6,0-1-0.5-1-1c0-0.6,0.4-1,1-1c0.1,0,7.9,0.2,9.9,0.2
				c2,0,3.1-0.5,4-1.7c1.5-2.1,4.1-2.1,4.2-2.1l16.7-0.5c0.6,0,1,0.4,1,1c0,0.6-0.4,1-1,1l-16.8,0.5c-0.1,0-1.7,0-2.6,1.2
				C348.4,115.2,346.2,115.5,344.4,115.5z"/>
		</g>
		<g>
			<path class="st1" d="M281.2,283.6c-21.4,0-27.4-19.2-27.5-19.4c-0.2-0.5,0.1-1.1,0.7-1.2c0.5-0.2,1.1,0.1,1.2,0.7
				c0.2,0.7,5.8,18.3,26.1,18c20.3-0.3,28.2-4.7,34-18.8c5.4-13.1,9.1-24.6,6.8-53.3c0-0.1-0.2-7.2-2.8-14.8
				c-3.5-9.9-9.4-15.8-17.5-17.5c0,0-0.1,0-0.1,0c-0.1,0-12.8-4.4-23.1,2c-0.5,0.3-1.1,0.2-1.4-0.3c-0.3-0.5-0.2-1.1,0.3-1.4
				c10.8-6.7,23.6-2.6,24.7-2.2c21.1,4.4,21.8,33.8,21.9,34.1c2.3,29.1-1.5,40.8-7,54.2c-6.1,14.8-14.8,19.7-35.9,20
				C281.6,283.6,281.4,283.6,281.2,283.6z"/>
		</g>
		<g>
			<path class="st1" d="M299.7,264.3c-0.2,0-0.5,0-0.7,0c-9.7-0.7-16.1-15.9-14.7-34.5c0.7-8.8,3-16.9,6.6-22.9
				c3.7-6.2,8.4-9.4,13.1-9.1c4.7,0.4,8.9,4.2,11.6,10.9c2.7,6.5,3.8,14.8,3.1,23.6c-0.7,8.8-3,16.9-6.6,22.9
				C308.6,261.1,304.2,264.3,299.7,264.3z M303.3,199.8c-3.8,0-7.5,2.9-10.7,8.1c-3.4,5.7-5.7,13.5-6.3,22
				c-1.3,17.2,4.5,31.8,12.9,32.4c3.9,0.3,7.9-2.6,11.3-8.1c3.4-5.7,5.7-13.5,6.3-22l0,0c0.6-8.5-0.4-16.5-3-22.7
				c-2.5-6-6-9.4-9.9-9.7C303.7,199.8,303.5,199.8,303.3,199.8z"/>
		</g>
		<g>
			<path class="st1" d="M301.4,220.6c-0.9,0-2.5-1-7.8-16.7c-0.2-0.5,0.1-1.1,0.6-1.3c0.5-0.2,1.1,0.1,1.3,0.6
				c2.1,6.2,4.8,13.2,6,15.1c1.7-2.2,6.4-12.5,7.3-16.9c0.1-0.5,0.6-0.9,1.2-0.8c0.5,0.1,0.9,0.6,0.8,1.2
				c-0.7,3.2-6.5,18.5-9.2,18.8C301.6,220.6,301.5,220.6,301.4,220.6z M301.2,218.6L301.2,218.6L301.2,218.6z"/>
		</g>
		<g>
			<path class="st1" d="M317.9,230.2c0,0-0.1,0-0.1,0c-9.8-1.4-12.2-3.2-12.5-4.5c-0.5-2.2,5-10.8,8.4-15.8c0.3-0.5,0.9-0.6,1.4-0.3
				c0.5,0.3,0.6,0.9,0.3,1.4c-3.9,5.7-8.1,12.7-8.1,14.2c0.6,0.8,5.6,2.2,10.8,3c0.5,0.1,0.9,0.6,0.8,1.1
				C318.8,229.9,318.4,230.2,317.9,230.2z M307.2,225.4L307.2,225.4L307.2,225.4z"/>
		</g>
		<g>
			<path class="st1" d="M306.2,261.7c-0.5,0-1-0.4-1-0.9c-1.8-22.2-0.1-23.2,0.5-23.5c2-1.1,8.4,1.9,11.1,3.3
				c0.5,0.3,0.7,0.9,0.4,1.3c-0.3,0.5-0.9,0.7-1.3,0.4c-3.9-2-8-3.5-9.1-3.3c-0.7,1.8-0.4,12.2,0.4,21.6
				C307.3,261.2,306.9,261.7,306.2,261.7C306.3,261.7,306.3,261.7,306.2,261.7z"/>
		</g>
		<g>
			<path class="st1" d="M297.5,264c-0.2,0-0.5-0.1-0.6-0.2c-0.4-0.4-0.5-1-0.1-1.4c0.1-0.1,3.7-4.8,2.6-18.9
				c-0.4-0.2-1.4-0.1-3.1,1.3c-5.6,4.6-8.2,6.4-9.7,5.4c-0.5-0.3-0.6-0.9-0.3-1.4c0.3-0.4,0.8-0.5,1.2-0.3c1.2-0.1,5.3-3.5,7.5-5.3
				c1.6-1.3,3.1-1.9,4.4-1.7c1.1,0.1,1.7,0.8,1.8,1c0.1,0.1,0.2,0.3,0.2,0.5c1.3,15.4-2.8,20.5-3,20.7
				C298.1,263.9,297.8,264,297.5,264z"/>
		</g>
		<g>
			<path class="st1" d="M285.7,244.4c-0.3,0-0.6-0.2-0.8-0.4c-0.3-0.5-0.2-1.1,0.3-1.4c4.4-3,11.4-8.8,11.8-11.6
				c0.4-2.9-5.3-11.8-9.1-16.7c-0.3-0.4-0.2-1.1,0.2-1.4c0.4-0.3,1.1-0.2,1.4,0.2c1,1.4,10.1,13.5,9.4,18.2
				c-0.7,4.7-11.5,12.2-12.7,13C286.1,244.3,285.9,244.4,285.7,244.4z"/>
		</g>
		<g>
			<path class="st1" d="M194.6,242c-0.2,0-0.3,0-0.5-0.1c-0.1-0.1-14.9-8.6-20.9-9.8c-2.5-0.5-15.1-1.5-29.8-2.6
				c-21.9-1.6-49.1-3.7-58.1-5.4c-11.8-2.3-16.4,1.5-19.4,4c-0.7,0.6-1.4,1.1-2,1.5c-3.8,2.3-8.1-3.6-8.6-4.3
				c-0.2-0.3-0.2-0.6-0.1-0.9c0-0.1,3.8-10.5,3.8-16.3c0-5.5-7.9-12.3-7.9-12.3c-0.4-0.4-0.5-1-0.1-1.4c0.4-0.4,1-0.5,1.4-0.1
				c0.4,0.3,8.6,7.4,8.6,13.9c0,5.5-3,14.3-3.8,16.5c1.2,1.5,3.9,4.4,5.7,3.3c0.5-0.3,1.1-0.8,1.7-1.3c3.1-2.6,8.3-6.9,21.1-4.5
				c8.9,1.7,36.1,3.8,57.9,5.4c15.3,1.2,27.4,2.1,30,2.6c6,1.2,19.2,8.7,21.3,9.9l22.3-1.3c-3.5-4-12-14.2-11.2-18.9
				c0.8-4.8,4.7-6.5,6.7-6.7c0.1,0,14.3-2,25.2-3c11.7-1.2,13.4,4,13.4,4.2c2.4,8.5,2.9,17.8,3,20.5c1.8-0.1,7.2-1.4,11.7-2.7
				c0.5-0.2,1.1,0.1,1.2,0.7c0.2,0.5-0.1,1.1-0.7,1.2c-12.6,3.7-13.6,2.7-14,2.3c-0.2-0.2-0.3-0.4-0.3-0.7c0-0.1-0.2-11-3-20.8
				c0,0-1.4-3.8-11.3-2.8c-10.9,1.1-25.1,3-25.2,3c-0.2,0-4.3,0.5-5,5c-0.6,3.5,7.1,13.4,12.1,18.8c0.3,0.3,0.3,0.7,0.2,1.1
				c-0.1,0.4-0.5,0.6-0.9,0.6L194.6,242C194.7,242,194.6,242,194.6,242z"/>
		</g>
		<g>
			<path class="st1" d="M191.8,251.5c-45.8,0-96.7-9.2-108.9-12c-15.1-3.5-17.6-9.1-17.7-9.3c-0.2-0.5,0-1.1,0.5-1.3
				c0.5-0.2,1.1,0,1.3,0.5c0,0.1,2.5,5,16.3,8.2c14.5,3.3,83.8,15.7,133.9,10.8c0.6-0.1,1,0.3,1.1,0.9c0.1,0.5-0.3,1-0.9,1.1
				C209.3,251.2,200.6,251.5,191.8,251.5z"/>
		</g>
		<g>
			<path class="st1" d="M60.3,168.2c-0.4,0-0.8-0.1-1.2-0.4c-1.7-1.3-2-5.7-2-7.1c0-0.6,0.4-1,1-1c0.6,0,1,0.4,1,1
				c0.1,2.6,0.7,5.3,1.3,5.6c1.6-0.4,7.6-4.5,7.2-12.6c-0.3-4.8-1.7-6.3-2.8-7.3c-0.8-0.8-1.6-1.7-1.3-3.3c0.1-0.5,0.6-0.9,1.1-0.8
				c0.5,0.1,0.9,0.6,0.8,1.1c-0.1,0.6,0.1,0.9,0.8,1.6c1.2,1.2,3,3.1,3.3,8.6c0.5,8.9-6,14-8.8,14.6
				C60.6,168.2,60.4,168.2,60.3,168.2z"/>
		</g>
		<g>
			<path class="st1" d="M213.7,177.3c-3,0-12.8-0.7-26.5-9.3c-0.2-0.1-0.4-0.4-0.5-0.7s0-0.6,0.2-0.8c0.3-0.4,7.4-9.9,16.7-10.9
				c8.9-1,57.6-8.2,63.4-10.2c3-1,4.6,0,5.4,1.1c1.4,1.9,1.2,5.2,0.3,6.5c-0.4,0.6-1.4,1.3-3,2.6c-2.3,1.7-5.4,4-6.6,6.3
				c-1.9,3.7-4,6.9-10.2,8.3c-5.5,1.2-37.1,6.7-38.4,6.9C214.5,177.3,214.2,177.3,213.7,177.3z M189.2,167c15,9,25,8.4,25.1,8.4
				c0.2,0,32.7-5.7,38.2-6.9c5.3-1.2,7-3.7,8.9-7.3c1.4-2.7,4.7-5.2,7.2-7c1.1-0.8,2.3-1.7,2.5-2.1c0.4-0.6,0.7-3-0.3-4.2
				c-0.6-0.8-1.7-0.9-3.2-0.4c-5.9,2-54.9,9.3-63.8,10.2C196.9,158.5,191.1,164.7,189.2,167z"/>
		</g>
		<g>
			<path class="st1" d="M236.2,169.8c-3.9,0-7.1-3.2-7.1-7.1s3.2-7.1,7.1-7.1c3.9,0,7.1,3.2,7.1,7.1S240.1,169.8,236.2,169.8z
				 M236.2,157.5c-2.8,0-5.1,2.3-5.1,5.1s2.3,5.1,5.1,5.1s5.1-2.3,5.1-5.1S239,157.5,236.2,157.5z"/>
		</g>
		<g>
			<path class="st1" d="M248,171.3c-0.1,0-0.3,0-0.4-0.1c-0.5-0.2-0.7-0.8-0.5-1.3c0-0.1,5-10.9,6.7-15.1c1.9-4.6,16.4-7.6,18.1-7.9
				c0.5-0.1,1.1,0.2,1.2,0.8c0.1,0.5-0.2,1.1-0.8,1.2c-5.8,1.1-15.5,4-16.6,6.7c-1.7,4.2-6.7,15-6.7,15.2
				C248.7,171.1,248.4,171.3,248,171.3z"/>
		</g>
		<g>
			<path class="st1" d="M144.3,167.9c-22.6,0-53.1-1.3-69.5-6.7c-0.3-0.1-0.5-0.3-0.6-0.6l-3.4-10.1c-0.1-0.4,0-0.8,0.2-1
				c0.3-0.3,0.7-0.4,1-0.2c0.3,0.1,27.2,8.4,116.7,5.3c0.4,0,0.7,0.2,0.9,0.5c0.2,0.3,0.1,0.8-0.1,1.1c-0.3,0.4-7.7,10.1-19.4,11.1
				C165.8,167.6,156.2,167.9,144.3,167.9z M75.9,159.5c25.1,7.9,83.4,6.6,94,5.7c8-0.7,13.9-5.9,16.5-8.6
				c-76.3,2.5-105.9-3.2-113.2-5L75.9,159.5z"/>
		</g>
		<g>
			<path class="st1" d="M144.5,218.1c-15.6,0-33.3-0.1-33.5-0.1c-0.1,0-0.2,0-0.2,0l-38.6-9.5c-0.3-0.1-6.7-2.2-8.5-8.2
				c-1.6-5.3-4.7-18.2-5.1-19.6c-0.4-0.7-1.6-3.7,1.2-6.9c0.8-0.9,1.5-2.1,2.3-3.2c1.9-2.9,3.8-5.8,6.6-5.6c0.6,0,1.7,0.3,3.6,0.7
				c8.8,1.9,32,7.1,67.4,6.1c15.8-0.4,25.5-0.9,31.9-1.2c11-0.5,11.4-0.6,13.3,1.3c2.4,2.4,11.8,10.8,11.9,10.9
				c0.1,0.1,0.2,0.2,0.2,0.3c1,1.8,1.8,6.3-1.9,10.1c-4,4.2-13.9,19.8-14,20c0,0,0,0.1-0.1,0.1c-0.2,0.2-3.8,4.5-17,4.7
				C159.7,218,152.4,218.1,144.5,218.1z M111.1,216c2.4,0,40.4,0.2,52.8,0c11.5-0.2,15.1-3.6,15.5-4c0.8-1.3,10.1-15.9,14.1-20.2
				c3.2-3.4,1.9-6.9,1.6-7.7c-1.3-1.1-9.5-8.5-11.8-10.8c-1.2-1.2-1.2-1.2-11.8-0.7c-6.4,0.3-16.1,0.8-31.9,1.2
				c-35.6,1-59-4.2-67.8-6.1c-1.7-0.4-2.9-0.6-3.4-0.7c-1.6-0.1-3.2,2.3-4.8,4.7c-0.8,1.2-1.6,2.4-2.4,3.4c-2.2,2.5-0.9,4.7-0.9,4.7
				c0.1,0.1,0.1,0.2,0.1,0.3c0,0.1,3.4,14.1,5.1,19.6c1.5,5,7.1,6.8,7.1,6.9L111.1,216z"/>
		</g>
		<g>
			<path class="st1" d="M108.9,200.3c-0.4,0-0.7,0-1.1,0c-4.1-0.2-8-1.2-10.9-2.9c-3.1-1.8-4.7-4.2-4.6-6.7s1.9-4.8,5.1-6.3
				c3-1.5,7-2.2,11.1-2c8.9,0.3,15.7,4.5,15.5,9.6c-0.1,2.5-1.9,4.8-5.1,6.3C116.1,199.5,112.6,200.3,108.9,200.3z M107.3,184.3
				c-3.4,0-6.6,0.6-9.1,1.9c-2.5,1.2-3.9,2.9-4,4.6c-0.1,1.7,1.2,3.5,3.7,4.9c2.6,1.5,6.2,2.5,10,2.6c3.8,0.1,7.4-0.5,10.1-1.8
				c2.5-1.2,3.9-2.9,4-4.6c0.1-3.8-6.1-7.2-13.6-7.5C108,184.3,107.7,184.3,107.3,184.3z"/>
		</g>
		<g>
			<path class="st1" d="M279.1,173.2c-11.1,0-19.2-6.1-19.6-6.4c-0.4-0.3-0.5-1-0.2-1.4s1-0.5,1.4-0.2c0.1,0.1,9.3,7,21.1,5.9
				c0.6-0.1,1,0.3,1.1,0.9c0.1,0.5-0.3,1-0.9,1.1C281,173.1,280,173.2,279.1,173.2z"/>
		</g>
		<g>
			<path class="st1" d="M230.1,153.1c-0.1,0-0.3,0-0.4-0.1c-0.5-0.2-0.7-0.8-0.5-1.3c0.2-0.5,6.4-12.9,28.7-19
				c3.1-0.9,6.3-1.7,9.6-2.6c15-4,33.7-9,34.6-12.5c0-0.1,0.1-0.4-0.5-0.9c-0.4-0.4-0.4-1-0.1-1.4c0.4-0.4,1-0.4,1.4-0.1
				c1.2,1.1,1.2,2.1,1.1,2.9c-1.1,4.4-14.3,8.2-36,14c-3.2,0.9-6.4,1.7-9.6,2.6c-21.3,5.9-27.3,17.8-27.4,17.9
				C230.8,152.9,230.5,153.1,230.1,153.1z"/>
		</g>
		<g>
			<path class="st1" d="M288.9,117c-0.3,0-0.6,0-0.8,0c-18.2-0.2-135.7-2.9-136.9-2.9c-0.4,0-0.8-0.3-0.9-0.7
				c-0.1-0.4,0-0.8,0.3-1.1l49.2-40.7c0.6-0.8,5.9-5.2,12.5-5.2c6.6,0,113.4-1.4,114.5-1.5c0.2,0,2.4-0.1,3.4,1.5
				c0.7,1.1,0.6,2.5-0.4,4.3c-2.3,4.5-16.5,37.5-16.6,37.8c0,0.1-0.1,0.1-0.1,0.2C312.9,109.1,307,117,288.9,117z M153.9,112.1
				c17.5,0.4,117.6,2.6,134.2,2.9c16.7,0.2,22.7-6.5,23.4-7.3c1.1-2.5,14.3-33.3,16.7-37.8c0.6-1.1,0.7-1.9,0.5-2.3
				c-0.3-0.5-1.4-0.6-1.7-0.6c-1.2,0-107.9,1.5-114.5,1.5c-6.1,0-10.9,4.4-11,4.4c-0.1,0.1-0.1,0.2-0.2,0.2L153.9,112.1z"/>
		</g>
		<g>
			<path class="st1" d="M442,234.6c-3.5,0-7.1-0.4-10.8-0.8c-13.6-1.5-15.4-23.6-15.5-24.5c0-0.6,0.4-1,0.9-1.1c0.6,0,1,0.4,1.1,0.9
				c0,0.2,1.7,21.4,13.7,22.7c12.5,1.4,23.3,2.6,28.7-11.2c6.1-15.6,7.9-40.9-2.8-59.3c-0.2-0.2-5.5-7.5-16.9-4.6
				c-0.5,0.1-1.1-0.2-1.2-0.7c-0.1-0.5,0.2-1.1,0.7-1.2c12.8-3.2,18.9,5.1,19.1,5.5c11.1,19.1,9.3,45.1,3,61.1
				C457.8,232.2,450.5,234.6,442,234.6z"/>
		</g>
		<g>
			<path class="st1" d="M452.9,222.7c-6.2,0-11-11.7-11-26.7s4.8-26.7,11-26.7s11,11.7,11,26.7S459,222.7,452.9,222.7z M452.9,171.4
				c-4.4,0-9,9.9-9,24.7c0,14.7,4.7,24.7,9,24.7s9-9.9,9-24.7C461.9,181.3,457.2,171.4,452.9,171.4z"/>
		</g>
		<g>
			<path class="st1" d="M451.8,187.5c-0.9,0-1.8-1.1-4.8-13.1c-0.1-0.5,0.2-1.1,0.7-1.2c0.5-0.1,1.1,0.2,1.2,0.7
				c1,4.1,2.3,8.5,3.1,10.6c1.2-2.7,3.3-9.1,3.7-12c0.1-0.5,0.6-0.9,1.1-0.8c0.5,0.1,0.9,0.6,0.8,1.1c-0.2,1.2-3.5,14.3-5.6,14.6
				C452,187.4,451.9,187.5,451.8,187.5z"/>
		</g>
		<g>
			<path class="st1" d="M462.3,194.9c-0.1,0-0.1,0-0.2,0c-3.2-0.6-7.2-1.8-7.5-3.7c-0.3-1.8,3.3-9,4.8-12.1c0.2-0.5,0.9-0.7,1.3-0.4
				c0.5,0.2,0.7,0.9,0.4,1.3c-2.2,4.4-4.6,9.7-4.6,10.8c0.4,0.6,3.2,1.5,5.9,2.1c0.5,0.1,0.9,0.6,0.8,1.2
				C463.2,194.5,462.8,194.9,462.3,194.9z M456.6,190.9L456.6,190.9L456.6,190.9z"/>
		</g>
		<g>
			<path class="st1" d="M456.6,221c-0.5,0-1-0.4-1-0.9c-1-20-0.1-20.7,0.4-21.1c0.4-0.3,1.6-1.2,7,2.5c0.5,0.3,0.6,0.9,0.3,1.4
				c-0.3,0.5-0.9,0.6-1.4,0.3c-1.7-1.2-3.7-2.2-4.5-2.4c-0.3,2.2-0.1,11.1,0.3,19.2C457.6,220.5,457.2,220.9,456.6,221
				C456.6,221,456.6,221,456.6,221z"/>
		</g>
		<g>
			<path class="st1" d="M450.6,221.7c-0.2,0-0.3,0-0.4-0.1c-0.5-0.2-0.7-0.8-0.4-1.3c0-0.1,2.1-4.5,1.5-15.2c-0.2,0.1-0.5,0.3-1,0.8
				c-3.4,3.6-5,5.3-6.3,4.2c-0.4-0.4-0.4-1-0.1-1.4c0.3-0.3,0.6-0.4,1-0.3c0.8-0.4,2.8-2.6,3.9-3.8c1-1.1,2-1.6,2.9-1.5
				c0.7,0.1,1.2,0.6,1.4,0.9c0.1,0.1,0.1,0.3,0.1,0.4c0.8,11.8-1.6,16.6-1.7,16.8C451.3,221.5,451,221.7,450.6,221.7z"/>
		</g>
		<g>
			<path class="st1" d="M443.9,205.7c-0.3,0-0.5-0.1-0.7-0.3c-0.4-0.4-0.3-1,0.1-1.4c2.5-2.3,6.5-6.6,6.7-8.8
				c0.2-2.2-3.6-9.6-6.1-13.7c-0.3-0.5-0.1-1.1,0.3-1.4c0.5-0.3,1.1-0.1,1.4,0.3c0.7,1.2,6.8,11.4,6.4,15c-0.4,3.6-6.7,9.4-7.4,10.1
				C444.3,205.6,444.1,205.7,443.9,205.7z"/>
		</g>
	</g>
</g>
</svg>
