<?xml version="1.0" encoding="utf-8"?>
<!-- Generator: Adobe Illustrator 22.0.1, SVG Export Plug-In . SVG Version: 6.00 Build 0)  -->
<svg version="1.1" id="Layer_1" xmlns="http://www.w3.org/2000/svg" xmlns:xlink="http://www.w3.org/1999/xlink" x="0px" y="0px" width="35" height="33" 
	 viewBox="0 0 35 33" style="enable-background:new 0 0 35 33;" xml:space="preserve">
<style type="text/css">
	.st0{fill:#232C3A;}
</style>
<title>Icon/Currency_conversion</title>
<desc>Created with Sketch.</desc>
<g>
	<path class="st0" d="M34.6,23.3l-3.2-3.2c-0.1-0.1-0.2-0.1-0.3-0.1c0,0,0,0,0,0c0,0,0,0,0,0c-0.1,0-0.2,0-0.2,0.1c0,0,0,0,0,0
		l-4,2.4c-0.2,0.1-0.3,0.4-0.2,0.7c0.1,0.2,0.5,0.3,0.7,0.2l3.2-1.9c-0.5,5.4-5,9.7-10.6,9.7c-0.3,0-0.5,0.2-0.5,0.5
		s0.2,0.5,0.5,0.5c6,0,11-4.6,11.6-10.5l2.4,2.4c0.1,0.1,0.2,0.1,0.4,0.1s0.3,0,0.4-0.1C34.8,23.8,34.8,23.5,34.6,23.3z"/>
	<path class="st0" d="M21,14.1c0,0.3,0.2,0.5,0.5,0.5s0.5-0.2,0.5-0.5c0-1.1-1.3-1.9-3.2-2.1v-1.1c0-0.3-0.2-0.5-0.5-0.5
		s-0.5,0.2-0.5,0.5V12c-1.8,0.1-3.2,1-3.2,2.1s1.3,1.9,3.2,2.1v2.2c-1.3-0.1-2.2-0.7-2.2-1.1c0-0.3-0.2-0.5-0.5-0.5
		s-0.5,0.2-0.5,0.5c0,1.1,1.3,1.9,3.2,2.1v1.1c0,0.3,0.2,0.5,0.5,0.5s0.5-0.2,0.5-0.5v-1.1c1.8-0.1,3.2-1,3.2-2.1s-1.3-1.9-3.2-2.1
		V13C20.1,13.2,21,13.7,21,14.1z M15.6,14.1c0-0.4,0.8-1,2.2-1.1v2.1C16.5,15.1,15.6,14.5,15.6,14.1z M21,17.3c0,0.4-0.8,1-2.2,1.1
		v-2.1C20.1,16.3,21,16.9,21,17.3z"/>
	<path class="st0" d="M7.7,9.7l-3.2,1.9c0.5-5.4,5-9.7,10.6-9.7c0.3,0,0.5-0.2,0.5-0.5s-0.2-0.5-0.5-0.5c-6,0-11,4.6-11.6,10.5
		L1.1,9C1,8.8,0.6,8.8,0.4,9s-0.2,0.5,0,0.7l3.2,3.2c0,0,0.1,0.1,0.2,0.1c0.1,0,0.1,0,0.2,0c0.1,0,0.2,0,0.2-0.1c0,0,0,0,0,0l4-2.4
		c0.2-0.1,0.3-0.4,0.2-0.7C8.2,9.6,7.9,9.6,7.7,9.7z"/>
	<path class="st0" d="M26.8,15.7c0-4.7-3.8-8.5-8.5-8.5c-4.7,0-8.5,3.8-8.5,8.5c0,4.7,3.8,8.5,8.5,8.5C23,24.2,26.8,20.4,26.8,15.7z
		 M18.3,23.2c-4.1,0-7.5-3.3-7.5-7.5c0-4.1,3.3-7.5,7.5-7.5c4.1,0,7.5,3.3,7.5,7.5C25.8,19.8,22.4,23.2,18.3,23.2z"/>
</g>
</svg>
