<?xml version="1.0" encoding="utf-8"?>
<!-- Generator: Adobe Illustrator 22.0.1, SVG Export Plug-In . SVG Version: 6.00 Build 0)  -->
<svg version="1.1" id="Layer_1" xmlns="http://www.w3.org/2000/svg" xmlns:xlink="http://www.w3.org/1999/xlink" x="0px" y="0px"
	 viewBox="0 0 18 27" style="enable-background:new 0 0 18 27;" xml:space="preserve">
<style type="text/css">
	.st0{fill:#EE252E;}
</style>
<path class="st0" d="M17.5,9c0-4.7-3.8-8.5-8.5-8.5C4.3,0.5,0.5,4.3,0.5,9c0,2.8,1.3,5.2,3.4,6.8c0,0,0,0.1,0,0.1V26
	c0,0.2,0.1,0.3,0.2,0.4s0.3,0.1,0.5,0l4.7-2.1l4.7,2.1c0.1,0,0.1,0,0.2,0c0.1,0,0.2,0,0.3-0.1c0.1-0.1,0.2-0.2,0.2-0.4V15.9
	c0-0.1-0.1-0.3-0.2-0.4C16.3,14,17.5,11.6,17.5,9z M1.5,9c0-4.1,3.4-7.5,7.5-7.5s7.5,3.4,7.5,7.5s-3.4,7.5-7.5,7.5S1.5,13.1,1.5,9z
	 M13.6,25.2l-4.2-1.9c-0.1-0.1-0.3-0.1-0.4,0l-4.2,1.9v-8.8c1.2,0.7,2.6,1.1,4.1,1.1c1.7,0,3.3-0.5,4.6-1.4V25.2z M9,14.1
	c-0.3,0-0.5-0.2-0.5-0.5v-0.5c-1.1-0.2-1.9-1.2-1.9-2.4h1c0,0.8,0.6,1.4,1.4,1.4s1.4-0.6,1.4-1.4c0-0.6-0.6-1-1.5-1.5
	c-1-0.5-2-1.1-2-2.4c0-1.1,0.6-1.9,1.6-2.1V4.4c0-0.3,0.2-0.5,0.5-0.5s0.5,0.2,0.5,0.5v0.5c1.1,0.2,1.6,1.2,1.6,2.1h-1
	c0-0.6-0.3-1.1-1.1-1.1c-0.8,0-1.1,0.6-1.1,1.1c0,0.6,0.6,1,1.5,1.5c1,0.5,2,1.1,2,2.4c0,1.2-0.8,2.1-1.9,2.4v0.5
	C9.5,13.9,9.3,14.1,9,14.1z"/>
</svg>
