<?xml version="1.0" encoding="UTF-8"?>
<svg width="136px" height="136px" viewBox="0 0 136 136" version="1.1" xmlns="http://www.w3.org/2000/svg" xmlns:xlink="http://www.w3.org/1999/xlink">
    <!-- Generator: Sketch 48.2 (47327) - http://www.bohemiancoding.com/sketch -->
    <title>incentive</title>
    <desc>Created with Sketch.</desc>
    <defs>
        <polygon id="path-1" points="0 96 99.421875 96 99.421875 0 0 0"></polygon>
    </defs>
    <g id="Shopping:-Landing-Page-UI" stroke="none" stroke-width="1" fill="none" fill-rule="evenodd" transform="translate(-294.000000, -1228.000000)">
        <g id="incentive" transform="translate(294.000000, 1228.000000)">
            <circle id="Oval-2" fill="#ED222C" opacity="0.05" cx="68" cy="68" r="68"></circle>
            <g id="Icon/Incetive" transform="translate(25.000000, 18.000000)">
                <g id="Page-1">
                    <path d="M75.0736607,49.7777778 L7.43973214,49.7777778 L7.43973214,88.8888889 C7.43973214,91.8346667 9.86192857,94.2222222 12.8504464,94.2222222 L69.6629464,94.2222222 C72.6514643,94.2222222 75.0736607,91.8346667 75.0736607,88.8888889 L75.0736607,49.7777778 Z" id="Fill-1" fill="#FFFFFF"></path>
                    <path d="M75.0736607,49.7777778 L7.43973214,49.7777778 L7.43973214,88.8888889 C7.43973214,91.8346667 9.86192857,94.2222222 12.8504464,94.2222222 L69.6629464,94.2222222 C72.6514643,94.2222222 75.0736607,91.8346667 75.0736607,88.8888889 L75.0736607,49.7777778 Z" id="Stroke-3" stroke="#242D3B" stroke-width="2" stroke-linecap="round" stroke-linejoin="round"></path>
                    <path d="M80.7098214,49.7777778 L1.80357143,49.7777778 L1.80357143,32.8888889 C1.80357143,29.9431111 4.22576786,27.5555556 7.21428571,27.5555556 L75.2991071,27.5555556 C78.287625,27.5555556 80.7098214,29.9431111 80.7098214,32.8888889 L80.7098214,49.7777778 Z" id="Fill-5" fill="#FFFFFF"></path>
                    <path d="M80.7098214,49.7777778 L1.80357143,49.7777778 L1.80357143,32.8888889 C1.80357143,29.9431111 4.22576786,27.5555556 7.21428571,27.5555556 L75.2991071,27.5555556 C78.287625,27.5555556 80.7098214,29.9431111 80.7098214,32.8888889 L80.7098214,49.7777778 Z" id="Stroke-7" stroke="#242D3B" stroke-width="2" stroke-linecap="round" stroke-linejoin="round"></path>
                    <mask id="mask-2" fill="white">
                        <use xlink:href="#path-1"></use>
                    </mask>
                    <g id="Clip-10"></g>
                    <polygon id="Fill-9" fill="#FFFFFF" mask="url(#mask-2)" points="35.8459821 94.2222222 46.6674107 94.2222222 46.6674107 24 35.8459821 24"></polygon>
                    <polygon id="Stroke-11" stroke="#242D3B" stroke-width="2" stroke-linecap="round" stroke-linejoin="round" mask="url(#mask-2)" points="35.8459821 94.2222222 46.6674107 94.2222222 46.6674107 24 35.8459821 24"></polygon>
                    <g id="Group-14" mask="url(#mask-2)">
                        <g transform="translate(23.446429, 10.666667)">
                            <path d="M17.8102679,13.3333333 L0.676339286,0" id="Fill-12" stroke="none" fill="#FFFFFF" fill-rule="evenodd"></path>
                            <path d="M17.8102679,13.3333333 L0.676339286,0" id="Stroke-13" stroke="#242D3B" stroke-width="2" fill="none" stroke-linecap="round" stroke-linejoin="round"></path>
                        </g>
                    </g>
                    <path d="M41.2566964,24 L22.4743036,18.0746667 C20.2324643,17.3688889 18.7120536,15.3155556 18.7120536,12.9955556 L18.7120536,7.11111111 C18.7120536,4.16533333 21.13425,1.77777778 24.1227679,1.77777778 L31.5805357,1.77777778 C34.0820893,1.77777778 36.2571964,3.46844444 36.8415536,5.86666667 L41.2566964,24 Z" id="Fill-15" fill="#FFFFFF" mask="url(#mask-2)"></path>
                    <path d="M41.2566964,24 L22.4743036,18.0746667 C20.2324643,17.3688889 18.7120536,15.3155556 18.7120536,12.9955556 L18.7120536,7.11111111 C18.7120536,4.16533333 21.13425,1.77777778 24.1227679,1.77777778 L31.5805357,1.77777778 C34.0820893,1.77777778 36.2571964,3.46844444 36.8415536,5.86666667 L41.2566964,24 Z" id="Stroke-16" stroke="#242D3B" stroke-width="2" stroke-linecap="round" stroke-linejoin="round" mask="url(#mask-2)"></path>
                    <g id="Group-19" mask="url(#mask-2)">
                        <g transform="translate(39.678571, 10.666667)">
                            <path d="M1.578125,13.3333333 L18.7120536,0" id="Fill-17" stroke="none" fill="#FFFFFF" fill-rule="evenodd"></path>
                            <path d="M1.578125,13.3333333 L18.7120536,0" id="Stroke-18" stroke="#242D3B" stroke-width="2" fill="none" stroke-linecap="round" stroke-linejoin="round"></path>
                        </g>
                    </g>
                    <path d="M41.2566964,24 L60.0390893,18.0746667 C62.2809286,17.3688889 63.8013393,15.3155556 63.8013393,12.9955556 L63.8013393,7.11111111 C63.8013393,4.16533333 61.3791429,1.77777778 58.390625,1.77777778 L50.9328571,1.77777778 C48.4313036,1.77777778 46.2561964,3.46844444 45.6718393,5.86666667 L41.2566964,24 Z" id="Fill-20" fill="#FFFFFF" mask="url(#mask-2)"></path>
                    <path d="M41.2566964,24 L60.0390893,18.0746667 C62.2809286,17.3688889 63.8013393,15.3155556 63.8013393,12.9955556 L63.8013393,7.11111111 C63.8013393,4.16533333 61.3791429,1.77777778 58.390625,1.77777778 L50.9328571,1.77777778 C48.4313036,1.77777778 46.2561964,3.46844444 45.6718393,5.86666667 L41.2566964,24 Z" id="Stroke-21" stroke="#242D3B" stroke-width="2" stroke-linecap="round" stroke-linejoin="round" mask="url(#mask-2)"></path>
                    <path d="M41.2566964,24 L51.4270357,24 C53.820375,24 56.1127143,24.9368889 57.8044643,26.6026667 L65.2369821,33.9288889 L58.2824107,33.9288889 L58.2824107,40.7822222 L41.2566964,24 Z" id="Fill-22" fill="#FFFFFF" mask="url(#mask-2)"></path>
                    <path d="M41.2566964,24 L51.4270357,24 C53.820375,24 56.1127143,24.9368889 57.8044643,26.6026667 L65.2369821,33.9288889 L58.2824107,33.9288889 L58.2824107,40.7822222 L41.2566964,24 Z" id="Stroke-23" stroke="#242D3B" stroke-width="2" stroke-linecap="round" stroke-linejoin="round" mask="url(#mask-2)"></path>
                    <path d="M41.2566964,24 L31.0863571,24 C28.6930179,24 26.4006786,24.9368889 24.7089286,26.6026667 L17.2764107,33.9288889 L24.2309821,33.9288889 L24.2309821,40.7822222 L41.2566964,24 Z" id="Fill-24" fill="#FFFFFF" mask="url(#mask-2)"></path>
                    <path d="M41.2566964,24 L31.0863571,24 C28.6930179,24 26.4006786,24.9368889 24.7089286,26.6026667 L17.2764107,33.9288889 L24.2309821,33.9288889 L24.2309821,40.7822222 L41.2566964,24 Z" id="Stroke-25" stroke="#242D3B" stroke-width="2" stroke-linecap="round" stroke-linejoin="round" mask="url(#mask-2)"></path>
                    <g id="Group-28" mask="url(#mask-2)">
                        <g transform="translate(39.678571, 53.333333)">
                            <path d="M6.98883929,0 L1.578125,0" id="Fill-26" stroke="none" fill="#FFFFFF" fill-rule="evenodd"></path>
                            <path d="M6.98883929,0 L1.578125,0" id="Stroke-27" stroke="#242D3B" stroke-width="2" fill="none" stroke-linecap="round" stroke-linejoin="round"></path>
                        </g>
                    </g>
                    <path d="M46.6674107,24 C46.6674107,26.9457778 44.2452143,29.3333333 41.2566964,29.3333333 C38.2681786,29.3333333 35.8459821,26.9457778 35.8459821,24 C35.8459821,21.0542222 38.2681786,18.6666667 41.2566964,18.6666667 C44.2452143,18.6666667 46.6674107,21.0542222 46.6674107,24" id="Fill-29" fill="#FFFFFF" mask="url(#mask-2)"></path>
                    <path d="M46.6674107,24 C46.6674107,26.9457778 44.2452143,29.3333333 41.2566964,29.3333333 C38.2681786,29.3333333 35.8459821,26.9457778 35.8459821,24 C35.8459821,21.0542222 38.2681786,18.6666667 41.2566964,18.6666667 C44.2452143,18.6666667 46.6674107,21.0542222 46.6674107,24 Z" id="Stroke-30" stroke="#242D3B" stroke-width="2" stroke-linecap="round" stroke-linejoin="round" mask="url(#mask-2)"></path>
                    <path d="M97.6183036,38.6666667 C97.6183036,50.9404444 87.5255179,60.8888889 75.0736607,60.8888889 C62.6218036,60.8888889 52.5290179,50.9404444 52.5290179,38.6666667 C52.5290179,26.3928889 62.6218036,16.4444444 75.0736607,16.4444444 C87.5255179,16.4444444 97.6183036,26.3928889 97.6183036,38.6666667" id="Fill-31" fill="#FFFFFF" mask="url(#mask-2)"></path>
                    <path d="M97.6183036,38.6666667 C97.6183036,50.9404444 87.5255179,60.8888889 75.0736607,60.8888889 C62.6218036,60.8888889 52.5290179,50.9404444 52.5290179,38.6666667 C52.5290179,26.3928889 62.6218036,16.4444444 75.0736607,16.4444444 C87.5255179,16.4444444 97.6183036,26.3928889 97.6183036,38.6666667 Z" id="Stroke-32" stroke="#EE252E" stroke-width="2" stroke-linecap="round" stroke-linejoin="round" mask="url(#mask-2)"></path>
                    <g id="Group-35" mask="url(#mask-2)">
                        <g transform="translate(68.535714, 26.666667)">
                            <path d="M1.12723214,16.9066667 C1.12723214,19.8524444 3.54942857,22.24 6.53794643,22.24 C9.52646429,22.24 11.9486607,19.8524444 11.9486607,16.9066667 C11.9486607,11.5733333 1.99294643,11.5733333 1.99294643,6.24 C1.99294643,3.84 3.54942857,1.76 6.53794643,1.76 C9.52646429,1.76 11.0829464,4 11.0829464,6.24" id="Fill-33" stroke="none" fill="#FFFFFF" fill-rule="evenodd"></path>
                            <path d="M1.12723214,16.9066667 C1.12723214,19.8524444 3.54942857,22.24 6.53794643,22.24 C9.52646429,22.24 11.9486607,19.8524444 11.9486607,16.9066667 C11.9486607,11.5733333 1.99294643,11.5733333 1.99294643,6.24 C1.99294643,3.84 3.54942857,1.76 6.53794643,1.76 C9.52646429,1.76 11.0829464,4 11.0829464,6.24" id="Stroke-34" stroke="#EE252E" stroke-width="2" fill="none" stroke-linecap="round" stroke-linejoin="round"></path>
                        </g>
                    </g>
                    <g id="Group-38" mask="url(#mask-2)">
                        <g transform="translate(73.946429, 48.000000)">
                            <path d="M1.12723214,3.57333333 L1.12723214,0.906666667" id="Fill-36" stroke="none" fill="#FFFFFF" fill-rule="evenodd"></path>
                            <path d="M1.12723214,3.57333333 L1.12723214,0.906666667" id="Stroke-37" stroke="#EE252E" stroke-width="2" fill="none" stroke-linecap="round" stroke-linejoin="round"></path>
                        </g>
                    </g>
                    <g id="Group-41" mask="url(#mask-2)">
                        <g transform="translate(73.946429, 24.888889)">
                            <path d="M1.12723214,3.53777778 L1.12723214,0.871111111" id="Fill-39" stroke="none" fill="#FFFFFF" fill-rule="evenodd"></path>
                            <path d="M1.12723214,3.53777778 L1.12723214,0.871111111" id="Stroke-40" stroke="#EE252E" stroke-width="2" fill="none" stroke-linecap="round" stroke-linejoin="round"></path>
                        </g>
                    </g>
                </g>
            </g>
        </g>
    </g>
</svg>