<?xml version="1.0" encoding="utf-8"?>
<!-- Generator: Adobe Illustrator 22.0.1, SVG Export Plug-In . SVG Version: 6.00 Build 0)  -->
<svg version="1.1" id="Layer_1" xmlns="http://www.w3.org/2000/svg" xmlns:xlink="http://www.w3.org/1999/xlink" x="0px" y="0px" width="21" height="30" 
	 viewBox="0 0 21 30" style="enable-background:new 0 0 21 30;" xml:space="preserve">
<style type="text/css">
	.st0{fill:#232C3A;}
</style>
<title>Icon/certificate</title>
<desc>Created with Sketch.</desc>
<g>
	<path class="st0" d="M13.7,16.5c-2.2,0-3.9,1.8-3.9,3.9c0,1.2,0.5,2.2,1.4,2.9v5.9c0,0.2,0.1,0.4,0.3,0.4c0.2,0.1,0.4,0.1,0.5,0
		l1.8-1.2l1.8,1.2c0.1,0.1,0.2,0.1,0.3,0.1c0.1,0,0.2,0,0.2-0.1c0.2-0.1,0.3-0.3,0.3-0.4v-5.9c0.8-0.7,1.4-1.8,1.4-2.9
		C17.6,18.3,15.9,16.5,13.7,16.5z M15.3,28.4L14,27.5c-0.2-0.1-0.4-0.1-0.6,0l-1.3,0.8V24c0.5,0.2,1,0.3,1.5,0.3
		c0.5,0,1.1-0.1,1.5-0.3V28.4z M13.7,23.4c-1.6,0-2.9-1.3-2.9-2.9c0-1.6,1.3-2.9,2.9-2.9s2.9,1.3,2.9,2.9
		C16.6,22.1,15.3,23.4,13.7,23.4z"/>
	<path class="st0" d="M20.2,5.1l-4.8-4.8c-0.1-0.1-0.2-0.1-0.4-0.1H2.8c-1.4,0-2.5,1.1-2.5,2.5v20.5c0,1.4,1.1,2.5,2.5,2.5H9
		c0.3,0,0.5-0.2,0.5-0.5S9.2,24.7,9,24.7H2.8c-0.9,0-1.5-0.7-1.5-1.5V2.7c0-0.9,0.7-1.5,1.5-1.5h11.1v2.9c0,1.4,1.1,2.5,2.5,2.5h2.9
		v16.5c0,0.7-0.4,1.2-1,1.5c-0.3,0.1-0.4,0.4-0.3,0.6c0.1,0.3,0.4,0.4,0.6,0.3c1-0.4,1.7-1.3,1.7-2.4V5.5
		C20.4,5.3,20.3,5.2,20.2,5.1z M14.9,4.1V1.2l4.4,4.4h-2.9C15.6,5.6,14.9,4.9,14.9,4.1z"/>
	<path class="st0" d="M4.9,9.4h5.5c0.3,0,0.5-0.2,0.5-0.5s-0.2-0.5-0.5-0.5H4.9c-0.3,0-0.5,0.2-0.5,0.5S4.6,9.4,4.9,9.4z"/>
	<path class="st0" d="M4.9,12.1h10.9c0.3,0,0.5-0.2,0.5-0.5s-0.2-0.5-0.5-0.5H4.9c-0.3,0-0.5,0.2-0.5,0.5S4.6,12.1,4.9,12.1z"/>
	<path class="st0" d="M4.9,14.8h10.9c0.3,0,0.5-0.2,0.5-0.5s-0.2-0.5-0.5-0.5H4.9c-0.3,0-0.5,0.2-0.5,0.5S4.6,14.8,4.9,14.8z"/>
</g>
</svg>
