<?xml version="1.0" encoding="utf-8"?>
<!-- Generator: Adobe Illustrator 21.0.0, SVG Export Plug-In . SVG Version: 6.00 Build 0)  -->
<svg version="1.1" id="Layer_1" xmlns="http://www.w3.org/2000/svg" xmlns:xlink="http://www.w3.org/1999/xlink" x="0px" y="0px"
	 viewBox="0 0 6001 500.5" style="enable-background:new 0 0 6001 500.5;" preserveAspectRatio="none" xml:space="preserve">
<style type="text/css">
	.st0{fill:#FFFFFF;}
</style>
<g>
	<polygon class="st0" points="250,500 500,0 0,0 	"/>
	<polygon class="st0" points="501,0 751,500 1001,0 	"/>
	<polygon class="st0" points="1001,0.5 1251,500.5 1501,0.5 	"/>
	<polygon class="st0" points="1501,0.5 1751,500.5 2001,0.5 	"/>
	<polygon class="st0" points="2001,0.5 2251,500.5 2501,0.5 	"/>
	<polygon class="st0" points="2501,0.5 2751,500.5 3001,0.5 	"/>
	<polygon class="st0" points="3001,0.5 3251,500.5 3501,0.5 	"/>
	<polygon class="st0" points="3501,0.5 3751,500.5 4001,0.5 	"/>
	<polygon class="st0" points="4001,0.5 4251,500.5 4501,0.5 	"/>
	<polygon class="st0" points="4501,0.5 4751,500.5 5001,0.5 	"/>
	<polygon class="st0" points="5001,0.5 5251,500.5 5501,0.5 	"/>
	<polygon class="st0" points="5501,0.5 5751,500.5 6001,0.5 	"/>
</g>
</svg>
