<?xml version="1.0" encoding="UTF-8"?>
<svg width="353px" height="268px" viewBox="0 0 353 268" version="1.1" xmlns="http://www.w3.org/2000/svg" xmlns:xlink="http://www.w3.org/1999/xlink">
    <!-- Generator: Sketch 51.3 (57544) - http://www.bohemiancoding.com/sketch -->
    <title>Illustration/01</title>
    <desc>Created with Sketch.</desc>
    <defs>
        <polygon id="path-1" points="0 267.204 352.908 267.204 352.908 0 0 0"></polygon>
    </defs>
    <g id="SiriusXM" stroke="none" stroke-width="1" fill="none" fill-rule="evenodd">
        <g transform="translate(-884.000000, -767.000000)" id="Welcome">
            <g transform="translate(0.000000, 767.000000)">
                <g id="Illustration/02" transform="translate(884.000000, 0.000000)">
                    <path d="M289.4914,230.4444 C289.4914,230.4444 287.7334,253.4924 299.4834,261.4924 C299.4834,261.4924 305.2334,259.4924 306.4834,264.4924 C307.7334,269.4924 291.4834,271.9924 275.9834,230.6184 L289.4914,230.4444 Z" id="Fill-1" fill="#A97879" fill-rule="evenodd"></path>
                    <path d="M63.4436,230.4444 C63.4436,230.4444 65.1996,253.4924 53.4496,261.4924 C53.4496,261.4924 47.6996,259.4924 46.4496,264.4924 C45.1996,269.4924 61.4496,271.9924 76.9496,230.6184 L63.4436,230.4444 Z" id="Fill-3" fill="#A97879" fill-rule="evenodd"></path>
                    <path d="M289.8068,234.5352 C309.3408,222.8212 312.5888,202.1892 313.7988,179.4432 C315.6688,144.2532 315.4648,95.6032 300.8368,88.5352 C277.5528,77.2852 176.4528,78.0352 176.4528,78.0352 C176.4528,78.0352 75.3528,77.2852 52.0708,88.5352 C34.4868,97.0312 37.7448,165.5992 40.3928,198.6632 C41.3048,210.0292 45.0428,220.9792 51.2568,230.5392 L63.1008,234.5352 L280.5628,234.5352 L289.8068,234.5352 Z" id="Fill-5" fill="#A3D9EF" fill-rule="evenodd"></path>
                    <path d="M63.1008,234.5352 C63.1008,234.5352 59.8508,156.8852 28.1008,140.3352 C-3.6492,123.7852 -7.1492,163.0352 10.8508,180.6612 C28.8508,198.2852 19.3508,226.2852 63.1008,234.5352" id="Fill-7" fill="#A3D9EF" fill-rule="evenodd"></path>
                    <path d="M289.8068,234.5352 C289.8068,234.5352 293.0568,156.8852 324.8068,140.3352 C356.5568,123.7852 360.0568,163.0352 342.0568,180.6612 C324.0568,198.2852 333.5568,226.2852 289.8068,234.5352" id="Fill-9" fill="#A3D9EF" fill-rule="evenodd"></path>
                    <path d="M46.3322,116.4044 C46.2842,116.4044 46.2342,116.3984 46.1842,116.3824 C45.9202,116.3004 45.7722,116.0204 45.8542,115.7564 C48.4102,107.4704 53.6662,100.0784 60.6502,94.9424 C67.6002,89.8304 76.1682,87.0204 84.7942,87.0204 C85.1082,87.0184 85.4302,87.1984 85.4282,87.5224 C85.4282,87.7964 85.2042,88.0204 84.9282,88.0204 C84.8782,87.9944 84.8402,88.0184 84.7942,88.0204 C76.3802,88.0204 68.0222,90.7604 61.2422,95.7464 C54.4282,100.7564 49.3022,107.9684 46.8082,116.0524 C46.7422,116.2664 46.5442,116.4044 46.3322,116.4044" id="Fill-11" fill="#6B97BF" fill-rule="evenodd"></path>
                    <path d="M132.9338,204.2256 C132.6758,204.2256 132.4578,204.0256 132.4358,203.7656 C132.4158,203.4896 132.6198,203.2496 132.8958,203.2276 C142.4998,202.4756 152.2658,201.9836 161.9178,201.7596 C162.2118,201.7676 162.4218,201.9716 162.4278,202.2476 C162.4338,202.5236 162.2178,202.7536 161.9398,202.7596 C152.3078,202.9816 142.5598,203.4756 132.9758,204.2236 C132.9598,204.2256 132.9478,204.2256 132.9338,204.2256" id="Fill-13" fill="#6B97BF" fill-rule="evenodd"></path>
                    <path d="M140.179,222.0478 C118.261,222.0478 96.357,221.5938 74.587,220.6858 C74.309,220.6738 74.097,220.4418 74.107,220.1658 C74.119,219.8898 74.355,219.6878 74.627,219.6858 C121.575,221.6458 169.169,221.4878 216.099,219.2238 C216.359,219.1878 216.609,219.4238 216.621,219.6998 C216.635,219.9758 216.423,220.2098 216.145,220.2218 C190.951,221.4398 165.557,222.0478 140.179,222.0478" id="Fill-15" fill="#6B97BF" fill-rule="evenodd"></path>
                    <path d="M276.9046,217.2628 C276.3846,217.2628 275.8706,217.2228 275.3666,217.1408 C275.0966,217.0968 274.9106,216.8408 274.9526,216.5668 C274.9986,216.2968 275.2466,216.1068 275.5286,216.1548 C278.1806,216.5808 281.1446,215.7368 283.8686,213.7728 C286.3526,211.9848 288.3286,209.5628 290.2406,207.2208 C290.4146,207.0068 290.7286,206.9748 290.9446,207.1488 C291.1566,207.3228 291.1906,207.6388 291.0146,207.8528 C289.0606,210.2448 287.0426,212.7208 284.4566,214.5848 C282.0206,216.3388 279.3926,217.2628 276.9046,217.2628" id="Fill-17" fill="#6B97BF" fill-rule="evenodd"></path>
                    <path d="M310.0988,155.6378 C310.0008,155.6378 309.9028,155.6098 309.8168,155.5518 C309.5888,155.3958 309.5288,155.0858 309.6828,154.8578 L310.2668,153.9918 C311.6528,151.9378 312.2248,151.0878 314.2628,149.0078 C314.4568,148.8078 314.7728,148.8078 314.9688,148.9998 C315.1668,149.1938 315.1708,149.5098 314.9768,149.7078 C313.0048,151.7218 312.4448,152.5498 311.0988,154.5518 L310.5128,155.4178 C310.4148,155.5598 310.2588,155.6378 310.0988,155.6378" id="Fill-19" fill="#6B97BF" fill-rule="evenodd"></path>
                    <path d="M59.5892,204.4316 C59.3472,204.4316 59.1332,204.2556 59.0952,204.0096 C56.6332,188.1676 52.0332,172.7276 45.4232,158.1216 C45.3092,157.8696 45.4192,157.5736 45.6712,157.4596 C45.9192,157.3476 46.2192,157.4576 46.3332,157.7096 C52.9812,172.3976 57.6072,187.9256 60.0852,203.8536 C60.1252,204.1276 59.9392,204.3836 59.6672,204.4256 C59.6412,204.4296 59.6152,204.4316 59.5892,204.4316" id="Fill-21" fill="#6B97BF" fill-rule="evenodd"></path>
                    <path d="M26.7932,161.879 C26.7932,164.971 24.2872,167.477 21.1952,167.477 C18.1032,167.477 15.5972,164.971 15.5972,161.879 C15.5972,158.787 18.1032,156.281 21.1952,156.281 C24.2872,156.281 26.7932,158.787 26.7932,161.879" id="Fill-23" fill="#6B97BF" fill-rule="evenodd"></path>
                    <path d="M338.302,161.879 C338.302,164.971 335.796,167.477 332.704,167.477 C329.612,167.477 327.104,164.971 327.104,161.879 C327.104,158.787 329.612,156.281 332.704,156.281 C335.796,156.281 338.302,158.787 338.302,161.879" id="Fill-25" fill="#6B97BF" fill-rule="evenodd"></path>
                    <path d="M304.091,110.8214 C303.877,110.8214 303.677,110.6834 303.611,110.4694 C302.195,105.8914 300.549,101.3194 298.719,96.8754 C298.615,96.6194 298.737,96.3274 298.993,96.2234 C299.239,96.1154 299.537,96.2394 299.645,96.4954 C301.485,100.9654 303.141,105.5674 304.569,110.1734 C304.649,110.4374 304.503,110.7174 304.239,110.7994 C304.191,110.8154 304.139,110.8214 304.091,110.8214" id="Fill-27" fill="#6B97BF" fill-rule="evenodd"></path>
                    <path d="M102.5052,198.005 C102.5052,198.005 98.9932,202.763 98.6312,208.191 C98.4112,211.459 96.3212,215.259 87.7512,214.085 C79.1812,212.911 74.8492,213.791 71.4432,213.785 C68.0392,213.781 66.7932,212.795 64.1392,212.945 C61.4872,213.097 60.8732,211.587 62.7632,210.181 C64.6532,208.777 70.1452,210.065 77.6672,207.091 C85.1872,204.117 91.2832,199.867 92.2912,196.495 L102.5052,198.005 Z" id="Fill-29" fill="#F7D3AF" fill-rule="evenodd"></path>
                    <path d="M234.1614,160.7296 L224.8974,159.5456 C224.1274,159.4456 223.5334,158.8216 223.4734,158.0476 L221.3914,130.9016 C221.3114,129.8696 222.2014,129.0236 223.2294,129.1536 L232.4934,130.3396 C233.2634,130.4376 233.8574,131.0636 233.9154,131.8356 L235.9994,158.9816 C236.0774,160.0156 235.1894,160.8616 234.1614,160.7296" id="Fill-31" fill="#2A2E4E" fill-rule="evenodd"></path>
                    <path d="M216.3342,160.5782 C216.3342,160.5782 217.3842,158.7662 218.1542,156.7142 C219.1342,154.0962 216.5702,147.4182 221.5722,144.2462 C226.5722,141.0742 233.1822,139.4682 231.4542,144.0762 C229.7262,148.6822 223.6322,155.4122 223.2182,158.4602 C222.8442,161.2162 223.1682,165.2222 216.3342,160.5782" id="Fill-33" fill="#F7D3AF" fill-rule="evenodd"></path>
                    <path d="M223.6976,170.6094 C223.6976,170.6094 225.0536,166.8694 224.0996,164.4034 C223.1456,161.9374 224.2956,160.4434 222.4556,159.7574 C220.6156,159.0694 216.5196,157.4614 215.5736,159.5094 C214.6256,161.5574 210.0256,168.1394 214.1436,170.6634 C218.2616,173.1874 223.4416,172.9114 223.6976,170.6094" id="Fill-35" fill="#F9BC35" fill-rule="evenodd"></path>
                    <path d="M75.758,121.5264 C75.758,121.5264 70.138,119.6844 64.87,121.0404 C61.7,121.8564 57.436,121.0644 55.864,112.5584 C54.292,104.0524 52.098,100.2124 51.036,96.9784 C49.972,93.7424 50.518,92.2524 49.542,89.7784 C48.566,87.3084 49.808,86.2504 51.734,87.6044 C53.662,88.9584 54.16,94.5784 59.342,100.7884 C64.524,106.9984 70.47,111.4544 73.99,111.3524 L75.758,121.5264 Z" id="Fill-37" fill="#F7D3AF" fill-rule="evenodd"></path>
                    <path d="M164.4114,215.5352 C136.9834,212.1572 130.8374,163.5552 130.8374,163.5552 C130.8374,163.5552 117.9114,191.9092 102.9754,200.9112 C98.3514,203.6972 95.7594,203.2552 93.4254,203.0752 C91.4874,202.9212 86.4034,201.5532 89.0634,196.6352 C91.7214,191.7192 116.7894,133.7212 141.5694,133.2012 C166.3494,132.6812 155.3534,176.6952 173.5774,185.5352 C191.8034,194.3752 189.7874,218.6592 164.4114,215.5352" id="Fill-39" fill="#FAEDE6" fill-rule="evenodd"></path>
                    <path d="M161.5246,171.213 C164.6746,168.021 161.3326,135.689 156.8946,128.543 C152.4546,121.395 134.5506,118.151 116.2746,116.063 C97.9986,113.975 69.8126,103.729 69.9646,114.573 C70.1166,125.417 111.7786,141.765 136.4426,137.055 C136.4426,137.055 145.9346,187.011 161.5246,171.213" id="Fill-41" fill="#FAEDE6" fill-rule="evenodd"></path>
                    <path d="M159.2864,211.5976 C159.2864,211.5976 158.7244,217.0976 176.9124,215.8196 C185.1984,215.2376 188.9064,215.5776 193.5544,214.8476 C203.6944,213.2576 199.0524,191.6796 193.6724,182.6696 C188.2924,173.6576 170.4884,185.4256 163.3084,177.9396 C156.1284,170.4556 133.3184,208.0116 159.2864,211.5976" id="Fill-43" fill="#FAEDE6" fill-rule="evenodd"></path>
                    <path d="M280.5812,166.6182 C280.5812,166.6182 278.7112,161.1242 265.0492,162.9942 C253.2732,164.6082 250.8172,163.5582 243.2352,163.9182 C236.8972,164.2202 236.8952,167.3422 229.5012,167.8542 C222.1052,168.3682 203.2572,162.1042 195.0392,171.2902 C186.8212,180.4762 198.3992,191.9422 196.1612,200.1602 C194.7052,205.5182 192.1212,215.3862 202.0932,216.3742 C212.0672,217.3622 227.1232,215.8442 233.6092,216.3862 C240.0952,216.9282 296.6052,213.2382 280.5812,166.6182" id="Fill-45" fill="#F9BC35" fill-rule="evenodd"></path>
                    <path d="M278.1076,160.1348 C278.1076,160.1348 281.6496,164.7388 276.2396,165.3988 C270.8296,166.0568 263.1756,168.1448 266.9356,170.5168 C270.6936,172.8908 286.2096,172.6388 289.1456,169.4808 C292.0816,166.3248 291.1536,153.7548 291.1536,153.7548 L278.1076,160.1348 Z" id="Fill-47" fill="#F7D3AF" fill-rule="evenodd"></path>
                    <path d="M183.9358,180.8028 C183.9358,180.8028 184.7398,183.0488 179.1178,182.8688 C173.4958,182.6868 158.0878,179.5648 160.9518,168.2768 C163.8158,156.9868 167.7618,158.7408 168.2738,154.5048 C168.7838,150.2688 164.4358,145.5008 169.3038,138.0288 L169.1358,132.8748 C169.1238,132.4948 169.5478,132.2608 169.8618,132.4748 L174.6318,135.6988 C174.6318,135.6988 179.5198,133.4188 183.6618,135.5448 L187.5658,132.6968 C187.8178,132.5128 188.1718,132.6928 188.1718,133.0048 L188.1878,138.0108 C188.1878,138.0108 191.2698,144.6128 188.3998,149.5648 C186.6578,152.5728 187.7438,152.5048 189.3458,152.9308 C190.9458,153.3568 214.3878,155.6128 219.4978,163.9068 C224.6078,172.2008 226.2178,198.9288 189.5618,182.4528 C188.9538,182.1788 187.5598,180.9188 190.1578,179.8448 C190.1578,179.8448 187.2578,180.5648 183.9358,180.8028" id="Fill-49" fill="#A97879" fill-rule="evenodd"></path>
                    <path d="M202.3664,155.8554 C204.7704,157.9414 206.9864,161.8354 209.2664,166.2554 C209.2664,166.2554 204.3864,165.4354 203.3064,169.8554 C202.4264,166.9954 201.6724,163.9374 199.4864,162.9354 C191.4084,159.2354 191.9844,153.7554 191.9844,153.7554 C190.0644,151.6154 194.9304,149.4014 202.3664,155.8554" id="Fill-51" fill="#F7D3AF" fill-rule="evenodd"></path>
                    <path d="M209.2718,166.247 C209.2718,166.247 202.5758,165.113 203.0838,172.633 C203.5918,180.153 201.5238,182.213 203.2258,191.523 C204.9278,200.831 210.3658,218.415 244.2238,211.739 C278.0798,205.061 285.0618,189.609 281.8538,182.711 C278.6458,175.813 259.8398,177.277 248.1858,185.747 C236.5318,194.219 222.8598,187.651 217.8018,177.733 C212.7438,167.817 211.3558,166.983 209.2718,166.247" id="Fill-53" fill="#F9BC35" fill-rule="evenodd"></path>
                    <path d="M176.4534,142.5566 C176.4534,143.3486 175.8094,143.9926 175.0154,143.9926 C174.2214,143.9926 173.5794,143.3486 173.5794,142.5566 C173.5794,141.7626 174.2214,141.1186 175.0154,141.1186 C175.8094,141.1186 176.4534,141.7626 176.4534,142.5566" id="Fill-55" fill="#2A2E4E" fill-rule="evenodd"></path>
                    <path d="M185.9114,142.5566 C185.9114,143.3486 185.2674,143.9926 184.4754,143.9926 C183.6814,143.9926 183.0374,143.3486 183.0374,142.5566 C183.0374,141.7626 183.6814,141.1186 184.4754,141.1186 C185.2674,141.1186 185.9114,141.7626 185.9114,142.5566" id="Fill-57" fill="#2A2E4E" fill-rule="evenodd"></path>
                    <path d="M281.4426,127.4854 C281.4426,127.4854 277.0886,129.1474 275.7566,136.6114 C274.5006,143.6374 268.9786,144.8754 271.5426,146.8614 C277.8006,151.7014 268.2206,158.7954 277.5206,159.9374 C287.3546,161.1454 293.4466,155.7074 294.8506,146.4414 C296.2546,137.1734 292.1946,123.2854 281.4426,127.4854" id="Fill-59" fill="#F7D3AF" fill-rule="evenodd"></path>
                    <path d="M289.3986,122.5626 C284.7746,123.8546 269.6086,126.0226 287.2526,140.9826 C300.1166,151.8926 286.0726,161.8846 281.3446,166.2266 C276.6146,170.5706 271.1906,177.2766 279.1066,182.4746 C287.0246,187.6686 273.3346,199.7786 284.3126,202.0986 C295.2866,204.4166 305.4126,195.3786 305.8246,185.4646 C306.2366,175.5506 302.6366,169.4186 307.0446,164.9926 C315.4406,156.5686 305.7786,154.8386 309.0146,147.4506 C314.5566,134.7886 310.6746,116.6146 289.3986,122.5626" id="Fill-61" fill="#2A2E4E" fill-rule="evenodd"></path>
                    <path d="M281.0716,143 C281.0716,144.074 280.5576,144.942 279.9256,144.942 C279.2916,144.942 278.7776,144.074 278.7776,143 C278.7776,141.928 279.2916,141.058 279.9256,141.058 C280.5576,141.058 281.0716,141.928 281.0716,143" id="Fill-63" fill="#2A2E4E" fill-rule="evenodd"></path>
                    <path d="M275.4788,151.421 C274.7948,151.421 274.3228,151.243 274.2848,151.229 C274.0268,151.129 273.9008,150.839 274.0008,150.583 C274.1028,150.325 274.3868,150.197 274.6448,150.297 C274.7008,150.317 275.9588,150.771 277.2368,149.829 C277.4588,149.667 277.7728,149.713 277.9368,149.935 C278.1008,150.159 278.0528,150.471 277.8308,150.635 C276.9808,151.257 276.1348,151.421 275.4788,151.421" id="Fill-65" fill="#DBAC7D" fill-rule="evenodd"></path>
                    <path d="M282.7972,139.4044 C282.9932,140.1124 278.9232,139.8384 278.1272,138.7144 C276.3632,136.2204 282.3132,137.6584 282.7972,139.4044" id="Fill-67" fill="#2A2E4E" fill-rule="evenodd"></path>
                    <path d="M228.5324,214.2578 C224.9044,214.2578 221.3424,213.8178 218.0304,212.3118 C212.8184,209.9458 209.4484,205.4078 207.5364,202.0178 C205.0284,197.5618 203.4824,192.4238 202.2404,188.2958 C202.1584,188.0318 202.3084,187.7518 202.5744,187.6738 C202.8464,187.5918 203.1164,187.7438 203.1964,188.0078 C204.7584,193.1978 206.1344,197.4878 208.4084,201.5278 C210.2444,204.7878 213.4764,209.1458 218.4444,211.4018 C223.8844,213.8738 230.1644,213.3378 236.2364,212.8158 L237.5144,212.7078 C244.4684,212.1178 251.6584,211.5078 257.4004,207.7458 C257.6284,207.5938 257.9404,207.6598 258.0904,207.8898 C258.2424,208.1218 258.1784,208.4298 257.9464,208.5818 C251.9944,212.4838 244.6764,213.1038 237.5984,213.7038 L236.3244,213.8118 C233.7404,214.0338 231.1184,214.2578 228.5324,214.2578" id="Fill-69" fill="#B79015" fill-rule="evenodd"></path>
                    <path d="M236.1526,190.5996 C235.6626,190.5996 235.1706,190.5716 234.6726,190.5156 C231.3646,190.1276 228.4586,188.4316 225.8126,186.6576 C224.0206,185.4556 221.9506,183.9716 220.2006,182.0776 C220.0146,181.8756 220.0266,181.5576 220.2286,181.3716 C220.4386,181.1836 220.7506,181.1956 220.9366,181.3996 C222.6166,183.2176 224.6246,184.6576 226.3706,185.8276 C228.9126,187.5316 231.6906,189.1576 234.7906,189.5196 C238.5586,189.9576 242.0686,188.5196 245.7866,186.9956 C247.7726,186.1816 249.8246,185.3416 251.9146,184.8136 C252.1886,184.7436 252.4566,184.9116 252.5226,185.1776 C252.5906,185.4456 252.4286,185.7176 252.1586,185.7856 C250.1406,186.2936 248.1186,187.1216 246.1666,187.9216 C242.9446,189.2396 239.6286,190.5996 236.1526,190.5996" id="Fill-71" fill="#B79015" fill-rule="evenodd"></path>
                    <path d="M223.4074,168.7198 C223.1474,168.7198 222.9274,168.5198 222.9094,168.2578 C222.8874,167.9818 223.0934,167.7418 223.3694,167.7198 C224.5574,167.6358 225.7534,167.6158 226.9334,167.6738 C227.2094,167.6858 227.4234,167.9198 227.4094,168.1958 C227.3974,168.4718 227.1674,168.6938 226.8874,168.6718 C225.7454,168.6178 224.5914,168.6318 223.4434,168.7198 C223.4334,168.7198 223.4174,168.7198 223.4074,168.7198" id="Fill-73" fill="#B79015" fill-rule="evenodd"></path>
                    <path d="M204.2336,171.6212 C204.1296,171.6212 204.0256,171.5892 203.9356,171.5252 C203.7136,171.3612 203.6676,171.0472 203.8316,170.8252 C204.4856,169.9332 205.3396,169.1672 206.2936,168.6152 C206.5256,168.4772 206.8336,168.5572 206.9776,168.7972 C207.1136,169.0372 207.0336,169.3412 206.7936,169.4812 C205.9576,169.9652 205.2116,170.6352 204.6356,171.4172 C204.5376,171.5512 204.3856,171.6212 204.2336,171.6212" id="Fill-75" fill="#B79015" fill-rule="evenodd"></path>
                    <path d="M222.2776,162.8076 C222.2156,162.8076 222.1516,162.7956 222.0896,162.7696 C221.2996,162.4496 220.4676,162.2476 219.6176,162.1736 C219.3416,162.1496 219.1396,161.9076 219.1616,161.6336 C219.1876,161.3576 219.4436,161.1556 219.7036,161.1776 C220.6536,161.2616 221.5836,161.4856 222.4676,161.8456 C222.7236,161.9496 222.8436,162.2396 222.7416,162.4956 C222.6616,162.6896 222.4756,162.8076 222.2776,162.8076" id="Fill-77" fill="#B79015" fill-rule="evenodd"></path>
                    <path d="M229.8948,179.997 C229.6368,179.997 229.4188,179.801 229.3968,179.539 C229.3748,179.265 229.5768,179.023 229.8528,178.999 C230.9428,178.905 232.0608,178.291 233.0028,177.269 C233.8768,176.317 234.5188,175.133 235.1368,173.991 C235.2688,173.747 235.5708,173.657 235.8148,173.789 C236.0588,173.919 236.1468,174.223 236.0168,174.467 C235.3668,175.663 234.6988,176.901 233.7388,177.947 C232.6268,179.153 231.2768,179.879 229.9368,179.995 C229.9228,179.997 229.9088,179.997 229.8948,179.997" id="Fill-79" fill="#B79015" fill-rule="evenodd"></path>
                    <path d="M266.0228,172.4414 C265.9508,172.4414 265.8768,172.4254 265.8088,172.3934 L263.9388,171.5054 C263.6888,171.3874 263.5828,171.0894 263.7008,170.8394 C263.8208,170.5914 264.1148,170.4854 264.3668,170.6034 L266.2368,171.4894 C266.4868,171.6074 266.5928,171.9054 266.4748,172.1554 C266.3868,172.3354 266.2088,172.4414 266.0228,172.4414" id="Fill-81" fill="#B79015" fill-rule="evenodd"></path>
                    <path d="M159.2864,165.9766 C159.0664,165.9766 158.8664,165.8306 158.8044,165.6086 C157.6924,161.5246 148.3184,140.9306 142.9164,137.2206 C139.4204,134.8206 134.3984,134.8766 131.2344,137.3466 C131.0184,137.5166 130.7024,137.4766 130.5324,137.2606 C130.3624,137.0426 130.4004,136.7266 130.6184,136.5586 C134.1144,133.8306 139.6444,133.7626 143.4824,136.3966 C149.1724,140.3046 158.6024,161.0626 159.7684,165.3446 C159.8424,165.6106 159.6844,165.8866 159.4184,165.9586 C159.3744,165.9706 159.3284,165.9766 159.2864,165.9766" id="Fill-83" fill="#E6D5CC" fill-rule="evenodd"></path>
                    <path d="M130.9534,162.8682 C130.9174,162.8682 130.8814,162.8642 130.8434,162.8562 C130.5754,162.7942 130.4054,162.5282 130.4674,162.2582 C130.8234,160.6822 131.3374,159.1362 131.9974,157.6622 C132.1094,157.4102 132.4074,157.2982 132.6594,157.4122 C132.9114,157.5262 133.0234,157.8222 132.9094,158.0742 C132.2774,159.4842 131.7834,160.9662 131.4414,162.4782 C131.3894,162.7102 131.1834,162.8682 130.9534,162.8682" id="Fill-85" fill="#E6D5CC" fill-rule="evenodd"></path>
                    <path d="M73.801,118.5312 C73.585,118.5312 73.385,118.3892 73.321,118.1712 C72.877,116.6392 72.803,115.0012 73.109,113.4352 C73.161,113.1632 73.425,112.9852 73.695,113.0412 C73.967,113.0932 74.143,113.3572 74.091,113.6272 C73.815,115.0372 73.881,116.5112 74.283,117.8912 C74.359,118.1572 74.207,118.4352 73.941,118.5112 C73.893,118.5252 73.847,118.5312 73.801,118.5312" id="Fill-87" fill="#E6D5CC" fill-rule="evenodd"></path>
                    <path d="M96.2034,200.7588 C96.1414,200.7588 96.0774,200.7468 96.0174,200.7208 L91.3694,198.8388 C91.1154,198.7348 90.9914,198.4428 91.0934,198.1868 C91.1954,197.9308 91.4874,197.8048 91.7454,197.9128 L96.3914,199.7968 C96.6474,199.8988 96.7714,200.1908 96.6674,200.4468 C96.5894,200.6408 96.4014,200.7588 96.2034,200.7588" id="Fill-89" fill="#E6D5CC" fill-rule="evenodd"></path>
                    <path d="M184.2932,180.6426 C184.1352,180.6426 183.9772,180.5666 183.8812,180.4246 C182.6512,178.6246 180.5692,177.5886 178.8932,176.8886 C178.3892,176.6766 177.8772,176.4766 177.3672,176.2786 C175.8592,175.6906 174.3012,175.0846 172.9132,174.1666 C170.7172,172.7226 169.3532,170.6186 169.2692,168.5406 C169.2592,168.2646 169.4732,168.0326 169.7512,168.0206 C170.0252,168.0386 170.2592,168.2266 170.2692,168.5006 C170.3412,170.2566 171.5352,172.0626 173.4632,173.3326 C174.7652,174.1906 176.2732,174.7786 177.7292,175.3466 C178.2492,175.5486 178.7672,175.7506 179.2792,175.9666 C181.0832,176.7206 183.3292,177.8446 184.7072,179.8606 C184.8612,180.0886 184.8032,180.3986 184.5752,180.5566 C184.4892,180.6146 184.3912,180.6426 184.2932,180.6426" id="Fill-91" fill="#99696A" fill-rule="evenodd"></path>
                    <path d="M201.3206,181.6192 C201.2266,181.6192 201.1346,181.5932 201.0506,181.5392 C199.7286,180.6892 198.0606,180.1592 196.0926,179.9592 C194.3126,179.7812 192.4706,179.8852 190.6926,179.9892 C190.4066,180.0152 190.1786,179.7932 190.1626,179.5172 C190.1486,179.2432 190.3586,179.0052 190.6346,178.9912 C192.4506,178.8872 194.3326,178.7792 196.1946,178.9652 C198.3186,179.1792 200.1346,179.7612 201.5926,180.6992 C201.8226,180.8472 201.8926,181.1572 201.7406,181.3892 C201.6446,181.5372 201.4846,181.6192 201.3206,181.6192" id="Fill-93" fill="#99696A" fill-rule="evenodd"></path>
                    <path d="M193.9074,175.664 C193.7534,175.664 193.6014,175.594 193.5034,175.46 C192.6834,174.34 192.4574,172.798 192.8194,170.74 C193.1194,169.016 193.6294,167.616 194.3774,166.456 C195.2974,165.028 196.5914,164.002 198.0194,163.57 C198.2754,163.492 198.5614,163.638 198.6434,163.902 C198.7234,164.166 198.5754,164.446 198.3094,164.526 C197.1094,164.89 196.0094,165.768 195.2174,166.996 C194.5434,168.042 194.0814,169.324 193.8034,170.914 C193.4914,172.688 193.6574,173.98 194.3094,174.868 C194.4734,175.09 194.4254,175.404 194.2034,175.568 C194.1154,175.632 194.0094,175.664 193.9074,175.664" id="Fill-95" fill="#99696A" fill-rule="evenodd"></path>
                    <path d="M177.6594,148.6612 C177.5034,148.6612 177.3514,148.6492 177.2034,148.6212 C176.9314,148.5732 176.7494,148.3132 176.7994,148.0392 C176.8494,147.7692 177.1094,147.5892 177.3794,147.6372 C177.8494,147.7192 178.3414,147.5932 178.7674,147.2952 C179.1914,146.9972 179.4774,146.5652 179.5554,146.1092 L179.9014,144.0432 L180.5254,146.0432 C180.6834,146.5552 181.2394,146.9572 181.7614,146.9072 C181.7734,146.9072 181.7794,146.9072 181.7874,146.9072 C182.0534,146.9072 182.2754,147.1152 182.2874,147.3812 C182.3014,147.6572 182.0894,147.8912 181.8134,147.9052 C181.1674,147.9532 180.5914,147.6872 180.1534,147.2672 C179.9494,147.5912 179.6694,147.8812 179.3414,148.1152 C178.8334,148.4712 178.2394,148.6612 177.6594,148.6612" id="Fill-97" fill="#99696A" fill-rule="evenodd"></path>
                    <path d="M179.8128,144.2666 C179.8128,144.2666 176.9908,144.0446 179.8128,146.1606 C179.8128,146.1606 182.7828,144.1186 179.8128,144.2666" id="Fill-99" fill="#2A2E4E" fill-rule="evenodd"></path>
                    <path d="M91.2502,206.7462 C91.0082,206.7462 90.7982,206.5722 90.7582,206.3282 C90.7122,206.0542 90.8982,205.7982 91.1682,205.7522 C92.4842,205.5362 93.7702,205.0442 94.8902,204.3302 C95.1202,204.1842 95.4322,204.2502 95.5822,204.4822 C95.7282,204.7142 95.6602,205.0242 95.4262,205.1722 C94.1942,205.9582 92.7782,206.5002 91.3322,206.7402 C91.3042,206.7442 91.2762,206.7462 91.2502,206.7462" id="Fill-101" fill="#DBAC7D" fill-rule="evenodd"></path>
                    <path d="M66.01,117.9454 C65.826,117.9454 65.65,117.8434 65.562,117.6674 C65.14,116.8134 64.574,116.0454 63.884,115.3834 C63.684,115.1914 63.676,114.8754 63.868,114.6754 C64.058,114.4774 64.376,114.4694 64.576,114.6594 C65.35,115.4034 65.984,116.2654 66.46,117.2234 C66.582,117.4714 66.48,117.7714 66.232,117.8934 C66.16,117.9294 66.086,117.9454 66.01,117.9454" id="Fill-103" fill="#DBAC7D" fill-rule="evenodd"></path>
                    <path d="M261.221,244.5694 L248.971,244.5694 C248.005,244.5694 247.221,245.3534 247.221,246.3194 L247.221,265.4534 C247.221,266.4214 248.005,267.2034 248.971,267.2034 L261.221,267.2034 C262.187,267.2034 262.971,266.4214 262.971,265.4534 L262.971,246.3194 C262.971,245.3534 262.187,244.5694 261.221,244.5694" id="Fill-105" fill="#EA6247" fill-rule="evenodd"></path>
                    <path d="M263.971,250.8818 C262.835,250.8818 261.909,251.8058 261.909,252.9438 L261.909,257.6318 C261.909,258.7698 262.835,259.6938 263.971,259.6938 L264.971,259.6938 C266.109,259.6938 267.035,258.7698 267.035,257.6318 L267.035,252.9438 C267.035,251.8058 266.109,250.8818 264.971,250.8818 L263.971,250.8818 Z M264.971,261.6938 L263.971,261.6938 C261.731,261.6938 259.909,259.8718 259.909,257.6318 L259.909,252.9438 C259.909,250.7038 261.731,248.8818 263.971,248.8818 L264.971,248.8818 C267.211,248.8818 269.035,250.7038 269.035,252.9438 L269.035,257.6318 C269.035,259.8718 267.211,261.6938 264.971,261.6938 Z" id="Fill-107" fill="#EA6247" fill-rule="evenodd"></path>
                    <path d="M234.6312,84.8956 C235.6352,86.7736 234.3012,89.4496 231.6492,90.8676 C228.9972,92.2876 226.0332,91.9156 225.0272,90.0376 C224.0212,88.1576 225.3552,85.4836 228.0072,84.0636 C230.6592,82.6456 233.6252,83.0176 234.6312,84.8956" id="Fill-109" fill="#2A2E4E" fill-rule="evenodd"></path>
                    <mask id="mask-2" fill="white">
                        <use xlink:href="#path-1"></use>
                    </mask>
                    <g id="Clip-112"></g>
                    <polygon id="Fill-111" fill="#2A2E4E" fill-rule="evenodd" mask="url(#mask-2)" points="233.508 85.748 234.88 85.748 234.88 59.426 233.508 59.426"></polygon>
                    <path d="M234.8528,59.4394 C234.8528,59.4394 235.5948,62.6074 236.3308,63.6534 C237.4008,65.1694 241.9428,69.6674 242.2188,73.1454 C242.4088,75.5694 241.5808,77.2614 240.4948,78.6334 C240.4948,78.6334 241.2588,75.2614 240.6868,73.2734 C239.7628,70.0514 237.6588,68.4914 236.2828,67.7054 C234.9428,66.9394 234.5448,66.7154 234.5448,66.7154 L234.8528,59.4394 Z" id="Fill-113" fill="#2A2E4E" fill-rule="evenodd" mask="url(#mask-2)"></path>
                    <path d="M251.6868,25.4708 C252.6928,27.3488 251.3568,30.0228 248.7068,31.4428 C246.0548,32.8628 243.0888,32.4908 242.0828,30.6108 C241.0768,28.7328 242.4108,26.0588 245.0628,24.6388 C247.7168,23.2208 250.6808,23.5928 251.6868,25.4708" id="Fill-114" fill="#2A2E4E" fill-rule="evenodd" mask="url(#mask-2)"></path>
                    <polygon id="Fill-115" fill="#2A2E4E" fill-rule="evenodd" mask="url(#mask-2)" points="250.564 26.322 251.936 26.322 251.936 0 250.564 0"></polygon>
                    <path d="M251.9084,0.0136 C251.9084,0.0136 252.6504,3.1816 253.3884,4.2276 C254.4564,5.7436 259.0004,10.2416 259.2744,13.7196 C259.4664,16.1436 258.6364,17.8356 257.5524,19.2076 C257.5524,19.2076 258.3144,15.8356 257.7424,13.8476 C256.8184,10.6256 254.7144,9.0656 253.3404,8.2796 C252.0004,7.5136 251.6004,7.2916 251.6004,7.2916 L251.9084,0.0136 Z" id="Fill-116" fill="#2A2E4E" fill-rule="evenodd" mask="url(#mask-2)"></path>
                    <path d="M192.3372,66.8066 C193.2612,68.5346 192.0352,70.9946 189.5952,72.3006 C187.1552,73.6046 184.4272,73.2646 183.5032,71.5346 C182.5772,69.8066 183.8052,67.3486 186.2452,66.0426 C188.6832,64.7366 191.4112,65.0786 192.3372,66.8066" id="Fill-117" fill="#2A2E4E" fill-rule="evenodd" mask="url(#mask-2)"></path>
                    <path d="M212.9974,63.461 C213.9214,65.189 212.6954,67.649 210.2554,68.955 C207.8154,70.261 205.0874,69.919 204.1634,68.189 C203.2374,66.461 204.4654,64.003 206.9054,62.697 C209.3454,61.391 212.0734,61.733 212.9974,63.461" id="Fill-118" fill="#2A2E4E" fill-rule="evenodd" mask="url(#mask-2)"></path>
                    <polygon id="Fill-119" fill="#2A2E4E" fill-rule="evenodd" mask="url(#mask-2)" points="191.392 67.766 192.654 67.766 192.654 43.556 191.392 43.556"></polygon>
                    <polygon id="Fill-120" fill="#2A2E4E" fill-rule="evenodd" mask="url(#mask-2)" points="213.2562 64.92 211.9942 64.92 212.0242 40.958 213.2562 40.71"></polygon>
                    <polygon id="Fill-121" fill="#2A2E4E" fill-rule="evenodd" mask="url(#mask-2)" points="213.2512 43.166 191.4352 45.91 191.4352 43.54 213.2552 40.576"></polygon>
                </g>
            </g>
        </g>
    </g>
</svg>