<?xml version="1.0" encoding="UTF-8"?>
<svg width="46px" height="23px" viewBox="0 0 46 23" version="1.1" xmlns="http://www.w3.org/2000/svg" xmlns:xlink="http://www.w3.org/1999/xlink">
    <!-- Generator: Sketch 51.3 (57544) - http://www.bohemiancoding.com/sketch -->
    <title>Icons/car</title>
    <desc>Created with Sketch.</desc>
    <defs>
        <polygon id="path-1" points="4.83870968e-05 0.462642553 45.1398387 0.462642553 45.1398387 20.0845787 4.83870968e-05 20.0845787"></polygon>
        <polygon id="path-3" points="0 23.0267191 45.1398387 23.0267191 45.1398387 -0.000195744681 0 -0.000195744681"></polygon>
    </defs>
    <g id="SiriusXM" stroke="none" stroke-width="1" fill="none" fill-rule="evenodd">
        <g transform="translate(-449.000000, -1230.000000)" id="Welcome">
            <g transform="translate(0.000000, 767.000000)">
                <g id="Icons/car" transform="translate(449.000000, 463.000000)">
                    <path d="M9.90575806,14.4452234 C7.94220968,14.4452234 6.34495161,16.0606064 6.34495161,18.0459468 C6.34495161,20.0317766 7.94220968,21.6471596 9.90575806,21.6471596 C11.8693065,21.6471596 13.4660806,20.0317766 13.4660806,18.0459468 C13.4660806,16.0606064 11.8693065,14.4452234 9.90575806,14.4452234 M9.90575806,23.0266702 C7.19027419,23.0266702 4.98091935,20.7922447 4.98091935,18.0459468 C4.98091935,15.3001383 7.19027419,13.0657128 9.90575806,13.0657128 C12.6207581,13.0657128 14.8305968,15.3001383 14.8305968,18.0459468 C14.8305968,20.7922447 12.6207581,23.0266702 9.90575806,23.0266702" id="Fill-1" fill="#62D190" fill-rule="evenodd"></path>
                    <path d="M34.9064032,14.4452234 C32.9433387,14.4452234 31.3460806,16.0606064 31.3460806,18.0459468 C31.3460806,20.0317766 32.9433387,21.6471596 34.9064032,21.6471596 C36.8699516,21.6471596 38.4672097,20.0317766 38.4672097,18.0459468 C38.4672097,16.0606064 36.8699516,14.4452234 34.9064032,14.4452234 M34.9064032,23.0266702 C32.1914032,23.0266702 29.9820484,20.7922447 29.9820484,18.0459468 C29.9820484,15.3001383 32.1914032,13.0657128 34.9064032,13.0657128 C37.6218871,13.0657128 39.8312419,15.3001383 39.8312419,18.0459468 C39.8312419,20.7922447 37.6218871,23.0266702 34.9064032,23.0266702" id="Fill-3" fill="#62D190" fill-rule="evenodd"></path>
                    <g id="Group-7" stroke-width="1" fill-rule="evenodd" transform="translate(0.000000, -0.462643)">
                        <mask id="mask-2" fill="white">
                            <use xlink:href="#path-1"></use>
                        </mask>
                        <g id="Clip-6"></g>
                        <path d="M24.3571452,0.462642553 L6.7398871,0.462642553 C5.38601613,0.462642553 4.15843548,1.21772766 3.53617742,2.43379149 L1.14633871,7.10230213 C0.882145161,7.61857872 0.742790323,8.19847234 0.742790323,8.77983404 L0.742790323,12.9164085 C0.265209677,13.5481745 4.83870968e-05,14.3272383 4.83870968e-05,15.133217 L4.83870968e-05,16.5269191 C4.83870968e-05,16.9159617 0.162629032,17.2873872 0.448112903,17.5487064 L2.8248871,19.7273447 C3.07601613,19.9568553 3.40214516,20.0845787 3.74085484,20.0845787 L5.08262903,20.0845787 C5.45375806,20.0845787 5.80891935,19.9314085 6.06585484,19.6607915 C6.32279032,19.3906638 6.46020968,19.0256 6.44520968,18.6507489 C6.44375806,18.6032809 6.44182258,18.5563021 6.44182258,18.508834 C6.44182258,16.5773234 7.99601613,15.0054936 9.90585484,15.0054936 C11.8156935,15.0054936 13.3698871,16.5773234 13.3698871,18.508834 C13.3698871,18.5563021 13.3679516,18.6032809 13.3660161,18.6507489 C13.3515,19.0256 13.4884355,19.3906638 13.745371,19.6607915 C14.0027903,19.9314085 14.3579516,20.0845787 14.7290806,20.0845787 L30.0837581,20.0845787 C30.4548871,20.0845787 30.8095645,19.9314085 31.0669839,19.6607915 C31.3239194,19.3906638 31.4613387,19.0256 31.4463387,18.6507489 C31.4444032,18.6032809 31.4429516,18.5563021 31.4429516,18.508834 C31.4429516,16.5773234 32.9961774,15.0054936 34.9069839,15.0054936 C36.8168226,15.0054936 38.3710161,16.5773234 38.3710161,18.508834 C38.3710161,18.5563021 38.3685968,18.6032809 38.3666613,18.6507489 C38.3521452,19.0256 38.4890806,19.3906638 38.7465,19.6607915 C39.0039194,19.9314085 39.3585968,20.0845787 39.7302097,20.0845787 L40.3592419,20.0845787 C40.6094032,20.0845787 40.8547258,20.0150894 41.0685968,19.8834511 L43.4081129,18.4432596 C44.4765,17.7855574 45.1398871,16.5910255 45.1398871,15.3265149 L45.1398871,15.1434936 C45.1398871,13.6406638 44.2379516,12.3159617 42.8932742,11.7639617 L41.8490806,10.0330894 C41.2887581,9.10428085 40.3568226,8.48083404 39.2923065,8.32277021 L30.9905323,7.09202553 L26.6831129,1.59942979 C26.1165,0.877131915 25.2687581,0.462642553 24.3571452,0.462642553 M24.3571452,1.84215319 C24.8473065,1.84215319 25.3098871,2.0682383 25.6147258,2.45630213 L30.2574677,8.37757872 L39.0948871,9.68808936 C39.7544032,9.7859617 40.3374677,10.1754936 40.6848871,10.7514723 L41.9932742,12.9208128 L42.0765,12.9418553 C43.0756935,13.194366 43.7763387,14.1021319 43.7763387,15.1434936 L43.7763387,15.3265149 C43.7763387,16.1183021 43.3679516,16.8533234 42.6987581,17.2648766 L40.3592419,18.7050681 L39.7302097,18.7050681 C39.7321452,18.639983 39.7345645,18.5748979 39.7345645,18.508834 C39.7345645,15.8124511 37.572629,13.625983 34.9069839,13.625983 C32.240371,13.625983 30.0784355,15.8124511 30.0784355,18.508834 C30.0784355,18.5748979 30.0808548,18.639983 30.0837581,18.7050681 L14.7290806,18.7050681 C14.7310161,18.639983 14.7334355,18.5748979 14.7334355,18.508834 C14.7334355,15.8124511 12.5724677,13.625983 9.90585484,13.625983 C7.23924194,13.625983 5.07779032,15.8124511 5.07779032,18.508834 C5.07779032,18.5748979 5.08020968,18.639983 5.08262903,18.7050681 L3.74085484,18.7050681 L1.36359677,16.5269191 L1.36359677,15.133217 C1.36359677,14.4901957 1.63359677,13.8770255 2.10682258,13.4468766 L2.10682258,8.77983404 C2.10682258,8.41672766 2.19246774,8.05900426 2.35746774,7.73651489 L4.74730645,3.06800426 C5.13295161,2.3148766 5.90133871,1.84215319 6.7398871,1.84215319 L24.3571452,1.84215319" id="Fill-5" fill="#62D190" mask="url(#mask-2)"></path>
                    </g>
                    <mask id="mask-4" fill="white">
                        <use xlink:href="#path-3"></use>
                    </mask>
                    <g id="Clip-9"></g>
                    <polygon id="Fill-8" fill="#62D190" fill-rule="evenodd" mask="url(#mask-4)" points="1.52177419 8.01114468 31.0901613 8.01114468 31.0901613 6.6321234 1.52177419 6.6321234"></polygon>
                    <polygon id="Fill-10" fill="#62D190" fill-rule="evenodd" mask="url(#mask-4)" points="8.59829032 7.42068085 7.28264516 7.05659574 9.01877419 0.645468085 10.3344194 1.00955319"></polygon>
                    <polygon id="Fill-11" fill="#62D190" fill-rule="evenodd" mask="url(#mask-4)" points="16.8866129 7.23893191 18.2501613 7.23893191 18.2501613 0.98733617 16.8866129 0.98733617"></polygon>
                </g>
            </g>
        </g>
    </g>
</svg>