<?xml version="1.0" encoding="utf-8"?>
<!-- Generator: Adobe Illustrator 22.1.0, SVG Export Plug-In . SVG Version: 6.00 Build 0)  -->
<svg version="1.1" id="_xAE_" xmlns="http://www.w3.org/2000/svg" xmlns:xlink="http://www.w3.org/1999/xlink" x="0px" y="0px"
	 viewBox="0 0 535.1 101.5" style="enable-background:new 0 0 535.1 101.5;" xml:space="preserve">
<style type="text/css">
	.Arched_x0020_Green{fill:url(#SVGID_1_);stroke:#FFFFFF;stroke-width:0.25;stroke-miterlimit:1;}
	.st0{fill:#00AEEF;}
	.st1{fill:#FFFFFF;}
</style>
<linearGradient id="SVGID_1_" gradientUnits="userSpaceOnUse" x1="-128.4692" y1="363.3938" x2="-127.7621" y2="362.6867">
	<stop  offset="0" style="stop-color:#20AC4B"/>
	<stop  offset="0.9831" style="stop-color:#19361A"/>
</linearGradient>
<g>
	<g>
		<g>
			<path class="st0" d="M512,7.6L512,7.6c8.7,12.7,13.3,27.6,13.3,43c0,15.5-4.6,30.4-13.4,43.1c-1.5,2.2-1,5.3,1.3,6.8
				c2.2,1.5,5.3,1,6.8-1.3c9.9-14.4,15.1-31.2,15.1-48.7c0-17.4-5.2-34.2-15-48.6c-1.5-2.2-4.6-2.8-6.8-1.3
				C511.1,2.4,510.5,5.4,512,7.6"/>
			<path class="st0" d="M496.5,87.2L496.5,87.2c2.2,1.6,5.2,1.2,6.8-1c7.7-10.3,11.8-22.5,11.8-35.4c0-13-4.1-25.3-12-35.7
				c-1.6-2.2-4.7-2.6-6.8-0.9c-2.2,1.6-2.6,4.7-0.9,6.8l0,0c6.5,8.6,10,18.9,10,29.7c0,10.8-3.4,21-9.8,29.5
				C494,82.5,494.4,85.6,496.5,87.2"/>
			<path class="st0" d="M479.2,75.3L479.2,75.3c2.1,1.7,5.2,1.4,6.9-0.8c5.4-6.8,8.4-15.3,8.4-24c0-8.6-2.8-16.8-8.1-23.6
				c-1.7-2.1-4.7-2.5-6.9-0.8c-2.1,1.7-2.5,4.7-0.8,6.9l0,0c4,5,6,11.1,6,17.5c0,6.6-2.2,12.7-6.3,17.8l0,0
				C476.7,70.5,477.1,73.6,479.2,75.3"/>
		</g>
		<g>
			<path class="st0" d="M23.1,93.8C14.4,81.1,9.8,66.2,9.8,50.7c0-15.5,4.6-30.3,13.3-43c1.5-2.2,1-5.3-1.3-6.8
				c-2.2-1.5-5.3-1-6.8,1.3C5.2,16.5,0,33.3,0,50.7C0,68.2,5.2,85,15.1,99.4l0,0c1.5,2.2,4.6,2.8,6.8,1.3
				C24.1,99.1,24.7,96.1,23.1,93.8C23.1,93.8,24.7,96.1,23.1,93.8C23.1,93.8,24.7,96.1,23.1,93.8L23.1,93.8z"/>
			<path class="st0" d="M39.7,21.1c1.6-2.1,1.2-5.2-0.9-6.8c-2.1-1.6-5.2-1.2-6.8,0.9l0,0c-7.8,10.3-12,22.6-12,35.7
				c0,12.9,4.1,25.1,11.8,35.4c1.6,2.2,4.7,2.6,6.8,1c2.2-1.6,2.6-4.7,1-6.8c-6.4-8.6-9.8-18.8-9.8-29.5
				C29.7,40,33.1,29.7,39.7,21.1L39.7,21.1L39.7,21.1L39.7,21.1L39.7,21.1z"/>
			<path class="st0" d="M40.6,50.6c0,8.7,3,17.2,8.4,24c1.7,2.1,4.8,2.4,6.9,0.8c2.1-1.7,2.4-4.8,0.7-6.9
				c-4.1-5.1-6.3-11.3-6.3-17.8c0-6.4,2.1-12.5,6-17.5l0,0c1.7-2.1,1.3-5.2-0.8-6.9c-2.1-1.7-5.2-1.3-6.9,0.8
				C43.4,33.8,40.6,41.9,40.6,50.6C40.6,50.6,40.6,41.9,40.6,50.6C40.6,50.6,40.6,41.9,40.6,50.6L40.6,50.6z"/>
		</g>
	</g>
	<g>
		<path class="st1" d="M87.8,61.4c0,2.3,0.9,4,2.4,5.2c1.4,1.1,3.3,1.7,5.5,1.7c3.4,0,7.1-1.1,7.1-5.1c0-9-34.6-1.8-34.6-23.7
			c0-14.4,15-18.6,26.7-18.6c12.3,0,26.7,2.8,28,17.8h-20.4c-0.2-1.8-1-3.1-2.2-4.1c-1.2-1-2.8-1.4-4.5-1.4c-3.9,0-6.4,1.2-6.4,4
			c0,7.9,35.7,2.6,35.7,23.7c0,11.7-9.7,19.7-30.4,19.7c-12.9,0-27.1-4-28.3-19.2H87.8z"/>
		<path class="st1" d="M128.9,21h18.2v8.7h-18.2V21z M128.9,79.3V33.4h18.2v45.9H128.9z"/>
		<path class="st1" d="M151.9,33.4h16.5v9.3h0.2c2.5-7.2,7-10.6,14.1-10.6c0.8,0,1.6,0.2,2.4,0.3v18.2c-1.2-0.2-2.5-0.5-3.8-0.5
			c-7.4,0-11.2,3.5-11.2,13.4v15.8h-18.2V33.4z"/>
		<path class="st1" d="M189,21h18.2v8.7H189V21z M189,79.3V33.4h18.2v45.9H189z"/>
		<path class="st1" d="M261.5,79.3h-16.9v-6.7c-4.5,6.3-9,8.1-16.5,8.1c-10,0-16.4-6.1-16.4-19.2V33.4h18.2v24.8
			c0,6.3,2.2,8.3,6.6,8.3c5.2,0,6.9-3.9,6.9-11V33.4h18.2V79.3z"/>
		<path class="st1" d="M280.8,65c0,1.8,0.7,3.2,1.9,4.2c1.1,0.9,2.7,1.4,4.5,1.4c2.8,0,5.8-0.9,5.8-4.1c0-7.3-28.1-1.5-28.1-19.2
			c0-11.7,12.2-15.1,21.7-15.1c10,0,21.7,2.3,22.8,14.4h-16.5c-0.2-1.5-0.8-2.5-1.8-3.3c-1-0.8-2.3-1.1-3.7-1.1
			c-3.2,0-5.2,1-5.2,3.2c0,6.4,29,2.1,29,19.3c0,9.5-7.9,16-24.7,16c-10.5,0-22.1-3.2-23-15.6H280.8z"/>
		<path class="st1" d="M328.8,49.4l-18.6-26.9h24.9l7.1,14.1l7.5-14.1h24.6L355,49.3L374.5,79h-25l-8-16.2L333.4,79h-24.8
			L328.8,49.4z"/>
		<path class="st1" d="M375.9,22.5h20.6v8.4c2.8-4.3,7.9-10,16-10c9.3,0,15,4.3,17.7,10.3c4.8-6.8,9.1-10.3,17.3-10.3
			c14.2,0,21.2,9.3,21.2,24.7V79h-22.4V50.2c0-8.3-0.5-11.6-6.5-11.6c-6.3,0-6.2,5.7-6.2,12.5V79h-22.4V50.2
			c0-8.3-0.5-11.5-6.5-11.6c-6.2-0.2-6.3,5.7-6.3,12.5V79h-22.4V22.5z"/>
	</g>
</g>
<g>
	<path class="st1" d="M460.7,16.4L460.7,16.4c0-3.8,3.1-7,7-7c3.9,0,7,3.2,7,7v0c0,3.8-3.1,7-7,7C463.8,23.4,460.7,20.2,460.7,16.4z
		 M473.8,16.4L473.8,16.4c0-3.4-2.6-6.2-6.2-6.2c-3.5,0-6.2,2.8-6.2,6.2v0c0,3.4,2.6,6.2,6.2,6.2C471.2,22.6,473.8,19.8,473.8,16.4z
		 M464.6,12.6h3.5c1.8,0,3.1,0.8,3.1,2.5c0,1.2-0.6,2-1.5,2.3l1.8,2.6h-2.4l-1.5-2.2h-0.9v2.2h-2.1V12.6z M468,16.1
		c0.7,0,1.1-0.4,1.1-0.9c0-0.6-0.4-0.9-1.1-0.9h-1.3v1.8H468z"/>
</g>
</svg>
