<svg id="Layer_1" data-name="Layer 1" xmlns="http://www.w3.org/2000/svg" viewBox="0 0 570.42 136.04"><defs><style>.cls-1{fill:#fff;}.cls-2{fill:#d92731;}.cls-3{fill:#414142;}</style></defs><title>cars-and-jobs-logo</title><path class="cls-1" d="M292.73,0H20.65c-1.08.22-2.18.4-3.26.66A22.24,22.24,0,0,0,.22,19.92a4.71,4.71,0,0,1-.22.73v90.7H306.22V9.4a13.18,13.18,0,0,0-3.14-5.17C299.91,1.06,296.52.21,292.73,0Z"/><path class="cls-2" d="M265.89,30.65V15.36c0-4.29,1.22-8.29,4.05-11.13,3.18-3.17,6.56-4,10.36-4.23H20.65c-1.08.22-2.18.4-3.26.66A22.24,22.24,0,0,0,.22,19.92a4.71,4.71,0,0,1-.22.73v90.7H306.22v-.21L265.89,96.47V88.65L306.22,74V70.34H265.89V61.48l20.74-13.21H265.89V38.13h40.33V30.65Z"/><path class="cls-2" d="M298.1,16.05c0-2.55-.92-3.94-2.32-4.86-1.15-.81-2.26-1.1-9.27-1.1s-8.11.29-9.27,1.1c-1.39.92-2.31,2.31-2.31,4.86v4.47H298.1Z"/><polygon class="cls-3" points="292.54 88.83 281.53 92.3 292.54 96.01 292.54 88.83"/><path class="cls-3" d="M306.22,47.43v-.08l-20,12.76h20V84.75l-5.64,1.76V99l5.64,1.86v10.51L374.42,136H549.77c1.09-.22,2.18,0,3.26-.31a22.26,22.26,0,0,0,17.18-19.26,3.79,3.79,0,0,1,.21-.73V47.43Z"/><path class="cls-2" d="M297.72,15.79A5.17,5.17,0,0,0,295.44,11c-1.14-.8-2.23-1.09-9.13-1.09s-8,.29-9.12,1.09a5.17,5.17,0,0,0-2.28,4.78v4.4h22.81Z"/><path class="cls-2" d="M266,30.16v-15c0-4.22,1.2-8.15,4-10.95,3.11-3.1,6.41-3.94,10.11-4.16H20.65c-1.08.22-2.18.4-3.26.66A22.24,22.24,0,0,0,.22,19.92a4.71,4.71,0,0,1-.22.73v90.7H306.22v-.06L266,96.66V89l40.21-14.63V70.08H266V61.36l20.42-13H266v-10h40.21V30.16Z"/><path class="cls-1" d="M339.2,95.56h11.31v6.75a6,6,0,0,0,1.64,4.5c1.1,1,2.79,1.45,5.09,1.45s4-.59,5.08-1.77c.88-1.07,1.31-3.38,1.31-6.91V66.78a5.38,5.38,0,0,1,1.81-4.1A6,6,0,0,1,369.7,61h5.58v39.07a42.61,42.61,0,0,1-.5,7.72,12.3,12.3,0,0,1-2.13,4.34,14.6,14.6,0,0,1-6.06,4.18,32,32,0,0,1-9.19,1.28,23.91,23.91,0,0,1-8.53-1.28,12.13,12.13,0,0,1-6.06-3.54,11.09,11.09,0,0,1-2.79-4.5,32.36,32.36,0,0,1-.82-8.36Z"/><path class="cls-1" d="M376.1,88.64q0-13.5,7.21-21.38,7.71-7.88,20.17-7.88,12.3,0,20.17,7.88,7.38,8,7.38,21.38t-7.38,21.23q-7.54,7.71-20.17,7.71-12.78,0-20.17-7.71Q376.1,102.15,376.1,88.64Zm11.64,0q0,9.33,4.1,14.15,4.1,5,11.64,5,7.38,0,11.65-5,4.26-5.15,4.26-14.15t-4.26-14.31q-4.28-5-11.65-5-7.55,0-11.64,5T387.74,88.64Z"/><path class="cls-1" d="M433.66,116.3V66.78a5.51,5.51,0,0,1,1.72-4.1A5.73,5.73,0,0,1,439.56,61h20.67q8.68,0,13.28,3.54A12.93,12.93,0,0,1,478.1,75a13.12,13.12,0,0,1-1.8,7.07,12.5,12.5,0,0,1-5.09,4.34,14.74,14.74,0,0,1,6.56,5,13.74,13.74,0,0,1,2.13,8q0,8.06-5.24,12.55-5.42,4.33-15.26,4.34Zm11.15-33.93h13.28q4.26,0,6.23-1.44a5.22,5.22,0,0,0,2-4.51,5.21,5.21,0,0,0-2-4.5q-1.63-1.28-6.39-1.28H444.81Zm0,24h13.77c3.06,0,5.42-.59,7.06-1.77s2.29-2.89,2.29-5.47-.76-4.44-2.29-5.62-3.83-1.61-7.22-1.61H444.81Z"/><path class="cls-1" d="M482.2,99.09h11.48q.65,4.83,3.77,6.76c2.19,1.5,5.19,2.25,9,2.25q5.08,0,7.71-1.77a5.82,5.82,0,0,0,2.62-5.15q0-5.15-14.76-8.36l-.32-.16-1.32-.32q-8.36-1.77-11.15-3.7a9.61,9.61,0,0,1-4.59-5.14A14.82,14.82,0,0,1,483,76.1q0-7.87,5.58-12.38,5.56-4.34,16.23-4.34,10,0,15.42,4.5a17.72,17.72,0,0,1,5.9,13h-6.56a5.59,5.59,0,0,1-5.41-3.38,7.93,7.93,0,0,0-2.3-2.73,13.71,13.71,0,0,0-8-2.09c-3.28,0-5.64.59-7.06,1.77a5.78,5.78,0,0,0-2.46,5q0,4.33,9.52,6.43a27.57,27.57,0,0,0,4.1,1c2,.65,3.69,1.16,5.16,1.53l3.53.89,4.59,1.93a14,14,0,0,1,5.08,5,15.38,15.38,0,0,1,1.81,7.4q0,8.67-5.91,13.5-5.9,4.5-16.72,4.5-11.16,0-16.73-4.66Q482.68,108.26,482.2,99.09Z"/><path class="cls-1" d="M77.22,67.35q-.94,11.18-8.55,17.52Q60.87,91,48.14,91q-14.83,0-22.62-8.76-7.8-8.39-7.79-24.79,0-16.77,8-25.16,8.17-8.75,23.57-8.75,12.54,0,20,6.14,7,6,8,16.78H69.05a6.65,6.65,0,0,1-6.47-3.92,18,18,0,0,0-3.23-4.28q-3.8-2.81-10.07-2.8-8.74,0-13.5,5.59-4.56,5.59-4.56,16.4,0,10.44,4.56,16,4.38,5.77,13.12,5.78a16.36,16.36,0,0,0,10.07-3q3.62-2.79,5.14-8.94Z"/><path class="cls-1" d="M107.23,25.42h10.65l23.76,64.11H127.38L123,76.29H97.54L93.35,89.53H79.1L100.77,29.7A6.38,6.38,0,0,1,107.23,25.42Zm3,12.86-9.12,27.21H119.4Z"/><path class="cls-1" d="M143.7,89.53V32.13a6.39,6.39,0,0,1,2-4.75,6.65,6.65,0,0,1,4.85-2h24.9q10.63,0,15.77,4.47,5.33,4.66,5.33,13.61a17.13,17.13,0,0,1-2.67,9.87,12.92,12.92,0,0,1-7.22,5.41,10.49,10.49,0,0,1,6.08,4.47q1.71,2.79,2.1,9.5l.38,7.64v2.43a14.14,14.14,0,0,0,.19,2.42q.57,3.35,2.28,4.29H182.86a10.47,10.47,0,0,1-1.14-3.92,36.89,36.89,0,0,1-.38-4.1l-.19-6.89q-.39-5.59-2.28-8c-1.4-1.36-3.87-2-7.41-2H157.2v25Zm13.5-36.16H173q5.13,0,7.6-2c1.64-1.36,2.47-3.47,2.47-6.33s-.83-5-2.47-6.34-3.8-2.24-6.84-2.24H157.2Z"/><path class="cls-1" d="M199.37,69.59h13.31q.76,5.58,4.37,7.82Q220.86,80,227.51,80q5.88,0,8.93-2a6.72,6.72,0,0,0,3-6q0-6-17.11-9.69l-.38-.19-1.52-.37q-9.69-2.05-12.92-4.29a11.15,11.15,0,0,1-5.32-6,17.21,17.21,0,0,1-1.9-8.57q0-9.13,6.46-14.35,6.45-5,18.82-5,11.58,0,17.86,5.21a20.54,20.54,0,0,1,6.85,15.1h-7.61A6.49,6.49,0,0,1,236.44,40a9.17,9.17,0,0,0-2.66-3.16c-2.28-1.62-5.39-2.42-9.31-2.42s-6.53.68-8.18,2a6.72,6.72,0,0,0-2.85,5.78q0,5,11,7.46a33.37,33.37,0,0,0,4.75,1.11q3.42,1.13,6,1.77l4.09,1,5.32,2.23a16.36,16.36,0,0,1,5.9,5.78,18,18,0,0,1,2.09,8.57q0,10.06-6.85,15.66Q238.91,91,226.37,91,213.44,91,207,85.61,199.95,80.21,199.37,69.59Z"/><path class="cls-1" d="M560.7,124.54h-5.19v-5.2h5.19Z"/><path class="cls-1" d="M560.88,108.5a7.64,7.64,0,0,1-2.31,5.71c-2.16,2.17-5.05,2.08-8.13,2.08s-6,.09-8.13-2.08A7.64,7.64,0,0,1,540,108.5c0-3.89,2.16-7,6.69-7.78v5.13a2.54,2.54,0,0,0-2.19,2.62,2.43,2.43,0,0,0,.86,2c.61.46,1.33.78,5.08.78s4.47-.32,5.07-.78a2.44,2.44,0,0,0,.87-2,2.54,2.54,0,0,0-2.19-2.62v-5.13C558.71,101.47,560.88,104.61,560.88,108.5Z"/><path class="cls-1" d="M558.57,85.17a8.29,8.29,0,0,1,0,11.48c-2.16,2.17-5.05,2.08-8.13,2.08s-6,.09-8.13-2.08a8.29,8.29,0,0,1,0-11.48c2.16-2.16,5-2.07,8.13-2.07S556.41,83,558.57,85.17ZM545.39,88.9a2.73,2.73,0,0,0,0,4c.61.46,1.3.75,5.05.75s4.41-.29,5-.75a2.67,2.67,0,0,0,0-4c-.61-.47-1.27-.75-5-.75S546,88.43,545.39,88.9Z"/><path class="cls-1" d="M560.7,65.51h-9.83L556,68.42v3.23l-5.08,2.92h9.83v5H540.17v-5L549.23,70l-9.06-4.62v-5H560.7Z"/></svg>