<?xml version="1.0" encoding="utf-8"?>
<!-- Generator: Adobe Illustrator 22.0.1, SVG Export Plug-In . SVG Version: 6.00 Build 0)  -->
<svg version="1.1" id="Layer_1" xmlns="http://www.w3.org/2000/svg" xmlns:xlink="http://www.w3.org/1999/xlink" x="0px" y="0px"
	 viewBox="0 0 56 44" style="enable-background:new 0 0 56 44;" xml:space="preserve">
<style type="text/css">
	.st0{fill:#ED222C;}
</style>
<title>Icon/Email_tick</title>
<desc>Created with Sketch.</desc>
<g>
	<path class="st0" d="M46,3.1V23c0,0.6,0.4,1,1,1s1-0.4,1-1V3c0-2-1-3-3-3H3C1,0,0,1,0,3v28c0,2.1,0.9,3,3,3h16c0.6,0,1-0.4,1-1
		s-0.4-1-1-1H3c-1,0-1,0-1-1V3.2l19.1,19.1c0.8,0.8,1.8,1.2,2.8,1.2s2-0.4,2.8-1.2L46,3.1z M22.5,21L3.6,2h40.7L25.4,20.9
		C24.6,21.7,23.3,21.7,22.5,21z"/>
	<path class="st0" d="M55.7,22.3c-0.4-0.4-1-0.4-1.4,0L35,41.6l-9.3-9.3c-0.4-0.4-1-0.4-1.4,0s-0.4,1,0,1.4l10,10
		c0.2,0.2,0.5,0.3,0.7,0.3s0.5-0.1,0.7-0.3l20-20C56.1,23.3,56.1,22.7,55.7,22.3z"/>
</g>
</svg>
