<?xml version="1.0" encoding="UTF-8"?>
<svg width="36px" height="44px" viewBox="0 0 36 44" version="1.1" xmlns="http://www.w3.org/2000/svg" xmlns:xlink="http://www.w3.org/1999/xlink">
    <!-- Generator: Sketch 49.1 (51147) - http://www.bohemiancoding.com/sketch -->
    <title>Icon/insurance</title>
    <desc>Created with Sketch.</desc>
    <defs></defs>
    <g id="AL-Insurance" stroke="none" stroke-width="1" fill="none" fill-rule="evenodd" stroke-linecap="round" stroke-linejoin="round">
        <g id="AL-Insurance-Form-02" transform="translate(-119.000000, -176.000000)" stroke="#858789">
            <g id="Intro" transform="translate(115.000000, 172.000000)">
                <g id="Icon/insurance" transform="translate(0.000000, 4.000000)">
                    <g id="insurance">
                        <g id="clipboard-copy" transform="translate(10.000000, 16.000000)" stroke-width="2">
                            <path d="M5,1.002 L15,1.002 L5,1.002 Z" id="Path"></path>
                            <path d="M15,5.002 L5,5.002 L15,5.002 Z" id="Path"></path>
                            <path d="M1,1.002 L1,1.002 L1,1.002 Z" id="Path-5"></path>
                            <path d="M1,5.002 L1,5.002 L1,5.002 Z" id="Path-2"></path>
                        </g>
                        <g id="file_protect" stroke-width="2">
                            <path d="M31,23 C29.426,24.24 27.615,27 23,27 L23,32 C23,38.479 27.658,41.798 31,43 C34.341,41.799 39,38.479 39,32 L39,27 C34.385,27 32.574,24.242 31,23 L31,23 Z" id="Path"></path>
                            <path d="M19,39 L8,39 C6.344,39 5,37.656 5,36 L5,4 C5,2.344 6.344,1 8,1 L24,1 L33,10 L33,19.002" id="Path"></path>
                            <path d="M23,1 L23,8 C23,9.656 24.344,11 26,11 L33,11" id="Path"></path>
                        </g>
                    </g>
                </g>
            </g>
        </g>
    </g>
</svg>