<?xml version="1.0" encoding="UTF-8" standalone="no"?>
<svg
   xmlns:dc="http://purl.org/dc/elements/1.1/"
   xmlns:cc="http://creativecommons.org/ns#"
   xmlns:rdf="http://www.w3.org/1999/02/22-rdf-syntax-ns#"
   xmlns:svg="http://www.w3.org/2000/svg"
   xmlns="http://www.w3.org/2000/svg"
   id="svg24"
   version="1.1"
   viewBox="0 0 38 38"
   height="38px"
   width="38px">
  <metadata
     id="metadata28">
    <rdf:RDF>
      <cc:Work
         rdf:about="">
        <dc:format>image/svg+xml</dc:format>
        <dc:type
           rdf:resource="http://purl.org/dc/dcmitype/StillImage" />
        <dc:title>Icon/Phone</dc:title>
      </cc:Work>
    </rdf:RDF>
  </metadata>
  <!-- Generator: Sketch 49.1 (51147) - http://www.bohemiancoding.com/sketch -->
  <title
     id="title2">Icon/Phone</title>
  <desc
     id="desc4">Created with Sketch.</desc>
  <defs
     id="defs6" />
  <g
     style="fill:none;fill-rule:evenodd;stroke:none;stroke-width:1"
     id="AL-Insurance">
    <g
       transform="translate(-1052,-298)"
       id="AL-Insurance-Form-02">
      <g
         transform="translate(995,191)"
         id="Need-Help">
        <g
           transform="translate(56,106)"
           id="g19">
          <g
             id="Icon/Phone">
            <g
               id="Phone">
              <g
                 style="stroke:#ffffff;stroke-linecap:round;stroke-linejoin:round"
                 id="char_S-Copy">
                <path
                   style="stroke:#ffffff"
                   id="Path"
                   d="M 38.181818,20 C 38.181818,9.9581818 30.041818,1.8181818 20,1.8181818 9.9581818,1.8181818 1.8181818,9.9581818 1.8181818,20 c 0,10.040909 8.14,18.181818 18.1818182,18.181818 10.041818,0 18.181818,-8.140909 18.181818,-18.181818 z" />
              </g>
              <g
                 transform="translate(9.090909,9.090909)"
                 id="telephone">
                <path
                   style="stroke:#ffffff;stroke-linecap:round;stroke-linejoin:round;fill:none"
                   id="path10"
                   d="M 16.813874,14.093459 14.768427,16.13833 C 13.962153,16.945132 11.184566,16.059869 8.9253752,13.800716 6.6672666,11.542105 5.7825295,8.7651059 6.5893448,7.9588454 L 8.6337096,5.9139742 c 0.4843056,-0.4848384 0.4843056,-1.2689132 0,-1.7532105 L 4.8361044,0.36322302 c -0.4843056,-0.48429736 -1.2683936,-0.48429736 -1.7532403,0 L 0.8918548,2.5541951 c -2.338736,2.3392374 0.0806274,8.5517719 5.4052832,13.8763369 5.324115,5.324024 11.536754,7.744429 13.876031,5.404109 l 2.190469,-2.190972 c 0.484846,-0.484297 0.484846,-1.268372 0,-1.752128 l -3.797064,-3.798082 c -0.484306,-0.484297 -1.268394,-0.484297 -1.7527,0 z" />
                <polygon
                   style="fill:#ffffff;fill-rule:nonzero"
                   points="1.5083,2.2224108 6.7277388,7.5386741 7.4035534,6.8245633 2.1841146,1.5083 "
                   id="polygon12" />
                <polygon
                   style="fill:#ffffff;fill-rule:nonzero"
                   points="15.454546,15.259565 20.83829,20.719715 21.514105,20.005605 16.13036,14.545454 "
                   id="polygon14" />
              </g>
            </g>
          </g>
        </g>
      </g>
    </g>
  </g>
</svg>
