<?xml version="1.0" encoding="UTF-8"?>
<svg width="136px" height="78px" viewBox="0 0 136 78" version="1.1" xmlns="http://www.w3.org/2000/svg" xmlns:xlink="http://www.w3.org/1999/xlink">
    <!-- Generator: Sketch 48.2 (47327) - http://www.bohemiancoding.com/sketch -->
    <title>Page 1</title>
    <desc>Created with Sketch.</desc>
    <defs>
        <polygon id="path-1" points="16.8225 12.848524 16.8225 0.043784 0.049575 0.043784 0.049575 12.848524 16.8225 12.848524"></polygon>
    </defs>
    <g id="Profile---Personal-Blades-Open" stroke="none" stroke-width="1" fill="none" fill-rule="evenodd" transform="translate(-804.000000, -1512.000000)">
        <g id="Page-1" transform="translate(804.000000, 1512.000000)">
            <path d="M19.5098102,26 C19.2648055,26 19.0167792,25.9404534 18.7866309,25.815079 C18.0543868,25.4158404 17.785209,24.500029 18.1853245,23.7693898 L25.8504704,9.77267544 C29.1518641,3.74465124 35.3472338,0 42.0195191,0 L92.9804887,0 C99.6530258,0 105.848395,3.74465124 109.149537,9.77267544 L116.814683,23.7693898 C117.214799,24.500029 116.945621,25.4158404 116.213125,25.815079 C115.481133,26.2140662 114.563561,25.9457297 114.162942,25.2150905 L106.497545,11.2183761 C103.726952,6.15817244 98.5473573,3.0150171 92.9804887,3.0150171 L42.0195191,3.0150171 C36.4529023,3.0150171 31.2733074,6.15817244 28.5019597,11.2183761 L20.8370656,25.2150905 C20.5626,25.7163371 20.0443887,26 19.5098102,26" id="Fill-1" fill="#D3D5D8"></path>
            <path d="M26.4840954,25.027099 C22.5758575,25.027099 18.7638295,26.4079606 15.7497617,28.9154076 L15.1601297,29.4057976 C11.2645178,32.6463071 9.03022898,37.4250874 9.03022898,42.5169201 L9.03022898,61.0894336 C9.03022898,63.7820381 11.1996204,65.972901 13.8659694,65.972901 L122.133778,65.972901 C124.80038,65.972901 126.969771,63.7820381 126.969771,61.0894336 L126.969771,42.5164156 C126.969771,37.4250874 124.735482,32.6465594 120.83987,29.4055454 L120.251248,28.9159121 C117.237181,26.4082129 113.424647,25.027099 109.51641,25.027099 L26.4840954,25.027099 Z M122.133778,69 L13.8659694,69 C9.52870164,69 6,65.451231 6,61.0894336 L6,42.5169201 C6,36.5237686 8.63200639,30.8971484 13.2212882,27.0794721 L13.8106677,26.589082 C17.3676515,23.6298405 21.8688041,22 26.4840954,22 L109.51641,22 C114.131701,22 118.632854,23.6298405 122.190595,26.5898388 L122.779217,27.0794721 C127.367994,30.8971484 130,36.5237686 130,42.5164156 L130,61.0894336 C130,65.451231 126.471298,69 122.133778,69 Z" id="Fill-3" fill="#D3D5D8"></path>
            <path d="M27.5437862,78 L14.4562138,78 C11.9988001,78 10,76.0982212 10,73.7607916 L10,68.4693114 C10,67.6577617 10.6954261,67 11.5528681,67 C12.4105689,67 13.1057362,67.6577617 13.1057362,68.4693114 L13.1057362,73.7607916 C13.1057362,74.4780605 13.7116136,75.0613771 14.4562138,75.0613771 L27.5437862,75.0613771 C28.2883864,75.0613771 28.8942638,74.4780605 28.8942638,73.7607916 L28.8942638,68.4693114 C28.8942638,67.6577617 29.5894311,67 30.4471319,67 C31.3045739,67 32,67.6577617 32,68.4693114 L32,73.7607916 C32,76.0982212 30.0009411,78 27.5437862,78" id="Fill-5" fill="#D3D5D8"></path>
            <path d="M122.543993,78 L109.456007,78 C106.998824,78 105,76.0982212 105,73.7607916 L105,68.4693114 C105,67.6577617 105.695175,67 106.552886,67 C107.410338,67 108.105773,67.6577617 108.105773,68.4693114 L108.105773,73.7607916 C108.105773,74.4780605 108.711398,75.0613771 109.456007,75.0613771 L122.543993,75.0613771 C123.288602,75.0613771 123.894227,74.4780605 123.894227,73.7607916 L123.894227,68.4693114 C123.894227,67.6577617 124.589403,67 125.447114,67 C126.304566,67 127,67.6577617 127,68.4693114 L127,73.7607916 C127,76.0982212 125.000918,78 122.543993,78" id="Fill-7" fill="#D3D5D8"></path>
            <path d="M42.2057801,44.7685076 L93.7941846,44.7685076 L93.0969481,43.057971 C92.3971771,41.3412407 90.8174334,40.2314924 89.0724412,40.2314924 L46.9275235,40.2314924 C45.1827848,40.2314924 43.6030411,41.3412407 42.9030166,43.0582403 L42.2057801,44.7685076 Z M94.2815659,48 L41.7186523,48 C40.7963537,48 39.945274,47.5080053 39.4416721,46.684244 C38.9411115,45.8647914 38.8610218,44.8412162 39.2270013,43.9455542 L40.112043,41.7737221 C41.2943797,38.873727 43.9697809,37 46.9275235,37 L89.0724412,37 C92.0304373,37 94.705585,38.873727 95.8879217,41.7737221 L96.7737238,43.9466314 C97.1389429,44.8420241 97.0583463,45.86533 96.5587996,46.6837054 C96.0546907,47.5080053 95.2036111,48 94.2815659,48 Z" id="Fill-9" fill="#D3D5D8"></path>
            <path d="M109.5,34.1107783 C106.44423,34.1107783 103.958151,36.7526067 103.958151,40 C103.958151,43.2473933 106.44423,45.8892217 109.5,45.8892217 C112.556016,45.8892217 115.041849,43.2473933 115.041849,40 C115.041849,36.7526067 112.556016,34.1107783 109.5,34.1107783 M109.5,49 C104.813056,49 101,44.9627283 101,40 C101,35.037531 104.813056,31 109.5,31 C114.186944,31 118,35.037531 118,40 C118,44.9627283 114.186944,49 109.5,49" id="Fill-11" fill="#D3D5D8"></path>
            <path d="M25.5002465,34.1107783 C22.4440723,34.1107783 19.9580651,36.7526067 19.9580651,40 C19.9580651,43.2473933 22.4440723,45.8892217 25.5002465,45.8892217 C28.5559277,45.8892217 31.0419349,43.2473933 31.0419349,40 C31.0419349,36.7526067 28.5559277,34.1107783 25.5002465,34.1107783 M25.5002465,49 C20.8131924,49 17,44.9627283 17,40 C17,35.037531 20.8131924,31 25.5002465,31 C30.1870541,31 34,35.037531 34,40 C34,44.9627283 30.1870541,49 25.5002465,49" id="Fill-13" fill="#D3D5D8"></path>
            <path d="M101.496361,62 L32.503639,62 C31.6731291,62 31,61.1043333 31,60 C31,58.8953333 31.6731291,58 32.503639,58 L101.496361,58 C102.32662,58 103,58.8953333 103,60 C103,61.1043333 102.32662,62 101.496361,62" id="Fill-15" fill="#D3D5D8"></path>
            <path d="M101.496361,57 L32.503639,57 C31.6731291,57 31,56.1046667 31,55 C31,53.8956667 31.6731291,53 32.503639,53 L101.496361,53 C102.32662,53 103,53.8956667 103,55 C103,56.1046667 102.32662,57 101.496361,57" id="Fill-17" fill="#D3D5D8"></path>
            <path d="M20.0001247,54 C18.3436967,54 17,55.3432541 17,57.000371 C17,58.6567459 18.3436967,60 20.0001247,60 C21.6570514,60 23,58.6567459 23,57.000371 C23,55.3432541 21.6570514,54 20.0001247,54" id="Fill-19" fill="#D3D5D8"></path>
            <path d="M116.000371,54 C114.343346,54 113,55.3430454 113,57.0001228 C113,58.6567091 114.343346,60 116.000371,60 C117.657149,60 119,58.6567091 119,57.0001228 C119,55.3430454 117.657149,54 116.000371,54 Z M116.0026,56.9458608 C116.005323,56.9470884 116.02909,56.9591194 116.02909,57.0001228 C116.02909,57.0408806 116.005323,57.0529116 115.997896,57.0541392 C115.994925,57.0529116 115.97091,57.0408806 115.97091,57.0001228 C115.97091,56.9591194 115.994925,56.947334 115.995667,56.9465974 C115.995667,56.9465974 115.997153,56.9463518 116.000371,56.9463518 L116.0026,56.9458608 Z" id="Fill-21" fill="#D3D5D8"></path>
            <path d="M5.2150395,14.9239766 C4.01599344,14.9239766 3.04069161,15.875 3.04069161,17.044347 L3.04069161,20.2387914 C3.04069161,20.7005361 3.42229841,21.0760234 3.89157848,21.0760234 L13.1084215,21.0760234 C13.5774482,21.0760234 13.9593084,20.7005361 13.9593084,20.2387914 L13.9593084,17.044347 C13.9593084,15.875 12.9840066,14.9239766 11.7852139,14.9239766 L5.2150395,14.9239766 Z M13.1084215,24 L3.89157848,24 C1.74586377,24 0,22.3128655 0,20.2387914 L0,17.044347 C0,14.2629142 2.33930541,12 5.2150395,12 L11.7852139,12 C14.6604412,12 17,14.2629142 17,17.044347 L17,20.2387914 C17,22.3128655 15.2543896,24 13.1084215,24 Z" id="Fill-23" fill="#D3D5D8"></path>
            <g id="Group-27" transform="translate(119.000000, 12.000000)">
                <mask id="mask-2" fill="white">
                    <use xlink:href="#path-1"></use>
                </mask>
                <g id="Clip-26"></g>
                <path d="M5.195075,3.163784 C4.011825,3.163784 3.049575,4.178564 3.049575,5.426304 L3.049575,8.835164 C3.049575,9.327864 3.426325,9.728524 3.889075,9.728524 L12.982825,9.728524 C13.445825,9.728524 13.822575,9.327864 13.822575,8.835164 L13.822575,5.426304 C13.822575,4.178564 12.860075,3.163784 11.677075,3.163784 L5.195075,3.163784 Z M12.982825,12.848524 L3.889075,12.848524 C1.772075,12.848524 0.049575,11.048024 0.049575,8.835164 L0.049575,5.426304 C0.049575,2.458404 2.357825,0.043784 5.195075,0.043784 L11.677075,0.043784 C14.514075,0.043784 16.822575,2.458404 16.822575,5.426304 L16.822575,8.835164 C16.822575,11.048024 15.100075,12.848524 12.982825,12.848524 Z" id="Fill-25" fill="#D3D5D8" mask="url(#mask-2)"></path>
            </g>
            <path d="M114.629362,25 C113.905355,25 113.244105,24.5156519 113.053119,23.7849334 C112.826001,22.9166805 113.348155,22.0294761 114.219137,21.8031402 L120.958511,20.0528269 C121.830851,19.8267617 122.720035,20.3471178 122.946881,21.2150999 C123.173999,22.0833527 122.651845,22.9702864 121.780863,23.1966223 L115.04176,24.9472063 C114.903751,24.9829436 114.76547,25 114.629362,25" id="Fill-28" fill="#D3D5D8"></path>
            <path d="M19.4989946,25 C19.354129,25 19.2070116,24.9767712 19.0613954,24.9278247 L14.0644086,23.2473281 C13.2712758,22.9804729 12.8241691,22.0535313 13.0653616,21.1769188 C13.3068042,20.3000298 14.1457235,19.8053107 14.9386061,20.0724424 L19.9353427,21.7529389 C20.7287257,22.0197942 21.1758324,22.9467358 20.93464,23.8233483 C20.7377329,24.539018 20.1422578,25 19.4989946,25" id="Fill-30" fill="#D3D5D8"></path>
        </g>
    </g>
</svg>