<?xml version="1.0" encoding="utf-8"?>
<!-- Generator: Adobe Illustrator 22.1.0, SVG Export Plug-In . SVG Version: 6.00 Build 0)  -->
<svg version="1.1" id="Layer_1" xmlns="http://www.w3.org/2000/svg" xmlns:xlink="http://www.w3.org/1999/xlink" x="0px" y="0px"
	 viewBox="0 0 475.7 87.5" style="enable-background:new 0 0 475.7 87.5;" xml:space="preserve">
<style type="text/css">
	.st0{fill:#004FB6;}
	.st1{fill:#FFD900;}
	.st2{fill:#59B337;}
</style>
<g>
	<g>
		<path class="st0" d="M281.1,4.6c1.5,0.3,6.9,1.9,6.9,5.7V72h18.3V2.4h-25.3V4.6"/>
		<path class="st0" d="M141.4,44.2l12.3-27.4l10.7,27.4H141.4 M136.8,2.4v2.2c2.2,0.5,7,1.8,5.1,6.2L114.5,72H129l8.6-19.1h30.3
			l7.5,19.1h19L167.2,2.4H136.8z"/>
		<path class="st0" d="M422.8,44.2l12.3-27.4l10.7,27.4H422.8 M418.1,2.4v2.2c2.2,0.5,7,1.8,5.1,6.2L395.9,72h14.5l8.6-19.1h30.3
			l7.5,19.1h19L448.5,2.4H418.1z"/>
		<path class="st0" d="M369.3,72l29-69.6h-13.7l-21.3,51.1L343.1,2.4h-25.8v2.2c3,0.6,6.3,1.9,7.9,5.7L349.6,72H369.3"/>
		<path class="st0" d="M242.1,72l29-69.6h-13.7l-21.3,51.1L215.9,2.4h-25.8v2.2c3,0.6,6.3,1.9,7.8,5.7L222.4,72H242.1"/>
	</g>
</g>
<path class="st1" d="M70.5,72.5L63.5,0h0l-7.1,73.7C61,73.2,65.7,72.8,70.5,72.5z"/>
<path class="st2" d="M87.7,72l0-72L63.5,0v0l7.1,72.5C76.1,72.2,81.9,72,87.7,72z"/>
<path class="st0" d="M56.3,73.7L63.5,0v0L0,0l0,87.5C14.9,81,34.4,76.1,56.3,73.7z"/>
</svg>
