<?xml version="1.0" encoding="utf-8"?>
<!-- Generator: Adobe Illustrator 22.1.0, SVG Export Plug-In . SVG Version: 6.00 Build 0)  -->
<svg version="1.1" id="Layer_1" xmlns="http://www.w3.org/2000/svg" xmlns:xlink="http://www.w3.org/1999/xlink" x="0px" y="0px"
	 viewBox="0 0 235.2 84.9" style="enable-background:new 0 0 235.2 84.9;" xml:space="preserve">
<style type="text/css">
	.st0{fill:#003055;}
	.st1{fill:#BA2334;}
</style>
<path class="st0" d="M113.5,55V42.2c0-2.4-0.3-4.4-2.8-4.4c-2,0-4.1,1.1-5.4,2.1v15h-4.6V34.4l3.6,0l0.3,2.2l0.2,0
	c2.2-1.5,4.6-2.6,7.4-2.6c4.3,0,5.9,2.7,5.9,7.3V55H113.5z"/>
<polygon class="st0" points="230.6,55 230.6,25 235.2,25 235.2,31.4 235.2,55 "/>
<path class="st0" d="M53.9,53.6c-2.2,1.1-4.7,1.9-7.6,1.9c-7.4,0-9.8-4.7-9.8-10.8c0-7.2,4.2-10.6,9.4-10.6c5,0,8.4,2.7,8.4,9.6
	c0,0.5,0,1.5-0.1,2.3H41.3c0.2,3.7,1.6,5.9,5.5,5.9c1.9,0,3.5-0.4,5.8-1.4L53.9,53.6z M49.7,42.6c0-3.9-1.8-5.1-3.9-5.1
	c-2.3,0-4.2,1.5-4.4,5.1H49.7z"/>
<path class="st0" d="M76.8,44.9c0-6.6,3.3-10.9,10.3-10.9c7,0,9.7,4.3,9.7,10.4c0,6.7-3.1,11-10.1,11C79.5,55.4,76.8,51,76.8,44.9z
	 M92.1,44.6c0-5-1.7-7.1-5.1-7.1c-3.4,0-5.4,2.1-5.4,7.2s1.8,7.4,5.2,7.4C90.2,52.1,92.1,49.9,92.1,44.6z"/>
<path class="st0" d="M121.6,44.9c0-6.6,3.3-10.9,10.3-10.9c7,0,9.7,4.3,9.7,10.4c0,6.7-3.1,11-10.1,11
	C124.2,55.4,121.6,51,121.6,44.9z M136.8,44.6c0-5-1.7-7.1-5.1-7.1c-3.4,0-5.4,2.1-5.4,7.2s1.8,7.4,5.2,7.4
	C135,52.1,136.8,49.9,136.8,44.6z"/>
<g>
	<path class="st0" d="M182.2,30.5c1.9,0,3-1.1,3-3c0-1.9-1.1-2.9-3-2.9c-1.9,0-3,1-3,2.9C179.2,29.5,180.2,30.5,182.2,30.5z"/>
	<polygon class="st0" points="184.4,55 184.4,40.8 184.4,34.4 179.9,34.4 179.9,55 	"/>
</g>
<path class="st0" d="M221.2,55l-0.4-2.3l-0.1,0c-1.7,1.7-3.9,2.9-7,2.9c-5,0-5.7-3.4-5.7-5.6c0-4,2.5-5.9,7.3-6.3l5-0.4v-2
	c0-2.5-0.4-3.9-3.5-3.9c-2.2,0-3.7,0.2-3.7,2.9l-4.3-0.4c0-5.1,4.6-5.7,8-5.7c5.8,0,7.9,1.6,7.9,7.1V55L221.2,55z M220.3,46
	l-3.8,0.3c-3,0.3-3.9,1.1-3.9,3c0,1.9,0.9,2.5,2.5,2.5c1.9,0,3.9-1.2,5.1-2.4V46z"/>
<g>
	<path class="st0" d="M38.4,70.2H41v14.4h-2.5V70.2z"/>
	<path class="st0" d="M46.9,74.1v10.5h-2.5V70.2h2.6l7.4,10.2V70.2h2.5v14.4h-2.4L46.9,74.1z"/>
	<path class="st0" d="M60.7,80.9c0.5,0.6,1.2,1.1,2,1.4c0.8,0.4,1.6,0.6,2.6,0.6c1,0,1.7-0.2,2.2-0.6c0.5-0.4,0.7-0.9,0.7-1.5
		c0-0.4-0.1-0.8-0.4-1.1s-0.6-0.5-1.1-0.7s-1-0.3-1.8-0.6c-1.1-0.3-2-0.5-2.6-0.8S61,77,60.5,76.5s-0.7-1.3-0.7-2.3
		c0-0.8,0.2-1.5,0.7-2.2c0.4-0.6,1.1-1.1,1.9-1.5C63.1,70.2,64,70,65,70c2.2,0,4,0.6,5.4,1.8L69,73.7c-0.5-0.5-1.2-1-1.9-1.2
		c-0.7-0.3-1.5-0.4-2.3-0.4c-0.8,0-1.3,0.2-1.8,0.5c-0.4,0.3-0.7,0.8-0.7,1.4c0,0.4,0.1,0.7,0.4,0.9s0.6,0.4,1,0.6
		c0.4,0.2,1,0.3,1.7,0.5c1.1,0.3,2,0.6,2.7,0.8c0.7,0.3,1.3,0.7,1.8,1.3c0.5,0.6,0.7,1.4,0.7,2.3c0,0.8-0.2,1.6-0.6,2.3
		c-0.4,0.7-1,1.2-1.9,1.6s-1.9,0.6-3.1,0.6c-1.3,0-2.4-0.2-3.4-0.5c-1-0.4-1.8-0.9-2.5-1.5L60.7,80.9z"/>
	<path class="st0" d="M73.4,70.2h2.6V79c0,1.2,0.3,2.1,1,2.8s1.6,1,2.7,1c1.2,0,2.1-0.3,2.7-1c0.6-0.7,1-1.6,1-2.8v-8.8h2.6v8.7
		c0,1.8-0.5,3.3-1.6,4.4c-1.1,1.1-2.6,1.6-4.6,1.6c-2,0-3.6-0.5-4.7-1.6c-1.1-1.1-1.6-2.5-1.6-4.4V70.2z"/>
	<path class="st0" d="M94.3,79.3h-2.5v5.4h-2.5V70.2h6.3c0.9,0,1.8,0.2,2.5,0.6s1.3,0.9,1.7,1.6c0.4,0.7,0.6,1.5,0.6,2.3
		c0,1.2-0.3,2.2-1,2.9c-0.7,0.7-1.5,1.2-2.4,1.3l3.5,5.7h-2.9L94.3,79.3z M97,72.9c-0.5-0.5-1.1-0.7-1.8-0.7h-3.5v5h3.5
		c0.7,0,1.3-0.2,1.8-0.7c0.5-0.5,0.7-1.1,0.7-1.8S97.5,73.4,97,72.9z"/>
	<path class="st0" d="M112.3,81.9h-6.8l-1.1,2.8h-2.8l5.7-14.4h3.2l5.7,14.4h-2.8L112.3,81.9z M106.1,79.8h5.5l-2.7-7.3L106.1,79.8z
		"/>
	<path class="st0" d="M120.9,74.1v10.5h-2.5V70.2h2.6l7.4,10.2V70.2h2.5v14.4h-2.4L120.9,74.1z"/>
	<path class="st0" d="M137.3,84c-1.1-0.6-2-1.5-2.7-2.7c-0.7-1.1-1-2.4-1-3.9c0-1.4,0.3-2.7,1-3.9c0.7-1.1,1.6-2,2.7-2.7
		c1.1-0.6,2.4-0.9,3.8-0.9c2.6,0,4.5,1,5.9,3l-2.2,1.1c-0.4-0.6-0.9-1.1-1.5-1.5c-0.7-0.4-1.4-0.6-2.2-0.6c-0.9,0-1.7,0.2-2.5,0.7
		c-0.7,0.5-1.3,1.1-1.8,1.9c-0.4,0.8-0.6,1.8-0.6,2.8s0.2,2,0.6,2.8c0.4,0.8,1,1.5,1.8,1.9c0.7,0.5,1.6,0.7,2.5,0.7
		c0.8,0,1.5-0.2,2.2-0.6c0.7-0.4,1.2-0.9,1.5-1.5l2.2,1.1c-1.4,2-3.4,3-5.9,3C139.7,84.9,138.5,84.6,137.3,84z"/>
	<path class="st0" d="M149.8,70.2h9.9v2h-7.4v3.9h7.2v2h-7.2v4.4h7.4v2h-9.9V70.2z"/>
	<path class="st0" d="M163.2,74.9c-0.4-0.2-0.7-0.6-1-1c-0.2-0.4-0.4-0.9-0.4-1.3c0-0.5,0.1-0.9,0.4-1.3c0.2-0.4,0.6-0.7,1-1
		c0.4-0.2,0.9-0.4,1.3-0.4c0.5,0,0.9,0.1,1.3,0.4c0.4,0.2,0.7,0.6,1,1c0.2,0.4,0.4,0.9,0.4,1.3c0,0.5-0.1,0.9-0.4,1.3
		c-0.2,0.4-0.6,0.7-1,1c-0.4,0.2-0.9,0.4-1.3,0.4C164.1,75.2,163.6,75.1,163.2,74.9z M163.4,70.6c-0.3,0.2-0.6,0.5-0.8,0.8
		c-0.2,0.3-0.3,0.7-0.3,1.1c0,0.4,0.1,0.8,0.3,1.1c0.2,0.3,0.5,0.6,0.8,0.8c0.3,0.2,0.7,0.3,1.2,0.3c0.4,0,0.8-0.1,1.1-0.3
		c0.3-0.2,0.6-0.5,0.8-0.8c0.2-0.3,0.3-0.7,0.3-1.1c0-0.4-0.1-0.8-0.3-1.1c-0.2-0.3-0.5-0.6-0.8-0.8c-0.3-0.2-0.7-0.3-1.1-0.3
		C164.1,70.3,163.8,70.4,163.4,70.6z M164.5,72.9H164v1.2h-0.4V71h1.2c0.3,0,0.5,0.1,0.7,0.3c0.2,0.2,0.3,0.4,0.3,0.7
		c0,0.2,0,0.4-0.1,0.5s-0.2,0.2-0.3,0.3c-0.1,0.1-0.2,0.1-0.3,0.1l0.8,1.2h-0.5L164.5,72.9z M164,71.5v1h0.8c0.1,0,0.3,0,0.4-0.1
		s0.2-0.2,0.2-0.3c0-0.1-0.1-0.3-0.2-0.4s-0.2-0.1-0.4-0.1H164z"/>
</g>
<g>
	<path class="st1" d="M82,0c4.8,0,8.8,3.9,8.8,8.8c0,4.8-3.9,8.8-8.8,8.8c-4.8,0-8.8-3.9-8.8-8.8C73.2,3.9,77.2,0,82,0"/>
	<path class="st1" d="M45.4,0c4.8,0,8.8,3.9,8.8,8.8c0,4.8-3.9,8.8-8.8,8.8c-4.8,0-8.8-3.9-8.8-8.8C36.6,3.9,40.5,0,45.4,0"/>
	<path class="st1" d="M8.8,0c4.9,0,8.8,3.9,8.8,8.8c0,4.8-3.9,8.8-8.8,8.8C3.9,17.6,0,13.6,0,8.8C0,3.9,3.9,0,8.8,0"/>
</g>
<path class="st0" d="M174,55l0-14.1l0,0c0-4.1-1.4-6.8-5.8-6.8c-2.9,0-5,1.2-6.9,2.4c-1-1.8-2.8-2.4-4.7-2.4c-2.7,0-4.8,1.1-6.8,2.7
	l-0.2,0l-0.3-2.2h-3.6l0,20.5h4.6V39.9l0,0c1.3-1,3-2,4.9-2c2.3,0,2.5,2.1,2.5,4.4l0,0V55h4.6l0-13.3l0,0c0-0.8,0-1.5-0.2-2.2
	c1.2-0.8,3.1-1.6,4.9-1.6c2.2,0,2.5,1.9,2.5,4.2l0,0l0,12.9H174z"/>
<path class="st0" d="M73.3,50.6c-1.3,0.7-3.1,1.2-5,1.2c-3.4,0-5.9-1.8-6-7.1c0.1-5.2,2.5-7,5.9-7c2,0,3.8,0.6,5,1.2l1.3-3.1
	c-1.6-1-4.2-1.7-6.9-1.8c0,0-0.8,0-1.2,0c-6.2,0.4-9,4.7-9,10.4l0,0c0,0.1,0,0.3,0,0.4c0,6.1,3,10.5,10,10.5c2.7,0,5.4-0.8,7.1-1.8
	L73.3,50.6z"/>
<path class="st0" d="M204.2,50.6c-1.3,0.7-3.1,1.2-5,1.2c-3.4,0-5.9-1.8-6-7.1c0.1-5.2,2.5-7,5.9-7c2,0,3.8,0.6,5,1.2l1.3-3.1
	c-1.6-1-4.2-1.7-6.9-1.8c0,0-0.8,0-1.2,0c-6.2,0.4-9,4.7-9,10.4l0,0c0,0.1,0,0.3,0,0.4c0,6.1,3,10.5,10,10.5c2.7,0,5.4-0.8,7.1-1.8
	L204.2,50.6z"/>
</svg>
