<?xml version="1.0" encoding="utf-8"?>
<!-- Generator: Adobe Illustrator 22.1.0, SVG Export Plug-In . SVG Version: 6.00 Build 0)  -->
<svg version="1.1" id="Layer_1" xmlns="http://www.w3.org/2000/svg" xmlns:xlink="http://www.w3.org/1999/xlink" x="0px" y="0px"
	 viewBox="0 0 171.2 63.1" style="enable-background:new 0 0 171.2 63.1;" xml:space="preserve">
<style type="text/css">
	.st0{fill:#949CA1;}
	.st1{fill:#BE2F37;}
</style>
<path class="st0" d="M25.2,27.4c2,1.9,3.7,4.1,4.9,6.6c0.7-0.5,1.3-1,1.9-1.6c-0.9-1.8-2.1-3.5-3.4-5.1h9.1
	C35.1,34.2,28.6,39,20.9,39C11,39,3,31,3,21c0-9.9,8-17.9,17.9-17.9c2.7,0,5.2,0.6,7.5,1.7c0-1,0.2-2,0.6-3
	c-2.5-1.1-5.2-1.6-8.1-1.6C9.3,0.1,0,9.4,0,21s9.3,20.9,20.9,20.9c9.3,0,17.1-6,19.8-14.4c0.3-0.8,0.5-1.7,0.7-2.6H21.8
	C23,25.6,24.2,26.5,25.2,27.4"/>
<path class="st1" d="M26.2,14.6c-1.1-0.9-0.9-2.1-0.9-2.1s-1.2,2.6,0.5,6.6c1.7,4,7.2,4.6,7.2,4.6s-2.9-1.4-3.4-4.3
	c-0.3-2.1,0.8-5,0.8-5s0.7,1.9,1.6,2.6c1.8,1.6,3.6,1.8,4.5,2.7c1.4,1.3,1.1,2.3,0.5,3.1c-0.7,0.9-2,1-2,1s1.8,0.2,3.4-0.6
	c1.6-0.8,2.5-2.6,1.9-4.7c-0.6-2.1-3.3-3.7-6.2-4.9c-5.5-2.4-5.4-6.7-5.4-6.7S27.5,8,27.1,9.1c-1.1,2.9-0.3,4.6-0.3,4.6
	c0.3,0.6,1.2,1.4,1.2,1.4S27,15.3,26.2,14.6"/>
<path class="st1" d="M37.8,14.5c-0.8-0.5-1.5-1.2-1.7-2.2l0,0c-0.2-0.6-0.3-1.3-0.1-1.8c0.2-1,0.7-1.6,1-1.9l0.2-0.2
	c0.1-0.1,0.1-0.1,0.1-0.1s0,0-0.1,0.1l0,0c-1.1,0.7-1.9,1.9-1.9,3.2c0,0.6,0.1,1.1,0.4,1.6c0,0.1,0,0.1,0.1,0.1
	c-0.9-0.4-1.7-1.1-2.2-2c-0.6-0.9-1.2-2.1-1.3-3c-0.4-2.6,0.4-3.8,0.4-3.8s-1,0.9-0.9,3.5c0.1,1.6,0.9,2.9,1.4,3.7
	c-2.2-1.8-3.9-4.8-3.3-8C30.6,0.6,32.2,0,32.2,0s-0.6,1.1,0.2,1.6c0.9,0.6,2.6-1.4,2.6-1.4s-1,2.1-0.4,2.9C34.9,3.7,36,3.4,36,3.4
	s-1.1,0.8-1.4,1.8c-0.3,0.9,0,1.6,0.7,1.9c0.7,0.3,1.5,0,1.9-0.7C37.5,5.8,37.8,5,37.8,5s-0.1,1.2,0.5,1.4c0.6,0.2,1.7-0.8,1.7-0.8
	s-0.7,1.5-0.4,2C40,8,40.9,7.9,40.9,7.9s-3,1.5-3.2,3.3c-0.2,1.6,0.4,2.2,0.9,3.1c0.4,0.6,1,2,1,2S39.1,15.5,37.8,14.5L37.8,14.5z"
	/>
<path d="M60.5,11.1h8.1v0.7C66,11.8,66,12.3,66,16v2c-0.2,0-0.3-0.1-0.6-0.1c-1,0-2.4,0.5-2.8,0.7c-1,0.4-2.4,0.9-4.3,0.9
	c-5.4,0-9.4-3.9-9.4-9.4C48.9,6,51.5,0,58.3,0c1.4,0,3.9,0.2,6.2,2.8c0.5-0.9,0.5-1.8,0.6-2.1h0.7V7h-0.7c-0.6-4.3-3.5-6.3-6.5-6.3
	c-1.7,0-3.5,0.7-4.9,2.2C52.5,4.3,52,6.8,52,9.6c0,2.6,0.4,5.5,2,7.3c1.1,1.2,2.9,1.9,4.6,1.9c1.5,0,3-0.5,3.9-1.6
	c0.7-0.9,0.7-2,0.7-2.6c0-2.7-0.4-2.9-2.4-2.9h-0.5V11.1z"/>
<path d="M80.4,18.8c6.2,0,7-5.9,7-9c0-2.7-0.6-9-7.1-9c-5.8,0-7,5.1-7,9C73.3,15.6,75.5,18.8,80.4,18.8 M80.2,0
	c5.1,0,10.3,3,10.3,9.7c0,5.7-4,9.8-10.2,9.8c-5.7,0-10.2-3.6-10.2-9.9C70.1,3.2,75.1,0,80.2,0"/>
<path d="M97.8,9.4c3.7,0,4.9-1.5,4.9-4.3c0-3.8-2.3-4.4-5.1-4.4c-0.5,0-1,0-1.4,0.1v8.6H97.8z M100.4,9.7c1.2,0.6,3,3,3.3,3.4
	c0.1,0.2,0.8,1.1,1,1.3c2.8,3.7,4.1,4,5.8,4.1v0.6h-5c-1.4-1-3.3-3.8-4.1-4.9c-1.1-1.7-2.4-3.1-3-3.7c-0.5-0.5-1-0.5-1.3-0.5h-0.7
	v4.2c0,3.6,0,4.3,2.4,4.3h0.9v0.6h-9v-0.6h0.6c2.4,0,2.4-0.6,2.4-4.3V5c0-3.7-0.1-4.1-2.3-4.1h-0.6V0.4H91c0.5,0,2.9-0.2,3.8-0.2
	c0.7,0,2-0.1,2.8-0.1c3.8,0,5.5,0.7,6.6,1.6c1.1,0.9,1.6,2,1.6,3.2C105.8,7.8,103.4,9.4,100.4,9.7L100.4,9.7z"/>
<path d="M119.3,18.5c1.6,0,4.4,0,5.6-5.2h0.7l-0.4,5.8h-15.5v-0.6h0.4c2.4,0,2.4-0.6,2.4-4.3V5c0-3.7,0-4.1-2.4-4.1V0.4h13.4
	l0.4,4.7h-0.7C122.3,1,121,1,117.8,1h-2.6v7.9h2c2.6,0,2.8-0.7,2.8-2.8h0.7v6.4H120c0-2.8-0.6-3-2.8-3h-2V14c0,4.3,0.2,4.5,2.8,4.5
	H119.3z"/>
<path d="M62,38.2l6.8-15.5h5.8v0.6h-0.7c-2.5,0-2.5,0.2-2.5,4.1v9.2c0,3.6,0,4.3,2.4,4.3h0.9v0.6h-9v-0.6h0.7c2.4,0,2.4-0.6,2.4-4.3
	v-12h-0.1l-7.4,16.9h-0.7l-7.4-16.9h-0.1v11c0,2.6,0,3.4,0.7,4.2c0.7,0.8,1.6,0.9,2.3,1v0.6h-6.7v-0.6c0.5,0,1.6-0.1,2.4-1.1
	c0.7-0.8,0.7-1.8,0.7-4.2v-8.2c0-3.8,0-4.1-2.5-4.1h-0.5v-0.6h5.7L62,38.2z"/>
<path d="M90.1,22.7h6.3v0.6c-2.8,0.2-2.8,1.6-2.8,4v6.2c0,2.5,0,3.7-0.7,5c-1,1.8-3.3,3.2-6.9,3.2c-3.9,0-5.7-1.7-6.5-2.8
	c-0.9-1.4-0.9-2.7-0.9-5.9v-5.8c0-3.8,0-4.1-2.5-4.1h-0.4v-0.6h8.6v0.6c-2.8,0-2.9,0-2.9,4.1v5.9c0,2.7,0,4.2,0.7,5.4
	c0.7,1.1,2.2,2.2,4.6,2.2c1.9,0,4.3-0.6,5.5-2.5c0.8-1.2,0.8-2.5,0.8-4.9V27c0-2.3,0-3.5-2.9-3.7V22.7z"/>
<path d="M102.8,23.3c-2,0-2.7,0-3.3,0.8c-0.5,0.6-0.9,1.7-1.1,3.1h-0.6l0.1-4.5H116l0.1,4.5h-0.6c-0.7-3.9-2-3.9-4.3-3.9h-3v13.3
	c0,3.6,0,4.3,2.4,4.3h0.9v0.6h-9.4v-0.6h1c2.4,0,2.4-0.6,2.4-4.3V23.3H102.8z"/>
<path d="M131.8,22.7h6.3v0.6c-2.8,0.2-2.8,1.6-2.8,4v6.2c0,2.5,0,3.7-0.7,5c-1,1.8-3.3,3.2-6.9,3.2c-3.9,0-5.7-1.7-6.5-2.8
	c-0.9-1.4-0.9-2.7-0.9-5.9v-5.8c0-3.8,0-4.1-2.5-4.1h-0.4v-0.6h8.6v0.6c-2.8,0-2.9,0-2.9,4.1v5.9c0,2.7,0,4.2,0.7,5.4
	c0.7,1.1,2.2,2.2,4.6,2.2c1.9,0,4.3-0.6,5.5-2.5c0.8-1.2,0.8-2.5,0.8-4.9V27c0-2.3,0-3.5-2.9-3.7V22.7z"/>
<path d="M140.3,33.9h6.6l-3.3-8L140.3,33.9z M147.1,34.5H140l-0.5,1.2c0,0-0.1,0.1-0.1,0.3c-0.5,1.2-1,2.3-1,3.1
	c0,0.8,0.4,1.8,2,1.8v0.6h-5.6v-0.6c2-0.3,2.4-1.4,3.3-3.8c0.1-0.2,0.5-1.3,0.7-1.6l5.4-13h0.5l6.6,15.6c0.1,0.3,0.3,0.5,0.3,0.7
	c0.6,1.4,0.9,2,2.6,2.2v0.6h-7.4v-0.6c1.3,0,2.3,0,2.3-1c0-0.3-0.1-0.6-0.3-1c0-0.1-0.3-0.7-0.3-0.8L147.1,34.5z"/>
<path d="M171.2,35.9l-0.1,5.5h-16v-0.6h0.6c2.4,0,2.4-0.6,2.4-4.3v-9.2c0-3.8-0.1-4.1-2.5-4.1h-0.4v-0.6h9v0.6h-0.8
	c-2.5,0-2.5,0.2-2.5,4.1v9.8c0,3.3,0,3.7,2.8,3.7h1.4c2.3,0,4.2,0,5.5-4.7c0,0,0-0.1,0.1-0.2H171.2z"/>
<path class="st1" d="M61.6,57.5h3.2v4.7c-0.6,0.3-1.5,0.6-2.7,0.6c-3,0-4.3-1.4-4.3-4.8c0-2.8,1.2-4.8,4.3-4.8
	c1.3,0,2.1,0.3,2.7,0.6l-0.2,1.5c-0.5-0.3-1.5-0.6-2.5-0.6c-2,0-2.6,1.1-2.6,3.3c0,1.9,0.5,3.2,2.6,3.2c0.4,0,0.8-0.1,1.2-0.2v-2.2
	h-1.7V57.5z"/>
<path class="st1" d="M70.3,54.8C68.4,54.8,68,56,68,58c0,2,0.3,3.2,2.2,3.2c1.9,0,2.2-1.3,2.2-3.2C72.5,56,72.1,54.8,70.3,54.8
	 M66.4,58c0-2.8,0.8-4.8,3.9-4.8c3.1,0,3.9,2,3.9,4.8c0,2.8-0.8,4.8-3.9,4.8S66.4,60.8,66.4,58"/>
<polygon class="st1" points="81,62.6 79.3,62.6 79.3,53.4 85.6,53.4 85.6,54.9 81,54.9 81,57.2 85,57.2 85,58.7 81,58.7 "/>
<path class="st1" d="M90.5,54.8c-1.9,0-2.2,1.2-2.2,3.2c0,2,0.3,3.2,2.2,3.2c1.9,0,2.2-1.3,2.2-3.2C92.7,56,92.4,54.8,90.5,54.8
	 M86.6,58c0-2.8,0.8-4.8,3.9-4.8c3.1,0,3.9,2,3.9,4.8c0,2.8-0.8,4.8-3.9,4.8C87.4,62.8,86.6,60.8,86.6,58"/>
<path class="st1" d="M97.3,54.9v2.7h1.9c1.4,0,1.9-0.5,1.9-1.4c0-0.9-0.4-1.4-1.9-1.4H97.3z M100.6,58.9l2.4,3.7h-1.9l-2.3-3.5h-1.6
	v3.5h-1.6v-9.3h3.5c2.5,0,3.5,1.2,3.5,2.9C102.7,57.5,102,58.5,100.6,58.9"/>
<polygon class="st1" points="112.7,60.1 114.7,53.4 116.3,53.4 113.5,62.6 111.9,62.6 109.9,56.1 107.9,62.6 106.3,62.6 103.4,53.4 
	105.1,53.4 107.1,60.1 109.1,53.4 110.7,53.4 "/>
<path class="st1" d="M118.4,59h2.8l-1.4-3.6L118.4,59z M121.7,60.6h-3.9l-0.8,2.1h-1.7l3.6-9.3h1.7l3.6,9.3h-1.7L121.7,60.6z"/>
<path class="st1" d="M126.7,54.9v2.7h1.9c1.4,0,1.9-0.5,1.9-1.4c0-0.9-0.4-1.4-1.9-1.4H126.7z M130.1,58.9l2.4,3.7h-1.9l-2.3-3.5
	h-1.6v3.5h-1.6v-9.3h3.5c2.5,0,3.5,1.2,3.5,2.9C132.1,57.5,131.5,58.5,130.1,58.9"/>
<path class="st1" d="M139.2,58c0-2-0.4-3.1-2.6-3.1h-1.2v6.2h1.2C138.5,61.1,139.2,60.3,139.2,58 M133.8,53.4h2.8
	c3,0,4.2,1.2,4.2,4.6c0,2.9-1.2,4.6-4.2,4.6h-2.8V53.4z"/>
<path class="st0" d="M54.4,58.5c0-0.1,0-0.2-0.1-0.3c0,0,0,0,0-0.1c0-0.1-0.1-0.2-0.2-0.3l0,0l-3.9-3.9v2.6l2,2l-2,2v2.6l3.9-3.9
	C54.3,59,54.4,58.7,54.4,58.5C54.4,58.5,54.4,58.5,54.4,58.5"/>
</svg>
