<?xml version="1.0" encoding="utf-8"?>
<!-- Generator: Adobe Illustrator 22.1.0, SVG Export Plug-In . SVG Version: 6.00 Build 0)  -->
<svg version="1.1" id="Layer_1" xmlns="http://www.w3.org/2000/svg" xmlns:xlink="http://www.w3.org/1999/xlink" x="0px" y="0px"
	 viewBox="0 0 364.6 113" style="enable-background:new 0 0 364.6 113;" xml:space="preserve">
<style type="text/css">
	.st0{fill:#263746;}
	.st1{fill:url(#SVGID_1_);}
</style>
<g>
	<path class="st0" d="M148.5,21.4h23.2v24.5h21.2V21.4h23.2v65.1c0,2.4-1.9,4.3-4.3,4.3h-18.9V65.9h-21.2v24.9h-23.2V21.4z"/>
	<path class="st0" d="M223.5,59.6V21.4h19.3c2.4,0,4.3,1.9,4.3,4.3v33.7c0,8.6,4.5,12.3,10.7,12.3s10.7-3.4,10.7-11.8V25.7
		c0-2.4,1.9-4.3,4.3-4.3h19.3v37.8c0,23.7-13.8,33-34.5,33C236.8,92.2,223.5,82.7,223.5,59.6z"/>
	<path class="st0" d="M299.4,21.4h38.9c9.6,0,15.7,2.2,19.7,6.2c2.5,2.5,4.3,6,4.3,10.8v0.2c0,8.2-5,13.3-12.4,15.9
		c8.9,2.6,14.7,7.3,14.7,16.9v0.2c0,11.1-9.1,19.2-26.7,19.2h-34.2c-2.4,0-4.3-1.9-4.3-4.3V21.4z M339.5,43.7c0-3.1-2.5-4.8-7.4-4.8
		h-10v9.7h10.1c5,0,7.3-1.7,7.3-4.8V43.7z M333.7,62.9H322v10.3h11.6c5.1,0,7.6-2.1,7.6-5.1V68C341.3,65,338.8,62.9,333.7,62.9z"/>
</g>
<linearGradient id="SVGID_1_" gradientUnits="userSpaceOnUse" x1="56.52" y1="0" x2="56.52" y2="113.04">
	<stop  offset="0" style="stop-color:#00AEEF"/>
	<stop  offset="0.25" style="stop-color:#0095DA"/>
	<stop  offset="0.5" style="stop-color:#0071B4"/>
	<stop  offset="0.75" style="stop-color:#0061AF"/>
	<stop  offset="1" style="stop-color:#293996"/>
</linearGradient>
<path class="st1" d="M56.5,22.9c18.6,0,33.6,15,33.6,33.6s-15,33.6-33.6,33.6s-33.6-15-33.6-33.6S38,22.9,56.5,22.9 M56.5,0
	c-7.6,0-15,1.5-22,4.5c-6.7,2.8-12.8,6.9-18,12.1s-9.3,11.2-12.1,18c-3,7-4.5,14.4-4.5,22s1.5,15,4.5,22c2.8,6.7,6.9,12.8,12.1,18
	c5.2,5.2,11.2,9.3,18,12.1c7,3,14.4,4.5,22,4.5s15-1.5,22-4.5c6.7-2.8,12.8-6.9,18-12.1c5.2-5.2,9.3-11.2,12.1-18
	c3-7,4.5-14.4,4.5-22s-1.5-15-4.5-22c-2.8-6.7-6.9-12.8-12.1-18c-5.2-5.2-11.2-9.3-18-12.1C71.5,1.5,64.1,0,56.5,0L56.5,0z"/>
</svg>
