<?xml version="1.0" encoding="utf-8"?>
<!-- Generator: Adobe Illustrator 22.1.0, SVG Export Plug-In . SVG Version: 6.00 Build 0)  -->
<svg version="1.1" id="Layer_1" xmlns="http://www.w3.org/2000/svg" xmlns:xlink="http://www.w3.org/1999/xlink" x="0px" y="0px"
	 viewBox="0 0 265.7 115.8" style="enable-background:new 0 0 265.7 115.8;" xml:space="preserve">
<style type="text/css">
	.st0{fill:#E3173E;}
</style>
<g>
	<g>
		<polygon class="st0" points="39.4,115.7 0,115.7 0,0 39.4,0 39.4,12.1 12.1,12.1 12.1,103.5 39.4,103.5 39.4,115.7 		"/>
		<polygon class="st0" points="265.7,115.7 226.2,115.7 226.2,103.5 253.5,103.5 253.5,12.1 226.2,12.1 226.2,0 265.7,0 
			265.7,115.7 		"/>
		<g>
			<g>
				<path class="st0" d="M65.8,115.6v-12.1h2.8v12.1H65.8z"/>
				<path class="st0" d="M83.8,115.6l-5.3-8.2c0,0,0.1,1.5,0.1,2.7v5.5h-2.7v-12.1h3l5.1,8.1c0,0-0.1-1.4-0.1-2.7v-5.5h2.7v12.1
					H83.8z"/>
				<path class="st0" d="M100.6,114.8c-0.9,0.7-2,1-3.2,1c-1.7,0-3.1-0.9-4.2-1.8l1.4-2.1c0.9,0.9,2.2,1.5,3.1,1.5
					c0.9,0,1.6-0.4,1.6-1.2c0-0.8-0.9-1.1-1.4-1.3c-0.5-0.2-1.4-0.5-1.8-0.7c-0.3-0.1-0.9-0.4-1.4-0.9c-0.5-0.5-0.9-1.2-0.9-2.3
					c0-1.2,0.6-2.1,1.3-2.7c0.7-0.6,1.8-1,3.1-1c1.8,0,3.1,0.8,3.8,1.5l-1.2,2c-0.8-0.7-1.8-1.2-2.7-1.2c-0.9,0-1.5,0.4-1.5,1.1
					c0,0.7,0.7,1,1.2,1.2c0.5,0.2,1.4,0.5,1.8,0.7c0.3,0.1,1.1,0.4,1.7,1c0.5,0.5,0.9,1.2,0.9,2.3
					C102,113.1,101.5,114.2,100.6,114.8z"/>
				<path class="st0" d="M117.4,114.4c-0.8,0.9-2.1,1.4-3.9,1.4c-1.8,0-3-0.5-3.9-1.4c-0.8-0.9-1.1-2.1-1.1-3.8v-7.1h2.8v7.1
					c0,0.9,0.1,1.5,0.5,2c0.4,0.5,0.9,0.8,1.7,0.8c0.8,0,1.3-0.3,1.7-0.8c0.4-0.5,0.5-1.2,0.5-2v-7.1h2.8v7.1
					C118.5,112.3,118.2,113.5,117.4,114.4z"/>
				<path class="st0" d="M131.9,115.6l-2.5-4.6h-0.9v4.6h-2.8v-12.1h4.3c1.3,0,2.4,0.3,3.2,0.9c0.8,0.6,1.3,1.6,1.3,2.8
					c0,2.3-1.5,3.2-2.3,3.5l3,5H131.9z M131,106c-0.3-0.3-0.8-0.3-1.4-0.3h-1.1v3.1h1.1c0.6,0,1.1-0.1,1.4-0.3
					c0.4-0.3,0.6-0.6,0.6-1.2C131.6,106.7,131.4,106.3,131,106z"/>
				<path class="st0" d="M148.9,115.6l-0.9-2.4h-4.3l-0.9,2.4H140l4.5-12.1h2.9l4.5,12.1H148.9z M145.9,106.6l-1.5,4.4h3
					L145.9,106.6z"/>
				<path class="st0" d="M166,115.6l-5.3-8.2c0,0,0.1,1.5,0.1,2.7v5.5H158v-12.1h3l5.1,8.1c0,0-0.1-1.4-0.1-2.7v-5.5h2.7v12.1H166z"
					/>
				<path class="st0" d="M181.7,115.8c-3.5,0-6.3-2.4-6.3-6.2c0-3.9,2.8-6.2,6.3-6.2c2.5,0,3.8,1,4.1,1.4l-0.9,2.4
					c-0.2-0.3-1.5-1.3-3.1-1.3c-2,0-3.6,1.4-3.6,3.7c0,2.4,1.6,3.7,3.6,3.7c1.5,0,2.6-0.6,3.2-1.3l0.9,2.2
					C185.5,114.8,184.2,115.8,181.7,115.8z"/>
				<path class="st0" d="M192.4,115.6v-12.1h7.8v2.3h-5v2.5h4.7v2.3h-4.7v2.8h5.1v2.3H192.4z"/>
			</g>
		</g>
	</g>
	<g>
		<path d="M98.2,56.9c0-7.1-1.9-9.3-3.3-10.8c-2.4-2.5-6.4-4.1-10.4-4.1c-1.7,0-8.6,0.2-13.6,7.3v-6H54.7v2.1h6.6v37.3h-4.3h-2.2
			h-4.3V43.2H34.1v2.1h6.9v37.3h-7v2.1h20.8h2.2h20.7v-2.1h-6.8V64.9c0.1-7.7,0.2-13.7,4.9-17.6c1.9-1.5,4.2-2.4,6.5-2.4
			c1.5,0,4.9,0.5,5.9,4.6c0.2,1,0.3,1.8,0.4,5.9v27.1h-6.4v2.1h22.6v-2.1h-6.7V56.9z"/>
		<path d="M164.8,83c-2.3,0-2.3-2.4-2.3-5.8V56.1c0-3.8,0-7.2-2.8-10.1c-2.5-2.4-7.3-4-12.1-4c-10.2,0-16.7,5.7-16.7,10.7
			c0,2.5,1.7,4.7,4.4,4.7c2.7,0,4.6-2.1,4.6-4.3c0-2.3-2.1-3.6-2.1-4.8c0-1.5,3.7-4.2,8.3-4.2c6.7,0,6.9,4.7,7.1,7.7v10.1
			c-3.7,0-9.3,0.4-13.7,1.7C132.6,65.5,128,69.9,128,76c0,0.5,0,1,0.1,1.4c-0.4,1.8-1.4,5.2-5.9,5.2c-5,0-4.9-4.2-4.9-7.4v-30H128
			v-2.1h-10.8V26.4h-1.5c-0.5,2.1-1.2,5.1-5.1,9.9c-2.5,3.1-5.5,5.9-9.3,7.6v1.4h6.6v25.4c0,5.1,0,7.4,0.8,9.3
			c1.5,4,5.5,5.9,10.5,5.9c6,0,8.7-2.6,10-5.2c1.8,3.3,5.7,5.2,10.2,5.2c6.9,0,11.3-3.9,13.5-8.4c0.2,2,0.5,4.5,2.8,6.5
			c1.5,1.2,3.6,1.9,5.8,1.9c4.2,0,6.6-2.3,7.6-3.3l-1.2-1.4C167.2,81.8,166.1,83,164.8,83z M153.1,67.2c-0.2,5.1-0.4,8.7-3.6,11.8
			c-0.9,0.8-2.8,2.3-5.6,2.3c-3.2,0-6.4-2.1-6.4-7.1c0-8.3,7.8-10.6,15.6-10.7V67.2z"/>
		<path d="M189.5,83.7c-5.2,0-8-2.9-9.1-6.2c-1-2.8-1-6.7-1-10.1c0-4.5,0.1-13.8,1.7-17.7c2-4.9,6.2-5.6,9.1-5.6c5.4,0,8,2.5,8,3.4
			c0,0.4-0.2,0.6-0.5,1c-0.8,0.8-2,2.4-2,4.7c0,2.7,1.8,5.3,4.7,5.3c2.9,0,5.1-2.4,5.1-5.6c0-5-5.7-10.9-15.1-10.9
			c-11.9,0-22,9.4-22,22.4c0,11.9,9,21.6,20.8,21.6c10.9,0,16.2-7.6,17.6-14.7h-2.5C202.9,77.2,198,83.7,189.5,83.7z"/>
		<path d="M232.7,76.9c-0.3,1.6-1,5.7-6,5.7c-5,0-4.9-4.2-4.9-7.4v-30h10.8v-2.1h-10.8V26.4h-1.5c-0.5,2.1-1.2,5.1-5.1,9.9
			c-2.5,3.1-5.5,5.9-9.3,7.6v1.4h6.6v25.4c0,5.1,0,7.4,0.8,9.3c1.5,4,5.5,5.9,10.5,5.9c9.4,0,10.8-6.6,11.3-9H232.7z"/>
		<path d="M44.9,34.4c3.8,0,6.9-3.1,6.9-6.9c0-3.8-3.1-6.9-6.9-6.9c-3.8,0-6.9,3.1-6.9,6.9C38,31.3,41.1,34.4,44.9,34.4z"/>
	</g>
</g>
</svg>
