<?xml version="1.0" encoding="utf-8"?>
<!-- Generator: Adobe Illustrator 22.1.0, SVG Export Plug-In . SVG Version: 6.00 Build 0)  -->
<svg version="1.1" id="Northbridge_Logo" xmlns="http://www.w3.org/2000/svg" xmlns:xlink="http://www.w3.org/1999/xlink" x="0px"
	 y="0px" viewBox="0 0 495.1 103.9" style="enable-background:new 0 0 495.1 103.9;" xml:space="preserve">
<style type="text/css">
	.st0{fill:#6D6E71;}
	.st1{fill:#F7901E;}
</style>
<g>
	<g>
		<path class="st0" d="M110.5,77.2c-0.4,0-0.7,0.1-1,0.4c-0.3,0.3-0.4,0.6-0.4,1.1v23.5c0,0.4,0.1,0.8,0.4,1.1
			c0.3,0.3,0.6,0.4,1,0.4c0.4,0,0.8-0.1,1.1-0.4c0.3-0.3,0.4-0.6,0.4-1.1V78.6c0-0.4-0.1-0.8-0.4-1.1
			C111.3,77.3,111,77.2,110.5,77.2z M133.3,85.9c-0.6-0.7-1.4-1.2-2.3-1.6c-0.9-0.4-1.9-0.6-3.1-0.6c-1.7,0-3,0.4-4.1,1.1
			s-1.9,1.6-2.5,2.7v-2.1c0-0.4-0.1-0.8-0.4-1c-0.3-0.3-0.6-0.4-1-0.4c-0.4,0-0.7,0.1-1,0.4c-0.3,0.3-0.4,0.6-0.4,1v16.7
			c0,0.4,0.1,0.8,0.4,1c0.3,0.3,0.6,0.4,1,0.4c0.4,0,0.8-0.1,1-0.4c0.3-0.3,0.4-0.6,0.4-1v-9.8c0-0.9,0.1-1.7,0.4-2.5
			c0.3-0.7,0.7-1.4,1.2-1.9c0.5-0.5,1.1-0.9,1.8-1.2c0.7-0.3,1.5-0.4,2.3-0.4c1.7,0,3,0.5,3.9,1.6c0.9,1,1.4,2.5,1.4,4.2v10
			c0,0.4,0.1,0.8,0.4,1c0.3,0.3,0.6,0.4,1,0.4c0.4,0,0.7-0.1,1-0.4c0.3-0.3,0.4-0.6,0.4-1V91.5c0-1.1-0.2-2.2-0.5-3.1
			C134.4,87.4,134,86.6,133.3,85.9z M152.4,94.2c-0.6-0.4-1.3-0.8-2-1c-0.7-0.3-1.5-0.5-2.2-0.7c-0.6-0.2-1.3-0.4-1.9-0.6
			c-0.6-0.2-1.1-0.4-1.6-0.7c-0.5-0.2-0.8-0.5-1.1-0.9c-0.3-0.3-0.4-0.7-0.4-1.2V89c0-0.8,0.3-1.5,1-2c0.7-0.5,1.6-0.8,2.7-0.8
			c0.8,0,1.7,0.1,2.5,0.4c0.9,0.3,1.7,0.6,2.5,1.1c0.2,0.1,0.4,0.1,0.6,0.1c0.3,0,0.6-0.1,0.9-0.4c0.2-0.2,0.4-0.5,0.4-0.9
			c0-0.3-0.1-0.5-0.2-0.7c-0.1-0.2-0.3-0.4-0.5-0.5c-0.9-0.5-1.9-0.9-3-1.2c-1.1-0.3-2.1-0.4-3.1-0.4c-0.9,0-1.8,0.1-2.6,0.4
			c-0.8,0.3-1.5,0.6-2.1,1.1c-0.6,0.5-1,1.1-1.4,1.8c-0.3,0.7-0.5,1.4-0.5,2.3v0.1c0,0.9,0.2,1.6,0.6,2.2c0.4,0.6,0.9,1.1,1.5,1.5
			c0.6,0.4,1.3,0.7,2,1c0.8,0.3,1.5,0.5,2.3,0.7c0.6,0.2,1.3,0.4,1.8,0.6c0.6,0.2,1.1,0.4,1.5,0.7c0.4,0.3,0.8,0.6,1.1,0.9
			c0.3,0.3,0.4,0.8,0.4,1.2v0.1c0,0.9-0.4,1.7-1.1,2.2c-0.7,0.5-1.7,0.8-2.9,0.8c-2.1,0-4.1-0.7-6.1-2c-0.2-0.1-0.4-0.2-0.7-0.2
			c-0.3,0-0.6,0.1-0.9,0.4c-0.2,0.2-0.4,0.5-0.4,0.9c0,0.2,0.1,0.5,0.2,0.6c0.1,0.2,0.2,0.3,0.4,0.4c1,0.7,2.2,1.3,3.5,1.8
			c1.3,0.4,2.6,0.7,3.9,0.7c1,0,1.9-0.1,2.7-0.4c0.8-0.3,1.6-0.6,2.2-1.1c0.6-0.5,1.1-1.1,1.5-1.8c0.4-0.7,0.5-1.5,0.5-2.4v-0.1
			c0-0.9-0.2-1.6-0.5-2.2C153.5,95.1,153,94.6,152.4,94.2z M174.2,84c-0.4,0-0.8,0.1-1,0.4c-0.3,0.3-0.4,0.6-0.4,1v9.8
			c0,0.9-0.1,1.7-0.4,2.5c-0.3,0.7-0.7,1.4-1.2,1.9c-0.5,0.5-1.1,0.9-1.8,1.2c-0.7,0.3-1.5,0.4-2.3,0.4c-1.7,0-3-0.5-3.9-1.6
			c-0.9-1-1.4-2.5-1.4-4.2v-10c0-0.4-0.1-0.8-0.4-1c-0.3-0.3-0.6-0.4-1-0.4c-0.4,0-0.8,0.1-1,0.4c-0.3,0.3-0.4,0.6-0.4,1v10.7
			c0,1.1,0.2,2.2,0.5,3.1c0.3,0.9,0.8,1.8,1.5,2.4c0.6,0.7,1.4,1.2,2.3,1.6c0.9,0.4,1.9,0.6,3.1,0.6c1.7,0,3-0.4,4.1-1.1
			c1-0.7,1.9-1.6,2.5-2.7v2.1c0,0.4,0.1,0.8,0.4,1c0.3,0.3,0.6,0.4,1,0.4c0.4,0,0.8-0.1,1-0.4c0.3-0.3,0.4-0.6,0.4-1V85.4
			c0-0.4-0.1-0.8-0.4-1C174.9,84.1,174.6,84,174.2,84z M191.1,83.9c-0.6,0-1.2,0.1-1.8,0.4c-0.6,0.2-1.2,0.6-1.8,1
			c-0.6,0.4-1.1,1-1.7,1.6c-0.5,0.6-0.9,1.3-1.3,2.1v-3.6c0-0.4-0.1-0.8-0.4-1c-0.3-0.3-0.6-0.4-1-0.4c-0.4,0-0.7,0.1-1,0.4
			c-0.3,0.3-0.4,0.6-0.4,1v16.7c0,0.4,0.1,0.8,0.4,1c0.3,0.3,0.6,0.4,1,0.4c0.4,0,0.8-0.1,1-0.4c0.3-0.3,0.4-0.6,0.4-1v-6.6
			c0-1.4,0.2-2.6,0.5-3.7c0.4-1,0.8-1.9,1.5-2.7c0.6-0.7,1.3-1.3,2.2-1.7c0.8-0.4,1.7-0.7,2.6-0.8c0.4,0,0.7-0.2,0.9-0.5
			c0.2-0.3,0.4-0.6,0.4-1c0-0.4-0.1-0.8-0.4-1C191.8,84,191.5,83.9,191.1,83.9z M203.3,83.9c-1.2,0-2.4,0.1-3.4,0.3
			c-1,0.2-2,0.5-2.9,1c-0.2,0.1-0.4,0.2-0.5,0.4c-0.2,0.2-0.2,0.5-0.2,0.8c0,0.3,0.1,0.6,0.4,0.9c0.2,0.2,0.5,0.4,0.9,0.4
			c0.2,0,0.3,0,0.5-0.1c0.7-0.3,1.5-0.6,2.3-0.8c0.8-0.2,1.7-0.3,2.7-0.3c1.8,0,3.2,0.4,4.2,1.3c1,0.9,1.5,2.2,1.5,3.9v0.7
			c-0.9-0.2-1.8-0.4-2.7-0.6c-0.9-0.1-2-0.2-3.2-0.2c-1.2,0-2.3,0.1-3.3,0.4c-1,0.3-1.9,0.7-2.6,1.2c-0.7,0.5-1.3,1.2-1.7,1.9
			c-0.4,0.8-0.6,1.7-0.6,2.7v0.1c0,1,0.2,1.9,0.6,2.6c0.4,0.7,1,1.4,1.6,1.9c0.7,0.5,1.5,0.9,2.3,1.1c0.9,0.3,1.7,0.4,2.6,0.4
			c1.7,0,3.1-0.3,4.3-1s2-1.4,2.7-2.3v1.8c0,0.4,0.1,0.7,0.4,1c0.2,0.3,0.6,0.4,1,0.4c0.4,0,0.7-0.1,1-0.4c0.3-0.3,0.4-0.6,0.4-1
			V91.6c0-2.4-0.7-4.3-2-5.6C208.1,84.6,206,83.9,203.3,83.9z M208.8,96.3c0,0.8-0.2,1.5-0.5,2.1c-0.3,0.6-0.8,1.2-1.4,1.6
			c-0.6,0.5-1.3,0.8-2,1.1c-0.8,0.3-1.6,0.4-2.5,0.4c-0.6,0-1.3-0.1-1.8-0.3c-0.6-0.2-1.1-0.4-1.5-0.7c-0.4-0.3-0.8-0.7-1.1-1.2
			c-0.3-0.5-0.4-1-0.4-1.6v-0.1c0-1.2,0.5-2.2,1.5-2.9c1-0.7,2.4-1.1,4.2-1.1c1.2,0,2.3,0.1,3.2,0.3c0.9,0.2,1.8,0.4,2.5,0.6V96.3z
			 M231.8,85.9c-0.6-0.7-1.4-1.2-2.3-1.6c-0.9-0.4-1.9-0.6-3.1-0.6c-1.7,0-3,0.4-4.1,1.1c-1,0.7-1.9,1.6-2.5,2.7v-2.1
			c0-0.4-0.1-0.8-0.4-1c-0.3-0.3-0.6-0.4-1-0.4c-0.4,0-0.7,0.1-1,0.4c-0.3,0.3-0.4,0.6-0.4,1v16.7c0,0.4,0.1,0.8,0.4,1
			c0.3,0.3,0.6,0.4,1,0.4c0.4,0,0.8-0.1,1-0.4c0.3-0.3,0.4-0.6,0.4-1v-9.8c0-0.9,0.1-1.7,0.4-2.5c0.3-0.7,0.7-1.4,1.2-1.9
			c0.5-0.5,1.1-0.9,1.8-1.2c0.7-0.3,1.5-0.4,2.3-0.4c1.7,0,3,0.5,3.9,1.6c0.9,1,1.4,2.5,1.4,4.2v10c0,0.4,0.1,0.8,0.4,1
			c0.3,0.3,0.6,0.4,1,0.4c0.4,0,0.7-0.1,1-0.4c0.3-0.3,0.4-0.6,0.4-1V91.5c0-1.1-0.2-2.2-0.5-3.1C232.9,87.4,232.4,86.6,231.8,85.9z
			 M254.5,98.6c-0.2,0-0.4,0-0.5,0.1c-0.1,0.1-0.2,0.2-0.3,0.3c-0.7,0.7-1.5,1.2-2.4,1.7c-0.9,0.4-1.9,0.7-3,0.7
			c-1,0-1.9-0.2-2.8-0.6c-0.9-0.4-1.6-0.9-2.3-1.6c-0.6-0.7-1.1-1.5-1.5-2.4c-0.4-0.9-0.5-1.9-0.5-2.9v-0.1c0-1,0.2-2,0.5-2.9
			c0.3-0.9,0.8-1.7,1.5-2.4c0.6-0.7,1.4-1.2,2.2-1.6c0.8-0.4,1.8-0.6,2.7-0.6c1.2,0,2.2,0.2,3,0.7c0.8,0.4,1.6,1,2.3,1.6
			c0.3,0.2,0.6,0.3,0.9,0.3c0.4,0,0.7-0.1,1-0.4c0.3-0.3,0.4-0.6,0.4-1c0-0.2,0-0.4-0.1-0.6s-0.2-0.3-0.3-0.4c-0.9-0.8-1.9-1.5-3-2
			c-1.1-0.5-2.5-0.8-4.1-0.8c-1.4,0-2.7,0.3-3.9,0.8c-1.2,0.5-2.2,1.3-3.1,2.2c-0.9,0.9-1.6,2-2.1,3.2c-0.5,1.2-0.7,2.5-0.7,3.9v0.1
			c0,1.3,0.2,2.6,0.7,3.8c0.5,1.2,1.2,2.3,2.1,3.2c0.9,0.9,1.9,1.6,3.1,2.2c1.2,0.5,2.5,0.8,3.9,0.8c1.6,0,3-0.3,4.2-0.9
			c1.1-0.6,2.2-1.3,3.1-2.2c0.2-0.2,0.4-0.5,0.4-0.9c0-0.3-0.1-0.7-0.4-0.9C255.1,98.7,254.8,98.6,254.5,98.6z M274.6,86.7
			c-0.8-0.9-1.7-1.6-2.8-2.2c-1.1-0.5-2.4-0.8-3.8-0.8c-1.3,0-2.6,0.3-3.7,0.8c-1.1,0.5-2.1,1.2-2.9,2.1c-0.8,0.9-1.5,2-1.9,3.2
			c-0.5,1.2-0.7,2.5-0.7,3.9v0.1c0,1.5,0.3,2.8,0.8,4.1c0.5,1.2,1.2,2.3,2.1,3.2c0.9,0.9,1.9,1.6,3.1,2c1.2,0.5,2.4,0.7,3.7,0.7
			c1.6,0,3-0.3,4.2-0.8c1.1-0.5,2.2-1.2,3.1-2.1c0.3-0.3,0.4-0.6,0.4-0.9c0-0.3-0.1-0.6-0.4-0.9c-0.2-0.2-0.5-0.4-0.9-0.4
			c-0.3,0-0.5,0.1-0.8,0.3c-0.7,0.6-1.5,1.2-2.4,1.6c-0.9,0.4-1.9,0.6-3.1,0.6c-0.8,0-1.7-0.1-2.4-0.4c-0.8-0.3-1.5-0.7-2.1-1.3
			c-0.6-0.6-1.1-1.2-1.5-2c-0.4-0.8-0.6-1.7-0.7-2.8h13.9c0.3,0,0.7-0.1,0.9-0.4c0.3-0.2,0.4-0.6,0.4-1c0-1.3-0.2-2.5-0.6-3.7
			C276,88.7,275.4,87.6,274.6,86.7z M261.7,92.7c0.1-0.9,0.3-1.8,0.7-2.6c0.3-0.8,0.8-1.5,1.3-2.1c0.5-0.6,1.2-1,1.9-1.4
			c0.7-0.3,1.5-0.5,2.3-0.5c1,0,1.8,0.2,2.6,0.5c0.7,0.4,1.4,0.8,1.9,1.4c0.5,0.6,0.9,1.3,1.2,2.1c0.3,0.8,0.5,1.6,0.5,2.5H261.7z
			 M142.6,63h0.3c1.1,0,2-0.4,2.7-1.1c0.7-0.7,1.1-1.7,1.1-2.8V21.9c0-1.1-0.4-2-1.1-2.7c-0.7-0.7-1.7-1.1-2.8-1.1
			c-1.1,0-2,0.4-2.7,1.1c-0.7,0.7-1.1,1.6-1.1,2.7v27.3l-22.2-28.7c-0.5-0.7-1.1-1.2-1.7-1.6c-0.6-0.4-1.4-0.6-2.3-0.6H112
			c-1.1,0-2,0.4-2.8,1.1c-0.8,0.8-1.1,1.7-1.1,2.8v37.2c0,1.1,0.4,2,1.1,2.7c0.7,0.7,1.7,1.1,2.8,1.1c1.1,0,2-0.4,2.7-1.1
			c0.7-0.7,1.1-1.6,1.1-2.7V31.2l22.8,29.5c0.5,0.7,1.1,1.3,1.7,1.7C140.9,62.8,141.7,63,142.6,63z M187.7,52.8
			c0.9-2.1,1.4-4.4,1.4-6.7V46c0-2.4-0.4-4.7-1.3-6.8c-0.9-2.1-2.1-3.9-3.7-5.5c-1.6-1.6-3.5-2.8-5.6-3.7c-2.2-0.9-4.6-1.4-7.1-1.4
			c-2.6,0-5,0.5-7.1,1.4c-2.2,0.9-4.1,2.2-5.6,3.8c-1.6,1.6-2.8,3.4-3.7,5.5c-0.9,2.1-1.4,4.4-1.4,6.8v0.1c0,2.4,0.4,4.6,1.3,6.7
			c0.9,2.1,2.1,4,3.7,5.5c1.6,1.6,3.5,2.8,5.6,3.7c2.2,0.9,4.5,1.4,7.1,1.4c2.6,0,5-0.5,7.2-1.4c2.2-0.9,4.1-2.2,5.7-3.8
			C185.5,56.8,186.8,54.9,187.7,52.8z M181.4,46.2c0,1.4-0.2,2.8-0.7,4.1c-0.5,1.3-1.1,2.4-2,3.4c-0.9,1-2,1.7-3.2,2.3
			c-1.2,0.6-2.7,0.9-4.2,0.9c-1.5,0-2.8-0.3-4.1-0.9c-1.2-0.6-2.3-1.3-3.2-2.3c-0.9-1-1.6-2.1-2.1-3.4c-0.5-1.3-0.8-2.7-0.8-4.1V46
			c0-1.5,0.2-2.9,0.7-4.2c0.5-1.3,1.1-2.4,2-3.4c0.9-1,2-1.7,3.2-2.3c1.2-0.6,2.6-0.9,4.2-0.9c1.5,0,2.9,0.3,4.2,0.9
			c1.2,0.6,2.3,1.3,3.2,2.3c0.9,1,1.6,2.1,2.1,3.4c0.5,1.3,0.8,2.7,0.8,4.2V46.2z M211.3,28.9c-1.7,0-3.3,0.7-4.8,2.1
			c-1.5,1.4-2.7,3.1-3.6,5.3v-3.4c0-1.1-0.4-2-1.1-2.8c-0.7-0.7-1.7-1.1-2.8-1.1c-1.1,0-2,0.4-2.7,1.1c-0.7,0.7-1.1,1.7-1.1,2.8
			v26.5c0,1.1,0.4,2,1.1,2.7c0.7,0.7,1.6,1.1,2.7,1.1c1.1,0,2-0.4,2.8-1.1c0.7-0.7,1.1-1.6,1.1-2.7v-9.9c0-4,0.8-7,2.5-9.2
			c1.7-2.1,3.9-3.4,6.7-3.9c0.8-0.2,1.6-0.6,2.2-1.2c0.6-0.6,0.9-1.5,0.9-2.5c0-1.1-0.3-2-1-2.7C213.5,29.2,212.6,28.9,211.3,28.9z
			 M240.1,61.4c0.4-0.5,0.6-1.2,0.6-1.9c0-0.9-0.3-1.6-1-2.2c-0.7-0.6-1.4-0.9-2.2-0.9c-0.1,0-0.4,0-0.7,0.1
			c-0.3,0.1-0.7,0.1-1.2,0.1c-1.3,0-2.3-0.3-3-1c-0.7-0.7-1.1-1.7-1.1-3.2V35.9h6c0.9,0,1.7-0.3,2.4-1c0.7-0.6,1-1.4,1-2.3
			c0-0.9-0.3-1.7-1-2.3c-0.7-0.6-1.4-1-2.4-1h-6v-5.7c0-1.1-0.4-2-1.1-2.7c-0.7-0.7-1.6-1.1-2.7-1.1c-1.1,0-2,0.4-2.8,1.1
			c-0.7,0.7-1.1,1.6-1.1,2.7v5.7h-1.3c-0.9,0-1.7,0.3-2.3,1c-0.6,0.6-1,1.4-1,2.3c0,0.9,0.3,1.7,1,2.3c0.6,0.6,1.4,1,2.3,1h1.3v17.6
			c0,1.8,0.2,3.4,0.7,4.6c0.5,1.3,1.1,2.3,2,3c0.9,0.8,1.9,1.3,3.1,1.6c1.2,0.3,2.5,0.5,3.9,0.5c1,0,1.9-0.1,2.8-0.2
			c0.8-0.1,1.7-0.4,2.5-0.7C239.2,62.3,239.7,61.9,240.1,61.4z M266,28.6c-1.3,0-2.5,0.2-3.5,0.5c-1,0.3-2,0.7-2.9,1.3
			c-0.9,0.5-1.6,1.2-2.3,1.9c-0.7,0.7-1.3,1.5-1.8,2.2V20c0-1.1-0.4-2-1.1-2.7c-0.7-0.7-1.7-1.1-2.8-1.1c-1.1,0-2,0.4-2.7,1.1
			c-0.7,0.7-1.1,1.6-1.1,2.7v39.3c0,1.1,0.4,2,1.1,2.7c0.7,0.7,1.6,1.1,2.7,1.1c1.1,0,2-0.4,2.8-1.1c0.7-0.7,1.1-1.6,1.1-2.7V43.9
			c0-2.6,0.7-4.7,2.1-6.1c1.4-1.5,3.2-2.2,5.5-2.2c2.3,0,4,0.7,5.3,2.1c1.2,1.4,1.9,3.4,1.9,6.1v15.5c0,1.1,0.4,2,1.1,2.7
			c0.7,0.7,1.7,1.1,2.8,1.1c1.1,0,2-0.4,2.7-1.1c0.7-0.7,1.1-1.6,1.1-2.7V41.4c0-3.9-1-7-3.1-9.3C272.7,29.8,269.8,28.6,266,28.6z
			 M316.1,33.1c-1.4-1.5-3.1-2.6-4.9-3.4c-1.9-0.8-3.8-1.1-5.8-1.1c-2.7,0-5,0.6-6.8,1.8c-1.8,1.2-3.4,2.7-4.6,4.4V20
			c0-1.1-0.4-2-1.1-2.7c-0.7-0.7-1.7-1.1-2.8-1.1c-1.1,0-2,0.4-2.7,1.1c-0.7,0.7-1.1,1.6-1.1,2.7v39.3c0,1.1,0.4,2,1.1,2.7
			c0.7,0.7,1.6,1.1,2.7,1.1c1.1,0,2-0.4,2.8-1.1c0.7-0.7,1.1-1.6,1.1-2.7v-1.7c1.2,1.6,2.7,2.9,4.5,4.1c1.8,1.2,4.1,1.8,6.9,1.8
			c2,0,3.9-0.4,5.8-1.1c1.9-0.8,3.5-1.9,5-3.4c1.5-1.5,2.6-3.3,3.5-5.5c0.9-2.2,1.3-4.6,1.3-7.4V46c0-2.8-0.4-5.3-1.3-7.4
			C318.7,36.4,317.5,34.6,316.1,33.1z M313.1,46.1c0,1.6-0.3,3.1-0.8,4.5c-0.5,1.3-1.2,2.5-2.1,3.4c-0.9,0.9-1.9,1.6-3,2.1
			c-1.2,0.5-2.4,0.8-3.7,0.8c-1.3,0-2.6-0.3-3.7-0.8c-1.2-0.5-2.2-1.2-3.1-2.2c-0.9-1-1.6-2.1-2.1-3.4c-0.5-1.3-0.8-2.8-0.8-4.4V46
			c0-1.6,0.3-3.1,0.8-4.4c0.5-1.3,1.2-2.4,2.1-3.4c0.9-1,1.9-1.7,3.1-2.2c1.2-0.5,2.4-0.8,3.7-0.8c1.3,0,2.5,0.3,3.7,0.8
			c1.2,0.5,2.2,1.2,3,2.2c0.9,0.9,1.6,2.1,2.1,3.4c0.5,1.3,0.8,2.8,0.8,4.4V46.1z M343.4,28.9c-1.7,0-3.3,0.7-4.8,2.1
			c-1.5,1.4-2.7,3.1-3.6,5.3v-3.4c0-1.1-0.4-2-1.1-2.8c-0.7-0.7-1.7-1.1-2.8-1.1c-1.1,0-2,0.4-2.7,1.1c-0.7,0.7-1.1,1.7-1.1,2.8
			v26.5c0,1.1,0.4,2,1.1,2.7c0.7,0.7,1.6,1.1,2.7,1.1c1.1,0,2-0.4,2.8-1.1c0.7-0.7,1.1-1.6,1.1-2.7v-9.9c0-4,0.8-7,2.5-9.2
			c1.7-2.1,3.9-3.4,6.7-3.9c0.8-0.2,1.6-0.6,2.2-1.2c0.6-0.6,0.9-1.5,0.9-2.5c0-1.1-0.3-2-1-2.7C345.6,29.2,344.7,28.9,343.4,28.9z
			 M357.2,28.9c-1.1,0-2,0.4-2.7,1.1c-0.7,0.7-1.1,1.7-1.1,2.8v26.5c0,1.1,0.4,2,1.1,2.7c0.7,0.7,1.6,1.1,2.7,1.1
			c1.1,0,2-0.4,2.8-1.1c0.7-0.7,1.1-1.6,1.1-2.7V32.8c0-1.1-0.4-2-1.1-2.8C359.3,29.3,358.3,28.9,357.2,28.9z M360.4,17.6
			c-0.8-0.7-1.9-1-3.1-1c-1.2,0-2.3,0.3-3.1,1c-0.8,0.7-1.3,1.6-1.3,2.7v0.4c0,1.1,0.4,2.1,1.3,2.8c0.8,0.7,1.9,1,3.1,1
			c1.2,0,2.3-0.3,3.1-1c0.8-0.7,1.3-1.6,1.3-2.8v-0.4C361.6,19.2,361.2,18.3,360.4,17.6z M398.7,16.2c-1.1,0-2,0.4-2.7,1.1
			c-0.7,0.7-1.1,1.6-1.1,2.7v14.5c-1.2-1.6-2.7-3-4.5-4.2c-1.8-1.2-4.1-1.7-6.9-1.7c-2,0-3.9,0.4-5.8,1.1c-1.9,0.8-3.5,1.9-5,3.4
			c-1.4,1.5-2.6,3.3-3.5,5.5c-0.9,2.2-1.3,4.6-1.3,7.4v0.1c0,2.8,0.4,5.3,1.3,7.4c0.9,2.2,2,4,3.5,5.5c1.4,1.5,3.1,2.6,5,3.4
			c1.9,0.8,3.8,1.1,5.7,1.1c2.7,0,5-0.6,6.8-1.8c1.8-1.2,3.3-2.7,4.6-4.4v2.1c0,1.1,0.4,2,1.1,2.7c0.7,0.7,1.7,1.1,2.8,1.1
			c1.1,0,2-0.4,2.7-1.1c0.7-0.7,1.1-1.6,1.1-2.7V20c0-1.1-0.4-2-1.1-2.7C400.7,16.6,399.8,16.2,398.7,16.2z M395,46.1
			c0,1.6-0.3,3.1-0.8,4.4c-0.5,1.3-1.2,2.4-2.1,3.4c-0.9,1-1.9,1.7-3.1,2.2c-1.2,0.5-2.4,0.8-3.7,0.8c-1.3,0-2.5-0.3-3.7-0.8
			c-1.2-0.5-2.2-1.2-3.1-2.2c-0.9-0.9-1.6-2.1-2.1-3.4c-0.5-1.3-0.8-2.8-0.8-4.4V46c0-1.6,0.3-3.1,0.8-4.5c0.5-1.3,1.2-2.5,2.1-3.4
			c0.9-0.9,1.9-1.6,3.1-2.1c1.2-0.5,2.4-0.7,3.7-0.7c1.3,0,2.5,0.3,3.7,0.8c1.2,0.5,2.2,1.2,3.1,2.2c0.9,0.9,1.6,2.1,2.1,3.4
			c0.5,1.3,0.8,2.8,0.8,4.4V46.1z M440,28.9c-1.1,0-2,0.4-2.7,1.1c-0.7,0.7-1.1,1.6-1.1,2.7v1.6c-1.3-1.6-2.9-2.9-4.7-4
			c-1.8-1.1-4.2-1.7-7-1.7c-1.9,0-3.8,0.4-5.7,1.1c-1.8,0.7-3.5,1.7-4.9,3.1c-1.4,1.3-2.5,3-3.4,4.9c-0.8,1.9-1.3,4.2-1.3,6.7v0.1
			c0,2.5,0.4,4.6,1.3,6.6c0.8,1.9,2,3.6,3.4,4.9c1.4,1.3,3,2.4,4.9,3.1c1.8,0.7,3.7,1.1,5.7,1.1c2.7,0,5-0.6,6.9-1.7
			c1.9-1.1,3.5-2.6,4.9-4.4v2.6c0,3.4-0.9,5.9-2.7,7.7c-1.8,1.7-4.4,2.6-7.9,2.6c-1.9,0-3.8-0.2-5.5-0.7c-1.7-0.5-3.3-1.1-4.8-2
			c-0.4-0.2-0.9-0.3-1.4-0.3c-0.9,0-1.6,0.3-2.3,1c-0.6,0.6-1,1.4-1,2.2c0,1.5,0.7,2.5,2.2,3c2,1,4.1,1.7,6.2,2.2
			c2.1,0.5,4.4,0.8,6.7,0.8c3,0,5.7-0.4,8-1.1c2.3-0.7,4.2-1.9,5.7-3.4c2.8-2.8,4.2-7,4.2-12.6V32.8c0-1.1-0.4-2-1.1-2.8
			C442,29.3,441.1,28.9,440,28.9z M436.3,44.4c0,1.4-0.3,2.6-0.8,3.7c-0.5,1.1-1.2,2.1-2.1,2.9c-0.9,0.8-1.9,1.4-3.1,1.9
			c-1.2,0.4-2.5,0.7-3.8,0.7c-1.3,0-2.5-0.2-3.7-0.7c-1.2-0.4-2.2-1.1-3-1.9c-0.8-0.8-1.5-1.8-2-2.9c-0.5-1.1-0.8-2.4-0.8-3.7v-0.1
			c0-1.4,0.2-2.7,0.7-3.8c0.5-1.1,1.2-2.1,2-2.9c0.9-0.8,1.9-1.4,3-1.9c1.2-0.4,2.4-0.7,3.7-0.7c1.4,0,2.6,0.2,3.8,0.7
			c1.2,0.4,2.2,1.1,3.1,1.9c0.9,0.8,1.6,1.8,2.1,2.9c0.5,1.1,0.8,2.4,0.8,3.7V44.4z M481.2,39.3c-0.7-1.9-1.6-3.7-3-5.3
			c-1.3-1.6-3-2.9-5-3.9c-2-1-4.3-1.5-7-1.5c-2.4,0-4.6,0.5-6.6,1.4c-2,0.9-3.7,2.2-5.2,3.7c-1.5,1.6-2.6,3.4-3.4,5.5
			c-0.8,2.1-1.2,4.4-1.2,6.8v0.1c0,2.6,0.4,4.9,1.3,7.1c0.9,2.1,2.1,4,3.6,5.5c1.5,1.5,3.4,2.7,5.5,3.5c2.1,0.8,4.3,1.3,6.8,1.3
			c2.6,0,4.9-0.4,6.8-1.2c1.9-0.8,3.7-1.9,5.2-3.2c0.3-0.3,0.5-0.6,0.7-1c0.2-0.4,0.3-0.8,0.3-1.3c0-0.9-0.3-1.6-0.9-2.2
			c-0.6-0.6-1.3-0.9-2.2-0.9c-0.5,0-0.8,0.1-1.1,0.2c-0.3,0.1-0.6,0.3-0.9,0.5c-1.1,0.9-2.3,1.6-3.6,2.1c-1.3,0.5-2.7,0.8-4.3,0.8
			c-2.5,0-4.6-0.7-6.4-2.2c-1.8-1.5-2.8-3.6-3.3-6.3h21c1,0,1.8-0.3,2.5-1c0.7-0.7,1.1-1.6,1.1-2.7
			C482.2,43.2,481.8,41.2,481.2,39.3z M457.5,43.7c0.3-2.6,1.3-4.7,2.8-6.4c1.5-1.6,3.5-2.4,5.9-2.4c1.3,0,2.4,0.2,3.4,0.7
			c1,0.4,1.8,1.1,2.6,1.9c0.7,0.8,1.3,1.7,1.7,2.8c0.4,1.1,0.7,2.2,0.8,3.5H457.5z"/>
		<path class="st1" d="M76.6,9c-2.5,0-4.6,2.1-4.6,4.6v36C72,62,62,72,49.6,72S27.2,62,27.2,49.6v-18c0-2.4,2-4.4,4.4-4.4
			c2.4,0,4.4,2,4.4,4.4v18c0,7.5,6.1,13.6,13.6,13.6s13.6-6.1,13.6-13.6v-18c0-4.3-0.8-8.4-2.5-12.3c-1.6-3.8-3.9-7.1-6.8-10
			c-2.9-2.9-6.3-5.2-10-6.8C40,0.8,35.9,0,31.6,0s-8.4,0.8-12.3,2.5c-3.8,1.6-7.1,3.9-10,6.8c-2.9,2.9-5.2,6.3-6.8,10
			C0.8,23.2,0,27.3,0,31.6v36c0,2.5,2.1,4.6,4.6,4.6c2.5,0,4.6-2.1,4.6-4.6v-36c0-12.4,10-22.4,22.4-22.4S54,19.2,54,31.6v18
			c0,2.4-2,4.4-4.4,4.4c-2.4,0-4.4-2-4.4-4.4v-18c0-7.5-6.1-13.6-13.6-13.6S18,24.1,18,31.6v18c0,4.3,0.8,8.4,2.5,12.3
			c1.6,3.8,3.9,7.1,6.8,10s6.3,5.2,10,6.8c3.9,1.6,8,2.5,12.3,2.5s8.4-0.8,12.3-2.5c3.8-1.6,7.1-3.9,10-6.8s5.2-6.3,6.8-10
			c1.6-3.9,2.5-8,2.5-12.3v-36C81.2,11.1,79.1,9,76.6,9z"/>
	</g>
	<g>
		<path class="st0" d="M481.7,23.4L481.7,23.4c0-3.7,3-6.8,6.7-6.8c3.8,0,6.7,3.1,6.7,6.7v0c0,3.7-3,6.8-6.7,6.8
			C484.6,30.2,481.7,27.1,481.7,23.4z M494.4,23.4L494.4,23.4c0-3.3-2.5-6-5.9-6c-3.4,0-5.9,2.7-5.9,6v0c0,3.3,2.5,6,5.9,6
			C491.8,29.4,494.4,26.7,494.4,23.4z M485.8,20.5c0-0.3,0.3-0.7,0.7-0.7h2.4c1.5,0,2.6,0.7,2.6,2.2c0,1-0.6,1.8-1.5,2.1l1.3,1.5
			c0.2,0.2,0.2,0.3,0.2,0.5c0,0.3-0.3,0.7-0.6,0.7c-0.3,0-0.5-0.2-0.6-0.3l-1.8-2.2h-1.4v1.8c0,0.4-0.3,0.7-0.7,0.7
			c-0.4,0-0.7-0.3-0.7-0.7V20.5z M488.7,23.2c0.9,0,1.4-0.5,1.4-1.1c0-0.7-0.5-1.1-1.4-1.1h-1.7v2.2H488.7z"/>
	</g>
</g>
</svg>
