<?xml version="1.0" encoding="utf-8"?>
<!-- Generator: Adobe Illustrator 22.1.0, SVG Export Plug-In . SVG Version: 6.00 Build 0)  -->
<svg version="1.1" id="Layer_1" xmlns="http://www.w3.org/2000/svg" xmlns:xlink="http://www.w3.org/1999/xlink" x="0px" y="0px"
	 viewBox="0 0 182.3 36.9" style="enable-background:new 0 0 182.3 36.9;" xml:space="preserve">
<style type="text/css">
	.st0{fill-rule:evenodd;clip-rule:evenodd;fill:#E31B23;}
</style>
<g>
	<g>
		<path class="st0" d="M140.7,13.8C140.7,13.8,140.7,13.8,140.7,13.8c-0.1,0-0.2,0-0.2-0.1c0,0,0,0,0-0.1l0,0
			c3.5-8,11.5-13.6,20.9-13.6c9.3,0,17.3,5.6,20.9,13.6l0,0c0,0,0,0,0,0.1c0,0.1-0.1,0.1-0.1,0.1c0,0,0,0-0.1,0l0,0
			c-1.6-1-3.9-1.5-6.4-1.5c-2.9,0-5.4,0.8-7.1,2l0,0c0,0,0,0-0.1,0s-0.1,0-0.1,0l0,0c-1.6-1.2-4.2-2-7.1-2c-2.9,0-5.4,0.8-7.1,2l0,0
			c0,0,0,0-0.1,0c0,0-0.1,0-0.1,0l0,0c-1.6-1.2-4.2-2-7.1-2C144.6,12.3,142.3,12.8,140.7,13.8L140.7,13.8z"/>
		<path class="st0" d="M162.6,14L162.6,14c0-0.1,0-0.1-0.1-0.1l0,0c-0.4,0-0.7-0.1-1.1-0.1c-0.3,0-0.6,0-0.9,0l0,0
			c-0.1,0-0.1,0.1-0.1,0.1l0,0l0,18.6c0,1.1-0.9,1.9-1.9,1.9c-0.8,0-1.5-0.5-1.8-1.3l0,0c-0.2-0.4-0.6-0.8-1.1-0.8
			c-0.6,0-1.1,0.5-1.1,1.1c0,0.1,0,0.2,0,0.3l0,0c0.6,1.7,2.1,2.9,4,2.9c2.3,0,4.2-1.9,4.2-4.2V14z"/>
	</g>
	<g>
		<path d="M31.8,36.6h-3.8l-2.5-8h-3.2l-0.9,8h-3.8l2.2-20.4h7.5c4.4,0,6.5,1.1,6,6.2c-0.4,3.5-1.8,4.9-4.2,5.6L31.8,36.6z
			 M26.2,25.4c1.8,0,3-0.1,3.3-3c0.3-3-1.1-2.9-2.8-2.9h-3.4l-0.7,5.9H26.2z"/>
		<path d="M131.7,36.6h-3.8l-2.5-8h-3.1l-0.9,8h-3.8l2.2-20.4h7.5c4.4,0,6.5,1.1,6,6.2c-0.4,3.5-1.8,4.9-4.2,5.6L131.7,36.6z
			 M126,25.4c1.8,0,3-0.1,3.3-3c0.3-3-1-2.9-2.8-2.9h-3.4l-0.6,5.9H126z"/>
		<path d="M52,16.3h4l2.8,14.9l5.8-14.9h3.9l-8.5,20.5h-3.9L52,16.3z"/>
		<path d="M72,16.3h12l-0.4,3.4h-8.1L75,24.5h6.6L81.2,28h-6.6L74,33.2h8.4L82,36.6H69.8L72,16.3z"/>
		<path d="M103.6,16.3h12l-0.4,3.4h-8.1l-0.5,4.8h6.6l-0.4,3.4h-6.6l-0.6,5.3h8.4l-0.4,3.4h-12.3L103.6,16.3z"/>
		<path d="M134.8,36.3l0.5-3.3c0.6,0.1,3.8,0.6,5.7,0.6c2.6,0,3.3-0.4,3.5-2.5c0.2-1.9-0.1-2.1-3-3.1c-4.6-1.5-5.6-2.2-5.1-6.5
			c0.4-4.1,2.6-5.5,7.2-5.5c2.3,0,4.7,0.3,5.6,0.6l-0.4,3.3c-1.1-0.2-3.7-0.5-5.6-0.5c-2.1,0-2.8,0.5-2.9,2.2
			c-0.2,1.9,0.2,2.1,2.9,3c4.4,1.4,5.7,2.2,5.3,6.5c-0.5,4.4-2.6,5.8-7.8,5.8C137.8,36.9,135.7,36.5,134.8,36.3z"/>
		<path d="M37.8,36.6h-3.9l8.8-20.5h3.7l4,20.5h-4l-0.6-3.4h-6.6L37.8,36.6z M43.9,21.5l-3.4,8.5h4.7L43.9,21.5z"/>
		<path d="M99.2,33.2h-9l1.9-16.9h-3.9L86,36.6h9.6C97.8,36.6,98.7,35.4,99.2,33.2z"/>
		<path d="M0.4,16.3L0,19.7h6.3l-1.9,17h3.9l1.8-16.9h3.2c2.2,0,3.1-1.3,3.6-3.4H0.4z"/>
	</g>
</g>
</svg>
