<?xml version="1.0" encoding="utf-8"?>
<!-- Generator: Adobe Illustrator 22.1.0, SVG Export Plug-In . SVG Version: 6.00 Build 0)  -->
<svg version="1.1" id="Layer_1" xmlns="http://www.w3.org/2000/svg" xmlns:xlink="http://www.w3.org/1999/xlink" x="0px" y="0px"
	 viewBox="0 0 273.7 66.6" style="enable-background:new 0 0 273.7 66.6;" xml:space="preserve">
<style type="text/css">
	.st0{fill:#0080C3;}
	.st1{fill-rule:evenodd;clip-rule:evenodd;fill:#0080C3;}
</style>
<g>
	<path class="st0" d="M133.9,15.9l-0.7,2.3c-1-1.6-2.4-2.5-4.2-2.5c-4.4,0-9.1,5.3-10.8,11.8c-1.7,6.5,0,11.9,4.4,11.9
		c2,0,4-1.7,5.7-4.2l-1,3.4h7.7l7-22.6H133.9z M130.9,27.3c-1,2.7-2.1,4.8-3.7,4.8c-1.2,0-1-2.1-0.1-4.8c0.9-2.7,2.3-5,3.5-5
		C132.2,22.4,131.8,24.6,130.9,27.3z"/>
</g>
<g>
	<path class="st0" d="M184.8,15.9l-0.7,2.3c-1-1.6-2.4-2.5-4.3-2.5c-4.4,0-9.1,5.3-10.8,11.8c-1.7,6.5,0.1,11.9,4.4,11.9
		c2,0,4-1.7,5.7-4.2l-1,3.4h7.8l7-22.6H184.8z M181.8,27.3c-1,2.7-2.1,4.8-3.7,4.8c-1.2,0-1.1-2.1-0.1-4.8c1-2.7,2.3-5,3.5-5
		C183.1,22.4,182.7,24.6,181.8,27.3z"/>
</g>
<path class="st1" d="M203.6,25.7c0.1-0.9,0-1.7-0.6-2c-0.7-0.4-1.9,0.4-2.6,1.8c-0.1,0.2-0.1,0.4-0.2,0.5l-3.9,12.5h-8.1l7-22.6h8.1
	l-1,3.3c1.9-3.3,5.6-4.8,8.4-3.4c2.7,1.3,2.5,4.1,1.8,7.2l-4.8,15.5h-8.1L203.6,25.7L203.6,25.7z"/>
<path class="st1" d="M116.1,28.1c-3.4,11.4-11.1,13.5-15,12.5c-2.1-0.7-3.6-2.3-4.4-4.5c-2,3-5.4,5.7-9.4,4.5c-4.1-1.3-5-6-2.8-12.4
	l8-24.6h7.9l-8.2,25.9c-0.4,1.4-0.2,2.4,1,2.3c1,0,1.9-0.8,2.5-2.4c0.1-0.2,0.2-0.4,0.3-0.6l8.2-25.2h7.9l-8.2,25.9
	c-0.4,1.4-0.2,2.4,1,2.3c1,0,1.9-0.8,2.5-2.4c0.1-0.2,0.1-0.4,0.2-0.6l8.2-25.2h8.2L116.1,28.1L116.1,28.1z"/>
<g>
	<path class="st0" d="M265.6,15.9l-0.7,2.3c-0.9-1.6-2.4-2.5-4.2-2.5c-4.4,0-9.1,5.3-10.8,11.8c-1.7,6.5,0,11.9,4.4,11.9
		c2,0,4-1.7,5.7-4.2l-1,3.4h7.8l7-22.6H265.6z M262.5,27.3c-0.9,2.7-2.1,4.8-3.7,4.8c-1.2,0-1.1-2.1-0.1-4.8c1-2.7,2.4-5,3.5-5
		C263.9,22.4,263.5,24.6,262.5,27.3z"/>
</g>
<g>
	<path class="st0" d="M232.4,28.7c1.7-5.2,1.5-10.8-2.3-12.8c-4.5-2.2-10.7-0.2-14.9,5.6c-4.1,5.9-4.5,13.6-0.1,16
		c4.5,2.5,10.6,1,14.7-4.5l-6-3.1c-0.9,1.7-2.4,2.5-3.3,2c-0.9-0.5-0.9-2-0.3-3.3H232.4z M222.4,22.9c0.9-1.6,2.1-1.9,2.9-1.5
		c0.6,0.4,0.8,1.2,0.4,2.7H222C222.1,23.7,222.3,23.2,222.4,22.9z"/>
</g>
<path class="st1" d="M151.3,34.4c-1.2,2-3.5,4.6-7,4.6c-6,0-5.2-6.3-4.1-9.8c1.1-3.5,4.2-13.3,4.2-13.3h7.5l-4.9,15.4
	c-0.3,1,0.1,1.4,0.7,1.4c0.7,0,1.1-0.3,1.6-1.4l5-15.4h7.1l-4.9,15.2c-0.3,0.9,0,1.4,0.7,1.4c0.7,0,1-0.2,1.5-1.2l5-15.4h7.4
	c0,0-2.5,8.5-4.5,14.6c-2,6.1-5.5,8.5-10.3,8.5C153.1,39,151.4,36.8,151.3,34.4L151.3,34.4z"/>
<g>
	<path class="st0" d="M225.6,56.3c1.1-3.4,1-7.2-1.6-8.5c-2.9-1.5-7.1-0.1-9.8,3.7c-2.7,3.9-3,9-0.1,10.6c3,1.6,7,0.6,9.8-3l-4-2
		c-0.6,1.1-1.6,1.6-2.2,1.3c-0.6-0.3-0.6-1.3-0.2-2.2H225.6z M219,52.4c0.6-1,1.4-1.2,1.9-1c0.4,0.3,0.5,0.8,0.3,1.8l-2.5,0
		C218.8,52.9,218.9,52.6,219,52.4z"/>
</g>
<g>
	<path class="st0" d="M179.5,47.4l-0.4,1.5c-0.7-1.1-1.6-1.7-2.9-1.7c-2.9,0-6.1,3.5-7.2,7.9c-1.1,4.3,0,7.8,2.9,7.8
		c1.3,0,2.6-1.1,3.8-2.8l-0.7,2.3h5.2l4.6-15H179.5z M177.5,55c-0.6,1.8-1.4,3.2-2.4,3.2c-0.8,0-0.7-1.4-0.1-3.2
		c0.6-1.8,1.6-3.3,2.3-3.3C178.3,51.7,178.1,53.2,177.5,55z"/>
</g>
<path class="st1" d="M237.4,28.3c-2.7-2-3.7-4.8-2.3-8c1.5-4,5.8-6.4,11.4-5.3c2.6,0.5,3.5,1.2,5,2.3l-4.4,5.6
	c-0.2-0.5-0.6-1-1.3-1.4c-1.3-0.8-2.7-0.7-3.1,0.1c-0.4,0.8-0.5,1.7,1.5,2.6l0.3,0.1c1.4,0.9,3,1.5,3.6,5.2c0,6.8-6.7,9.9-12.2,8.9
	c-2.3-0.4-3.8-1-5.8-2.8l4.5-5.7c0.3,0.7,0.7,1.5,1.7,2c1.4,0.7,2.9,0.5,3.4-0.4c0.4-0.9,0.4-1.8-1.3-2.6L237.4,28.3L237.4,28.3z"/>
<path class="st1" d="M192.6,54.1c0.1-0.6,0-1.2-0.4-1.4c-0.5-0.2-1.3,0.3-1.7,1.2c-0.1,0.1-0.1,0.3-0.2,0.4l-2.6,8.3h-5.3l4.7-15
	h5.3l-0.7,2.2c1.2-2.2,3.7-3.2,5.6-2.3c1.8,0.9,1.7,2.8,1.2,4.8l-3.2,10.4h-5.3L192.6,54.1L192.6,54.1z"/>
<path class="st1" d="M126.2,54.4c0.1-0.7,0-1.2-0.4-1.4c-0.5-0.2-1.3,0.3-1.7,1.2c-0.1,0.1-0.1,0.2-0.2,0.4l-2.6,8.3H116l4.6-15h5.3
	l-0.7,2.2c1.2-2.2,3.7-3.2,5.6-2.3c1.8,0.9,1.6,2.8,1.2,4.8l-3.2,10.3h-5.3L126.2,54.4L126.2,54.4z"/>
<polygon class="st1" points="114.9,41.7 120.6,41.7 113.8,62.9 108,62.9 114.9,41.7 "/>
<path class="st1" d="M146.7,47.7h5.5l-3,9.3c-0.2,0.5-0.1,1.1,0.7,1.3c0.5,0.1,1.1-0.3,1.3-0.8l3.3-9.8l5.5,0l-3.2,9.5
	c-1.2,3.4-4.1,5.7-8.4,5.7c-4.4,0-5.6-2.8-4.7-5.7C144.4,54.2,146.7,47.7,146.7,47.7L146.7,47.7z"/>
<path class="st1" d="M161.4,47.7c0,0-4.4,13.1-4.9,14.8h5.5c0,0,1.5-4.3,1.8-5.2c0,0,1.3-5.9,5.1-3.8l2-6.2c0,0-2.3-0.4-4.5,1.9
	l0.5-1.5H161.4L161.4,47.7z"/>
<path class="st1" d="M208.1,53c0.1-0.8-0.1-1.4-0.5-1.6c-0.8-0.4-1.9,0.6-3,2.9c-0.9,1.9-1.2,3.7-0.2,4.1c0.7,0.3,1.6-0.4,2.4-1.7
	l4,1.7c-2.2,4.1-7.2,5.7-10,3.9c-2.9-1.8-2.8-6-0.4-10.1c2.5-4.3,7.4-6.1,10.4-4.5c1.8,1,2.3,2.8,2,4.9L208.1,53L208.1,53z"/>
<path class="st1" d="M0,32.8c0-1,0.1-1.9,0.2-2.9c3.6,0.3,4.3,2,7.4,2c3.5,0,5.2-2,8.6-2c3.4,0,5.2,2,8.6,2c1.5,0,2.7-0.4,3.8-0.8
	v2.9c-1.1,0.4-2.3,0.8-3.8,0.8c-3.4,0-5.2-2-8.6-2c-3.4,0-5.2,2-8.6,2C4.4,34.8,3.8,33.1,0,32.8L0,32.8z"/>
<path class="st1" d="M42.2,45c-0.8,0-1.6-0.1-2.3-0.3l2.5-2.6c3.3-0.1,3.9-2,8.4-2c4.8,0,5.2,2,8.7,2c2.6,0,4.2-1.1,6.3-1.7
	c-0.2,1.1-0.5,2.1-0.8,3.1c-1.7,0.6-3.3,1.4-5.5,1.4c-3.5,0-4-2-8.7-2C46.2,43,45.7,45,42.2,45L42.2,45z"/>
<path class="st1" d="M20,2.7C24.1,1,28.6,0,33.3,0s9.2,1,13.3,2.7C45.2,3.3,44.2,4,42.2,4c-3.5,0-5.2-2-8.7-2c-3.4,0-5.2,2-8.6,2
	C22.9,4,21.5,3.3,20,2.7L20,2.7z"/>
<path class="st1" d="M11.3,8.3C13,6.8,14.9,5.4,17,4.3c3,0.2,4.7,1.9,7.8,2c3.5,0,5.2-2,8.6-2c3.5,0,5.3,2,8.7,2
	c3.1,0,3.9-1.7,7.5-2c1.8,1,3.4,2.1,4.9,3.4c-1-0.3-2.1-0.6-3.8-0.6c-4.6,0-5.2,2-8.6,2c-3.5,0-5.2-2-8.7-2c-3.4,0-5.2,2-8.6,2
	c-3.4,0-5.2-2-8.6-2C14.2,7.1,12.8,7.8,11.3,8.3L11.3,8.3z"/>
<path class="st1" d="M6.1,14.1c0.7-1,1.4-1.9,2.2-2.7c3-0.2,4.8-2,8-2c3.4,0,5.2,2,8.6,2c3.5,0,5.2-2,8.6-2c3.5,0,5.3,2,8.7,2
	c3.5,0,4-2,8.6-2c4.2,0,5,1.6,7.5,1.9c0.8,0.9,1.6,1.9,2.3,2.9c-0.3,0-0.7,0.1-1.1,0.1c-3.5,0-4-2-8.7-2c-4.6,0-5.2,2-8.6,2
	c-3.5,0-5.2-2-8.7-2c-3.4,0-5.2,2-8.6,2c-3.4,0-5.2-2-8.6-2c-3.4,0-5.2,2-8.6,2C7,14.2,6.5,14.2,6.1,14.1L6.1,14.1z"/>
<path class="st1" d="M3.6,18.3C4,17.5,4.4,16.8,4.9,16c0.8,0.3,1.6,0.5,2.7,0.5c3.5,0,5.2-2,8.6-2s5.2,2,8.6,2c3.5,0,5.2-2,8.6-2
	c3.5,0,5.3,2,8.7,2c3.5,0,4-2,8.6-2c4.8,0,5.2,2,8.7,2c0.9,0,1.6-0.1,2.4-0.3c0.5,0.8,0.9,1.6,1.3,2.4c-1.1,0.4-2.2,0.8-3.7,0.8
	c-3.5,0-4-2-8.7-2c-4.6,0-5.2,2-8.6,2c-3.5,0-5.2-2-8.7-2c-3.4,0-5.2,2-8.6,2c-3.4,0-5.2-2-8.6-2c-3.4,0-5.2,2-8.6,2
	C5.8,19.4,4.8,18.8,3.6,18.3L3.6,18.3z"/>
<path class="st1" d="M1.7,22.8c0.3-0.9,0.6-1.7,1-2.6c1.7,0.6,2.7,1.4,4.9,1.4c3.5,0,5.2-2,8.6-2c3.4,0,5.2,1.9,8.6,2
	c3.5,0,5.2-2,8.6-2c3.5,0,5.3,2,8.7,2c3.5,0,4-2,8.6-2c4.8,0,5.2,2,8.7,2c1.8,0,3.2-0.6,4.6-1.1c0.4,0.8,0.7,1.7,1,2.5
	c-1.8,0.6-3.3,1.4-5.5,1.4c-3.5,0-4-2-8.7-2c-4.6,0-5.2,2-8.6,2c-3.5,0-5.2-2-8.7-2c-3.4,0-5.2,2-8.6,2c-3.4,0-5.2-2-8.6-2
	c-3.4,0-5.2,2-8.6,2C5,24.5,4.1,23.3,1.7,22.8L1.7,22.8z"/>
<path class="st1" d="M0.5,27.7c0.2-1,0.4-1.9,0.6-2.8c2.9,0.5,3.7,1.9,6.5,1.9c3.5,0,5.2-2,8.6-2s5.2,1.9,8.6,2c3.5,0,5.2-2,8.6-2
	c3.5,0,5.3,2,8.7,2c3.5,0,4-2,8.6-2c4.8,0,5.2,2,8.7,2c2.5,0,4.1-1.1,6.1-1.6c0.2,0.9,0.4,1.8,0.5,2.7c-2.3,0.5-4,1.8-6.7,1.8
	c-3.5,0-4-2-8.7-2c-4.6,0-5.2,2-8.6,2c-3.5,0-5.2-2-8.7-2c-3.4,0-5.2,2-8.6,2c-3.4,0-5.2-2-8.6-2c-3.4,0-5.2,2-8.6,2
	C4.5,29.6,3.8,28.1,0.5,27.7L0.5,27.7z"/>
<path class="st1" d="M48,63.2c-4.4,2.2-9.4,3.4-14.7,3.4c-5.2,0-10.2-1.2-14.6-3.4H48L48,63.2z"/>
<path class="st1" d="M55,58.6c-1.1,1-2.3,1.8-3.5,2.6H15.2c-1.2-0.8-2.4-1.7-3.5-2.6H55L55,58.6z"/>
<path class="st1" d="M26.6,44.8c-0.5,0.1-1.1,0.2-1.7,0.2c-3.4,0-5.2-2-8.6-2c-3.4,0-5.2,2-8.6,2c-2.7,0-3.6-1.2-6.1-1.7
	c-0.3-1-0.6-2-0.8-3c3.1,0.4,3.9,1.9,6.8,1.9c3.5,0,5.2-2,8.6-2c3.4,0,5.2,2,8.6,2l1.3,1.2c0.2,0.3,0.4,0.7,0.4,1.1
	C26.6,44.6,26.6,44.7,26.6,44.8L26.6,44.8z"/>
<path class="st1" d="M27.4,37.2l0.2,0.1l1,0.8c-0.5-0.4-1-0.8-1.5-1.2L27.4,37.2L27.4,37.2z"/>
<path class="st1" d="M26.9,36.8c0.6-0.1,1.2-0.4,1.8-0.5v1.9l-1-0.8l-0.2-0.1l-0.3-0.2L26.9,36.8L26.9,36.8z"/>
<path class="st1" d="M22.2,39.4c-1.9-0.6-3.5-1.6-6-1.6c-3.4,0-5.2,2-8.6,2c-3.1,0-3.8-1.6-7.3-1.9C0.2,37,0.1,36,0.1,35
	c3.7,0.3,4.4,2,7.5,2c3.5,0,5.2-2,8.6-2c0.6,0,1.2,0.1,1.7,0.1l2,2L22.2,39.4L22.2,39.4z"/>
<path class="st1" d="M37.9,38.9l-0.1,0V36c0.7,0.3,1.5,0.6,2.3,0.8L37.9,38.9L37.9,38.9z"/>
<path class="st1" d="M50.8,37.9c-2.9,0-4.1,0.8-5.5,1.4l4-4.1c0.5,0,1-0.1,1.6-0.1c4.8,0,5.2,2,8.7,2c2.9,0,4.6-1.4,7.1-1.9
	c0,1-0.1,1.9-0.3,2.9c-2.3,0.5-4,1.8-6.8,1.8C56,39.9,55.6,37.9,50.8,37.9L50.8,37.9z"/>
<path class="st1" d="M37.8,30.9c1.3,0.5,2.6,1,4.4,1c3.5,0,4-2,8.6-2c4.8,0,5.2,2,8.7,2c2.9,0,4.5-1.4,7-1.9c0.1,1,0.1,1.9,0.1,2.8
	c-2.5,0.5-4.2,1.9-7.1,1.9c-3.5,0-4-2-8.7-2c-4.6,0-5.2,2-8.6,2c-1.8,0-3.1-0.5-4.4-1V30.9L37.8,30.9z"/>
<path class="st1" d="M59.6,53.8c-0.8,1-1.6,2-2.5,2.9H9.5c-0.9-0.9-1.7-1.9-2.5-2.9h19.6h1.5v-8.6c0,0,0-1.6-0.8-2.8L21,36.2
	c0,0,2.2,0.9,4,0.8l4.1,3.4c0,0,1,0.6,1-0.6v-9.3c0,0,3.1-1.4,6.2-0.2V41c0,0,0,1.6,1.3,0.3l4.3-4.3c0,0,1.2,0.1,2.5-0.3
	c0,0,1.2-0.4,1.8-0.8l0.2-0.1L37.6,45c0,0-0.5,0.7-0.5,2.3v6.5h1.5H59.6L59.6,53.8z"/>
<path class="st1" d="M135.1,56.8c-1.8-1.3-2.5-3.2-1.5-5.3c1-2.7,3.8-4.3,7.6-3.5c1.7,0.4,2.3,0.8,3.3,1.5l-2.9,3.8
	c-0.1-0.4-0.4-0.7-0.8-1c-0.9-0.5-1.8-0.5-2.1,0.1c-0.3,0.5-0.4,1.2,1,1.8l0.2,0.1c0.9,0.6,2,1,2.4,3.5c0,4.5-4.5,6.6-8.1,5.9
	c-1.5-0.3-2.5-0.7-3.8-1.9l2.9-3.8c0.2,0.5,0.5,1,1.2,1.3c0.9,0.5,1.9,0.4,2.2-0.3c0.3-0.6,0.3-1.2-0.8-1.8L135.1,56.8L135.1,56.8z"
	/>
</svg>
