<?xml version="1.0" encoding="utf-8"?>
<!-- Generator: Adobe Illustrator 22.1.0, SVG Export Plug-In . SVG Version: 6.00 Build 0)  -->
<svg version="1.1" id="Layer_1" xmlns="http://www.w3.org/2000/svg" xmlns:xlink="http://www.w3.org/1999/xlink" x="0px" y="0px"
	 viewBox="0 0 38.5 38.5" width="38.5px" height="38.5px" style="enable-background:new 0 0 38.5 38.5;" xml:space="preserve">
<style type="text/css">
	.st0{fill:none;stroke:#000000;stroke-width:1.5;stroke-linecap:round;stroke-linejoin:round;stroke-miterlimit:10;}
</style>
<g>
	<path class="st0" d="M9.3,15V0.8h19.9V15c0,5.5-4.5,10-10,10S9.3,20.5,9.3,15z"/>
	<path class="st0" d="M13.6,37.8h11.4H13.6z"/>
	<path class="st0" d="M19.2,24.9v12.8V24.9z"/>
	<path class="st0" d="M9.3,3.6H0.8c0,0,0,11.4,8.5,11.4V3.6z"/>
	<path class="st0" d="M29.2,3.6h8.5c0,0,0,11.4-8.5,11.4V3.6z"/>
	<polygon class="st0" points="19.2,5 17.1,9.3 12.8,9.3 16.4,12.1 15,17.1 19.2,14.3 23.5,17.1 22.1,12.1 25.7,9.3 21.4,9.3 	"/>
</g>
</svg>
