<?xml version="1.0" encoding="UTF-8"?>
<svg width="37px" height="37px" viewBox="0 0 37 37" version="1.1" xmlns="http://www.w3.org/2000/svg" xmlns:xlink="http://www.w3.org/1999/xlink">
    <!-- Generator: Sketch 51.3 (57544) - http://www.bohemiancoding.com/sketch -->
    <title>Icons/Information</title>
    <desc>Created with Sketch.</desc>
    <defs>
        <polygon id="path-1" points="0 0 39.4421769 0 39.4421769 38 0 38"></polygon>
    </defs>
    <g id="Auto-Show-2019" stroke="none" stroke-width="1" fill="none" fill-rule="evenodd">
        <g id="AL-AutoShow2019" transform="translate(-514.000000, -747.000000)">
            <g id="Know-before-you-go" transform="translate(150.000000, 732.000000)">
                <g id="Icons/Information" transform="translate(363.000000, 14.000000)">
                    <g id="Group-3" stroke-width="1" transform="translate(19.632653, 19.000000) scale(-1, 1) translate(-19.632653, -19.000000) translate(-0.088435, 0.000000)">
                        <mask id="mask-2" fill="white">
                            <use xlink:href="#path-1"></use>
                        </mask>
                        <g id="Clip-2"></g>
                        <path d="M31.8395823,30.9550204 C28.734351,34.0942965 24.4970585,35.8624868 20.0745823,35.8646028 C17.2274054,35.8684821 14.4274531,35.1396933 11.9456027,33.7485935 C11.7267252,33.6226028 11.4569973,33.6226028 11.2381197,33.7485935 L8.04737143,35.8152292 L8.66288163,31.7172246 C8.69339184,31.496278 8.61733741,31.2738325 8.45771156,31.1176886 C1.95594286,24.7254891 1.88289524,14.2888023 8.2945483,7.80676056 C14.7062014,1.32471879 25.1746503,1.25189281 31.676419,7.64400418 C38.1781878,14.0362037 38.2512354,24.4728905 31.8395823,30.9550204 M28.4276571,3.56010626 C25.8537456,2.20118747 22.9869361,1.48703434 20.0745823,1.47945197 C10.1616844,1.47768863 2.12423537,9.48784176 2.12246667,19.3705749 C2.12158231,24.0354937 3.9480381,28.5163197 7.21245306,31.8582037 L6.46252109,37.1764404 C6.39707891,37.5605842 6.65619456,37.9248023 7.04141905,37.9900459 C7.21926259,38.0201991 7.40188163,37.9814056 7.5520449,37.8817768 L11.6271469,35.1874798 C20.3873782,39.8127234 31.2498952,36.4820367 35.889215,27.7484729 C40.5285347,19.0148209 37.1878884,8.18526172 28.4276571,3.56010626" id="Fill-1" fill="#232C3A" mask="url(#mask-2)"></path>
                    </g>
                    <path d="M16.6303928,28.301954 L16.6303928,27.1736797 L17.2265863,27.1736797 C17.6185481,27.1736797 17.9363405,26.8579391 17.9363405,26.4685082 L17.9363405,17.8795196 C17.9363405,17.4900887 17.6185481,17.1743482 17.2265863,17.1743482 L16.6303928,17.1743482 L16.6303928,16.0460738 L21.3289656,16.0460738 L21.3289656,26.4685082 C21.3289656,26.8579391 21.6467581,27.1736797 22.0387198,27.1736797 L22.6278158,27.1736797 L22.6349134,28.301954 L16.6303928,28.301954 Z M23.3446676,25.7633367 L22.7555716,25.7633367 L22.7555716,15.3409023 C22.7555716,14.9514714 22.4377791,14.6357309 22.0458174,14.6357309 L15.9206386,14.6357309 C15.5286768,14.6357309 15.2108844,14.9514714 15.2108844,15.3409023 L15.2108844,17.8795196 C15.2108844,18.2689506 15.5286768,18.5846911 15.9206386,18.5846911 L16.5168321,18.5846911 L16.5168321,25.7633367 L15.9206386,25.7633367 C15.5286768,25.7633367 15.2108844,26.0790773 15.2108844,26.4685082 L15.2108844,29.0071255 C15.2108844,29.3965565 15.5286768,29.712297 15.9206386,29.712297 L23.3446676,29.712297 C23.7366293,29.712297 24.0544218,29.3965565 24.0544218,29.0071255 L24.0544218,26.4685082 C24.0544218,26.0790773 23.7366293,25.7633367 23.3446676,25.7633367 Z" id="Fill-4" fill="#232C3A"></path>
                    <path d="M19.2346939,12.1749442 C18.3795038,12.1749442 17.6862306,11.4837745 17.6862306,10.6311791 C17.6823417,9.77858369 18.3724331,9.08424184 19.2276233,9.08036481 L19.2346939,9.08036481 L19.2346939,9.08741396 C20.089884,9.08741396 20.7831572,9.77858369 20.7831572,10.6311791 C20.7831572,11.4837745 20.089884,12.1749442 19.2346939,12.1749442 M19.2346939,7.67053364 C17.5984666,7.67053364 16.2721088,8.99286716 16.2721088,10.6241299 C16.2721088,12.2553927 17.5984666,13.5777262 19.2346939,13.5777262 C20.8709211,13.5777262 22.1972789,12.2553927 22.1972789,10.6241299 C22.1972789,8.99286716 20.8708327,7.67053364 19.2346939,7.67053364" id="Fill-6" fill="#232C3A"></path>
                </g>
            </g>
        </g>
    </g>
</svg>