<?xml version="1.0" encoding="UTF-8"?>
<svg width="41px" height="35px" viewBox="0 0 41 35" version="1.1" xmlns="http://www.w3.org/2000/svg" xmlns:xlink="http://www.w3.org/1999/xlink">
    <!-- Generator: Sketch 51.3 (57544) - http://www.bohemiancoding.com/sketch -->
    <title>Icon/Light</title>
    <desc>Created with Sketch.</desc>
    <defs></defs>
    <g id="Auto-Show-2019" stroke="none" stroke-width="1" fill="none" fill-rule="evenodd">
        <g id="AL-AutoShow2019" transform="translate(-608.000000, -1642.000000)" fill="#232C3A">
            <g id="Must-See" transform="translate(2.000000, 1628.000000)">
                <g id="Group-2" transform="translate(607.000000, 0.000000)">
                    <g id="Group">
                        <g id="Icon/Light" transform="translate(19.802632, 31.500000) rotate(-180.000000) translate(-19.802632, -31.500000) translate(0.000000, 14.000000)">
                            <path d="M20.0254462,23.5091681 C15.0543692,23.5091681 11.0103692,19.543306 11.0103692,14.6689526 C11.0103692,11.9727457 12.2420615,9.45757328 14.3900615,7.76882328 C14.8540615,7.40434052 15.5319077,7.47705603 15.9036,7.93205603 C16.2759077,8.38705603 16.2014462,9.05175431 15.7371385,9.41653879 C14.1020615,10.7024871 13.1642154,12.616625 13.1642154,14.6689526 C13.1642154,18.3789526 16.2420615,21.3970991 20.0254462,21.3970991 C23.8085231,21.3970991 26.8866769,18.3789526 26.8866769,14.6689526 C26.8866769,10.9589526 23.8085231,7.94050431 20.0254462,7.94050431 C19.5716,7.94050431 19.1168308,7.98455603 18.6740615,8.07115086 C18.0919077,8.18459914 17.5239077,7.81378017 17.4072923,7.24201293 C17.2909846,6.66964224 17.6697538,6.11386638 18.2531385,5.99981466 C18.8343692,5.88636638 19.4306769,5.82843534 20.0254462,5.82843534 C24.9962154,5.82843534 29.0405231,9.79429741 29.0405231,14.6689526 C29.0405231,19.543306 24.9962154,23.5091681 20.0254462,23.5091681" id="Fill-1"></path>
                            <path d="M15.0644923,9.64989224 C14.4697231,9.64989224 13.9875692,9.17709052 13.9875692,8.59385776 L13.9875692,1.05618534 C13.9875692,0.472952586 14.4697231,0.000150862069 15.0644923,0.000150862069 L24.9866462,0.000150862069 C25.5814154,0.000150862069 26.0635692,0.472952586 26.0635692,1.05618534 L26.0635692,5.11950431 C26.0635692,5.70273707 25.5814154,6.17553879 24.9866462,6.17553879 C24.3915692,6.17553879 23.9097231,5.70273707 23.9097231,5.11950431 L23.9097231,2.11221983 L16.1414154,2.11221983 L16.1414154,8.59385776 C16.1414154,9.17709052 15.6592615,9.64989224 15.0644923,9.64989224" id="Fill-3"></path>
                            <path d="M32.0219692,12.2331034 C31.5527385,12.2331034 31.1210462,11.9298707 30.9865846,11.4652155 C30.8241231,10.9043103 31.1564308,10.3201724 31.7284308,10.1608621 L38.6792,8.22560345 C39.2512,8.0662931 39.8468923,8.39215517 40.0090462,8.95306034 C40.1718154,9.51396552 39.8395077,10.0981034 39.2675077,10.2574138 L32.3167385,12.1926724 C32.2182769,12.2201293 32.1192,12.2331034 32.0219692,12.2331034" id="Fill-5"></path>
                            <path d="M38.5174769,22.2268405 C38.3944,22.2268405 38.2691692,22.2060216 38.1467077,22.1619698 L31.3633231,19.721625 C30.8048615,19.5206767 30.5180923,18.9142112 30.7230154,18.3662802 C30.9279385,17.8192543 31.5464,17.5386509 32.1051692,17.738694 L38.8885538,20.1790388 C39.4470154,20.3799871 39.7334769,20.9867543 39.5288615,21.5340819 C39.3688615,21.961625 38.9565538,22.2268405 38.5174769,22.2268405" id="Fill-7"></path>
                            <path d="M30.9994462,31.6147759 C30.6523692,31.6147759 30.3117538,31.4509397 30.1040615,31.1471034 L26.0788308,25.2622759 C25.7474462,24.7783103 25.8791385,24.1220603 26.3732923,23.7974052 C26.8674462,23.4712414 27.5363692,23.6015862 27.8674462,24.0861552 L31.8926769,29.9703793 C32.2240615,30.4546466 32.0923692,31.1108966 31.5982154,31.4355517 C31.4142154,31.5568448 31.2056,31.6147759 30.9994462,31.6147759" id="Fill-9"></path>
                            <path d="M19.2880615,34.8756897 C19.2745231,34.8756897 19.2606769,34.8753879 19.2468308,34.8747845 C18.6526769,34.8530603 18.1886769,34.3627586 18.2111385,33.7798276 L18.4819077,26.699569 C18.5043692,26.1169397 19.0068308,25.6592241 19.5985231,25.6839655 C20.1926769,25.7056897 20.6566769,26.1956897 20.6342154,26.7786207 L20.3634462,33.8594828 C20.3416,34.4288362 19.8640615,34.8756897 19.2880615,34.8756897" id="Fill-11"></path>
                            <path d="M7.85821538,30.7640948 C7.6256,30.7640948 7.39113846,30.6904741 7.19390769,30.5387069 C6.72590769,30.1784483 6.64467692,29.5143534 7.01206154,29.0557328 L11.4748308,23.4831897 C11.8419077,23.024569 12.5188308,22.9449138 12.9868308,23.3048707 C13.4545231,23.665431 13.5360615,24.3292241 13.1686769,24.7878448 L8.70590769,30.3603879 C8.4936,30.6256034 8.1776,30.7640948 7.85821538,30.7640948" id="Fill-13"></path>
                            <path d="M1.07667692,20.8505259 C0.607446154,20.8505259 0.175753846,20.5472931 0.0412923077,20.0826379 C-0.121169231,19.5217328 0.211138462,18.9375948 0.783138462,18.7782845 L7.73390769,16.8430259 C8.30621538,16.6831121 8.9016,17.0095776 9.06375385,17.5704828 C9.22652308,18.1313879 8.89421538,18.7155259 8.32221538,18.8748362 L1.37144615,20.8100948 C1.27298462,20.8375517 1.17390769,20.8505259 1.07667692,20.8505259" id="Fill-15"></path>
                            <path d="M8.31673846,11.3618147 C8.19366154,11.3618147 8.06843077,11.3409957 7.94596923,11.296944 L1.16258462,8.85659914 C0.604123077,8.65565086 0.317661538,8.04918534 0.522584615,7.50125431 C0.727507692,6.95422845 1.34627692,6.673625 1.90443077,6.8736681 L8.68781538,9.31401293 C9.24627692,9.51496121 9.53273846,10.1217284 9.32812308,10.669056 C9.16812308,11.0965991 8.75581538,11.3618147 8.31673846,11.3618147" id="Fill-17"></path>
                        </g>
                    </g>
                </g>
            </g>
        </g>
    </g>
</svg>