<?xml version="1.0" encoding="utf-8"?>
<!-- Generator: Adobe Illustrator 22.1.0, SVG Export Plug-In . SVG Version: 6.00 Build 0)  -->
<svg version="1.1" id="Layer_1" xmlns="http://www.w3.org/2000/svg" xmlns:xlink="http://www.w3.org/1999/xlink" x="0px" y="0px"
	 viewBox="0 0 89.4 101.5" style="enable-background:new 0 0 89.4 101.5;" xml:space="preserve">
<style type="text/css">
	.st0{opacity:0.15;fill:#999999;}
</style>
<path class="st0" d="M56.9,44.7c5.5,3.4,14.3-1.2,19.8-10.3c5.5-9.1,5.5-19.2,0-22.6c-5.5-3.4-14.3,1.2-19.8,10.3
	C51.4,31.2,51.4,41.3,56.9,44.7z M43.2,51.8c-14.3-4.7-45.8,23-40.4,32.9c5.4,9.9,21.1,7.3,29,8.1s12.3,14.6,26.2,5.9
	C67.1,93,56.9,56.4,43.2,51.8z M36.5,38.2c6.4,0.7,12.6-7.3,13.8-17.8C51.5,9.8,47.4,0.7,41,0S28.4,7.3,27.1,17.9
	C25.9,28.4,30.1,37.5,36.5,38.2z M13.3,55.6c6.3-0.7,10.7-9,9.8-18.5c-0.9-9.5-6.8-16.5-13.1-15.8c-6.3,0.7-10.7,9-9.8,18.5
	C1.1,49.3,6.9,56.4,13.3,55.6z M86.1,49.4c-4.9-4-13.7-1.2-19.6,6.2c-5.9,7.5-6.6,16.8-1.7,20.9c4.9,4,13.7,1.2,19.6-6.2
	C90.3,62.7,91.1,53.4,86.1,49.4z"/>
</svg>
