<?xml version="1.0" encoding="UTF-8"?>
<svg width="38px" height="38px" viewBox="0 0 38 38" version="1.1" xmlns="http://www.w3.org/2000/svg" xmlns:xlink="http://www.w3.org/1999/xlink">
    <!-- Generator: Sketch 51.3 (57544) - http://www.bohemiancoding.com/sketch -->
    <title>Icon/Ticket</title>
    <desc>Created with Sketch.</desc>
    <defs>
        <polygon id="path-1" points="2.72720589e-05 0.0412941176 38.0112286 0.0412941176 38.0112286 38.0588235 2.72720589e-05 38.0588235"></polygon>
    </defs>
    <g id="Auto-Show-2019" stroke="none" stroke-width="1" fill="none" fill-rule="evenodd">
        <g id="AL-AutoShow2019" transform="translate(-552.000000, -3075.000000)">
            <g id="Ticket-Prices" transform="translate(99.000000, 3062.000000)">
                <g id="Icon/Ticket" transform="translate(453.000000, 13.000000)">
                    <g id="Group-3" stroke-width="1" transform="translate(0.000000, -0.041294)">
                        <mask id="mask-2" fill="white">
                            <use xlink:href="#path-1"></use>
                        </mask>
                        <g id="Clip-2"></g>
                        <path d="M30.9842958,19.5574412 L29.6492725,18.2565588 L28.1634902,19.7670882 L29.4984544,21.0681471 L14.8739505,35.9366176 C14.8620719,35.9487353 14.8431014,35.9489706 14.8309272,35.9371471 L12.3080936,33.4786765 C13.0113596,31.3503235 12.4523518,28.9803235 10.81126,27.3810882 C9.17016827,25.7819706 6.7782367,25.2764412 4.65496454,26.0209118 L2.13207185,23.5625 C2.11995677,23.5506176 2.11972037,23.5317353 2.13159907,23.5196176 L16.756103,8.65108824 L18.0911263,9.95202941 L19.5769677,8.44144118 L18.2419443,7.1405 L23.1372072,2.1635 C23.149204,2.15138235 23.1681154,2.15114706 23.1801714,2.16297059 L25.5458044,4.46814706 C25.1318821,5.41979412 24.9714311,6.47438235 25.0911636,7.51414706 C25.2461776,8.86244118 25.868893,10.1290882 26.844837,11.0800294 C27.8212538,12.0315 29.1066348,12.6243824 30.4642336,12.7500294 C31.5105042,12.8466765 32.5669397,12.6650882 33.5136302,12.2325588 L35.8791449,14.5376765 C35.8912009,14.5494412 35.8914373,14.5684412 35.8796177,14.5805588 L30.9842958,19.5574412 Z M37.3649863,13.0270294 L33.8293316,9.58161765 L33.1153689,10.0446765 C31.62019,11.0136765 29.6080221,10.8141471 28.3306784,9.56938235 C27.0532756,8.32461765 26.8102056,6.32644118 27.7523456,4.81861765 L28.2028495,4.09873529 L24.6661309,0.652382353 C23.8172476,-0.174794118 22.450725,-0.160441176 21.619512,0.684558824 L0.613962986,22.0407353 C-0.217072784,22.8855588 -0.202593779,24.2458529 0.646230482,25.0730882 L4.21828958,28.5539118 L4.89702986,28.2114412 C6.36803764,27.4704412 8.14724137,27.7436176 9.32547776,28.8917941 C10.5036551,30.0398529 10.8158106,31.8046176 10.1026753,33.2840882 L9.77302675,33.9669118 L13.3451449,37.4477353 C14.1939692,38.2749706 15.56061,38.2604412 16.3916457,37.4156765 L37.3972538,16.0595 C38.2284078,15.2145 38.2138106,13.8542059 37.3649863,13.0270294 Z" id="Fill-1" fill="#232C3A" mask="url(#mask-2)"></path>
                    </g>
                    <path d="M20.6959938,9.49061176 L19.2101524,11.0012 L22.567804,14.2730824 L24.0535863,12.7624353 L20.6959938,9.49061176 Z M25.1726065,13.8529647 L23.6867652,15.3635529 L27.0444168,18.6354941 L28.5301991,17.1247882 L25.1726065,13.8529647 Z" id="Fill-4" fill="#232C3A"></path>
                </g>
            </g>
        </g>
    </g>
</svg>